/* XPM */ 
static const char * redsimpletank_xpm[] = {
"20 29 425 2",
"  	c None",
"! 	c black",
"# 	c #2E0D00",
"$ 	c #421300",
"% 	c #521700",
"& 	c #3D1100",
"' 	c #9A2B00",
"( 	c #B33200",
") 	c #B03100",
"* 	c #BB3500",
"+ 	c #541800",
", 	c #3E1100",
"- 	c #A02D00",
". 	c #B53300",
"0 	c #712000",
"1 	c #A42E00",
"2 	c #7E2300",
"3 	c #A82F00",
"4 	c #AF3100",
"5 	c #B83400",
"6 	c #C13600",
"7 	c #641C00",
"8 	c #411200",
"9 	c #581900",
": 	c #6D1F00",
"; 	c #952A00",
"< 	c #872600",
"= 	c #9E2C00",
"> 	c #AE3100",
"? 	c #B73300",
"@ 	c #912900",
"A 	c #AA3000",
"B 	c #812400",
"C 	c #A72F00",
"D 	c #BA3400",
"E 	c #C63800",
"F 	c #6C1E00",
"G 	c #3B1100",
"H 	c #5D1A00",
"I 	c #7C2300",
"J 	c #A32E00",
"K 	c #A22E00",
"L 	c #6F1F00",
"M 	c #9F2D00",
"N 	c #752100",
"O 	c #962A00",
"P 	c #AA3101",
"Q 	c #AD3100",
"R 	c #942A00",
"S 	c #B23200",
"T 	c #BE3500",
"U 	c #320E00",
"V 	c #5E1A00",
"W 	c #8E2800",
"X 	c #922900",
"Y 	c #A52E00",
"Z 	c #B23301",
"[ 	c #8A2801",
"] 	c #9F350C",
"^ 	c #C94E1E",
"_ 	c #D65522",
"` 	c #CB4F1E",
"a 	c #9C2C00",
"b 	c #B23504",
"c 	c #A43003",
"d 	c #9D2C00",
"e 	c #A23307",
"f 	c #8B2E09",
"g 	c #922A02",
"h 	c #B73603",
"i 	c #C53A03",
"j 	c #C33F0C",
"k 	c #C94917",
"l 	c #CB4916",
"m 	c #91310C",
"n 	c #A33910",
"o 	c #E5612E",
"p 	c #EC6733",
"q 	c #E3622F",
"r 	c #C34311",
"s 	c #AA3F15",
"t 	c #8F2C05",
"u 	c #982D03",
"v 	c #95320B",
"w 	c #B13F13",
"x 	c #7E2401",
"y 	c #D84F1A",
"z 	c #E45922",
"{ 	c #E35821",
"| 	c #8D3512",
"} 	c #A63A10",
"~ 	c #E8612C",
" !	c #EC6632",
"!!	c #E8622D",
"#!	c #BB3906",
"$!	c #B53402",
"%!	c #C03803",
"&!	c #C33D08",
"'!	c #C83E08",
"(!	c #CF4109",
")!	c #D64006",
"*!	c #D13B01",
"+!	c #742607",
",!	c #712001",
"-!	c #D54E19",
".!	c #E25720",
"0!	c #893311",
"1!	c #AB3A0E",
"2!	c #EC612B",
"3!	c #F76931",
"4!	c #F2642D",
"5!	c #EC5E26",
"6!	c #F3662F",
"7!	c #FC6D35",
"8!	c #FE6F37",
"9!	c #FF6F37",
":!	c #F46229",
";!	c #C43E0A",
"<!	c #6D1F01",
"=!	c #4F1600",
">!	c #CC4A17",
"?!	c #DF5620",
"@!	c #DB5520",
"A!	c #843111",
"B!	c #A93A0F",
"C!	c #E55F2B",
"D!	c #F36730",
"E!	c #F2642C",
"F!	c #BE3803",
"G!	c #FD7945",
"H!	c #FD6E36",
"I!	c #F96930",
"J!	c #FE6D34",
"K!	c #FF6F36",
"L!	c #D64B14",
"M!	c #762201",
"N!	c #391000",
"O!	c #B84315",
"P!	c #D65320",
"Q!	c #D5521F",
"R!	c #833010",
"S!	c #AC3A0E",
"T!	c #E25D29",
"U!	c #E8622E",
"V!	c #E65F2A",
"W!	c #FE6A30",
"X!	c #F1632C",
"Y!	c #EE642E",
"Z!	c #F0642D",
"[!	c #F8642A",
"]!	c #DE4B11",
"^!	c #862601",
"_!	c #310E00",
"`!	c #9F3B14",
"a!	c #C84F1F",
"b!	c #DB531E",
"c!	c #8E3310",
"d!	c #AF3B0E",
"e!	c #DD5B28",
"f!	c #D55C2D",
"g!	c #D05829",
"h!	c #FD6B32",
"i!	c #F56228",
"j!	c #E45720",
"k!	c #D55624",
"l!	c #CE4D1B",
"m!	c #D64D18",
"n!	c #C04413",
"o!	c #B33707",
"p!	c #842500",
"q!	c #973813",
"r!	c #C84E1E",
"s!	c #E2541D",
"t!	c #93340F",
"u!	c #882B06",
"v!	c #A23D15",
"w!	c #9C3E19",
"x!	c #9B3C17",
"y!	c #F6662E",
"z!	c #DF531C",
"{!	c #D9501B",
"|!	c #AF4218",
"}!	c #C54716",
"~!	c #E65820",
" #	c #BD481A",
"!#	c #A53306",
"##	c #832500",
"$#	c #2D0D00",
"%#	c #782A0B",
"&#	c #973610",
"'#	c #792809",
"(#	c #A4360B",
")#	c #C24A1B",
"*#	c #C94F1F",
"+#	c #BF491B",
",#	c #932900",
"-#	c #DE5520",
".#	c #C43A04",
"0#	c #B03404",
"1#	c #9B330B",
"2#	c #B03E11",
"3#	c #B64417",
"4#	c #953813",
"5#	c #A03105",
"6#	c #98340D",
"7#	c #C64614",
"8#	c #D34A14",
"9#	c #94320C",
":#	c #AA380C",
";#	c #DE5925",
"<#	c #E25E2A",
"=#	c #E05A26",
">#	c #BE3D0A",
"?#	c #A93000",
"@#	c #A53205",
"A#	c #932D05",
"B#	c #842703",
"C#	c #8B2903",
"D#	c #5F1B01",
"E#	c #AA3D13",
"F#	c #DD521B",
"G#	c #E4541B",
"H#	c #8F320E",
"I#	c #AD390C",
"J#	c #E15924",
"K#	c #D95A28",
"L#	c #CB5425",
"M#	c #902800",
"N#	c #972D04",
"O#	c #7B2605",
"P#	c #7A2301",
"Q#	c #732101",
"R#	c #6A1F01",
"S#	c #641D01",
"T#	c #621D02",
"U#	c #5D1B01",
"V#	c #421504",
"W#	c #AF3E12",
"X#	c #E9551B",
"Y#	c #E9541A",
"Z#	c #8B310E",
"[#	c #A7380C",
"]#	c #DC5622",
"^#	c #DD5A27",
"_#	c #CD5424",
"`#	c #992B00",
"a#	c #C0410F",
"b#	c #8A2F0B",
"c#	c #6D2408",
"d#	c #692307",
"e#	c #702507",
"f#	c #772607",
"g#	c #732507",
"h#	c #581C04",
"i#	c #67240A",
"j#	c #4C1601",
"k#	c #C34412",
"l#	c #F2571A",
"m#	c #E5531A",
"n#	c #842F0E",
"o#	c #AA380B",
"p#	c #E75921",
"q#	c #EF5F26",
"r#	c #DF5823",
"s#	c #A23105",
"t#	c #CD4814",
"u#	c #B23B0C",
"v#	c #AB3E14",
"w#	c #B14216",
"x#	c #BD4415",
"y#	c #C24615",
"z#	c #BC4314",
"{#	c #7A2707",
"|#	c #8C320F",
"}#	c #671E02",
"~#	c #C94613",
" $	c #E6531A",
"!$	c #D94F19",
"#$	c #7E2D0D",
"$$	c #AE390B",
"%$	c #EE5A20",
"&$	c #FA6125",
"'$	c #EF5B21",
"($	c #A93406",
")$	c #D14813",
"*$	c #A8360A",
"+$	c #7F2401",
",$	c #7D2401",
"-$	c #7F2502",
".$	c #852601",
"0$	c #7C2401",
"1$	c #722102",
"2$	c #9C3912",
"3$	c #6D2002",
"4$	c #C24312",
"5$	c #D84E18",
"6$	c #822E0D",
"7$	c #A9370B",
"8$	c #E3561F",
"9$	c #F55F24",
":$	c #EB5A21",
";$	c #A73306",
"<$	c #D54912",
"=$	c #BF3E0B",
">$	c #CC440F",
"?$	c #CC4611",
"@$	c #C74310",
"A$	c #C44310",
"B$	c #BC400F",
"C$	c #812906",
"D$	c #9D3912",
"E$	c #B94112",
"F$	c #D04C19",
"G$	c #D04C18",
"H$	c #7E2C0C",
"I$	c #9D330A",
"J$	c #D0501E",
"K$	c #E65922",
"L$	c #A33105",
"M$	c #D64A13",
"N$	c #A93609",
"O$	c #99340C",
"P$	c #9E360E",
"Q$	c #95330D",
"R$	c #8B300C",
"S$	c #872F0D",
"T$	c #6C2306",
"U$	c #A43A11",
"V$	c #6C1F01",
"W$	c #B33F12",
"X$	c #CB4A17",
"Y$	c #CF4B17",
"Z$	c #812D0C",
"[$	c #D04F1D",
"]$	c #E6561E",
"^$	c #DF4B11",
"_$	c #C23D09",
"`$	c #B33403",
"a$	c #B93603",
"b$	c #A83103",
"c$	c #972D03",
"d$	c #9D2E03",
"e$	c #902B03",
"f$	c #C14211",
"g$	c #792301",
"h$	c #BE4211",
"i$	c #D04B17",
"j$	c #C94816",
"k$	c #7C2B0C",
"l$	c #A3350A",
"m$	c #D8521D",
"n$	c #EC5920",
"o$	c #EB581E",
"p$	c #A83305",
"q$	c #CE410A",
"r$	c #D44912",
"s$	c #E04E15",
"t$	c #D24914",
"u$	c #C14514",
"v$	c #B44013",
"w$	c #C14413",
"x$	c #8C2D08",
"y$	c #BD4110",
"z$	c #C54411",
"{$	c #D34B16",
"|$	c #C84816",
"}$	c #792A0B",
"~$	c #AD380A",
" %	c #E0531C",
"!%	c #E7571F",
"#%	c #DB521D",
"$%	c #9E3005",
"%%	c #BB3D0C",
"&%	c #962E06",
"'%	c #702102",
"(%	c #6F2103",
")%	c #6C2103",
"*%	c #6B2003",
"+%	c #651E02",
",%	c #631D02",
"-%	c #97320A",
".%	c #C94410",
"0%	c #D54C16",
"1%	c #CA4815",
"2%	c #7B2A0B",
"3%	c #812602",
"4%	c #9D350C",
"5%	c #A0360D",
"6%	c #9B360E",
"7%	c #7F2603",
"8%	c #7B2301",
"9%	c #7B2300",
":%	c #812501",
";%	c #6E2001",
"<%	c #722101",
"=%	c #802400",
">%	c #9D3208",
"?%	c #9B3209",
"@%	c #9C3209",
"A%	c #722405",
"B%	c #952B01",
"C%	c #A42F01",
"D%	c #A22E01",
"E%	c #A83001",
"F%	c #AC3101",
"G%	c #B73401",
"H%	c #B43301",
"I%	c #A32F01",
"J%	c #9A2C01",
"K%	c #882600",
"L%	c #BD3500",
"M%	c #8A2700",
"N%	c #6B1E00",
"O%	c #7A2200",
"P%	c #5F1B00",
"Q%	c #822500",
"R%	c #732000",
"S%	c #701F00",
"T%	c #742100",
"U%	c #892700",
"V%	c #561800",
"W%	c #531700",
"X%	c #511700",
"Y%	c #501600",
"Z%	c #611B00",
"                  # $                   ",
"                  % &                   ",
"' ( ) *           + ,           - ) . 0 ",
"' ) ) 1 2 3 4 5 6 7 8 9 : ; ' < = > ? 0 ",
"@ A 3 - B C A D E F G H I J K L M > * N ",
"O P Q > R C A S T H U V W ) S X Y 3 Z [ ",
"] ^ _ ` a ( b c d e f : g h i < j k l m ",
"n o p q O r s t K ) C K u v w x y z { | ",
"} ~  !!!1 #!$!%!&!'!(!)!*!= +!,!-!{ .!0!",
"1!2!3!4!Q T 5!6!3!7!8!9!:!;!<!=!>!?!@!A!",
"B!C!D!E!A F!G!H!I!J!K!9!K!L!M!N!O!P!Q!R!",
"S!T!U!V!1 D 7!W!X!Y!Z!4![!]!^!_!`!a!b!c!",
"d!e!f!g!' ? h!i!j!k!l!m!n!o!p!# q!r!s!t!",
"u!v!w!x!@ 4 y!z!{!|!}!~! #!###$#%#&#} '#",
"(#)#*#+#,#M -#.#0#1#2#3#4#5#2 _!6#7#8#9#",
":#;#<#=#a ' >#5 ?#@#A#B#C#P D#$#E#F#G#H#",
"I#J#K#L#M#N#O#P#Q#R#S#T#S#U#V#_!W#X#Y#Z#",
"[#]#^#_#`#a#b#c#d#e#+!f#g#h#i#j#k#l#m#n#",
"o#p#q#r#s#t#u#v#w#x#y#y#z#{#|#}#~# $!$#$",
"$$%$&$'$($)$*$+$,$,$-$.$0$1$2$3$4$!$5$6$",
"7$8$9$:$;$<$=$>$?$@$A$@$B$C$D$R#E$F$G$H$",
"I$J$K$8$L$M$N$O$P$P$Q$R$S$T$U$V$W$X$Y$Z$",
"I$[$:$]$!#^$_$`$a$h b$c$d$e$f$g$h$i$j$k$",
"l$m$n$o$p$]!q$r$s$t$u$v$w$x$y$+$z${$|$}$",
"~$ %!%#%$%%%&%'%(%)%*%+%,%D#-%x .%0%1%2%",
"3%4%5%6%7%P#8%9%:%B g$;%: <%P#=%>%?%@%A%",
"B%C%P D%[ E%F%F%G%H%I%J%B%; = K%3 Z L%M%",
"N%9%O%N P%Q%##=%##< 9%R%L S%T%=!T%U%,#V%",
"=!W%X%Y%                        V H Z%U "};