/* XPM */ 
static const char * blueflag_xpm[] = {
"32 32 346 2",
"  	c None",
"! 	c black",
"# 	c #121212",
"$ 	c #3E3E3E",
"% 	c #343434",
"& 	c #3F3F42",
"' 	c #313131",
"( 	c #37347A",
") 	c #3B35D1",
"* 	c #0D05D5",
"+ 	c #0900DC",
", 	c #25227A",
"- 	c #1B14BB",
". 	c #1D16C5",
"0 	c #170FCD",
"1 	c #120AD0",
"2 	c #0900DD",
"3 	c #323232",
"4 	c #242076",
"5 	c #0701A8",
"6 	c #07009C",
"7 	c #0B059F",
"8 	c #110BB2",
"9 	c #1F18C6",
": 	c #120AD1",
"; 	c #251FB5",
"< 	c #2E2B76",
"= 	c #0904B4",
"> 	c #0600A6",
"? 	c #050090",
"@ 	c #09047D",
"A 	c #0D0782",
"B 	c #0E0899",
"C 	c #1C169A",
"D 	c #4D4A96",
"E 	c #312CA8",
"F 	c #000006",
"G 	c #2D2A77",
"H 	c #0803BA",
"I 	c #0700B7",
"J 	c #0600AF",
"K 	c #19148D",
"L 	c #363368",
"M 	c #211E68",
"N 	c #201D5F",
"O 	c #504F5E",
"P 	c #36338F",
"Q 	c #130EB3",
"R 	c #0F07CE",
"S 	c #0900DB",
"T 	c #0900D2",
"U 	c #23217C",
"V 	c #0701BD",
"W 	c #0801BB",
"X 	c #0600B6",
"Y 	c #19149F",
"Z 	c #706F73",
"[ 	c #7E7E85",
"] 	c #47457C",
"^ 	c #1F1E5D",
"_ 	c #22204E",
"` 	c #151263",
"a 	c #0B068C",
"b 	c #1913B4",
"c 	c #130BC2",
"d 	c #0B03BA",
"e 	c #0B049E",
"f 	c #23207F",
"g 	c #0801C0",
"h 	c #0901C1",
"i 	c #0902C1",
"j 	c #0F08B5",
"k 	c #5E5B88",
"l 	c #82818F",
"m 	c #1E1AA2",
"n 	c #2C2995",
"o 	c #52507C",
"p 	c #3E3D54",
"q 	c #1E1C47",
"r 	c #06024F",
"s 	c #050163",
"t 	c #080282",
"u 	c #0B068A",
"v 	c #150F9A",
"w 	c #413E7B",
"x 	c #747365",
"y 	c #24207D",
"z 	c #0801B8",
"{ 	c #0700B6",
"| 	c #0800B9",
"} 	c #0801BD",
"~ 	c #2F2AA4",
" !	c #86848F",
"!!	c #7B78A5",
"#!	c #6F6CA3",
"$!	c #444198",
"%!	c #212083",
"&!	c #302E67",
"'!	c #171370",
"(!	c #050168",
")!	c #06026A",
"*!	c #0D0972",
"+!	c #110D7B",
",!	c #302D5D",
"-!	c #494666",
".!	c #251FAF",
"0!	c #1209AB",
"1!	c #231F7E",
"2!	c #0700BA",
"3!	c #0700B4",
"4!	c #0700B0",
"5!	c #0700AF",
"6!	c #0A03AD",
"7!	c #434096",
"8!	c #939293",
"9!	c #5451A6",
":!	c #0907A0",
";!	c #030194",
"<!	c #18167D",
"=!	c #3A3875",
">!	c #130F84",
"?!	c #1B176A",
"@!	c #282553",
"A!	c #201C72",
"B!	c #201B84",
"C!	c #181477",
"D!	c #191575",
"E!	c #1F1A82",
"F!	c #1F199D",
"G!	c #333333",
"H!	c #231F80",
"I!	c #0800C1",
"J!	c #0700BE",
"K!	c #0700BC",
"L!	c #0800B8",
"M!	c #0700B3",
"N!	c #0E09AA",
"O!	c #454295",
"P!	c #6E6D96",
"Q!	c #1E1CA1",
"R!	c #04019D",
"S!	c #08048E",
"T!	c #2B286A",
"U!	c #464466",
"V!	c #2F2D5D",
"W!	c #151275",
"X!	c #080687",
"Y!	c #221E79",
"Z!	c #29257D",
"[!	c #140F89",
"]!	c #17136E",
"^!	c #171374",
"_!	c #0A03B1",
"`!	c #0900D9",
"a!	c #0800BE",
"b!	c #0800BF",
"c!	c #0801BF",
"d!	c #0800BD",
"e!	c #0801BC",
"f!	c #0D06B3",
"g!	c #2A26A4",
"h!	c #2E299F",
"i!	c #0E09A5",
"j!	c #0F0B82",
"k!	c #2F2E55",
"l!	c #4C4C55",
"m!	c #232073",
"n!	c #06018B",
"o!	c #040090",
"p!	c #0B088C",
"q!	c #403D6F",
"r!	c #4C4A53",
"s!	c #28256C",
"t!	c #090480",
"u!	c #060187",
"v!	c #0800B2",
"w!	c #0A039B",
"x!	c #0800BB",
"y!	c #0700BB",
"z!	c #0902BB",
"{!	c #1009B0",
"|!	c #0F0B83",
"}!	c #161341",
"~!	c #201D5C",
" #	c #171379",
"!#	c #2B2958",
"##	c #100C6D",
"$#	c #09047C",
"%#	c #1C1875",
"&#	c #4F4D60",
"'#	c #565456",
"(#	c #2A275A",
")#	c #090478",
"*#	c #050065",
"+#	c #04014C",
",#	c #030045",
"-#	c #272383",
".#	c #0C05C7",
"0#	c #0800C7",
"1#	c #0800C4",
"2#	c #0801BA",
"3#	c #0801B9",
"4#	c #0A03B3",
"5#	c #120D81",
"6#	c #151247",
"7#	c #0F0A6C",
"8#	c #0801A8",
"9#	c #0E0A66",
":#	c #110E44",
";#	c #100C74",
"<#	c #1D196D",
"=#	c #242164",
">#	c #161269",
"?#	c #09046A",
"@#	c #040057",
"A#	c #02002C",
"B#	c #000003",
"C#	c #353535",
"D#	c #2A2681",
"E#	c #0F08C1",
"F#	c #0A02C8",
"G#	c #0901CE",
"H#	c #0800CD",
"I#	c #0902C8",
"J#	c #0B04C2",
"K#	c #1009B5",
"L#	c #2A2685",
"M#	c #2E2D49",
"N#	c #120D77",
"O#	c #0802AC",
"P#	c #0801B2",
"Q#	c #0700AE",
"R#	c #0701A1",
"S#	c #0E0B4E",
"T#	c #0F0C56",
"U#	c #07028D",
"V#	c #060188",
"W#	c #050080",
"X#	c #05007C",
"Y#	c #050073",
"Z#	c #040054",
"[#	c #01001B",
"]#	c #24217A",
"^#	c #0901BC",
"_#	c #0901CA",
"`#	c #0900CF",
"a#	c #130BBF",
"b#	c #413E9B",
"c#	c #4C4A7A",
"d#	c #2A269D",
"e#	c #1C15C0",
"f#	c #1811C0",
"g#	c #110ABA",
"h#	c #08038B",
"i#	c #151248",
"j#	c #1D1977",
"k#	c #07018F",
"l#	c #060087",
"m#	c #060088",
"n#	c #060089",
"o#	c #05006F",
"p#	c #050062",
"q#	c #32305E",
"r#	c #0700A5",
"s#	c #060099",
"t#	c #0801B0",
"u#	c #0C05C1",
"v#	c #231DB1",
"w#	c #43408B",
"x#	c #211BAF",
"y#	c #0D05CD",
"z#	c #120ACF",
"{#	c #211ACF",
"|#	c #322CCD",
"}#	c #2C26C7",
"~#	c #1711BD",
" $	c #0B04B3",
"!$	c #1F1B83",
"#$	c #4D4B74",
"$$	c #150F9E",
"%$	c #060096",
"&$	c #050075",
"'$	c #06007E",
"($	c #060084",
")$	c #05008E",
"*$	c #404040",
"+$	c #0600A4",
",$	c #130BBC",
"-$	c #2822C7",
".$	c #130CB5",
"0$	c #0A02D4",
"1$	c #0901D8",
"2$	c #0900D5",
"3$	c #0B03D0",
"4$	c #1E17D0",
"5$	c #433DD4",
"6$	c #4D48D3",
"7$	c #2D26C7",
"8$	c #1711B5",
"9$	c #393690",
":$	c #464396",
";$	c #0E09AC",
"<$	c #06009E",
"=$	c #050082",
">$	c #05006B",
"?$	c #040060",
"@$	c #030052",
"A$	c #3F3F3F",
"B$	c #0900DA",
"C$	c #0800D4",
"D$	c #130CCC",
"E$	c #2A23D1",
"F$	c #433DD5",
"G$	c #423CD2",
"H$	c #2A24C8",
"I$	c #201BAC",
"J$	c #4E4C7C",
"K$	c #2E2A9D",
"L$	c #0B05AF",
"M$	c #0700AB",
"N$	c #06009C",
"O$	c #060086",
"P$	c #050072",
"Q$	c #2019CE",
"R$	c #2922D0",
"S$	c #231CD0",
"T$	c #1F18CF",
"U$	c #251ECE",
"V$	c #211AC4",
"W$	c #241F9D",
"X$	c #201B98",
"Y$	c #0903B4",
"Z$	c #0700B5",
"[$	c #0600A3",
"]$	c #060095",
"^$	c #060093",
"_$	c #1E17CB",
"`$	c #1610C0",
"a$	c #0B04BB",
"b$	c #0700AD",
"c$	c #0700C1",
"d$	c #0800C3",
"e$	c #303030",
"f$	c #3C3C3C",
"g$	c #191919",
"h$	c #252525",
"        # $                                                     ",
"        % &                                                     ",
"        ' ( ) * +                                               ",
"        ' , - . 0 1 2                                           ",
"        3 4 5 6 7 8 9 : ;                                       ",
"        3 < = > ? @ A B C D E F                                 ",
"        ' G H I J K L M N O P Q R S T                           ",
"        ' U V W X Y Z [ ] ^ _ ` a b c d e                       ",
"        3 f g h i j k l m n o p q r s t u v w x                 ",
"        3 y z { | } ~  !!!#!$!%!&!'!(!)!*!+!,!-!.!0!            ",
"        3 1!2!3!4!5!6!7!8!9!:!;!<!=!>!?!@!A!B!C!D!E!F!          ",
"        G!H!I!J!K!L!M!N!O!P!Q!R!S!T!U!V!W!X!Y!Z![!]!^!_!`!      ",
"        3 1!a!b!b!c!d!e!f!g!h!i!j!k!l!m!n!o!p!q!r!s!t!u!v!w!    ",
"        3 1!J!K!x!y!K!e!e!z!{!|!}!~! #!###$#%#&#'#(#)#*#+#,#    ",
"        % -#.#0#1#a!2#3#2#4#5#6#7#8#> 9#:#;#<#=#>#?#@#A#B#      ",
"        C#D#E#F#G#H#I#J#K#L#M#N#O#P#Q#R#S#T#U#V#W#X#Y#Z#[#      ",
"        % ]#Q#Q#^#_#`#a#b#c#d#e#f#g#P#Q#h#i#j#k#l#W#m#n#o#Z#p#  ",
"        G!q#r#s#6 t#u#v#w#x#y#z#{#|#}#~# $!$#$$$%$W#&$'$l#($)$  ",
"        G!*$      +$,$-$.$0$1$2$3$4$5$6$7$8$9$:$;$<$=$>$?$?$@$  ",
"        3 A$                B$C$G#D$E$F$G$H$I$J$K$L$M$N$O$P$    ",
"        G!*$                      Q$R$S$T$U$V$W$X$Y$Z$4![$]$^$  ",
"        G!A$                                _$`$a$a!d!y!| M!b$  ",
"        G!*$                                          c$d$1#    ",
"        G!*$                                                    ",
"        G!A$                                                    ",
"        3 A$                                                    ",
"        3 *$                                                    ",
"        3 *$                                                    ",
"        3 A$                                                    ",
"        3 $                                                     ",
"        e$f$                                                    ",
"        g$h$                                                    "};