/* XPM */ 
static const char * empty_xpm[] = {
"32 32 560 2",
"      c None",
"!     c #376C00",
"#     c #517600",
"$     c #516E00",
"%     c #367300",
"&     c #4A6E00",
"'     c #367600",
"(     c #4B6E00",
")     c #3C7600",
"*     c #4D6B00",
"+     c #3B7800",
",     c #467500",
"-     c #3D6800",
".     c #5C7C06",
"0     c #558021",
"1     c #407D06",
"2     c #536900",
"3     c #516800",
"4     c #317400",
"5     c #366800",
"6     c #4D7C00",
"7     c #377F00",
"8     c #377C00",
"9     c #3C7900",
":     c #446E00",
";     c #447700",
"<     c #3F6E00",
"=     c #4D7900",
">     c #446B03",
"?     c #597821",
"@     c #347706",
"A     c #4F6B01",
"B     c #367800",
"C     c #4B7E00",
"D     c #3C7A00",
"E     c #4A6A00",
"F     c #4A6D00",
"G     c #4A6800",
"H     c #4B6900",
"I     c #3A7C01",
"J     c #567C06",
"K     c #527901",
"L     c #516A00",
"M     c #2F6B00",
"N     c #5C7D00",
"O     c #577F00",
"P     c #527D00",
"Q     c #5B7F00",
"R     c #3C7700",
"S     c #4A7100",
"T     c #537300",
"U     c #557C00",
"V     c #377901",
"W     c #4D7906",
"X     c #376E01",
"Y     c #4A7601",
"Z     c #466900",
"[     c #3A7900",
"]     c #4D7E00",
"^     c #547900",
"_     c #327700",
"`     c #4E6600",
"a     c #326B00",
"b     c #4E7600",
"c     c #326800",
"d     c #4E6800",
"e     c #327500",
"f     c #4E7C00",
"g     c #327C00",
"h     c #516900",
"i     c #376B00",
"j     c #2F7300",
"k     c #517900",
"l     c #3C7800",
"m     c #527B00",
"n     c #527900",
"o     c #3C6C00",
"p     c #4D7800",
"q     c #517B00",
"r     c #557A00",
"s     c #557E00",
"t     c #4B7B00",
"u     c #356F00",
"v     c #4B7600",
"w     c #3B6B00",
"x     c #3B6800",
"y     c #4B6C00",
"z     c #377A00",
"{     c #4F6C00",
"|     c #326500",
"}     c #327600",
"~     c #4F7B00",
" !    c #4A7600",
"!!    c #366E00",
"#!    c #4A7900",
"$!    c #367900",
"%!    c #4F6A00",
"&!    c #4A7300",
"'!    c #2F6D00",
"(!    c #377700",
")!    c #577B00",
"*!    c #4D6900",
"+!    c #466600",
",!    c #3A7400",
"-!    c #4D6C00",
".!    c #577C00",
"0!    c #387A00",
"1!    c #336F00",
"2!    c #327900",
"3!    c #567D00",
"4!    c #4D7600",
"5!    c #567B00",
"6!    c #376F00",
"7!    c #517C00",
"8!    c #527A00",
"9!    c #3C7E00",
":!    c #4B7A00",
";!    c #366C00",
"<!    c #377600",
"=!    c #516F00",
">!    c #567900",
"?!    c #4F7800",
"@!    c #4B7500",
"A!    c #3A6500",
"B!    c #466A00",
"C!    c #3B7600",
"D!    c #566E00",
"E!    c #4F7600",
"F!    c #4E7900",
"G!    c #4E6C00",
"H!    c #3B6E00",
"I!    c #4B6F00",
"J!    c #3A7C00",
"K!    c #4D7A00",
"L!    c #5B7D00",
"M!    c #3B7900",
"N!    c #567E00",
"O!    c #377800",
"P!    c #517800",
"Q!    c #4C7A00",
"R!    c #397E00",
"S!    c #387D00",
"T!    c #4B7900",
"U!    c #3C6B00",
"V!    c #537500",
"W!    c #3D6B00",
"X!    c #336B00",
"Y!    c #327800",
"Z!    c #467600",
"[!    c #367500",
"]!    c #467900",
"^!    c #3B6900",
"_!    c #466B00",
"`!    c #376E00",
"a!    c #3C6D00",
"b!    c #3A6C00",
"c!    c #5B7C00",
"d!    c #537D00",
"e!    c #367C00",
"f!    c #4A6900",
"g!    c #366B00",
"h!    c #4A7400",
"i!    c #366700",
"j!    c #507500",
"k!    c #517A00",
"l!    c #547000",
"m!    c #536B00",
"n!    c #4F7E00",
"o!    c #517D00",
"p!    c #3B7C00",
"q!    c #3A7600",
"r!    c #3A6800",
"s!    c #467300",
"t!    c #3A6B00",
"u!    c #466800",
"v!    c #3A7300",
"w!    c #366D00",
"x!    c #306800",
"y!    c #347500",
"z!    c #387900",
"{!    c #516C00",
"|!    c #377900",
"}!    c #4A7B00",
"~!    c #4A6B00",
" #    c #366600",
"!#    c #496C00",
"##    c #3F7400",
"$#    c #416F00",
"%#    c #4F7500",
"&#    c #336200",
"'#    c #377500",
"(#    c #317900",
")#    c #4B6800",
"*#    c #4A7500",
"+#    c #317600",
",#    c #386E00",
"-#    c #4C7600",
".#    c #576E00",
"0#    c #577600",
"1#    c #496500",
"2#    c #316800",
"3#    c #537F00",
"4#    c #4D7D00",
"5#    c #3B6C00",
"6#    c #467B00",
"7#    c #416800",
"8#    c #487100",
"9#    c #547600",
":#    c #446600",
";#    c #357C00",
"<#    c #4A7F00",
"=#    c #4F7900",
">#    c #366500",
"?#    c #4A6500",
"@#    c #347B00",
"A#    c #597900",
"B#    c #3B7E00",
"C#    c #577900",
"D#    c #526A00",
"E#    c #4A7800",
"F#    c #527F00",
"G#    c #3E7C00",
"H#    c #527800",
"I#    c #576800",
"J#    c #527C00",
"K#    c #3B7D00",
"L#    c #517400",
"M#    c #317800",
"N#    c #316A00",
"O#    c #4B6D00",
"P#    c #377D00",
"Q#    c #547B00",
"R#    c #336900",
"S#    c #516B00",
"T#    c #337900",
"U#    c #376800",
"V#    c #3B7B00",
"W#    c #567C00",
"X#    c #386F00",
"Y#    c #536C00",
"Z#    c #577500",
"[#    c #3E6B00",
"]#    c #526900",
"^#    c #597C00",
"_#    c #557700",
"`#    c #516700",
"a#    c #4F6800",
"b#    c #4F7400",
"c#    c #4F6600",
"d#    c #567800",
"e#    c #496D00",
"f#    c #3D7400",
"g#    c #446900",
"h#    c #3E6A00",
"i#    c #386B00",
"j#    c #4A7200",
"k#    c #367200",
"l#    c #3C6F00",
"m#    c #537900",
"n#    c #567700",
"o#    c #386600",
"p#    c #566A00",
"q#    c #4D7300",
"r#    c #3C6800",
"s#    c #567500",
"t#    c #537B00",
"u#    c #385D00",
"v#    c #316200",
"w#    c #4E6A00",
"x#    c #427200",
"y#    c #407800",
"z#    c #477700",
"{#    c #506D00",
"|#    c #4F7300",
"}#    c #3D6D00",
"~#    c #4C6500",
" $    c #3C6500",
"!$    c #4B6B00",
"#$    c #527600",
"$$    c #516500",
"%$    c #326400",
"&$    c #4F7200",
"'$    c #376A00",
"($    c #516600",
")$    c #427700",
"*$    c #356800",
"+$    c #4A7700",
",$    c #3B6A00",
"-$    c #427300",
".$    c #437500",
"0$    c #3F7C00",
"1$    c #556800",
"2$    c #557001",
"3$    c #3F7001",
"4$    c #3C7602",
"5$    c #4E7905",
"6$    c #557800",
"7$    c #367A00",
"8$    c #377400",
"9$    c #3D7600",
":$    c #426C00",
";$    c #376600",
"<$    c #4E6F00",
"=$    c #427600",
">$    c #407C00",
"?$    c #487C00",
"@$    c #346C00",
"A$    c #3E7403",
"B$    c #417607",
"C$    c #507101",
"D$    c #437701",
"E$    c #4E7300",
"F$    c #3E7200",
"G$    c #4F6B00",
"H$    c #4C6800",
"I$    c #376500",
"J$    c #376400",
"K$    c #577700",
"L$    c #4F7A00",
"M$    c #457000",
"N$    c #3F6700",
"O$    c #4B7400",
"P$    c #387400",
"Q$    c #4C7100",
"R$    c #3C7500",
"S$    c #387100",
"T$    c #3A7500",
"U$    c #4C7300",
"V$    c #497001",
"W$    c #417500",
"X$    c #477600",
"Y$    c #427500",
"Z$    c #396B01",
"[$    c #377105",
"]$    c #526801",
"^$    c #576500",
"_$    c #526B00",
"`$    c #5B7600",
"a$    c #526F00",
"b$    c #4D7500",
"c$    c #5C6C00",
"d$    c #527700",
"e$    c #436A00",
"f$    c #357706",
"g$    c #4C6D01",
"h$    c #537200",
"i$    c #3F7900",
"j$    c #387500",
"k$    c #446F00",
"l$    c #447800",
"m$    c #3F7200",
"n$    c #4B7200",
"o$    c #587900",
"p$    c #526F01",
"q$    c #557C14",
"r$    c #5C7C05",
"s$    c #386900",
"t$    c #386200",
"u$    c #367D00",
"v$    c #3C7B00",
"w$    c #546800",
"x$    c #4A6D02",
"y$    c #4C781D",
"z$    c #407603",
"{$    c #417100",
"|$    c #547A00",
"}$    c #337700",
"~$    c #4E6700",
" %    c #396F00",
"!%    c #477800",
"#%    c #487200",
"$%    c #537700",
"%%    c #507800",
"&%    c #436B00",
"'%    c #557701",
"(%    c #597A04",
")%    c #5A7B01",
"*%    c #577E00",
"+%    c #566B00",
",%    c #527400",
"-%    c #337400",
".%    c #486900",
"0%    c #417900",
"1%    c #517501",
"2%    c #557905",
"3%    c #3D7501",
"4%    c #456F00",
"5%    c #506E00",
"6%    c #346600",
"7%    c #397400",
"8%    c #547C00",
"9%    c #496F00",
":%    c #3A6A00",
";%    c #3E6C00",
"<%    c #406C02",
"=%    c #427705",
">%    c #3F6C00",
"?%    c #3A7800",
"@%    c #5B7700",
"A%    c #3C6700",
"B%    c #457C00",
"C%    c #4D6A00",
"D%    c #3F6F00",
"E%    c #426F00",
"F%    c #497100",
"G%    c #467100",
"H%    c #3D6C00",
"I%    c #466E00",
"J%    c #4B6D02",
"K%    c #4E6C07",
"L%    c #3E6700",
"M%    c #466500",
"N%    c #4D6800",
"O%    c #526800",
"P%    c #397C00",
"Q%    c #5C7701",
"R%    c #537402",
"S%    c #456E01",
"T%    c #467400",
"U%    c #416D00",
"V%    c #487400",
"W%    c #487900",
"X%    c #487600",
"Y%    c #406A00",
"Z%    c #477501",
"[%    c #3F7602",
"]%    c #3D6902",
"^%    c #4E6506",
"_%    c #3C6801",
"`%    c #4B6500",
"a%    c #467800",
"b%    c #5C7800",
"c%    c #617F00",
"d%    c #3A6E00",
"e%    c #567905",
"f%    c #457B0C",
"g%    c #406D00",
"h%    c #406B00",
"i%    c #397000",
"j%    c #3D7500",
"k%    c #496E00",
"l%    c #546F00",
"m%    c #427800",
"n%    c #567600",
"o%    c #3E6900",
"p%    c #517906",
"q%    c #5B7B21",
"r%    c #4D7806",
"s%    c #367700",
"t%    c #457800",
"u%    c #357600",
"v%    c #4C7A03",
"w%    c #4E6D00",
"x%    c #367400",
"y%    c #446C00",
"z%    c #3E6600",
"{%    c #335A00",
"|%    c #3D6400",
"}%    c #497400",
"~%    c #316B00",
" &    c #4C6900",
"!&    c #366900",
"#&    c #327D01",
"$&    c #527D06",
"%&    c #3E6D01",
"&&    c #466C00",
"'&    c #356600",
"(&    c #315500",
")&    c #327200",
"*&    c #326600",
"+&    c #587C00",
",&    c #3D6E00",
"-&    c #5B6B00",
".&    c #456700",
"0&    c #456800",
"1&    c #357900",
"2&    c #5C7C00",
"3&    c #357E00",
"4&    c #587500",
"5&    c #5C6B00",
"6&    c #4D7B00",
"7&    c #577800",
"8&    c #4B8000",
"9&    c #3A6900",
":&    c #5C7F00",
";&    c #3B6F00",
"<&    c #467A00",
"=&    c #3B6D00",
">&    c #466D00",
"?&    c #526C00",
"@&    c #326C00",
"A&    c #316500",
"B&    c #3B7A00",
"C&    c #3A7B00",
"D&    c #367B00",
"E&    c #527E00",
"F&    c #356B00",
"G&    c #576900",
"H&    c #546C00",
"I&    c #3E6D00",
"J&    c #4C7800",
"K&    c #4A7C00",
"L&    c #537C00",
"M&    c #586D00",
"N&    c #386D00",
"O&    c #587B00",
"P&    c #3C6B01",
"Q&    c #4B7606",
"R&    c #366B01",
"S&    c #5C7B00",
"T&    c #4D6500",
"U&    c #3C7D00",
"V&    c #5D7800",
"W&    c #587800",
"X&    c #576906",
"Y&    c #517B21",
"Z&    c #367906",
"[&    c #316C00",
"]&    c #347A00",
"^&    c #527300",
"_&    c #4F6500",
"`&    c #4A6400",
"a&    c #4D7F00",
"b&    c #587600",
"c&    c #3F6B00",
"d&    c #586800",
"e&    c #586900",
"f&    c #327D00",
"g&    c #4D6C01",
"h&    c #3C7D06",
"i&    c #4B7D01",
"j&    c #4B7D00",
"k&    c #576600",
"l&    c #566B01",
"m&    c #587806",
"n&    c #5A7901",
"o&    c #396B00",
"p&    c #3C6E00",
"q&    c #4B7700",
"r&    c #547E00",
"s&    c #4B7C00",
"t&    c #567F00",
"u&    c #3B6500",
"v&    c #386800",
"w&    c #3A7705",
"x&    c #557B1A",
"y&    c #627905",
"z&    c #4A7A00",
"{&    c #5B6800",
"|&    c #4D7400",
"}&    c #476500",
"~&    c #397801",
" '    c #3A7C06",
"!'    c #557B01",
"#'    c #507201",
"$'    c #517402",
"%'    c #3B7200",
"&'    c #4F7401",
"''    c #397806",
"('    c #336B01",
"! # $ % & ' ( ) * + , - . 0 1 2 3 4 5 6 7 8 6 9 : ; < = > ? @ A ",
"B C D ( ' E % F % G 5 H I J K L % M H N O P Q 6 R S T U V W X Y ",
"Z [ ] ^ _ ` a b c d e f g h i j & k l m n o p o q r q s t u v w ",
"x y z { | d } ~ !  !!!#!$!%!&!'!(!)!*!5 5 +!,!-!.!0!1!g g 2!3!4!",
"4!5!8 #!i # 6!7!8!9!:!;!y <!!! !=!>!! ?!@!A!B!C!n D!E!F!G!{ # H!",
"w # I!J!K!L!= M!$ 8!N!O!P!3!Q!R!S!C $!T!w +!,!Z U!V!W!X!Y!2!!!Z!",
"Z 5 [!]!H!4!^!_!% `!# y a!n b!c!d!e!f!g! !g!h!i!j!k!l!m!b n!o!p!",
"q!G G r!s!t!u!v!F &!w!<!m P!x!y!=!z!{!|!}!' ~! #!###$#%#&#'#.!] ",
"& (#$!)#5 *#' & +#,#-#.#0#i 1#2#^ 3#L!4#5#*!M!6#C!7#8#9#:#G { ' ",
"*#;#<#=#>#?#i =#@#A#B#C#D#' E#! 7!S!F#G#H#I#J#K#u!A!L#k!H#O!M#N#",
"5 O#P#$!u!A!4!Q#R#S#T#=#U#H V#K!W#X#>!Y#Z#[#n P!>#]#^#_#`#a#b#c#",
"B P!d#e#f#g#h#H#i#j#5 G k#%!v l#.!m#n#o#p#q#r#`#| s#t#,#u#v#U#H ",
"]!w w#x#y#z#{#T |#}#~# $!$+#!!#$n [#$$%$&$'$($L# #~!)$q#*$+$k!+ ",
",$-$.$0${#1$2$3$4$5$A#k!6$7$*#3 w v a#>#~!'#3 8$!$9$:$!$;$U!# !$",
"<$=$>$?$n#@$A$B$C$D$E$F$G$H$I$J$4!P#|!K!9 m ($'$K$L$M$E!N$O$i P$",
"Q$R$& S$y T$U$V$W$X$K#Y$Z$[$]$^$I#s#_$`$a$k 5#b$c$d$L 8$e$f$g$h$",
"i$( ' ~!j$k$l$m$n$o$N!h!p$q$r$o$s$`#t$`#} u$K!v$H + w$a!x$y$z${$",
"P |$}$~$ %!%#%$%Q!q %%&%'%(%)%*%|!E#U#$$g! !+%,%5 -%.%0%1%2%3%4%",
"Q!5%6%*!7%T!O$8%9%:%;%<%=%!$>%C#-!?%p @%b$5 I$3 ($`#A%B%v$C%w R$",
"Z!D%E%b$U!F%G%j!H%k$I%J%K%L%b$K$ $M%x N% $O%m#J!P%C#-!J!]![#Q%R%",
"S%g!T%8#U%V%S W%X%Y%Z%[%]%^%_%3 `%A!a%?%N%b%c!c%^#m + ]!d%-#e%f%",
"g%h%i%j%#%k%l%m%n%<$o%H p%q%r%s%[!B![ t%>#,%,#u%h U#?#5 v ! X v%",
"w%x%y%z%{%|%}%x!~%'  &!&#&$&%&O%]#C!&&'&(&3 # i a#)&~$*&5!+&P!,&",
"-&6 J!t%&#.&,!0&1&F#2&T!3&7!)!4&5&6&M!k!O$+ P 7&# w!j#5 q .!5!#$",
"k 7 8&K#_!v!_!9&= :&d!;&<&;&= o = M!y k =&>&D ?&U#&!g!H |!@&A&c ",
"#!8 W#6 [ _![ ]!H!K!9!= B&]!C&Z ?%&&!&D&a%+ E&k !&~!|!d#q =#a#5 ",
"F&H G&o Z!t!]!C&Z!d%v H& &I&J&!&t p!K&#!^!?&P p!a%+ L&M&N&8 H## ",
"(#O!O&m#P&Q&R&?#5 *#~%M#?%S&m#i >!6 $!5 T&C#U&>&^!?&o$V&W&J#a!y ",
"7!{!3!.!X&Y&Z&?#U#?![&=#=!]&`!^&3 5 _&`& #W#a&+ $%b&c&d&e&5!T!p!",
"n ! f&P#g&h&i&g!# k!B 8!7&7$*#`#>#4 !$[![&j&U&?&k&l&m&n&o&e ! J#",
"p&q&r&s&J!a&t&z!]#r#M%u&3  &v&A&($m B&C 7!p!6&n%a w&x&y&>!G$($7&",
"4!p&#$`!z&7 3!t#{&|&r!}&~& '!'T$I#7&y K#o!O#^!!$P$#'$'%'&'''('d#"};