/* XPM */ 
static const char * redstartplace_xpm[] = {
"32 32 625 2",
"      c None",
"!     c black",
"#     c #DBDED8",
"$     c #93958E",
"%     c #9D9F99",
"&     c #9A9D98",
"'     c #8F928C",
"(     c #7B7D78",
")     c #777A75",
"*     c #797C76",
"+     c #747773",
",     c #727370",
"-     c #6D706B",
".     c #777875",
"0     c #757874",
"1     c #6D706C",
"2     c #6A6B68",
"3     c #6D6F69",
"4     c #716F6B",
"5     c #6F6D68",
"6     c #6D6B66",
"7     c #63635C",
"8     c #64615C",
"9     c #5D5D56",
":     c #5C5A55",
";     c #5A5A55",
"<     c #585751",
"=     c #61615B",
">     c #565955",
"?     c #878481",
"@     c #595B58",
"A     c #575B57",
"B     c #555A57",
"C     c #525656",
"D     c #555959",
"E     c #555957",
"F     c #565B59",
"G     c #565958",
"H     c #555655",
"I     c #535553",
"J     c #545757",
"K     c #515453",
"L     c #565758",
"M     c #565858",
"N     c #535352",
"O     c #4E4E48",
"P     c #56544C",
"Q     c #504F4A",
"R     c #4F504D",
"S     c #4D4E4A",
"T     c #50504C",
"U     c #4E4D49",
"V     c #44443F",
"W     c #83837F",
"X     c #555B59",
"Y     c #595D5C",
"Z     c #353C3A",
"[     c #535957",
"]     c #515856",
"^     c #535853",
"_     c #535755",
"`     c #383B39",
"a     c #545755",
"b     c #525553",
"c     c #4F5252",
"d     c #353636",
"e     c #4F5052",
"f     c #525455",
"g     c #4D5050",
"h     c #31302A",
"i     c #4B4A45",
"j     c #51514C",
"k     c #515351",
"l     c #333431",
"m     c #545351",
"n     c #50504E",
"o     c #444543",
"p     c #808381",
"q     c #545854",
"r     c #535959",
"s     c #505450",
"t     c #525552",
"u     c #545753",
"v     c #565957",
"w     c #515452",
"x     c #4F5250",
"y     c #545555",
"z     c #4D4F4E",
"{     c #4C4B48",
"|     c #4C4A45",
"}     c #4F4D48",
"~     c #53544E",
" !    c #555856",
"!!    c #515352",
"#!    c #575754",
"$!    c #555555",
"%!    c #3D403E",
"&!    c #747671",
"'!    c #52544F",
"(!    c #535852",
")!    c #535652",
"*!    c #4E514D",
"+!    c #4A4F48",
",!    c #51544D",
"-!    c #51524D",
".!    c #525450",
"0!    c #525353",
"1!    c #535654",
"2!    c #4D4D4A",
"3!    c #4A4A46",
"4!    c #4D4F4B",
"5!    c #51524E",
"6!    c #595955",
"7!    c #545450",
"8!    c #535452",
"9!    c #51514F",
":!    c #555452",
";!    c #343734",
"<!    c #747771",
"=!    c #50534D",
">!    c #4E514C",
"?!    c #4C4F48",
"@!    c #474A43",
"A!    c #494B45",
"B!    c #4F524B",
"C!    c #52544E",
"D!    c #52554F",
"E!    c #555653",
"F!    c #4E504C",
"G!    c #4B4C49",
"H!    c #4D4E4C",
"I!    c #51504E",
"J!    c #525453",
"K!    c #515250",
"L!    c #545553",
"M!    c #535351",
"N!    c #4F4E4C",
"O!    c #333631",
"P!    c #848480",
"Q!    c #494C48",
"R!    c #2D3029",
"S!    c #51544E",
"T!    c #52554E",
"U!    c #50514C",
"V!    c #50514E",
"W!    c #52514F",
"X!    c #535554",
"Y!    c #525354",
"Z!    c #575958",
"[!    c #575957",
"]!    c #525452",
"^!    c #52524E",
"_!    c #343532",
"`!    c #504E4C",
"a!    c #4E4E4C",
"b!    c #333433",
"c!    c #71726E",
"d!    c #4C4E48",
"e!    c #484843",
"f!    c #4A4D46",
"g!    c #4F504B",
"h!    c #50544C",
"i!    c #4E504A",
"j!    c #52514E",
"k!    c #5A5B58",
"l!    c #5D5E5B",
"m!    c #575858",
"n!    c #4E504F",
"o!    c #505151",
"p!    c #4D4E4E",
"q!    c #50514F",
"r!    c #515252",
"s!    c #4F504E",
"t!    c #474743",
"u!    c #46443F",
"v!    c #4B4947",
"w!    c #323230",
"x!    c #675445",
"y!    c #43443C",
"z!    c #3D3D32",
"{!    c #3D3E39",
"|!    c #3F423C",
"}!    c #41433C",
"~!    c #413F38",
" #    c #45463F",
"!#    c #434641",
"##    c #43433C",
"$#    c #46443A",
"%#    c #494842",
"&#    c #464949",
"'#    c #464847",
"(#    c #444341",
")#    c #3E3F41",
"*#    c #404142",
"+#    c #3E3E3C",
",#    c #3B3937",
"-#    c #3B3C3C",
".#    c #404241",
"0#    c #44423C",
"1#    c #453E34",
"2#    c #403B34",
"3#    c #37372C",
"4#    c #353531",
"5#    c #202020",
"6#    c #AD8E73",
"7#    c #A89E94",
"8#    c #A88567",
"9#    c #A86632",
":#    c #A88D77",
";#    c #A49A90",
"<#    c #A57F60",
"=#    c #A76530",
">#    c #A5907C",
"?#    c #A2988E",
"@#    c #A47958",
"A#    c #A5622D",
"B#    c #A59181",
"C#    c #A0968E",
"D#    c #A37754",
"E#    c #A1602D",
"F#    c #A19385",
"G#    c #9F958E",
"H#    c #A0724E",
"I#    c #A05D2B",
"J#    c #9F9389",
"K#    c #9C9087",
"L#    c #9F6940",
"M#    c #9F5D2A",
"N#    c #9E9288",
"O#    c #99897B",
"P#    c #9B6A44",
"Q#    c #9A5C2E",
"R#    c #A9A099",
"S#    c #CB9973",
"T#    c #CB8451",
"U#    c #CA6923",
"V#    c #CA7332",
"W#    c #C89976",
"X#    c #C57E49",
"Y#    c #C6631F",
"Z#    c #C56F2F",
"[#    c #C69875",
"]#    c #C17742",
"^#    c #C25E1B",
"_#    c #C26C2A",
"`#    c #C29675",
"a#    c #BF733C",
"b#    c #BF5E1C",
"c#    c #BD6E33",
"d#    c #BD9372",
"e#    c #BC713A",
"f#    c #BC5E1D",
"g#    c #BB7137",
"h#    c #BB906F",
"i#    c #B96C33",
"j#    c #BB5A19",
"k#    c #B86C34",
"l#    c #BB9272",
"m#    c #B8672E",
"n#    c #B75818",
"o#    c #B56D35",
"p#    c #B89173",
"q#    c #C19475",
"r#    c #C46B2B",
"s#    c #C47D49",
"t#    c #BFAB9B",
"u#    c #BD8D6A",
"v#    c #BE6928",
"w#    c #C07C4C",
"x#    c #BCA591",
"y#    c #BB8660",
"z#    c #BD682A",
"{#    c #BC8156",
"|#    c #B8A18F",
"}#    c #B77F58",
"~#    c #BA6324",
" $    c #B87D52",
"!$    c #B3A499",
"#$    c #B37347",
"$$    c #B86022",
"%$    c #B77F56",
"&$    c #B1A293",
"'$    c #B27141",
"($    c #B45D21",
")$    c #B48259",
"*$    c #B09D8E",
"+$    c #B16C3B",
",$    c #B55D21",
"-$    c #B2825E",
".$    c #AD9B8C",
"0$    c #B06833",
"1$    c #BF9476",
"2$    c #C18E67",
"3$    c #C0B1A4",
"4$    c #BFBEBB",
"5$    c #BB8D6A",
"6$    c #BC865E",
"7$    c #BBB2AA",
"8$    c #B9B9B5",
"9$    c #B98965",
":$    c #B88C6B",
";$    c #B8B2AB",
"<$    c #B7B6B3",
"=$    c #B5825D",
">$    c #B78C6B",
"?$    c #B7AEA6",
"@$    c #B3B1AE",
"A$    c #B37D56",
"B$    c #B58C6D",
"C$    c #B2ACA5",
"D$    c #B1AFAA",
"E$    c #B2794F",
"F$    c #B28B6D",
"G$    c #AFA8A1",
"H$    c #A9A49F",
"I$    c #AD7149",
"J$    c #AB856A",
"K$    c #A3A09A",
"L$    c #A7A09A",
"M$    c #B06F42",
"N$    c #444440",
"O$    c #3A3934",
"P$    c #32312C",
"Q$    c #292924",
"R$    c #23221F",
"S$    c #22211E",
"T$    c #20201D",
"U$    c #1E1D1A",
"V$    c #181816",
"W$    c #151513",
"X$    c #171614",
"Y$    c #D0A688",
"Z$    c #D1A17F",
"[$    c #CFC2B7",
"]$    c #CCCBC8",
"^$    c #CA9C7B",
"_$    c #C99F7F",
"`$    c #C8C6C2",
"a$    c #C6C4C1",
"b$    c #C59570",
"c$    c #C49B7D",
"d$    c #C2BEBA",
"e$    c #C1BDBA",
"f$    c #BF8C66",
"g$    c #BF977B",
"h$    c #BFB8B1",
"i$    c #BCB8B3",
"j$    c #BC855E",
"k$    c #BC967A",
"l$    c #BAB5B0",
"m$    c #B7B4AD",
"n$    c #BB8158",
"o$    c #B9957A",
"p$    c #B7B4AE",
"q$    c #B5AFA9",
"r$    c #B67B50",
"s$    c #B39277",
"t$    c #B0ADA9",
"u$    c #AFA89F",
"v$    c #B57547",
"w$    c #CEA180",
"x$    c #D07838",
"y$    c #D19264",
"z$    c #CCB9AC",
"{$    c #C97436",
"|$    c #C98E61",
"}$    c #C6B2A3",
"~$    c #C58E68",
" %    c #C67133",
"!%    c #C4916B",
"#%    c #C1AFA0",
"$%    c #BF875E",
"%%    c #C16B2D",
"&%    c #BF8D68",
"'%    c #BAB0A6",
"(%    c #BC7C4E",
")%    c #BD6726",
"*%    c #BC8C6A",
"+%    c #B6A89B",
",%    c #B77749",
"-%    c #BB6528",
".%    c #B78D6C",
"0%    c #B3A497",
"1%    c #B57040",
"2%    c #BA6425",
"3%    c #B78F71",
"4%    c #B0A194",
"5%    c #B26A36",
"6%    c #D8A57D",
"7%    c #D58951",
"8%    c #D5732A",
"9%    c #D28041",
":%    c #D19F7B",
";%    c #CF8248",
"<%    c #CE6A23",
"=%    c #CD7A3C",
">%    c #CD9D78",
"?%    c #C97A41",
"@%    c #C9631E",
"A%    c #C77537",
"B%    c #C79873",
"C%    c #C67235",
"D%    c #C66320",
"E%    c #C2793F",
"F%    c #C49572",
"G%    c #C17135",
"H%    c #C1621F",
"I%    c #BE753F",
"J%    c #C1916F",
"K%    c #BC6C30",
"L%    c #BF5F1D",
"M%    c #BB743E",
"N%    c #BF8D6A",
"O%    c #BB6629",
"P%    c #BE5E1D",
"Q%    c #B97540",
"R%    c #BD8D69",
"S%    c #B49378",
"T%    c #AFA399",
"U%    c #B48967",
"V%    c #B36932",
"W%    c #B1947C",
"X%    c #ADA195",
"Y%    c #AE805D",
"Z%    c #AF652F",
"[%    c #AC9581",
"]%    c #A99B91",
"^%    c #AC7953",
"_%    c #AC622A",
"`%    c #AA9582",
"a%    c #A3968C",
"b%    c #A6724A",
"c%    c #A85E26",
"d%    c #A59689",
"e%    c #A2968C",
"f%    c #A46C42",
"g%    c #A45B24",
"h%    c #A09389",
"i%    c #9A8B80",
"j%    c #9E673E",
"k%    c #9C5A29",
"l%    c #9E9086",
"m%    c #9E8C7C",
"n%    c #A0663A",
"o%    c #9D5B29",
"p%    c #AFA79F",
"q%    c #6F513B",
"r%    c #272622",
"s%    c #24201B",
"t%    c #242522",
"u%    c #252320",
"v%    c #26221D",
"w%    c #242321",
"x%    c #252624",
"y%    c #262420",
"z%    c #28241F",
"{%    c #282824",
"|%    c #272828",
"}%    c #282624",
"~%    c #272320",
" &    c #272726",
"!&    c #272728",
"#&    c #272422",
"$&    c #26221F",
"%&    c #252524",
"&&    c #282929",
"'&    c #282522",
"(&    c #28231C",
")&    c #282621",
"*&    c #262522",
"+&    c #272522",
",&    c #272829",
"-&    c #686866",
".&    c #444640",
"0&    c #3E3F39",
"1&    c #3D4039",
"2&    c #40433C",
"3&    c #444540",
"4&    c #454741",
"5&    c #464942",
"6&    c #454841",
"7&    c #4A4B47",
"8&    c #4B4C4C",
"9&    c #4A4C4C",
":&    c #48494A",
";&    c #4A4B4A",
"<&    c #484847",
"=&    c #4A4B4B",
">&    c #4C4D4D",
"?&    c #4A4B49",
"@&    c #494745",
"A&    c #43413B",
"B&    c #44423F",
"C&    c #3D3C3A",
"D&    c #676664",
"E&    c #484A45",
"F&    c #444744",
"G&    c #272A24",
"H&    c #444740",
"I&    c #4D4F49",
"J&    c #4C4D48",
"K&    c #4B4D48",
"L&    c #4E504E",
"M&    c #4D4C4A",
"N&    c #4E4E4E",
"O&    c #4B4E4C",
"P&    c #4B4F4E",
"Q&    c #4F5050",
"R&    c #4D4E49",
"S&    c #2F2F2B",
"T&    c #4B4A47",
"U&    c #4B4A48",
"V&    c #3B3B38",
"W&    c #61625E",
"X&    c #4B4C48",
"Y&    c #464944",
"Z&    c #41443E",
"[&    c #494A45",
"]&    c #4A4D48",
"^&    c #4C4F4B",
"_&    c #4D4F4D",
"`&    c #4D4F4A",
"a&    c #484946",
"b&    c #484A46",
"c&    c #464846",
"d&    c #494A48",
"e&    c #4F514E",
"f&    c #4C4C4C",
"g&    c #4C4C4A",
"h&    c #4A4948",
"i&    c #363734",
"j&    c #737472",
"k&    c #4B4E4A",
"l&    c #494E4A",
"m&    c #464945",
"n&    c #444741",
"o&    c #4A4B48",
"p&    c #4D504D",
"q&    c #4D504E",
"r&    c #474845",
"s&    c #444340",
"t&    c #4F4F4B",
"u&    c #4E4F49",
"v&    c #4C4E4C",
"w&    c #4B4C4A",
"x&    c #4E4E4D",
"y&    c #4B4D4B",
"z&    c #363935",
"{&    c #747775",
"|&    c #4B5251",
"}&    c #4B4F4F",
"~&    c #494E4D",
" '    c #464A47",
"!'    c #494C49",
"#'    c #494B4B",
"$'    c #494A49",
"%'    c #454746",
"&'    c #474A48",
"''    c #454541",
"('    c #454540",
")'    c #494941",
"*'    c #4C4F4D",
"+'    c #4B4D4A",
",'    c #3A3C3A",
"-'    c #898884",
".'    c #4B504E",
"0'    c #4D5251",
"1'    c #2E3231",
"2'    c #484E4D",
"3'    c #484C4C",
"4'    c #313331",
"5'    c #4A4D4B",
"6'    c #474A49",
"7'    c #2D302F",
"8'    c #494A4B",
"9'    c #484948",
":'    c #272624",
";'    c #464440",
"<'    c #292A29",
"='    c #494946",
">'    c #333534",
"?'    c #7A7A74",
"@'    c #4A504E",
"A'    c #484D4C",
"B'    c #4B4F4D",
"C'    c #4B4E4D",
"D'    c #4C4F4F",
"E'    c #494C4A",
"F'    c #4C4E4D",
"G'    c #494C4B",
"H'    c #484A48",
"I'    c #4C4E4F",
"J'    c #484642",
"K'    c #4F4C44",
"L'    c #484844",
"M'    c #484846",
"N'    c #454644",
"O'    c #4A4844",
"P'    c #464543",
"Q'    c #373634",
"R'    c #5E5F5B",
"S'    c #3F403E",
"T'    c #474844",
"U'    c #4B4D49",
"V'    c #474946",
"W'    c #3D403B",
"X'    c #393C38",
"Y'    c #3B3C38",
"Z'    c #393A3B",
"['    c #3A3C3B",
"]'    c #41443F",
"^'    c #444644",
"_'    c #464745",
"`'    c #434440",
"a'    c #3F413D",
"b'    c #3E3F3B",
"c'    c #3E3D38",
"d'    c #3B3C35",
"e'    c #31312B",
"f'    c #2C2A28",
"g'    c #2B2A27",
"h'    c #2A2A28",
"i'    c #2A2927",
"j'    c #262623",
"k'    c #212220",
"                                                                ",
"                                                                ",
"      # $ % & ' ( ) * + , - . 0 1 2 3 4 5 6 7 8 9 : ; < = >     ",
"      ? @ A B C D E F G H I J K K K L M H N O P Q R S T U V     ",
"      W X Y Z [ ] ^ _ ` a b K c d e c f g h i j k k l m n o     ",
"      p q r r ] s t u v J w x c y z z x { | } ~  !!!!!#!$!%!    ",
"      &!'!(!)!*!+!,!-!.!> a I 0!1!2!3!4!5!6!7!7!8!9!N :!m ;!    ",
"      <!=!>!?!@!A!B!-!C!D!I E!F!F!S G!H!I!J!K!L!L!8!N M!N!O!    ",
"      P!>!Q!R!A!?!S!T!U!U!V!I W!W!X!0!I 0!Y!Z![!]!^!_!`!a!b!    ",
"      c!d!e!A!f!g!h!U!i!j!k!l!m!X!n!n!o!n!p!q!r!s!{ t!u!v!w!    ",
"      x!y!z!{!|!}!~! #!###$#%#&#'#(#)#*#+#,#-#.#0#1#2#3#4#5#    ",
"    6#7#8#9#:#;#<#=#>#?#@#A#B#C#D#E#F#G#H#I#J#K#L#M#N#O#P#Q#R#  ",
"    S#T#U#V#W#X#Y#Z#[#]#^#_#`#a#b#c#d#e#f#g#h#i#j#k#l#m#n#o#p#  ",
"    q#r#s#t#u#v#w#x#y#z#{#|#}#~# $!$#$$$%$&$'$($)$*$+$,$-$.$0$  ",
"    1$2$3$4$5$6$7$8$9$:$;$<$=$>$?$@$A$B$C$D$E$F$G$H$I$J$K$L$M$  ",
"      N$O$P$Q$R$R$R$R$R$R$R$R$R$R$R$R$R$R$R$R$R$S$T$U$V$W$X$    ",
"    Y$Z$[$]$^$_$`$a$b$c$d$e$f$g$h$i$j$k$l$m$n$o$p$q$r$s$t$u$v$  ",
"    w$x$y$z$W#{$|$}$~$ %!%#%$%%%&%'%(%)%*%+%,%-%.%0%1%2%3%4%5%  ",
"    6%7%8%9%:%;%<%=%>%?%@%A%B%C%D%E%F%G%H%I%J%K%L%M%N%O%P%Q%R%  ",
"    S%T%U%V%W%X%Y%Z%[%]%^%_%`%a%b%c%d%e%f%g%h%i%j%k%l%m%n%o%p%  ",
"      q%r%s%R$t%u%v%w%x%y%z%{%|%}%~% &!&#&$&%&&&'&(&)&*&+&,&    ",
"      -&.&0&1&2&3&4&5&6&7&q!q!8&9&:&:&8&;&<&=&>&?&@&N$A&B&C&    ",
"      D&E&F&G&H&A!I&J&K&G!G!L&M&N&n!O&p!P&Q&J!J!s!R&S&T&U&V&    ",
"      W&X&E&Y&Z&H&[&]&J&^&_&`&7&a&b&c&d&?&z >&_&e&a!f&g&h&i&    ",
"      j&7&k&l&m&n&[&]&o&p&q&_&>&_&r&s&r&{ I!t&u&v&w&x&N!y&z&    ",
"      {&O&|&}&~& '!'^&s!q&>&#'$'>&%'%'&'''(')'d!*'8&+'N!H!,'    ",
"      -'.'0'1'2'3'O&O&4'*'5'#'6'7'$'8'8'9':';'i U&;&<'N!='>'    ",
"      ?'v&.'@'A'B'C'D'D'E'8&F'G'G'H'I'I'8&d&J'K'L'M'N'O'P'Q'    ",
"      R'S'T'U'V'W'X'Y'Z'[']'^'_'`'a'a'b'c'C&d'e'f'g'h'i'j'k'    ",
"                                                                ",
"                                                                ",
"                                                                "};