/* XPM */ 
static const char * crash_12_xpm[] = {
"36 36 860 2",
"  	c None",
"! 	c black",
"# 	c #2A0B04",
"$ 	c #5E1806",
"% 	c #380F03",
"& 	c #120300",
"' 	c #FFA65F",
"( 	c #F9812D",
") 	c #F27929",
"* 	c #FE8B31",
"+ 	c #D35E1E",
", 	c #DE661F",
"- 	c #D9621F",
". 	c #FE9835",
"0 	c #F99032",
"1 	c #9F3B10",
"2 	c #4E1606",
"3 	c #4B1605",
"4 	c #471103",
"5 	c #3E1304",
"6 	c #3E1103",
"7 	c #090001",
"8 	c #0B0107",
"9 	c #210B05",
": 	c #C95B1E",
"; 	c #F27B2A",
"< 	c #E87527",
"= 	c #DB6A24",
"> 	c #F38831",
"? 	c #FFA643",
"@ 	c #FFC158",
"A 	c #FFBA4A",
"B 	c #FF9E38",
"C 	c #FA8D31",
"D 	c #F99334",
"E 	c #F3822C",
"F 	c #D7611E",
"G 	c #EC7A28",
"H 	c #D75F1D",
"I 	c #9A370E",
"J 	c #C15218",
"K 	c #360E04",
"L 	c #1B0807",
"M 	c #B9511C",
"N 	c #E8772A",
"O 	c #FFAC43",
"P 	c #FCAA43",
"Q 	c #D86A25",
"R 	c #AF3F12",
"S 	c #E57A2B",
"T 	c #FFC555",
"U 	c #FFC45D",
"V 	c #FFDB72",
"W 	c #FFCE5D",
"X 	c #FEB047",
"Y 	c #FFB74A",
"Z 	c #F3882F",
"[ 	c #D25D1C",
"] 	c #B24413",
"^ 	c #CC5719",
"_ 	c #E67626",
"` 	c #FE842B",
"a 	c #C05418",
"b 	c #190100",
"c 	c #EB6123",
"d 	c #D66624",
"e 	c #FF9939",
"f 	c #F38931",
"g 	c #FFC756",
"h 	c #FBA843",
"i 	c #FA9E3C",
"j 	c #F29236",
"k 	c #FFB84C",
"l 	c #FFD161",
"m 	c #FFD770",
"n 	c #FFE984",
"o 	c #FFD86A",
"p 	c #FFC659",
"q 	c #FFB94C",
"r 	c #F28A30",
"s 	c #E17025",
"t 	c #D6611E",
"u 	c #F89D3A",
"v 	c #FFB347",
"w 	c #FB9937",
"x 	c #FF9E39",
"y 	c #8B320C",
"z 	c #0A0000",
"{ 	c #FF943D",
"| 	c #FA8931",
"} 	c #F68D33",
"~ 	c #F38A32",
" !	c #F59437",
"!!	c #FBAB45",
"#!	c #ED832F",
"$!	c #FDB248",
"%!	c #FFD360",
"&!	c #FFDE6D",
"'!	c #FFC85C",
"(!	c #FFC860",
")!	c #FFD66B",
"*!	c #FFC152",
"+!	c #FAA63F",
",!	c #FDB146",
"-!	c #F9A03B",
".!	c #FEB74A",
"0!	c #F59435",
"1!	c #FFC754",
"2!	c #FFDC6A",
"3!	c #FFD060",
"4!	c #FFCC56",
"5!	c #F3862D",
"6!	c #6D2408",
"7!	c #A33B17",
"8!	c #E46D25",
"9!	c #EB792A",
":!	c #CC5B1E",
";!	c #F19036",
"<!	c #F38D33",
"=!	c #E98030",
">!	c #E7762A",
"?!	c #FCAC48",
"@!	c #FFDB6C",
"A!	c #FFE67A",
"B!	c #FFD266",
"C!	c #FFE47A",
"D!	c #FFD76C",
"E!	c #FFC657",
"F!	c #FEB84A",
"G!	c #FDB247",
"H!	c #FFC252",
"I!	c #F1882F",
"J!	c #FAA23C",
"K!	c #F69836",
"L!	c #FDB045",
"M!	c #FDAF45",
"N!	c #F98A30",
"O!	c #EC7928",
"P!	c #551604",
"Q!	c #BB4B19",
"R!	c #D36121",
"S!	c #FBAA43",
"T!	c #FAAA45",
"U!	c #F6993C",
"V!	c #FFB94E",
"W!	c #F8983B",
"X!	c #FFBB53",
"Y!	c #FFD068",
"Z!	c #FFD268",
"[!	c #FFCF5F",
"]!	c #FFCC5F",
"^!	c #FEBC53",
"_!	c #FFCD61",
"`!	c #FEBA4D",
"a!	c #FEBB4D",
"b!	c #FDB349",
"c!	c #F59337",
"d!	c #FCAC43",
"e!	c #FCA940",
"f!	c #FEB648",
"g!	c #FFCE5A",
"h!	c #F75521",
"i!	c #BB4D1A",
"j!	c #F48932",
"k!	c #F69439",
"l!	c #FFB94D",
"m!	c #FFB94F",
"n!	c #FFBA4F",
"o!	c #F8973B",
"p!	c #D86321",
"q!	c #CC591E",
"r!	c #CB591F",
"s!	c #C95D24",
"t!	c #F18634",
"u!	c #FDAD4A",
"v!	c #FFC95E",
"w!	c #FFB84D",
"x!	c #FFC95B",
"y!	c #FFBC51",
"z!	c #FFDB6A",
"{!	c #FFCF5D",
"|!	c #FBA740",
"}!	c #F79837",
"~!	c #FBA840",
" #	c #FFD463",
"!#	c #FFC653",
"##	c #FFB848",
"$#	c #FEA83F",
"%#	c #993911",
"&#	c #2A020B",
"'#	c #36170C",
"(#	c #E17229",
")#	c #FC983A",
"*#	c #FDA440",
"+#	c #F18C36",
",#	c #FAA03F",
"-#	c #FFAA4A",
".#	c #E87B2E",
"0#	c #9F3D15",
"1#	c #541909",
"2#	c #421307",
"3#	c #300C04",
"4#	c #3E1005",
"5#	c #BE511B",
"6#	c #F49238",
"7#	c #F79A3E",
"8#	c #F48F34",
"9#	c #D5611F",
":#	c #DC6C24",
";#	c #FFC959",
"<#	c #FFD462",
"=#	c #F9A443",
">#	c #F38B2F",
"?#	c #FCAD42",
"@#	c #FFD05C",
"A#	c #FBA53E",
"B#	c #F2822A",
"C#	c #F78F31",
"D#	c #C24417",
"E#	c #3F0C29",
"F#	c #D3524C",
"G#	c #E0742A",
"H#	c #EC742A",
"I#	c #C1541E",
"J#	c #D16223",
"K#	c #CC5A20",
"L#	c #D76624",
"M#	c #E2732A",
"N#	c #AB4417",
"O#	c #65210C",
"P#	c #1E0A05",
"Q#	c #2D0D05",
"R#	c #4B1707",
"S#	c #9F3D13",
"T#	c #E77427",
"U#	c #FCA340",
"V#	c #F7973C",
"W#	c #F58B32",
"X#	c #C4541A",
"Y#	c #AE4013",
"Z#	c #E2782C",
"[#	c #FFC354",
"]#	c #FFD25F",
"^#	c #F18B30",
"_#	c #F28B2F",
"`#	c #FBA63F",
"a#	c #FFC14F",
"b#	c #FDB246",
"c#	c #F1862D",
"d#	c #FFA039",
"e#	c #D15919",
"f#	c #D35719",
"g#	c #491424",
"h#	c #7E2713",
"i#	c #DF6A26",
"j#	c #EC8231",
"k#	c #AB481B",
"l#	c #B1481A",
"m#	c #AF481A",
"n#	c #973A15",
"o#	c #7E2F11",
"p#	c #6B250E",
"q#	c #49190A",
"r#	c #180905",
"s#	c #421608",
"t#	c #9A3912",
"u#	c #C7551B",
"v#	c #EE802C",
"w#	c #F58F34",
"x#	c #EE8431",
"y#	c #C85A1E",
"z#	c #7B290D",
"{#	c #A73F14",
"|#	c #BC4B17",
"}#	c #E67829",
"~#	c #FDB448",
" $	c #FA9F3B",
"!$	c #EE862F",
"#$	c #FFC351",
"$$	c #FBA33D",
"%$	c #F38D30",
"&$	c #D96921",
"'$	c #9C320B",
"($	c #F27624",
")$	c #8C2F0C",
"*$	c #07011A",
"+$	c #7D2E12",
",$	c #DE6C26",
"-$	c #FC9538",
".$	c #F08E37",
"0$	c #CB5C21",
"1$	c #B74B1A",
"2$	c #993B15",
"3$	c #6E270F",
"4$	c #5C210C",
"5$	c #531D0B",
"6$	c #331207",
"7$	c #361107",
"8$	c #953611",
"9$	c #B34917",
":$	c #C0531B",
";$	c #EB7C2B",
"<$	c #E4752A",
"=$	c #BB4F1A",
">$	c #993912",
"?$	c #AA4215",
"@$	c #8E3310",
"A$	c #C7541B",
"B$	c #E17227",
"C$	c #F59336",
"D$	c #DA6720",
"E$	c #FCA941",
"F$	c #F1882E",
"G$	c #F99937",
"H$	c #F89B38",
"I$	c #BB4D15",
"J$	c #F38C2F",
"K$	c #561C05",
"L$	c #220600",
"M$	c #31120C",
"N$	c #722810",
"O$	c #923713",
"P$	c #D26524",
"Q$	c #FEA13F",
"R$	c #E5782C",
"S$	c #772B10",
"T$	c #561E0C",
"U$	c #5B210D",
"V$	c #5D210D",
"W$	c #3C1509",
"X$	c #361207",
"Y$	c #5E200B",
"Z$	c #993B13",
"[$	c #E47529",
"]$	c #AF4717",
"^$	c #C7581D",
"_$	c #C0521B",
"`$	c #CA591D",
"a$	c #AA4415",
"b$	c #C6561C",
"c$	c #E97B2D",
"d$	c #EF8733",
"e$	c #F08D33",
"f$	c #BF4E17",
"g$	c #DB6D24",
"h$	c #EC7F2B",
"i$	c #FEAA40",
"j$	c #FFB043",
"k$	c #DB661F",
"l$	c #95350D",
"m$	c #3C0B00",
"n$	c #320C01",
"o$	c #3F170B",
"p$	c #863213",
"q$	c #A54117",
"r$	c #CD5C20",
"s$	c #F68E36",
"t$	c #71290F",
"u$	c #873413",
"v$	c #792D11",
"w$	c #531E0C",
"x$	c #421709",
"y$	c #5B200B",
"z$	c #A44015",
"{$	c #B84B19",
"|$	c #CF5E20",
"}$	c #973812",
"~$	c #963912",
" %	c #BC4F1A",
"!%	c #C5561C",
"#%	c #AB4516",
"$%	c #65210B",
"%%	c #631F09",
"&%	c #AC4215",
"'%	c #C5551C",
"(%	c #E2742A",
")%	c #E37428",
"*%	c #D15E1E",
"+%	c #AE4112",
",%	c #C9581B",
"-%	c #F89F3B",
".%	c #FFBE4C",
"0%	c #F59334",
"1%	c #94360E",
"2%	c #621C05",
"3%	c #200400",
"4%	c #541E0D",
"5%	c #863112",
"6%	c #B04A1B",
"7%	c #BC4F1B",
"8%	c #E4792D",
"9%	c #BE531D",
":%	c #75270E",
";%	c #9B3D17",
"<%	c #8A3413",
"=%	c #9C3D16",
">%	c #843112",
"?%	c #993B14",
"@%	c #CE5D1F",
"A%	c #CE5E1F",
"B%	c #8F3511",
"C%	c #78290D",
"D%	c #903410",
"E%	c #C2531B",
"F%	c #A13C14",
"G%	c #882F0F",
"H%	c #BB4C17",
"I%	c #DD6B23",
"J%	c #FAA340",
"K%	c #F48E33",
"L%	c #E7782A",
"M%	c #CB591C",
"N%	c #EB7D29",
"O%	c #F1892F",
"P%	c #F68B30",
"Q%	c #FFA13A",
"R%	c #EB7F2A",
"S%	c #351003",
"T%	c #62220E",
"U%	c #A44318",
"V%	c #EC8130",
"W%	c #FA9A3B",
"X%	c #F69639",
"Y%	c #AF4818",
"Z%	c #B0481A",
"[%	c #B44C1B",
"]%	c #C5561E",
"^%	c #9E3F17",
"_%	c #551E0C",
"`%	c #8C3412",
"a%	c #B84F1A",
"b%	c #D86723",
"c%	c #963811",
"d%	c #A03E14",
"e%	c #EC822F",
"f%	c #F69236",
"g%	c #CE5C1F",
"h%	c #E07329",
"i%	c #EC7E2D",
"j%	c #F5973F",
"k%	c #FFD76E",
"l%	c #FBA944",
"m%	c #EF8632",
"n%	c #E17127",
"o%	c #E97E2D",
"p%	c #F69738",
"q%	c #F18930",
"r%	c #EE7F2A",
"s%	c #ED842D",
"t%	c #872D0A",
"u%	c #060000",
"v%	c #581E0C",
"w%	c #D86725",
"x%	c #DE6A25",
"y%	c #F18B35",
"z%	c #F38E35",
"{%	c #F38D35",
"|%	c #C6571E",
"}%	c #BC511D",
"~%	c #C85A20",
" &	c #D36222",
"!&	c #BA4F1C",
"#&	c #6D270F",
"$&	c #9E3E16",
"%&	c #E2772A",
"&&	c #B94F1B",
"'&	c #D66523",
"(&	c #E87B2B",
")&	c #EC832F",
"*&	c #F79236",
"+&	c #F08932",
",&	c #E77C2D",
"-&	c #FFB54B",
".&	c #FCA848",
"0&	c #FFD573",
"1&	c #FFF08C",
"2&	c #FFD466",
"3&	c #E88336",
"4&	c #EA7F2E",
"5&	c #F18933",
"6&	c #F08A31",
"7&	c #F28B30",
"8&	c #FFB747",
"9&	c #D65D1D",
":&	c #15052A",
";&	c #41180A",
"<&	c #FA9137",
"=&	c #E6792D",
">&	c #FDB24A",
"?&	c #FDB14A",
"@&	c #F89E42",
"A&	c #E87E31",
"B&	c #CA5B21",
"C&	c #A14117",
"D&	c #DA6A26",
"E&	c #C2551E",
"F&	c #983B15",
"G&	c #C2541D",
"H&	c #F48A32",
"I&	c #EB832F",
"J&	c #F08831",
"K&	c #F89839",
"L&	c #F79537",
"M&	c #EE8631",
"N&	c #CF5F20",
"O&	c #DB6822",
"P&	c #FBA441",
"Q&	c #F89F40",
"R&	c #FFD46A",
"S&	c #FFE079",
"T&	c #FDBD56",
"U&	c #CF6023",
"V&	c #E4762A",
"W&	c #F99E3F",
"X&	c #FFC857",
"Y&	c #FFCA56",
"Z&	c #FFBC4B",
"[&	c #EE812C",
"]&	c #461008",
"^&	c #190403",
"_&	c #FFAF4B",
"`&	c #FFCA5A",
"a&	c #FFD668",
"b&	c #FFD364",
"c&	c #FFBC53",
"d&	c #D36928",
"e&	c #893413",
"f&	c #BC521D",
"g&	c #BC501C",
"h&	c #DA6A25",
"i&	c #F28B33",
"j&	c #F18731",
"k&	c #D96924",
"l&	c #E7792B",
"m&	c #F69638",
"n&	c #EA7E2D",
"o&	c #D56322",
"p&	c #DB6A25",
"q&	c #FDBA53",
"r&	c #FFCC64",
"s&	c #FFDC77",
"t&	c #FFE283",
"u&	c #FEBC5A",
"v&	c #D15E1F",
"w&	c #CB581D",
"x&	c #F59739",
"y&	c #FEAC42",
"z&	c #FFAB41",
"{&	c #FFB345",
"|&	c #D9631E",
"}&	c #000022",
"~&	c #9B3913",
" '	c #FF9438",
"!'	c #F7993C",
"#'	c #FFBB50",
"$'	c #FDAC46",
"%'	c #EB8434",
"&'	c #9D3D16",
"''	c #883112",
"('	c #A54318",
")'	c #CC5D21",
"*'	c #CC5E21",
"+'	c #F79538",
",'	c #EB822F",
"-'	c #BC501B",
".'	c #DD6B24",
"0'	c #F28A32",
"1'	c #EE842F",
"2'	c #EF842F",
"3'	c #FAA743",
"4'	c #FFD264",
"5'	c #FFD366",
"6'	c #FFDF72",
"7'	c #F18B32",
"8'	c #E37326",
"9'	c #FFB246",
":'	c #E26C22",
";'	c #98370E",
"<'	c #6D1F06",
"='	c #000041",
">'	c #541F16",
"?'	c #E67F2F",
"@'	c #EC772C",
"A'	c #F18E35",
"B'	c #FCA943",
"C'	c #E6782D",
"D'	c #B54A1B",
"E'	c #A44218",
"F'	c #BB511D",
"G'	c #C2531D",
"H'	c #CF6122",
"I'	c #EE8330",
"J'	c #EA812F",
"K'	c #B24918",
"L'	c #9B3A13",
"M'	c #BC501A",
"N'	c #CC5B1F",
"O'	c #CF5D1E",
"P'	c #FFD062",
"Q'	c #FFC85D",
"R'	c #FFC455",
"S'	c #FDAA44",
"T'	c #ED812B",
"U'	c #F39234",
"V'	c #C9591B",
"W'	c #B94512",
"X'	c #411003",
"Y'	c #080000",
"Z'	c #51200D",
"['	c #D36021",
"]'	c #E5762B",
"^'	c #FEB74C",
"_'	c #CD5E22",
"`'	c #A13F17",
"a'	c #BF5420",
"b'	c #D56926",
"c'	c #F9963A",
"d'	c #E97E2F",
"e'	c #B64C1A",
"f'	c #9A3A14",
"g'	c #8A3110",
"h'	c #913511",
"i'	c #A84115",
"j'	c #E77526",
"k'	c #F89D3B",
"l'	c #F99536",
"m'	c #EF852E",
"n'	c #DD6D25",
"o'	c #FAA03D",
"p'	c #E67727",
"q'	c #EF802B",
"r'	c #C55118",
"s'	c #2C0B02",
"t'	c #42160B",
"u'	c #CA581F",
"v'	c #F38B34",
"w'	c #FFB54A",
"x'	c #FFB64C",
"y'	c #F28C35",
"z'	c #D66827",
"{'	c #B84D1C",
"|'	c #953814",
"}'	c #E37A2E",
"~'	c #FBA03F",
" (	c #FCA944",
"!(	c #F9A541",
"#(	c #CB5C20",
"$(	c #A94215",
"%(	c #AC4417",
"&(	c #F08830",
"'(	c #EE822D",
"((	c #A43C10",
")(	c #8A2E0C",
"*(	c #A33A10",
"+(	c #F18C31",
",(	c #FDAE44",
"-(	c #EA7C2A",
".(	c #EA7426",
"0(	c #A93E12",
"1(	c #110400",
"2(	c #160911",
"3(	c #983A14",
"4(	c #B24819",
"5(	c #CB5D20",
"6(	c #EE802E",
"7(	c #FBA03E",
"8(	c #F99F3F",
"9(	c #D96927",
":(	c #D46525",
";(	c #F79339",
"<(	c #F9A041",
"=(	c #FFBF55",
">(	c #FFAC44",
"?(	c #F69337",
"@(	c #DD6C26",
"A(	c #CF5E21",
"B(	c #CA5C1F",
"C(	c #F69537",
"D(	c #F0832E",
"E(	c #E57729",
"F(	c #B24716",
"G(	c #822B0C",
"H(	c #C04E17",
"I(	c #E37023",
"J(	c #FFBB4C",
"K(	c #F99234",
"L(	c #F68F33",
"M(	c #541D08",
"N(	c #702910",
"O(	c #873011",
"P(	c #722A0F",
"Q(	c #EE8531",
"R(	c #FFAA43",
"S(	c #F49138",
"T(	c #F9A140",
"U(	c #FEBD55",
"V(	c #FFDA73",
"W(	c #FEC058",
"X(	c #FCB04A",
"Y(	c #D56625",
"Z(	c #C24F1B",
"[(	c #DA6C27",
"](	c #F59238",
"^(	c #F09037",
"_(	c #823111",
"`(	c #7B290C",
"a(	c #8E330F",
"b(	c #CA5519",
"c(	c #D3611F",
"d(	c #FFC051",
"e(	c #FA9435",
"f(	c #B94B17",
"g(	c #1B0400",
"h(	c #1B0B08",
"i(	c #782D11",
"j(	c #933713",
"k(	c #BA4C1A",
"l(	c #E07229",
"m(	c #FCAC45",
"n(	c #FFC357",
"o(	c #FFDF71",
"p(	c #FFE97E",
"q(	c #FFDA6E",
"r(	c #FFC356",
"s(	c #FEB84F",
"t(	c #FDBA4F",
"u(	c #EB8432",
"v(	c #F7973A",
"w(	c #F7993B",
"x(	c #ED7F2E",
"y(	c #A94316",
"z(	c #74270D",
"{(	c #A13D13",
"|(	c #BA4B16",
"}(	c #EF812B",
"~(	c #F28830",
" )	c #FF9D39",
"!)	c #943811",
"#)	c #4D1C0C",
"$)	c #5C210D",
"%)	c #331309",
"&)	c #63200C",
"')	c #BD4D1A",
"()	c #F59438",
"))	c #FFC554",
"*)	c #FFCC5B",
"+)	c #FFDD6B",
",)	c #FFE77C",
"-)	c #FCAC47",
".)	c #FBA442",
"0)	c #FFB74C",
"1)	c #FAA241",
"2)	c #EA8130",
"3)	c #C3561E",
"4)	c #D05F21",
"5)	c #B84D1A",
"6)	c #9D3B13",
"7)	c #D96621",
"8)	c #EC7D2A",
"9)	c #FCA13C",
":)	c #AB4415",
";)	c #963A12",
"<)	c #1C0504",
"=)	c #130806",
">)	c #2C1108",
"?)	c #170805",
"@)	c #43190B",
"A)	c #C0541D",
"B)	c #E87027",
"C)	c #F38C33",
"D)	c #F48E35",
"E)	c #FFD260",
"F)	c #FFDE6C",
"G)	c #FFDA67",
"H)	c #FFD362",
"I)	c #F79C3D",
"J)	c #F18C35",
"K)	c #E87C2D",
"L)	c #D56423",
"M)	c #BE501B",
"N)	c #E6782A",
"O)	c #DA6924",
"P)	c #EF832E",
"Q)	c #F78E33",
"R)	c #B9501A",
"S)	c #5C1B08",
"T)	c #1A0803",
"U)	c #0E0808",
"V)	c #2D1107",
"W)	c #2A1008",
"X)	c #341209",
"Y)	c #501D0C",
"Z)	c #B14919",
"[)	c #BF501C",
"])	c #D66020",
"^)	c #F18932",
"_)	c #F99738",
"`)	c #FFB74B",
"a)	c #FCAF49",
"b)	c #CE5D21",
"c)	c #F49137",
"d)	c #ED822F",
"e)	c #D66623",
"f)	c #DA6824",
"g)	c #E37228",
"h)	c #F99537",
"i)	c #FFAD43",
"j)	c #F88830",
"k)	c #341106",
"l)	c #100806",
"m)	c #1E0B06",
"n)	c #391408",
"o)	c #64230D",
"p)	c #521E0C",
"q)	c #64220D",
"r)	c #802E11",
"s)	c #963813",
"t)	c #C9581E",
"u)	c #F28D34",
"v)	c #FFA23F",
"w)	c #DD6B26",
"x)	c #A44016",
"y)	c #F48732",
"z)	c #EE7C2D",
"{)	c #E9782C",
"|)	c #D86322",
"})	c #C8551B",
"~)	c #B34918",
" *	c #8B3311",
"!*	c #1F0C09",
"#*	c #37130A",
"$*	c #351309",
"%*	c #60220C",
"&*	c #66250E",
"'*	c #772B0F",
"(*	c #832E10",
")*	c #8F3714",
"**	c #E16E27",
"+*	c #D16022",
",*	c #8E3513",
"-*	c #9D3B14",
".*	c #A94418",
"0*	c #521C0A",
"1*	c #391207",
"2*	c #290C05",
"3*	c #170709",
"4*	c #160A0C",
"5*	c #270F08",
"6*	c #45190A",
"7*	c #3B1509",
"8*	c #43160A",
"9*	c #501E0C",
":*	c #301208",
";*	c #351208",
"<*	c #220C06",
"=*	c #230D07",
">*	c #000235",
"?*	c #100810",
"@*	c #160907",
"A*	c #1A0A06",
"                                                                        ",
"                                # $ % &                                 ",
"                      ' ( ) * + , - . 0 1 2 3 4 5 6 7                   ",
"                  8 9 : ; < = > ? @ A B C D E F G H I J K               ",
"                L M N O P Q R S T U V W X Y Z [ ] ^ _ ` a b             ",
"              c d e f g h i j k l m n o p q r s t u v w x y z           ",
"            { | } ~  !!!#!$!%!&!'!(!)!*!+!,!-!.!0!1!2!3!4!5!6!          ",
"          7!8!9!:!;!<!=!>!?!@!A!B!l C!D!E!F!G!H!I!J!K!L!M!N!O!P!        ",
"          Q!R!S!T!E!U!V!W!X!Y!Z![!]!'!^!_!`!a!b!c!d!e!g f!g!1!h!        ",
"        i!j!k!l!k m!n!o!p!q!r!s!t!u!v!w!x!y!z!{!|!}!~! #!###$#%#&#      ",
"      '#(#)#*#+#,#-#.#0#1#2#3#4#5#6#7#8#9#:#;#<#=#>#?#@#1!A#B#C#D#E#    ",
"    F#G#H#I#J#K#L#M#N#O#P#Q#R#S#T#U#V#W#X#Y#Z#[#]#^#_#`#a#b#c#d#e#f#g#  ",
"    h#i#j#k#l#m#n#o#p#q#r#s#t#u#v#w#x#y#z#{#|#}#~# $r !$#$$$%$&$'$($)$*$",
"    +$,$-$.$0$1$2$3$4$5$6$7$8$9$:$;$<$=$>$?$@$A$B$C$r D$E$F$G$H$I$J$K$L$",
"  M$N$O$P$Q$R$S$T$U$V$W$X$Y$Z$[$]$^$_$5#`$a$@$b$c$d$e$f$g$h$i$j$k$l$m$n$",
"  o$p$q$r$s$(#t$u$v$w$x$y$z${$|$}$~$ %!%#%$%%%&%'%(%)%*%+%,%-%.%0%1%2%3%",
"  4%5%6%7%8%9%:%;%<%=%>%V$?%@%A%B%C%D%E%^$F%G%H%I%J%K%L%M%9#N%O%P%Q%R%S%",
"  T%U%V%R$W%X%Y%Z%[%]%^%_%`%a%b%5#c%d%e%f%g%h%i%j%k%l%m%n%o%p%q%r%s%t%u%",
"  v%w%x%y%z%{%|%}%~% &!&#&$&%&&&'&(&)&*&+&,&-&.&0&1&2&3&4&5&6&0!7&8&9&:&",
"  ;&<&=&>&?&@&A&B&C&D&E&F&G&H&I&J&K&L&M&N&O&P&Q&R&S&T&U&V&W&X&Y&Z&[&]&  ",
"  ^&~%_&`&a&b&c&d&e&f&g&0#h&i&j&k&l&m&n&o&p&q&r&s&t&u&v&w&x&y&z&{&|&}&  ",
"    ~& '!'#'$'%'&'''(')'*'+'O ,'-'.'0'1'2'3'4'a&5'6'p 7'8'9'S!:';'<'='  ",
"    >'?'@'A'B'C'D'E'F'G'H'I'J'K'L'M'N'O'o%P'Q'R''!E!$!S'T'U'V'W'X'Y'    ",
"      Z'[']'^'!'_'`'a'b'c'd'e'f'F%g'h'i'j'k'<!l'm'q%n'o'p'[&q'r's'      ",
"      t'u'v'w'x'y'z'{'|'}'~' (!(#($(!&%(&(o''('((()(*(+(,(-(.(0(1(      ",
"      2(3(4(5(6(7(8(9(:(;(<(=(>(?(@(A(B(f%C(D(E(F(G(H(I(J(K(L(M(        ",
"        N(O(P(Q(+'R(S(V%T(U(V(W(X(Y(E&Z([(](^(_(`(a(b(c(d(e(f(g(        ",
"        h(i(j(0$k(l(w'm(n(o(p(q(r(s(t(u(v(w(x(y(z({(|(}(~( )!)          ",
"          #)$)%)&)')()))*)+),)'!-).)0)1)2)3)4)5)6)7)8)9):);)<)          ",
"          =)>)?)@)A)B)C)D)E)F)G)H)I)J)K)L)M)d N)O)P)Q)R)S)T)            ",
"          U)V)W)X)Y)Z)[)])^)_)`)a)b)E&c)d)e)f)g)h)i)j)>$k)              ",
"            l)m)n)o)p)q)r)s)t)u)v)w)x)H'y)z){)|)})~) *P#                ",
"                !*#*$*%*&*'*(*)***+*,*-*.*s)0*1*2*3*                    ",
"                      4*5*6*7*8*9*:*;*$*<*=*                            ",
"                        >*?*@*A*                                        ",
"                                                                        "};