/* XPM */ 
static const char * crash_11_xpm[] = {
"36 36 780 2",
"  	c None",
"! 	c black",
"# 	c #591922",
"$ 	c #AE3116",
"% 	c #3B060D",
"& 	c #A33613",
"' 	c #E56E23",
"( 	c #EA7022",
") 	c #AE4111",
"* 	c #4B1303",
"+ 	c #390C02",
", 	c #310A05",
"- 	c #1F0706",
". 	c #261109",
"0 	c #F39035",
"1 	c #FFAD42",
"2 	c #FEB751",
"3 	c #FFC762",
"4 	c #FFC15A",
"5 	c #FFB145",
"6 	c #FFB146",
"7 	c #FEA33C",
"8 	c #FC9334",
"9 	c #F07D2A",
": 	c #E77023",
"; 	c #D7601D",
"< 	c #F3842C",
"= 	c #99380E",
"> 	c #431205",
"? 	c #4E120A",
"@ 	c #2D0804",
"A 	c #69290E",
"B 	c #F09D3C",
"C 	c #FFBC4D",
"D 	c #F89B42",
"E 	c #F99C41",
"F 	c #FEB655",
"G 	c #FFDE83",
"H 	c #FFD267",
"I 	c #FFD96B",
"J 	c #FFC154",
"K 	c #FFD05C",
"L 	c #FFCB58",
"M 	c #FFAA40",
"N 	c #F99937",
"O 	c #F27F2A",
"P 	c #EA7223",
"Q 	c #F98F30",
"R 	c #E57324",
"S 	c #5B1C06",
"T 	c #3E180A",
"U 	c #CC5F21",
"V 	c #FFBC4F",
"W 	c #FFD662",
"X 	c #FDB34C",
"Y 	c #F69B3F",
"Z 	c #FCAE46",
"[ 	c #FEBC50",
"] 	c #FFDE76",
"^ 	c #FEBF56",
"_ 	c #FFD063",
"` 	c #FFD565",
"a 	c #FFD563",
"b 	c #FFC858",
"c 	c #F49135",
"d 	c #F79435",
"e 	c #F79736",
"f 	c #F79739",
"g 	c #FFB546",
"h 	c #FFC752",
"i 	c #F19736",
"j 	c #441303",
"k 	c #A63E21",
"l 	c #F3A13F",
"m 	c #FFC04F",
"n 	c #FFD363",
"o 	c #FFE684",
"p 	c #FFC45C",
"q 	c #FFD061",
"r 	c #FFE475",
"s 	c #FFE682",
"t 	c #FFE57F",
"u 	c #FFDD76",
"v 	c #FFE380",
"w 	c #FFDA6C",
"x 	c #FFCD5C",
"y 	c #FFD364",
"z 	c #FEBE50",
"{ 	c #FFBD4F",
"| 	c #FFC756",
"} 	c #FFD76A",
"~ 	c #FFD464",
" !	c #FFDE71",
"!!	c #FFDE66",
"#!	c #E27A28",
"$!	c #2B0A00",
"%!	c #FFB545",
"&!	c #FB9034",
"'!	c #FF9434",
"(!	c #FFC556",
")!	c #FFD268",
"*!	c #FDB754",
"+!	c #FAA23F",
",!	c #FFD164",
"-!	c #FFF090",
".!	c #FFF4A7",
"0!	c #FFE67F",
"1!	c #FFE992",
"2!	c #FFE483",
"3!	c #FFDB6C",
"4!	c #FFD769",
"5!	c #FFC256",
"6!	c #FFC95C",
"7!	c #FFDD6F",
"8!	c #FFD86B",
"9!	c #FFD263",
":!	c #FFC557",
";!	c #FFCE5B",
"<!	c #FFB544",
"=!	c #EF842B",
">!	c #F46924",
"?!	c #F87E2B",
"@!	c #FDA13D",
"A!	c #FDB249",
"B!	c #FFD868",
"C!	c #FEC15F",
"D!	c #FCAF4D",
"E!	c #FAAC4D",
"F!	c #FFDB74",
"G!	c #FFF096",
"H!	c #FFEC91",
"I!	c #FFE88F",
"J!	c #FFE98A",
"K!	c #FFE17C",
"L!	c #FFE481",
"M!	c #FFE47E",
"N!	c #FEBF54",
"O!	c #FFC85E",
"P!	c #FFC65B",
"Q!	c #FFCC62",
"R!	c #FCB045",
"S!	c #FFE071",
"T!	c #FFE26F",
"U!	c #FFE16B",
"V!	c #D1442F",
"W!	c #FE9E3E",
"X!	c #FFB64A",
"Y!	c #FFC95A",
"Z!	c #FFD264",
"[!	c #FFD46C",
"]!	c #FFC662",
"^!	c #FFDC77",
"_!	c #FFDC76",
"`!	c #FFE57D",
"a!	c #FFE88E",
"b!	c #FFED98",
"c!	c #FFF39F",
"d!	c #FFE98B",
"e!	c #FFDD7D",
"f!	c #FFD577",
"g!	c #FFEC9A",
"h!	c #FFDB79",
"i!	c #FFDE7F",
"j!	c #FFDC74",
"k!	c #FECC65",
"l!	c #F9A13D",
"m!	c #FFD06A",
"n!	c #FFE681",
"o!	c #FFE175",
"p!	c #FFD768",
"q!	c #FFC555",
"r!	c #FF7060",
"s!	c #300E19",
"t!	c #C04F1B",
"u!	c #FFAC44",
"v!	c #FFC85A",
"w!	c #FFE276",
"x!	c #FFD467",
"y!	c #FFCF70",
"z!	c #FFE580",
"{!	c #FFC059",
"|!	c #FBAE50",
"}!	c #F29A49",
"~!	c #F7A04F",
" #	c #FFC061",
"!#	c #FFCA68",
"##	c #FFCE69",
"$#	c #FFC35D",
"%#	c #F8A445",
"&#	c #FFC258",
"'#	c #FFEC89",
"(#	c #FFE075",
")#	c #FDB84D",
"*#	c #FEBF51",
"+#	c #FFDF7E",
",#	c #FFED87",
"-#	c #FFD66B",
".#	c #FCAC42",
"0#	c #FFAF40",
"1#	c #FFA83F",
"2#	c white",
"3#	c #D6581E",
"4#	c #ED752A",
"5#	c #FFB44E",
"6#	c #FCAE48",
"7#	c #FFBE57",
"8#	c #FDBF5E",
"9#	c #FFD270",
":#	c #FFD570",
";#	c #F08E3C",
"<#	c #C8581D",
"=#	c #8E3210",
">#	c #923210",
"?#	c #D96826",
"@#	c #FAA847",
"A#	c #FEC05E",
"B#	c #FFC860",
"C#	c #FFBB51",
"D#	c #F79938",
"E#	c #FDB147",
"F#	c #FFD969",
"G#	c #FFDC6D",
"H#	c #FEBF50",
"I#	c #FFCC5F",
"J#	c #FFED81",
"K#	c #FFE477",
"L#	c #FCAF44",
"M#	c #FA9734",
"N#	c #FF8E2F",
"O#	c #FFA93C",
"P#	c #995040",
"Q#	c #FA8A32",
"R#	c #FFA744",
"S#	c #F89D41",
"T#	c #E57A32",
"U#	c #F18D39",
"V#	c #F08D3B",
"W#	c #FEAC49",
"X#	c #EC8837",
"Y#	c #C1501A",
"Z#	c #8C3110",
"[#	c #7A280D",
"]#	c #903511",
"^#	c #E97D2D",
"_#	c #FBA744",
"`#	c #FEBE57",
"a#	c #FFC25A",
"b#	c #F79C3C",
"c#	c #DD6923",
"d#	c #FCB24B",
"e#	c #FFD76D",
"f#	c #FFE27A",
"g#	c #FEC256",
"h#	c #FBAE49",
"i#	c #FFCC60",
"j#	c #FFDD6C",
"k#	c #FFC24F",
"l#	c #F7A13C",
"m#	c #C14B13",
"n#	c #F67B26",
"o#	c #FF8E30",
"p#	c #FD9E3E",
"q#	c #FFD564",
"r#	c #FCB753",
"s#	c #E57D35",
"t#	c #F2923D",
"u#	c #F08E39",
"v#	c #F69B3E",
"w#	c #BD521D",
"x#	c #A74015",
"y#	c #792B0F",
"z#	c #8A3210",
"{#	c #D05D1F",
"|#	c #F0822D",
"}#	c #EB8231",
"~#	c #FFC75A",
" $	c #FFCD64",
"!$	c #F3923A",
"#$	c #DD6B24",
"$$	c #E67629",
"%$	c #E97B2B",
"&$	c #FCAF4B",
"'$	c #FEC359",
"($	c #FFC558",
")$	c #F99E3B",
"*$	c #F8A142",
"+$	c #FFC561",
",$	c #FDB046",
"-$	c #FFC955",
".$	c #EB812B",
"0$	c #FFAC3F",
"1$	c #FF9B35",
"2$	c #92340E",
"3$	c #762212",
"4$	c #E36D27",
"5$	c #F89B3F",
"6$	c #FBA745",
"7$	c #F9A545",
"8$	c #F2923C",
"9$	c #D06123",
":$	c #DE6E28",
";$	c #C6561D",
"<$	c #A84317",
"=$	c #70280E",
">$	c #923612",
"?$	c #D56522",
"@$	c #FCA642",
"A$	c #F7993B",
"B$	c #FCB24A",
"C$	c #FCA944",
"D$	c #EB7E2D",
"E$	c #E98131",
"F$	c #E47429",
"G$	c #FCAA4A",
"H$	c #FBAC4B",
"I$	c #FEB84E",
"J$	c #F38F34",
"K$	c #FDBD54",
"L$	c #FDB246",
"M$	c #FCB145",
"N$	c #EE862C",
"O$	c #A73E10",
"P$	c #B54311",
"Q$	c #822E12",
"R$	c #DD6825",
"S$	c #EE8331",
"T$	c #FCAB47",
"U$	c #FFBB52",
"V$	c #E1762E",
"W$	c #E17129",
"X$	c #DB6C27",
"Y$	c #C2551E",
"Z$	c #9C3C15",
"[$	c #993B14",
"]$	c #C9591E",
"^$	c #E37227",
"_$	c #FA9C3C",
"`$	c #EE8530",
"a$	c #DE6F27",
"b$	c #F8A141",
"c$	c #FDAB45",
"d$	c #D76723",
"e$	c #AE4416",
"f$	c #C5531A",
"g$	c #F3933B",
"h$	c #ED8332",
"i$	c #FDB851",
"j$	c #F8A144",
"k$	c #EB7D2C",
"l$	c #F49438",
"m$	c #FDB94E",
"n$	c #FFBE50",
"o$	c #FEBE4F",
"p$	c #F58E31",
"q$	c #B04211",
"r$	c #762206",
"s$	c #893313",
"t$	c #D76323",
"u$	c #DC6C26",
"v$	c #F79A3D",
"w$	c #FBA848",
"x$	c #CE5D21",
"y$	c #EA812F",
"z$	c #BB521E",
"{$	c #BC501C",
"|$	c #A03E16",
"}$	c #903613",
"~$	c #DB6B26",
" %	c #E3752B",
"!%	c #F08B35",
"#%	c #DD6D26",
"$%	c #CC581C",
"%%	c #E17128",
"&%	c #F89B3C",
"'%	c #E5772A",
"(%	c #CE5B20",
")%	c #D96723",
"*%	c #F99F3E",
"+%	c #F08B37",
",%	c #FFCE6D",
"-%	c #FBAF4B",
".%	c #EB7F2C",
"0%	c #FAA33F",
"1%	c #FCAF45",
"2%	c #FFCF5C",
"3%	c #FFC04E",
"4%	c #FFA039",
"5%	c #A63C0F",
"6%	c #C2541D",
"7%	c #DF6C27",
"8%	c #FBAA45",
"9%	c #FDCA5F",
":%	c #BC4F1C",
";%	c #E06E26",
"<%	c #DB6D28",
"=%	c #D86826",
">%	c #B64B1A",
"?%	c #A54117",
"@%	c #E07027",
"A%	c #E87A2C",
"B%	c #F18A33",
"C%	c #E6772A",
"D%	c #DE6E25",
"E%	c #E47428",
"F%	c #FEB249",
"G%	c #FFBA51",
"H%	c #F9A242",
"I%	c #FCB551",
"J%	c #FFCF64",
"K%	c #FFD778",
"L%	c #FFEC88",
"M%	c #FFD973",
"N%	c #FEC35E",
"O%	c #ED8633",
"P%	c #F79B3B",
"Q%	c #FEBD4F",
"R%	c #FFCC57",
"S%	c #FFBC49",
"T%	c #912E0C",
"U%	c #F17E2E",
"V%	c #F9A03F",
"W%	c #FFC759",
"X%	c #FFC65A",
"Y%	c #E57C32",
"Z%	c #EE832F",
"[%	c #F89D3D",
"]%	c #F59338",
"^%	c #DD6D28",
"_%	c #BF521D",
"`%	c #CD5E20",
"a%	c #F38D34",
"b%	c #F69739",
"c%	c #EC8230",
"d%	c #F9A240",
"e%	c #F9A03E",
"f%	c #FFC257",
"g%	c #FFC961",
"h%	c #FFCC63",
"i%	c #FFE287",
"j%	c #FFEA93",
"k%	c #FFF3B1",
"l%	c #FFEF9B",
"m%	c #FFCE6F",
"n%	c #FEB955",
"o%	c #FDBE5F",
"p%	c #FCB04C",
"q%	c #FDB648",
"r%	c #FFCA56",
"s%	c #FFAF42",
"t%	c #83221A",
"u%	c #D96523",
"v%	c #FF9E3E",
"w%	c #FDAA45",
"x%	c #FFD86A",
"y%	c #FFD671",
"z%	c #FFDA7D",
"{%	c #FCB04E",
"|%	c #EE8734",
"}%	c #FBA643",
"~%	c #EE8633",
" &	c #D26223",
"!&	c #C4531C",
"#&	c #F08933",
"$&	c #FEB850",
"%&	c #FDBE5A",
"&&	c #FFCA62",
"'&	c #FEBD54",
"(&	c #FDB84E",
")&	c #F5983C",
"*&	c #FEC55E",
"+&	c #FFE48A",
",&	c #FFE892",
"-&	c #FFE285",
".&	c #FFE885",
"0&	c #FEC65E",
"1&	c #F59C44",
"2&	c #FDBB58",
"3&	c #FFDD6A",
"4&	c #FFD864",
"5&	c #D6611F",
"6&	c #68270D",
"7&	c #FFC95D",
"8&	c #FFCE5E",
"9&	c #FFE47B",
":&	c #FFEE8C",
";&	c #FFCE66",
"<&	c #EE8936",
"=&	c #F7993C",
">&	c #EC8432",
"?&	c #E5762A",
"@&	c #F7983B",
"A&	c #FFBF53",
"B&	c #FFC359",
"C&	c #FFC356",
"D&	c #FDB149",
"E&	c #FCB452",
"F&	c #FFEA8E",
"G&	c #FFEB9A",
"H&	c #FFE597",
"I&	c #FFE78D",
"J&	c #F4923B",
"K&	c #FDBD5A",
"L&	c #FFDE77",
"M&	c #FFDE6A",
"N&	c #FFA73E",
"O&	c #A3300C",
"P&	c #8D290C",
"Q&	c #F47F2E",
"R&	c #FFD463",
"S&	c #FFD266",
"T&	c #FFDF77",
"U&	c #FFE179",
"V&	c #FCB858",
"W&	c #F08936",
"X&	c #E4762C",
"Y&	c #CB5C22",
"Z&	c #F29138",
"[&	c #FCAC46",
"]&	c #FFCB5C",
"^&	c #F59D40",
"_&	c #F08731",
"`&	c #F79A3B",
"a&	c #FDB54F",
"b&	c #FFEA84",
"c&	c #FFE88B",
"d&	c #FFE590",
"e&	c #FFEB93",
"f&	c #FFEB8A",
"g&	c #FEC35C",
"h&	c #FFD567",
"i&	c #FFD163",
"j&	c #FFCB61",
"k&	c #FD9233",
"l&	c #DC671E",
"m&	c #D56123",
"n&	c #FFDA6A",
"o&	c #FFC960",
"p&	c #FFD468",
"q&	c #FFE37E",
"r&	c #FEC45F",
"s&	c #F6993F",
"t&	c #F3903B",
"u&	c #F49A3F",
"v&	c #FFB54D",
"w&	c #FFBC52",
"x&	c #E9802F",
"y&	c #D25F1F",
"z&	c #E8792B",
"{&	c #FFE87F",
"|&	c #FFE787",
"}&	c #FFE07F",
"~&	c #FFE995",
" '	c #FFF3A2",
"!'	c #FEC053",
"#'	c #FFC157",
"$'	c #FEBF52",
"%'	c #FCAC43",
"&'	c #F89134",
"''	c #CB5115",
"('	c #541704",
")'	c #310B07",
"*'	c #EA8231",
"+'	c #FFCE60",
",'	c #FFD669",
"-'	c #FFC761",
".'	c #FAAC4E",
"0'	c #FFC661",
"1'	c #FFBF57",
"2'	c #FEBA55",
"3'	c #F79D3E",
"4'	c #CD591D",
"5'	c #CA581E",
"6'	c #DF6F27",
"7'	c #FFE47A",
"8'	c #FFD568",
"9'	c #FFD365",
":'	c #FFD368",
";'	c #FEB94D",
"<'	c #FDB349",
"='	c #FAA23C",
">'	c #F48F34",
"?'	c #FE9C37",
"@'	c #8E310D",
"A'	c #130100",
"B'	c #AE4517",
"C'	c #FFB34A",
"D'	c #FFE679",
"E'	c #FFEB8C",
"F'	c #FFD977",
"G'	c #FFCC67",
"H'	c #F79F45",
"I'	c #F9AB50",
"J'	c #FFCE65",
"K'	c #FFD466",
"L'	c #FFCB5E",
"M'	c #F49238",
"N'	c #F18B34",
"O'	c #F4933A",
"P'	c #F9A141",
"Q'	c #FFD265",
"R'	c #FFC459",
"S'	c #FFC457",
"T'	c #EB7E2B",
"U'	c #EC812C",
"V'	c #FFCD63",
"W'	c #FFC55B",
"X'	c #FBAC44",
"Y'	c #EA7A29",
"Z'	c #F7892F",
"['	c #4E1504",
"]'	c #63200E",
"^'	c #EF822F",
"_'	c #FFA33F",
"`'	c #FFC355",
"a'	c #FCB455",
"b'	c #FFCF67",
"c'	c #FFDE7D",
"d'	c #FFD66A",
"e'	c #F9A547",
"f'	c #F3913A",
"g'	c #F9A13F",
"h'	c #F9A441",
"i'	c #F2862F",
"j'	c #ED832E",
"k'	c #DD6720",
"l'	c #DD671F",
"m'	c #F9A43E",
"n'	c #FFD05F",
"o'	c #FDAB42",
"p'	c #FFA942",
"q'	c #F6892F",
"r'	c #250A02",
"s'	c #8C3412",
"t'	c #D15D20",
"u'	c #EC7E2E",
"v'	c #FB9D3B",
"w'	c #FDB24C",
"x'	c #FFCF68",
"y'	c #FFE583",
"z'	c #FFED90",
"{'	c #FFEF95",
"|'	c #FFE081",
"}'	c #FCB653",
"~'	c #FBB14E",
" (	c #FAA645",
"!(	c #FEBB51",
"#(	c #FFB44D",
"$(	c #EF8834",
"%(	c #BD4F1A",
"&(	c #9D3911",
"'(	c #CE581A",
"((	c #E77729",
")(	c #FFE57A",
"*(	c #FFC354",
"+(	c #FFAB41",
",(	c #B14816",
"-(	c #67240D",
".(	c #D46021",
"0(	c #ED782B",
"1(	c #E8802F",
"2(	c #F17D2C",
"3(	c #F38E35",
"4(	c #FFE97E",
"5(	c #FFEF8F",
"6(	c #FEC158",
"7(	c #FFE77F",
"8(	c #FFC458",
"9(	c #FFC254",
":(	c #F9AC47",
";(	c #DD6F27",
"<(	c #B74918",
"=(	c #8F300F",
">(	c #CE5D1D",
"?(	c #EC7E29",
"@(	c #FFD35E",
"A(	c #EC832D",
"B(	c #330E07",
"C(	c #521B0C",
"D(	c #7C2D10",
"E(	c #45180A",
"F(	c #A74116",
"G(	c #CB581E",
"H(	c #FFD15F",
"I(	c #FFE271",
"J(	c #FFE67E",
"K(	c #FFDF7C",
"L(	c #FEB34A",
"M(	c #F29239",
"N(	c #D36524",
"O(	c #F08B33",
"P(	c #E97B2C",
"Q(	c #D76924",
"R(	c #F69335",
"S(	c #F48B30",
"T(	c #FF9F3A",
"U(	c #D3611F",
"V(	c #67220A",
"W(	c #2E1007",
"X(	c #561E0B",
"Y(	c #511B0A",
"Z(	c #531D0C",
"[(	c #B44A19",
"](	c #FFA13D",
"^(	c #FBA23F",
"_(	c #FFE374",
"`(	c #FFDF6E",
"a(	c #FFDC6B",
"b(	c #FEBD52",
"c(	c #FFBF52",
"d(	c #FEB44B",
"e(	c #EC8331",
"f(	c #D46121",
"g(	c #E77B2D",
"h(	c #F08832",
"i(	c #F18931",
"j(	c #F79235",
"k(	c #FFA33E",
"l(	c #DC7127",
"m(	c #421406",
"n(	c #67250D",
"o(	c #66240D",
"p(	c #742A10",
"q(	c #7A2A0F",
"r(	c #A54217",
"s(	c #F38C34",
"t(	c #FFAD45",
"u(	c #FFC958",
"v(	c #FFC75C",
"w(	c #F18B35",
"x(	c #F89A3C",
"y(	c #FBA541",
"z(	c #FFB74C",
"{(	c #FCA240",
"|(	c #FCA03E",
"}(	c #FFA640",
"~(	c #FFA53F",
" )	c #FFAF45",
"!)	c #BB551D",
"#)	c #461507",
"$)	c #571E0D",
"%)	c #71270F",
"&)	c #7C2C11",
"')	c #8D3312",
"()	c #CC5A1F",
"))	c #E16D27",
"*)	c #F79B3C",
"+)	c #FFAE46",
",)	c #E9782B",
"-)	c #DE6A26",
".)	c #D46122",
"0)	c #E9772B",
"1)	c #F78D34",
"2)	c #FB9437",
"3)	c #FC9135",
"4)	c #E46E25",
"5)	c #B94F1B",
"6)	c #441408",
"7)	c #2C100A",
"8)	c #7D2D11",
"9)	c #8E3412",
":)	c #74280F",
";)	c #69260F",
"<)	c #BC511D",
"=)	c #CC591E",
">)	c #CE5A1F",
"?)	c #AC4417",
"@)	c #6B240C",
"A)	c #361006",
"B)	c #341008",
"C)	c #23070B",
"D)	c #280139",
"E)	c #36130B",
"F)	c #341308",
"G)	c #501B0B",
"H)	c #411709",
"I)	c #1A0A06",
"J)	c #210D07",
"K)	c #0C0504",
"L)	c #160905",
"M)	c #0A0305",
"                                                                        ",
"                                                                        ",
"                        # $ % & ' ( ) * + , -                           ",
"                      . 0 1 2 3 4 5 6 7 8 9 : ; < = > ?                 ",
"                  @ A B C D E F G H I J K L M N O P Q R S               ",
"                T U V W X Y Z [ ] ^ _ ` a b c d e f g h i j             ",
"              k l m n o p q r s t u v w x y z { | } ~  !!!#!$!          ",
"            %!&!'!(!)!*!+!,!-!.!t 0!1!2!3!4!5!6!7!8!9!:!;!<!=!          ",
"          >!?!@!A!B!C!D!E!F!G!H!I!J!K!L!M!N!O!P!Q!R!3!S!r T!U!          ",
"        V!W!X!Y!Z![!]!^!_!`!a!b!c!d!e!f!g!h!i!j!k!l!m!n!o!p!q!r!        ",
"      s!t!u!v!w!x!y!j!z!{!|!}!~! #!###$#%#&#'#(#)#*#+#,#-#.#0#1#2#      ",
"      3#4#5#6#7#8#9#:#;#<#=#>#?#@#A#B#C#D#E#F#G#q H#I#J#K#L#M#N#O#P#    ",
"      Q#R#S#T#U#V#W#X#Y#Z#[#]#^#_#`#a#b#c#^#d#e#f#g#h#i#j#k#l#m#n#o#    ",
"      p#q#r#s#t#u#v#w#x#y#z#{#|#}#~# $!$#$$$%$&$'$($)$*$+$,$-$.$0$1$2$  ",
"    3$4$5$6$7$8$9$:$;$<$=$>$?$@$A$B$5!C$D$E$F$G$H$I$J$%$K$L$M$R N$O$P$  ",
"    Q$R$S$T$U$V$W$X$Y$Z$[$]$^$_$`$a$b$c$d$e$f$g$h$i$j$k$l$m$n$o$p$q$r$  ",
"    s$t$u$v$w$x$y$z${$|$}$~$ %!%#%$%%%&%'%(%)%*%+%,%B#-%.%0%1%2%3%4%5%  ",
"    6%7%8%(!9%:%;%<%=%>%?%@%A%B%C%D%E%F%G%H%I%J%K%L%M%N%O%P%~#Q%R%S%T%  ",
"    U%7%V%W%X%Y%Z%[%]%^%_%`%a%b%c%d%e%f%g%h%i%j%k%l%m%n%o%p%Z q%r%s%t%  ",
"    u%v%w%x%y%z%{%|%}%~% &!&#&$&%&&&'&(&)&*&+&,&-&.&0&1&2&6!($3&4&5&    ",
"    6&7&8&9&d!:&;&<&=&>&?&@%@&A& $B&C&D&E&M%F&G&H&I&N%J&K&L&] M&N&O&    ",
"    P&Q&R&S&T&U&V&W&X&Y&Z&[&a ]&^&_&`&a&b&c&i%d&e&f&i#g&h&i&j&k&l&      ",
"      m&n&o&p&q&r&s&t&u&v&v!w&x&Y#y&z&@#{&|&}&~& 't !'#'$'%'&'''('      ",
"      )'*'+','h&-'.'0'1'2'J%3'z&4'5'6'&%J 7'8'9':':!;'<'='>'?'@'A'      ",
"        B'C':!D'E'F'G'H'I'J'K'L'M'N'O'P'Q'x%R'S'T'U'V'W'X'Y'Z'['        ",
"        ]'^'_'`'9!f#g%a'b'T&c'd'g%e'f'g'J h'i'j'k'l'm'n'o'p'q'r'        ",
"          s't'u'v'w'x'2!y'z'{'z'|'}'~' (!(#($(%(&('((()(*(+(,(          ",
"          -(.(0(1(2(3(a 4(5(G!j!6( !7(8(9(:(;(<(=(>(?(@(1#A(B(          ",
"          C(s'D(E(F(G(H(I(J(c!K(i#I##'L(M(N(O(P(Q(R(S(T(U(V(            ",
"            W(X(Y(Z([(](^(n'_(`(a(b(c(d(e(f(g(h(i(j(k(l(m(              ",
"              n(o(p(q(r(<(s(t(u(v(w(x(y(z({(|(}(~( )!)#)                ",
"                $)%)&)p(')()))*)+),)-).)0)1)2)3)4)5)6)                  ",
"                      7)8)9):);)<)=)>)?)e$@)A)B)C)D)                    ",
"                          E)F)G)H)I)J)K)L)M)                            ",
"                                                                        ",
"                                                                        "};