/* XPM */ 
static const char * crash_5_xpm[] = {
"36 36 388 2",
"  	c None",
"! 	c black",
"# 	c #9E2109",
"$ 	c #FF772C",
"% 	c #FF7823",
"& 	c #FF751F",
"' 	c #FF9735",
"( 	c #FFDE80",
") 	c #FFFFCB",
"* 	c #FFFDB5",
"+ 	c #FFFFB3",
", 	c #FFFF72",
"- 	c #FFCA52",
". 	c #FFC665",
"0 	c #FFC256",
"1 	c #FFE69C",
"2 	c #FFF0B4",
"3 	c #FFF8CB",
"4 	c #FFFFF2",
"5 	c #FFFFEA",
"6 	c #FFF9CB",
"7 	c #FFF5C0",
"8 	c #FFF465",
"9 	c #F25688",
": 	c #9D3B16",
"; 	c #E8802E",
"< 	c #FFAF51",
"= 	c #FFBF69",
"> 	c #FFE99D",
"? 	c #FFF9C1",
"@ 	c #FFEDAD",
"A 	c #FFEBA1",
"B 	c #FFF0B6",
"C 	c #FFE6A8",
"D 	c #FBC27A",
"E 	c #FFE3AD",
"F 	c #FFF8B8",
"G 	c #FFF2B7",
"H 	c #FFFF7C",
"I 	c #FFD545",
"J 	c #743A22",
"K 	c #F6A947",
"L 	c #FFC957",
"M 	c #FFE284",
"N 	c #FFEFA3",
"O 	c #FFF5B2",
"P 	c #FFF4BD",
"Q 	c #FFECA7",
"R 	c #FFF0B1",
"S 	c #FFF0AA",
"T 	c #FFE68B",
"U 	c #FFD077",
"V 	c #FBB152",
"W 	c #F7B36B",
"X 	c #FFF6CB",
"Y 	c #FFFFBF",
"Z 	c #FFEA7A",
"[ 	c #FFF64F",
"] 	c #603C34",
"^ 	c #F8C866",
"_ 	c #FFC758",
"` 	c #FFDD7D",
"a 	c #FFF4BB",
"b 	c #FFF1B8",
"c 	c #FFF7C6",
"d 	c #FFFAD7",
"e 	c #FFF4CA",
"f 	c #FFDE91",
"g 	c #FFE197",
"h 	c #FFEEB5",
"i 	c #FFF1B0",
"j 	c #FFDA82",
"k 	c #FCC87C",
"l 	c #FFE5AA",
"m 	c #FFF9CE",
"n 	c #FFF8B1",
"o 	c #FFFF8B",
"p 	c #FFFFB0",
"q 	c #FFE799",
"r 	c #FFE689",
"s 	c #FFC66C",
"t 	c #FFEFBC",
"u 	c #FFF8D1",
"v 	c #FFFBDF",
"w 	c #FFFCE4",
"x 	c #FFF9D9",
"y 	c #FFE58C",
"z 	c #FFDE84",
"{ 	c #FFE69E",
"| 	c #FFF0A9",
"} 	c #FFF2B3",
"~ 	c #FFE295",
" !	c #FFEFAF",
"!!	c #FFF9BE",
"#!	c #FFFFFC",
"$!	c #FF6B26",
"%!	c #FFD46A",
"&!	c #FFE994",
"'!	c #FFF1C4",
"(!	c #FFE7AB",
")!	c #FFEEA9",
"*!	c #FFF5BB",
"+!	c #FFF9D2",
",!	c #FFF5C7",
"-!	c #FFFDE9",
".!	c #FFFADF",
"0!	c #FFECA2",
"1!	c #FFECA8",
"2!	c #FFF3B8",
"3!	c #FFF9CF",
"4!	c #FFF6CA",
"5!	c #FFF3BD",
"6!	c #FFFDD4",
"7!	c #FFF6CF",
"8!	c white",
"9!	c #D05B1C",
":!	c #FFDD75",
";!	c #FFEEB1",
"<!	c #FFFDEC",
"=!	c #FFF4C8",
">!	c #FFF6CE",
"?!	c #FFFCDF",
"@!	c #FFF9D5",
"A!	c #FFFADE",
"B!	c #FFFFF3",
"C!	c #FFFCE8",
"D!	c #FFFCE1",
"E!	c #FFF6C6",
"F!	c #FFF5C1",
"G!	c #FFF9D0",
"H!	c #FFF6C4",
"I!	c #FFF6C5",
"J!	c #FFF0A8",
"K!	c #FFBB4F",
"L!	c #FFF1A2",
"M!	c #FFEDAE",
"N!	c #FFF9DC",
"O!	c #FFF7D2",
"P!	c #FFF3C0",
"Q!	c #FFFDEF",
"R!	c #FFFDEA",
"S!	c #FFFBDC",
"T!	c #FFFBE2",
"U!	c #FFFAE0",
"V!	c #FFF4C4",
"W!	c #FFF5D3",
"X!	c #FFFEF4",
"Y!	c #FFFBE3",
"Z!	c #FFF8CF",
"[!	c #FFF6C7",
"]!	c #FFF7D1",
"^!	c #FFF8D6",
"_!	c #FFFFFD",
"`!	c #E94A16",
"a!	c #FFE683",
"b!	c #FFF5B6",
"c!	c #FFF3BB",
"d!	c #FFF8D3",
"e!	c #FFFEF1",
"f!	c #FFFDF0",
"g!	c #FFFADD",
"h!	c #FFF1C2",
"i!	c #FFF8D5",
"j!	c #FFF7CC",
"k!	c #FFF7CF",
"l!	c #FFF8D8",
"m!	c #FFF1C0",
"n!	c #FFF0C0",
"o!	c #FFF7D0",
"p!	c #FFF0B3",
"q!	c #FFF1BE",
"r!	c #FFFFE6",
"s!	c #FFF68B",
"t!	c #FFE2FF",
"u!	c #FF8630",
"v!	c #FFFBC4",
"w!	c #FFF5BD",
"x!	c #FFF3BE",
"y!	c #FFF7D3",
"z!	c #FFFBE1",
"{!	c #FFF8D0",
"|!	c #FFFCE2",
"}!	c #FFF3CE",
"~!	c #FFEFB6",
" #	c #FFEAA3",
"!#	c #FFEFBB",
"##	c #FFF9DD",
"$#	c #FFF5C9",
"%#	c #FFF6C3",
"&#	c #FFF3B4",
"'#	c #FFE894",
"(#	c #FFCE78",
")#	c #FFB34D",
"*#	c #FF671F",
"+#	c #FFFF77",
",#	c #FFFFCA",
"-#	c #FFF0A4",
".#	c #FFF2BA",
"0#	c #FFFCE3",
"1#	c #FFF9D8",
"2#	c #FFF6C8",
"3#	c #FFF7CB",
"4#	c #FFF2AC",
"5#	c #FFF4C5",
"6#	c #FFF2C3",
"7#	c #FFF7D6",
"8#	c #FFFCE7",
"9#	c #FFF9DB",
":#	c #FFF5CB",
";#	c #FFE68E",
"<#	c #FFC45A",
"=#	c #FFBA53",
">#	c #FF6A20",
"?#	c #FF9F38",
"@#	c #FAF5CC",
"A#	c #FFF5B7",
"B#	c #FFF9D3",
"C#	c #FFF8CC",
"D#	c #FFFBDA",
"E#	c #FFF6D1",
"F#	c #FFF0AC",
"G#	c #FFF1AF",
"H#	c #FFF7CA",
"I#	c #FFFBD9",
"J#	c #FFF8CE",
"K#	c #FFEBA2",
"L#	c #FFE594",
"M#	c #FFDD7A",
"N#	c #FFD073",
"O#	c #FFDF6E",
"P#	c #DB4813",
"Q#	c #FFE953",
"R#	c #FFFFDD",
"S#	c #FFF4BE",
"T#	c #FFFEF2",
"U#	c #FFF8D7",
"V#	c #FFF0B2",
"W#	c #FFF7BF",
"X#	c #FFFADA",
"Y#	c #FFEEAB",
"Z#	c #FFEEA5",
"[#	c #FFEB99",
"]#	c #FFE875",
"^#	c #FFE84B",
"_#	c #FFFFBE",
"`#	c #FFF5C2",
"a#	c #FFF7C2",
"b#	c #FFFAD8",
"c#	c #FFF6D0",
"d#	c #FFF4C9",
"e#	c #FFEEB3",
"f#	c #FFEEAE",
"g#	c #FFFAD3",
"h#	c #FFFAD9",
"i#	c #FFF8C5",
"j#	c #FFF7C8",
"k#	c #FFE58F",
"l#	c #FFF4C1",
"m#	c #FFF4B5",
"n#	c #FFF6AE",
"o#	c #FFA941",
"p#	c #FFFF5F",
"q#	c #FFFDC0",
"r#	c #FFFFF1",
"s#	c #FFF7CD",
"t#	c #FFF5C3",
"u#	c #FFFFF8",
"v#	c #FFF7D4",
"w#	c #FFEDAF",
"x#	c #FFF5C8",
"y#	c #FFF8C6",
"z#	c #FFF5AF",
"{#	c #FFF6BB",
"|#	c #FFF5BC",
"}#	c #FFF4BC",
"~#	c #FFE692",
" $	c #FFE693",
"!$	c #FFEB95",
"#$	c #FFE583",
"$$	c #98330B",
"%$	c #E43D5D",
"&$	c #FFFFC0",
"'$	c #FFF5C5",
"($	c #FFF4BF",
")$	c #FFF5D2",
"*$	c #FFFAE6",
"+$	c #FFF7C7",
",$	c #FFF7C9",
"-$	c #FFFAD1",
".$	c #FFF2B6",
"0$	c #FFEDA9",
"1$	c #FFF4BA",
"2$	c #FFEEA6",
"3$	c #FFE99C",
"4$	c #FFF2B4",
"5$	c #FFF8C4",
"6$	c #FFF094",
"7$	c #FFE872",
"8$	c #FFFF94",
"9$	c #FFFFE1",
":$	c #FFFFE8",
";$	c #FFF9D7",
"<$	c #FFF3CD",
"=$	c #FFF8D2",
">$	c #FFF6C9",
"?$	c #FFF0AF",
"@$	c #FFE196",
"A$	c #FFEFA6",
"B$	c #FFE99B",
"C$	c #FFF5BF",
"D$	c #FFF699",
"E$	c #FFD362",
"F$	c #FFFE96",
"G$	c #FFFEC9",
"H$	c #FFE593",
"I$	c #FFF5C4",
"J$	c #FFEBA9",
"K$	c #FFECAB",
"L$	c #FFF1C3",
"M$	c #FFF3BC",
"N$	c #FFF3C2",
"O$	c #FFFBE0",
"P$	c #FFF6B2",
"Q$	c #FFDB7B",
"R$	c #A0421A",
"S$	c #FFC64E",
"T$	c #FFD375",
"U$	c #FFF6BA",
"V$	c #FFDC8B",
"W$	c #FFDD80",
"X$	c #FFD978",
"Y$	c #FFF3A9",
"Z$	c #FFE084",
"[$	c #FFECB8",
"]$	c #FFF1B5",
"^$	c #FFF7D5",
"_$	c #FFF097",
"`$	c #FFB443",
"a$	c #FFD25E",
"b$	c #FFF598",
"c$	c #FFEA89",
"d$	c #FFE9A5",
"e$	c #FFDF8D",
"f$	c #FEC86D",
"g$	c #FFCA69",
"h$	c #FCB656",
"i$	c #FFDA80",
"j$	c #FFE296",
"k$	c #FFF3C9",
"l$	c #FDC775",
"m$	c #FED388",
"n$	c #FFF2B1",
"o$	c #FFFABC",
"p$	c #FFFFE2",
"q$	c #FFF9B6",
"r$	c #FFCF54",
"s$	c #FF9B44",
"t$	c #FF9C3B",
"u$	c #FFD567",
"v$	c #FFFFB7",
"w$	c #FFEFA4",
"x$	c #FFE1A0",
"y$	c #FFDC95",
"z$	c #FED58F",
"{$	c #FFF6CD",
"|$	c #FFF2BE",
"}$	c #FDC97D",
"~$	c #FFFABA",
" %	c #FFFFBD",
"!%	c #FFFFB8",
"#%	c #FFFF8E",
"$%	c #FFD259",
"%%	c #FFEF7C",
"&%	c #FFF095",
"'%	c #FFFFBB",
"(%	c #FFFFDA",
")%	c #FFF9BA",
"*%	c #FFFBB1",
"+%	c #FFF99F",
",%	c #FFF28B",
"-%	c #FFFF69",
".%	c #FFFF66",
"0%	c #FFFE7B",
"1%	c #FFEB84",
"2%	c #FFDE69",
"3%	c #FFD05B",
"4%	c #FFB344",
"5%	c #D5501C",
"                                                                        ",
"                                                                        ",
"                                                                        ",
"                                                                        ",
"                                                                        ",
"                                  # $ %                                 ",
"                              & ' ( ) * + ,                             ",
"                          - . 0 1 2 3 4 5 6 7 8 9                       ",
"                      : ; < = > ? @ A B C D E F G H I                   ",
"                    J K L M N O P Q R S T U V W X Y Z [                 ",
"                  ] ^ _ ` a b c d e f g h i j k l m n o                 ",
"                p q r s t X u v w x y z { | } ~ h  !!!#!                ",
"              $!%!&!'!(!)!*!+!,!-!-!.!0!1!2!3!S 4!5!6!7!8!              ",
"              9!:!;!<!=!>!?!@!A!B!C!D!.!E!F!G!H!I!J!u 8!8!              ",
"              K!L!M!N!O!P!Q!R!S!T!U!V!W!X!Y!@!Z![!]!^!_!B!H             ",
"            `!a!b!c!d!A!d!e!f!g!h!i!j!k!l!m!n!l!o![!p!q!r!s!t!          ",
"            u!v!w!x!y!z!{!C!|!X!}!A!Z!g!~! #!###$#%#&#'#(#)#*#          ",
"            +#,#-#.#y!0#1#.!2#3#4#5#6#7#u 8#v 9#:#7 2 ;#<#=#>#          ",
"            ?#@#A#B#C#D#x E#6#U!d F#J!G#H#R!I#J#K#R L#M#N#O#P#          ",
"            Q#R#S#@!D#T#R!U#6#6#V# !I!W#X#D#A!Y#Y#c!V!Z#[#]#            ",
"            ^#_#`#H!a#-!X#b#c#d#e#f#2#g#h#i#j#k#> 5!l#m#n#o#            ",
"            p#q#r#s#t#<!<!u#e!v#w#x#y#z#{#|#}#~# $w#x!!$#$$$            ",
"            %$&$8!'$($)$*$w +$,$c!B#-$H!.$0$1$2$3$4$5$6$7$              ",
"              8$9$:$;$<$i!=$D#>$4!R t#} ?$@$5!A$B$P!C$D$E$              ",
"                F$G$J#v#d!+$x!H${ I$J$K$I$L$4$M$N$O$P$Q$R$              ",
"                S$T$U$k!o!5!V$W$X$Y$p! #Z$[$u ]$^$r!_$`$                ",
"                  a$b$c$d$e$f$g$h$i$j$k$l$m$n$o$p$q$r$                  ",
"                  s$t$u$v$w$x$y$z$7!{$|$}$h ~$ %!%#%                    ",
"                        $%%%&%'%(%4 )%*%+%,%-%                          ",
"                              .%0%1%2%3%4%5%                            ",
"                                                                        ",
"                                                                        ",
"                                                                        ",
"                                                                        ",
"                                                                        ",
"                                                                        "};