/* XPM */ 
static const char * crash_10_xpm[] = {
"36 36 708 2",
"  	c None",
"! 	c black",
"# 	c #FFBD49",
"$ 	c #FFB33D",
"% 	c #FFCD56",
"& 	c #FFE373",
"' 	c #FFE37A",
"( 	c #FFC454",
") 	c #FFBE4C",
"* 	c #FFA63D",
"+ 	c #F7872D",
", 	c #D0581B",
"- 	c #FF6F23",
". 	c #B84113",
"0 	c #B64012",
"1 	c #380A04",
"2 	c #350B03",
"3 	c #71290D",
"4 	c #FFB359",
"5 	c #FFC860",
"6 	c #FFDE95",
"7 	c #FFF3BD",
"8 	c #FFF2AD",
"9 	c #FFDE79",
": 	c #FFD266",
"; 	c #FFCC5C",
"< 	c #FFD862",
"= 	c #FFDC68",
"> 	c #FFD059",
"? 	c #FFC351",
"@ 	c #FFA53C",
"A 	c #F5842A",
"B 	c #FD872D",
"C 	c #782A0C",
"D 	c #6B270D",
"E 	c #E87B2D",
"F 	c #FFB64C",
"G 	c #FFDD75",
"H 	c #FFD467",
"I 	c #FFC85F",
"J 	c #FEC762",
"K 	c #FFDA7A",
"L 	c #FFD570",
"M 	c #FFE085",
"N 	c #FFD262",
"O 	c #FFD365",
"P 	c #FEBD54",
"Q 	c #F6973A",
"R 	c #F79739",
"S 	c #FA9E3D",
"T 	c #FFAE44",
"U 	c #FFD962",
"V 	c #FFC352",
"W 	c #85320D",
"X 	c #C04D1B",
"Y 	c #FFCA5D",
"Z 	c #FFEC7E",
"[ 	c #FFEE8B",
"] 	c #FFDE78",
"^ 	c #FFD569",
"_ 	c #FFD86F",
"` 	c #FFE278",
"a 	c #FFDF80",
"b 	c #FFE68A",
"c 	c #FFF3B5",
"d 	c #FFE075",
"e 	c #FFDD6F",
"f 	c #FFDF75",
"g 	c #FEC155",
"h 	c #FFC154",
"i 	c #FEB94D",
"j 	c #FFD56C",
"k 	c #FFE685",
"l 	c #FFF17C",
"m 	c #FFB848",
"n 	c #BE5017",
"o 	c #FFDEA0",
"p 	c #FFD955",
"q 	c #FFF086",
"r 	c #FFF6B2",
"s 	c #FFF1BD",
"t 	c #FFDE81",
"u 	c #FFE67D",
"v 	c #FFDD74",
"w 	c #FFE17E",
"x 	c #FFEA97",
"y 	c #FFE58A",
"z 	c #FFE898",
"{ 	c #FFE88A",
"| 	c #FFEB96",
"} 	c #FFE489",
"~ 	c #FFDE7A",
" !	c #FFE881",
"!!	c #FFD871",
"#!	c #FFE190",
"$!	c #FFEFAA",
"%!	c #FFE98C",
"&!	c #FFE56D",
"'!	c #FFC955",
"(!	c #89320C",
")!	c #FF674B",
"*!	c #FFA43F",
"+!	c #FFC04F",
",!	c #FFCF5E",
"-!	c #FFE177",
".!	c #FFE18D",
"0!	c #FFD174",
"1!	c #FFD06D",
"2!	c #FFEF9B",
"3!	c #FFF5B5",
"4!	c #FFF1B4",
"5!	c #FFEB91",
"6!	c #FFE796",
"7!	c #FFEEA3",
"8!	c #FFE891",
"9!	c #FFDD7F",
":!	c #FFE382",
";!	c #FFEE98",
"<!	c #FFE88B",
"=!	c #FFEE8E",
">!	c #FFF27D",
"?!	c #FFAA3F",
"@!	c #FF8630",
"A!	c #FFBA4C",
"B!	c #FFC052",
"C!	c #FFD768",
"D!	c #FFE47C",
"E!	c #FFDE8B",
"F!	c #FFDD86",
"G!	c #FFE58B",
"H!	c #FFF6B5",
"I!	c #FFF7BE",
"J!	c #FFF1A1",
"K!	c #FFF3A2",
"L!	c #FFF1A7",
"M!	c #FFDD81",
"N!	c #FFEC9F",
"O!	c #FFE385",
"P!	c #FFDF81",
"Q!	c #FFE790",
"R!	c #FFE187",
"S!	c #FFCB67",
"T!	c #FFD16D",
"U!	c #FFEB8C",
"V!	c #FFE681",
"W!	c #FFE997",
"X!	c #FFEC8A",
"Y!	c #FFE96E",
"Z!	c #89331A",
"[!	c #FCA844",
"]!	c #FFCB5A",
"^!	c #FFDE73",
"_!	c #FFE486",
"`!	c #FFDF84",
"a!	c #FFE998",
"b!	c #FFEE9D",
"c!	c #FFE784",
"d!	c #FFF2A5",
"e!	c #FFF5B6",
"f!	c #FFF6AC",
"g!	c #FFF6B3",
"h!	c #FFEFA3",
"i!	c #FFDA78",
"j!	c #FFE386",
"k!	c #FFE484",
"l!	c #FFEE9F",
"m!	c #FFEE9C",
"n!	c #FFE682",
"o!	c #FFD169",
"p!	c #FFD06E",
"q!	c #FFF2AE",
"r!	c #FFDE76",
"s!	c #FFD970",
"t!	c #FFD353",
"u!	c #290A14",
"v!	c #F1943D",
"w!	c #FFD264",
"x!	c #FFE076",
"y!	c #FFEC92",
"z!	c #FFE89F",
"{!	c #FFF0A3",
"|!	c #FFEC94",
"}!	c #FFEB8B",
"~!	c #FECF76",
" #	c #FDCD87",
"!#	c #FFDC8D",
"##	c #FFE693",
"$#	c #FFEA99",
"%#	c #FFDE80",
"&#	c #FECD6A",
"'#	c #FFCE63",
"(#	c #FFDC78",
")#	c #FFE58E",
"*#	c #FFE080",
"+#	c #FFDA70",
",#	c #FFE886",
"-#	c #FFF3A8",
".#	c #FFE786",
"0#	c #FFBF50",
"1#	c #FFD062",
"2#	c #FFD965",
"3#	c #CDFFFF",
"4#	c #F15E23",
"5#	c #FFAC45",
"6#	c #FFC55C",
"7#	c #FFD171",
"8#	c #FFD376",
"9#	c #FECB71",
":#	c #FEC96B",
";#	c #FFE78A",
"<#	c #FFCA6D",
"=#	c #FDCB78",
">#	c #DE7D3B",
"?#	c #E47B33",
"@#	c #F8A54E",
"A#	c #FFD47F",
"B#	c #FFE38F",
"C#	c #FFE488",
"D#	c #FFD16C",
"E#	c #FEC45D",
"F#	c #FFD66D",
"G#	c #FFE78B",
"H#	c #FFD66A",
"I#	c #FFF7B3",
"J#	c #FCB44C",
"K#	c #E77625",
"L#	c #FF9433",
"M#	c #FFE067",
"N#	c #FFB190",
"O#	c #FFA33D",
"P#	c #FFA043",
"Q#	c #FFD27B",
"R#	c #FBB55A",
"S#	c #FCBE63",
"T#	c #FCB756",
"U#	c #FFD46C",
"V#	c #FFD474",
"W#	c #F59940",
"X#	c #F4973F",
"Y#	c #DD6E28",
"Z#	c #D36223",
"[#	c #F29038",
"]#	c #FCB653",
"^#	c #FFD572",
"_#	c #FFE07E",
"`#	c #FFC65D",
"a#	c #FBAB47",
"b#	c #FEC15F",
"c#	c #FFDD78",
"d#	c #FFE384",
"e#	c #FFE37F",
"f#	c #FFD368",
"g#	c #FAAB49",
"h#	c #FFE9A1",
"i#	c #FFDE72",
"j#	c #FFE06F",
"k#	c #FDBC4D",
"l#	c #F79433",
"m#	c #FFE466",
"n#	c #FF882E",
"o#	c #FFA53F",
"p#	c #FFA440",
"q#	c #FEC15B",
"r#	c #FEC05B",
"s#	c #FFCD66",
"t#	c #FEBE56",
"u#	c #FFCC61",
"v#	c #FCAF49",
"w#	c #F6993B",
"x#	c #E97F30",
"y#	c #EB8030",
"z#	c #EC8635",
"{#	c #FFBD54",
"|#	c #FFDF7C",
"}#	c #FFCB62",
"~#	c #FAA846",
" $	c #FDB957",
"!$	c #FFD877",
"#$	c #FFDC80",
"$$	c #FFDB78",
"%$	c #FFCF66",
"&$	c #F49035",
"'$	c #FCB859",
"($	c #FFCD62",
")$	c #FFD865",
"*$	c #FEBB4B",
"+$	c #F38C2F",
",$	c #FFB244",
"-$	c #FF882B",
".$	c #AA3B10",
"0$	c #000024",
"1$	c #D76525",
"2$	c #FFAD48",
"3$	c #FFE47D",
"4$	c #FEC75E",
"5$	c #FFC65A",
"6$	c #FDB64F",
"7$	c #F69A3C",
"8$	c #EC8636",
"9$	c #E3762E",
":$	c #F08A36",
";$	c #FAAB4C",
"<$	c #FFD468",
"=$	c #FFD972",
">$	c #FFC765",
"?$	c #FFD36F",
"@$	c #F8A144",
"A$	c #FDB553",
"B$	c #FCBA5C",
"C$	c #FECC6A",
"D$	c #FFE281",
"E$	c #FBB453",
"F$	c #F69B3F",
"G$	c #FCAF4B",
"H$	c #FFCF5C",
"I$	c #FFC756",
"J$	c #FEBB4D",
"K$	c #FBA23B",
"L$	c #DB651D",
"M$	c #661703",
"N$	c #1F060E",
"O$	c #C5501B",
"P$	c #F89337",
"Q$	c #FCAD49",
"R$	c #FFE387",
"S$	c #F59B44",
"T$	c #FAAD4B",
"U$	c #F7A043",
"V$	c #EF8835",
"W$	c #ED8735",
"X$	c #DD6E29",
"Y$	c #F18E37",
"Z$	c #FAA445",
"[$	c #FDBC54",
"]$	c #FBAD4B",
"^$	c #FAAB4D",
"_$	c #FEC966",
"`$	c #FCB457",
"a$	c #FAAA4E",
"b$	c #FDB651",
"c$	c #FEC15A",
"d$	c #FFD272",
"e$	c #FFEB92",
"f$	c #FEC867",
"g$	c #F49238",
"h$	c #F69538",
"i$	c #FFCE5F",
"j$	c #FFDC6B",
"k$	c #FFE06E",
"l$	c #FFC14E",
"m$	c #FFAD40",
"n$	c #78240B",
"o$	c #10000C",
"p$	c #D25F22",
"q$	c #FFB54B",
"r$	c #FFD060",
"s$	c #FFEF91",
"t$	c #F3913B",
"u$	c #EC8331",
"v$	c #F1913C",
"w$	c #E6792F",
"x$	c #D66827",
"y$	c #F6993C",
"z$	c #FEB149",
"{$	c #FEC058",
"|$	c #FAAA47",
"}$	c #FEBF57",
"~$	c #FFCB66",
" %	c #FFDC7A",
"!%	c #FFEDA0",
"#%	c #FFF0A0",
"$%	c #FFDE85",
"%%	c #FCB757",
"&%	c #FAA848",
"'%	c #FFD265",
"(%	c #FFDF71",
")%	c #FFED89",
"*%	c #FFDD6C",
"+%	c #FFA53B",
",%	c #430D17",
"-%	c #F27E2D",
".%	c #FFAF45",
"0%	c #FFD566",
"1%	c #FFEF94",
"2%	c #FBAF52",
"3%	c #F79E42",
"4%	c #FFC358",
"5%	c #FEBA53",
"6%	c #EE8733",
"7%	c #D86624",
"8%	c #DD712A",
"9%	c #FEB953",
":%	c #FFD167",
";%	c #FEC15C",
"<%	c #FEC559",
"=%	c #FFCA60",
">%	c #FFF0A1",
"?%	c #FFF5AE",
"@%	c #FFF8C4",
"A%	c #FFF7BD",
"B%	c #FFEB9F",
"C%	c #FFDD8D",
"D%	c #FFD575",
"E%	c #FFCE6B",
"F%	c #FFCF60",
"G%	c #FFD667",
"H%	c #FFE267",
"I%	c #FFBC49",
"J%	c #FF9738",
"K%	c #FFB74D",
"L%	c #FFE780",
"M%	c #FFF39A",
"N%	c #FFE897",
"O%	c #FFD882",
"P%	c #FFDA74",
"Q%	c #FEBF5A",
"R%	c #EF8A36",
"S%	c #D46324",
"T%	c #BE4E1B",
"U%	c #EF8B36",
"V%	c #FFC75A",
"W%	c #FFD774",
"X%	c #FFD370",
"Y%	c #FFE588",
"Z%	c #FFE799",
"[%	c #FFF4B6",
"]%	c #FFE286",
"^%	c #FFE388",
"_%	c #FFD669",
"`%	c #FFD96F",
"a%	c #FFCF5B",
"b%	c #FF9A34",
"c%	c #FA8C34",
"d%	c #FFE579",
"e%	c #FFEF96",
"f%	c #FFF4A9",
"g%	c #FFE792",
"h%	c #FFD670",
"i%	c #FEBD56",
"j%	c #FDB14E",
"k%	c #ED8836",
"l%	c #D25E21",
"m%	c #ED8533",
"n%	c #FFC963",
"o%	c #FFEB8F",
"p%	c #FFEC9A",
"q%	c #FFF3AF",
"r%	c #FFF6C6",
"s%	c #FFF6C5",
"t%	c #FFF4B2",
"u%	c #FFF1AB",
"v%	c #FFD46E",
"w%	c #FFD771",
"x%	c #FFED8F",
"y%	c #FFD766",
"z%	c #F38B2E",
"{%	c #C6581E",
"|%	c #FFF099",
"}%	c #FFF2AC",
"~%	c #FFD276",
" &	c #FCB254",
"!&	c #F69D44",
"#&	c #FECA63",
"$&	c #FDBA5A",
"%&	c #FFD070",
"&&	c #FFF3AD",
"'&	c #FFF2AB",
"(&	c #FFEE9E",
")&	c #FFF1B2",
"*&	c #FFF7C5",
"+&	c #FFF4B0",
",&	c #FFEB98",
"-&	c #FFE07A",
".&	c #FFE07D",
"0&	c #FFD563",
"1&	c #FFAC3E",
"2&	c #F37A27",
"3&	c #5D170A",
"4&	c #F6963C",
"5&	c #FFEE90",
"6&	c #FFEB90",
"7&	c #FFD56D",
"8&	c #FFDD73",
"9&	c #FFE279",
":&	c #FCBD5C",
";&	c #ED8432",
"<&	c #F2913B",
"=&	c #FEC45B",
">&	c #FFE885",
"?&	c #FFEA8A",
"@&	c #FFE988",
"A&	c #FFEDA1",
"B&	c #FFF9CE",
"C&	c #FFF4B1",
"D&	c #FFDE82",
"E&	c #FFD16B",
"F&	c #FFD46A",
"G&	c #FFCA5F",
"H&	c #C85317",
"I&	c #531705",
"J&	c #000023",
"K&	c #B34716",
"L&	c #FFD063",
"M&	c #FFEA87",
"N&	c #FFEA8D",
"O&	c #FFF09F",
"P&	c #FFDB7E",
"Q&	c #FFE591",
"R&	c #FFE284",
"S&	c #FFE589",
"T&	c #FFD874",
"U&	c #FEBF5B",
"V&	c #F69D45",
"W&	c #F79C40",
"X&	c #FEC05A",
"Y&	c #FFD773",
"Z&	c #FFEA85",
"[&	c #FFF097",
"]&	c #FFF3A9",
"^&	c #FFF5AB",
"_&	c #FFF29E",
"`&	c #FFCB61",
"a&	c #FFC35A",
"b&	c #FAA641",
"c&	c #FBA341",
"d&	c #EE7926",
"e&	c #7E2608",
"f&	c #4D1609",
"g&	c #FFAE45",
"h&	c #FFDD70",
"i&	c #FFE984",
"j&	c #FFF19B",
"k&	c #FFE797",
"l&	c #FFE892",
"m&	c #FFE688",
"n&	c #FFE581",
"o&	c #FFE381",
"p&	c #FFCD6B",
"q&	c #FFC65B",
"r&	c #FFCF67",
"s&	c #FFD168",
"t&	c #FFEC8F",
"u&	c #FFEA89",
"v&	c #FFE994",
"w&	c #FFDA76",
"x&	c #FFE485",
"y&	c #FFDA71",
"z&	c #FFC962",
"{&	c #FCAD45",
"|&	c #FC9D3B",
"}&	c #E87023",
"~&	c #380F03",
" '	c #57111A",
"!'	c #EC7E2E",
"#'	c #FFCE61",
"$'	c #FFDC72",
"%'	c #FFED88",
"&'	c #FFEF97",
"''	c #FFEC9B",
"('	c #FFF6B8",
")'	c #FFF3B3",
"*'	c #FFED97",
"+'	c #FFEA8E",
",'	c #FFD974",
"-'	c #FFD975",
".'	c #FFE178",
"0'	c #FFE27D",
"1'	c #FFBF55",
"2'	c #FAA441",
"3'	c #F99F3B",
"4'	c #FEC157",
"5'	c #FFCD63",
"6'	c #FEB248",
"7'	c #FFBC4C",
"8'	c #C7561B",
"9'	c #170301",
":'	c #6A220C",
";'	c #FEA13E",
"<'	c #FFAF48",
"='	c #FFD36A",
">'	c #FFED99",
"?'	c #FFF3A3",
"@'	c #FFED9B",
"A'	c #FFF4AD",
"B'	c #FFE078",
"C'	c #FFED96",
"D'	c #FFEF9E",
"E'	c #FFE47F",
"F'	c #FFE27F",
"G'	c #FCB14D",
"H'	c #F59439",
"I'	c #E57224",
"J'	c #E06B21",
"K'	c #F69235",
"L'	c #FFDA72",
"M'	c #FFE475",
"N'	c #FFDE67",
"O'	c #F49C3B",
"P'	c #79270B",
"Q'	c #591E12",
"R'	c #FA9A3A",
"S'	c #FCB24D",
"T'	c #F4933B",
"U'	c #FCA743",
"V'	c #FFC156",
"W'	c #FFEC8B",
"X'	c #FFF2A7",
"Y'	c #FFF29F",
"Z'	c #FFDF74",
"['	c #FFEC87",
"]'	c #FFF193",
"^'	c #FFDB70",
"_'	c #FFC95E",
"`'	c #F79C3C",
"a'	c #F28E36",
"b'	c #D5611F",
"c'	c #BD4B16",
"d'	c #EF8931",
"e'	c #FFE374",
"f'	c #FFD45F",
"g'	c #FDAF46",
"h'	c #401708",
"i'	c #873614",
"j'	c #F58832",
"k'	c #CE5F22",
"l'	c #A53C14",
"m'	c #C3541C",
"n'	c #FA9A39",
"o'	c #FFE071",
"p'	c #FFE37D",
"q'	c #FFEC90",
"r'	c #FFDB6D",
"s'	c #FFD76B",
"t'	c #FFC557",
"u'	c #FCAE47",
"v'	c #F5953A",
"w'	c #FFB84D",
"x'	c #F99D3C",
"y'	c #F49738",
"z'	c #F89738",
"{'	c #FFCF5D",
"|'	c #FF9937",
"}'	c #B44A16",
"~'	c #C2571E",
" (	c #EB772A",
"!(	c #8B3514",
"#(	c #893112",
"$(	c #E77529",
"%(	c #FEA944",
"&(	c #FFC45A",
"'(	c #FFDB6E",
"((	c #FFC559",
")(	c #FFCA5C",
"*(	c #FFCD5F",
"+(	c #FFD161",
",(	c #FDB74F",
"-(	c #F08733",
".(	c #F9A644",
"0(	c #F8A041",
"1(	c #FFB64A",
"2(	c #CD5F1E",
"3(	c #350B05",
"4(	c #9A3A16",
"5(	c #923313",
"6(	c #581D0C",
"7(	c #A44017",
"8(	c #EC7529",
"9(	c #F7953A",
":(	c #FFC255",
";(	c #FFC457",
"<(	c #FFBC52",
"=(	c #FDAE48",
">(	c #FFCC5B",
"?(	c #F9993C",
"@(	c #FFC155",
"A(	c #FFCC5E",
"B(	c #FFB046",
"C(	c #F89A3B",
"D(	c #7B3010",
"E(	c #3F180F",
"F(	c #DA6926",
"G(	c #F47D2D",
"H(	c #F69338",
"I(	c #EB7C2D",
"J(	c #FFA742",
"K(	c #FFAB44",
"L(	c #F3822F",
"M(	c #F3832F",
"N(	c #E97C2D",
"O(	c #FF9F3C",
"P(	c #FF9E3A",
"Q(	c #F5852F",
"R(	c #A43D13",
"S(	c #45180B",
"T(	c #E94F27",
"U(	c #B54518",
"V(	c #833112",
"W(	c #923211",
"X(	c #A94317",
"Y(	c #B44A19",
"Z(	c #AB4216",
"[(	c #72280E",
"](	c #2C0A03",
"^(	c #331007",
"_(	c #250C0A",
"`(	c #150706",
"a(	c #140705",
"b(	c #0C0504",
"                                                                        ",
"                                                                        ",
"                                                                        ",
"                        # $ % & ' ( ) * + , - . 0 1                     ",
"                    2 3 4 5 6 7 8 9 : ; < = > ? @ A B C                 ",
"                  D E F G H I J K L M N O P Q R S T U V W               ",
"                X Y Z [ ] ^ _ ` a b c d e f g h i j k l m n             ",
"            o p ( q r s t u v w x y z { | } ~  !!!#!$!%!&!'!(!          ",
"          )!*!+!,!-!.!0!1!2!3!4!5!k 6!7!8!a 9!9 9 :!;!<!=!>!?!          ",
"          @!A!B!C!D!E!F!G!H!I!J!K!L!M!N!O!P!Q!R!S!T!U!V!W!X!Y!          ",
"        Z![!]!^!_!`!a!b!c!d!e!f!g!h!i!j!k!l!m!n!o!p!q!%!{ r!s!t!        ",
"      u!v!w!x!y!h!z!{!|!}!~! #!###$#%#&#'#(#<!)#*#+#,#-#.#0#1#2#3#      ",
"      4#5#6#7#8#9#:#;#<#=#>#?#@#A#B#C#D#E#F#w $#G#H H#I#;#J#K#L#M#N#    ",
"      O#P#Q#R#S#T#U#V#W#X#Y#Z#[#]#^#_#`#a#b#c#d#e#f#g#h#i#j#k#l#m#n#    ",
"      o#p#q#r#s#t#u#v#w#x#y#z#{#j :!|#}#~# $!$#$$$%$&$'$($)$*$+$,$-$.$  ",
"    0$1$2$O 3$4$5$6$7$8$9$:$;$<$=$>$(#?$;$@$A$B$C$D$E$F$G$H$I$J$K$L$M$  ",
"    N$O$P$Q$R$S$T$U$V$W$X$Y$Z$[$]$^$!$_$`$a$b$c$d$e$f$g$h$i$j$k$l$m$n$  ",
"    o$p$q$r$s$t$u$T$v$w$x$y$z${$Z$|$}$~$%# %_!W!!%#%$%%%&%'%(%)%*%+%    ",
"    ,%-%.%0%1%2%3%4%5%6%7%8%9%:%;%<%=%k!#%>%?%@%A%B%C%D%E%F%F%G%H%I%    ",
"      J%K%L%M%N%O%P%Q%R%S%T%U%V%$$W%X%Y%Z%!%[%[%d!d!]%E!^%_%`%=!a%b%    ",
"      c%r$d%e%f%g%h%i%j%k%l%m%n%G k ,#o%p%q%r%s%t%u%v%w%O!U!x%y%z%      ",
"      {%= u 3$|%}%~%A$ &j%!&s!}!#&$&%&&&'&(&)&*&+&,&-&.&*#.#0&1&2&      ",
"      3&4&5&D!6&8 d$E%7&8&D#9&:&;&<&=&>&?&@&A&B&C&D&E&F&G&}#o#H&I&      ",
"      J&K&L&M&N&O&P&Q&R&S&*#T&U&V&W&X&Y&Z&[&]&^&_&a `&a&b&c&d&e&        ",
"        f&g&h&i&j&a!k&l&_!m&n&o&p&q&r&s&x%t&u&v&w&x&y&z&{&|&}&~&        ",
"         '!'#'$'%'&'''(')'m!e$*'+','-'.'0'p&1'2'3'4'` 5'6'7'8'9'        ",
"          :';'<'H#='u#>'?'@'A'(&B'C'D'E'F'G'H'I'J'K'L'M'N'O'P'          ",
"          Q'R'*!S'T'U'V'W'X'Y'~ Z'[']'^'_'`'a'b'c'd'e'f'g'h'            ",
"            i'j'k'l'm'n'o'p'q';#9 r's't'u'v'w'x'y'z'{'|'}'              ",
"              ~' (!(#($(%(&('(H (()(*(+(,(-(.(0(K%( 1(2(3(              ",
"                4(5(6(7(8(9(:(h ;(<(=(>(r$?(@(A(B(C(D(                  ",
"                      E(F(G(H(I(J(K(L(M(N(O(P(Q(R(S(                    ",
"                        T(U(V(W(X(Y(Z([(](^(                            ",
"                              _(`(a(b(                                  ",
"                                                                        ",
"                                                                        "};