/* XPM */ 
static const char * crash_6_xpm[] = {
"36 36 421 2",
"  	c None",
"! 	c black",
"# 	c #FF9833",
"$ 	c #FFA540",
"% 	c #FFDE60",
"& 	c #FFF392",
"' 	c #FFEF7F",
"( 	c #FFFF66",
") 	c #FFDB74",
"* 	c #FFEC87",
"+ 	c #FFF4AA",
", 	c #FFF7BC",
"- 	c #FFF3B0",
". 	c #FFFBC5",
"0 	c #FFFFCA",
"1 	c #FFFAD1",
"2 	c #FFFF96",
"3 	c #FFFFAD",
"4 	c #FFA63E",
"5 	c #FFD467",
"6 	c #FFE199",
"7 	c #FFFEBD",
"8 	c #FFFAD7",
"9 	c #FFF5BF",
": 	c #FFF1BD",
"; 	c #FFEDB0",
"< 	c #FFF0BD",
"= 	c #FFE9AA",
"> 	c #FFDE92",
"? 	c #FFDF9A",
"@ 	c #FFEAB5",
"A 	c #FFEA97",
"B 	c white",
"C 	c #FFA94C",
"D 	c #FFDA7E",
"E 	c #FFE98E",
"F 	c #FFEEB5",
"G 	c #FFEC9F",
"H 	c #FFF3C3",
"I 	c #FFF1C0",
"J 	c #FFF6CF",
"K 	c #FFEFB3",
"L 	c #FFF0AC",
"M 	c #FFEFB4",
"N 	c #FFE69C",
"O 	c #FFE089",
"P 	c #FFE38A",
"Q 	c #FFF7BD",
"R 	c #FFF8BD",
"S 	c #FFF5A2",
"T 	c #FFD560",
"U 	c #FFDE9C",
"V 	c #FFE088",
"W 	c #FFE486",
"X 	c #FFEEAD",
"Y 	c #FFE99B",
"Z 	c #FFF5C4",
"[ 	c #FFEDA6",
"] 	c #FFF0B1",
"^ 	c #FFE89C",
"_ 	c #FFE79A",
"` 	c #FFEDA2",
"a 	c #FFEB9D",
"b 	c #FFE996",
"c 	c #FFE488",
"d 	c #FFE6A9",
"e 	c #FFF7C8",
"f 	c #FFFFCD",
"g 	c #FFFA9E",
"h 	c #FFD04D",
"i 	c #FFFF9D",
"j 	c #FFE59D",
"k 	c #FFDB89",
"l 	c #FFD176",
"m 	c #FFF6C5",
"n 	c #FFF3AB",
"o 	c #FFF9D1",
"p 	c #FFFDEB",
"q 	c #FFE78F",
"r 	c #FFE691",
"s 	c #FFE695",
"t 	c #FFE99C",
"u 	c #FFF7CF",
"v 	c #FFF5BC",
"w 	c #FFF5C5",
"x 	c #FFF4D1",
"y 	c #FFFCE8",
"z 	c #FFF2B8",
"{ 	c #FFFBC4",
"| 	c #FFFF91",
"} 	c #FFFF76",
"~ 	c #FFF6A0",
" !	c #FFE4A0",
"!!	c #FFD67C",
"#!	c #FFE08E",
"$!	c #FFF4B6",
"%!	c #FFFDEA",
"&!	c #FFFCEB",
"'!	c #FFF6CE",
"(!	c #FFF6CA",
")!	c #FFF1A8",
"*!	c #FFEB90",
"+!	c #FFF5BE",
",!	c #FFF6C1",
"-!	c #FFF0B2",
".!	c #FFEEAF",
"0!	c #FFF6D1",
"1!	c #FFEFAE",
"2!	c #FFF5C9",
"3!	c #FFFFC1",
"4!	c #D8521C",
"5!	c #FFDF6E",
"6!	c #FFEB8F",
"7!	c #FFEBAD",
"8!	c #FFE29A",
"9!	c #FFEDBB",
":!	c #FFFADC",
";!	c #FFFEEF",
"<!	c #FFFCE4",
"=!	c #FFFBE2",
">!	c #FFFBE1",
"?!	c #FFFBE0",
"@!	c #FFF3B1",
"A!	c #FFF4BB",
"B!	c #FFF9CC",
"C!	c #FFFBDB",
"D!	c #FFF6D3",
"E!	c #FFF0BC",
"F!	c #FFF6CD",
"G!	c #FFFACE",
"H!	c #FFFFCF",
"I!	c #EC7626",
"J!	c #FFE97F",
"K!	c #FFE08B",
"L!	c #FFF2BF",
"M!	c #FFF9D8",
"N!	c #FFF6D0",
"O!	c #FFFCE6",
"P!	c #FFF5C6",
"Q!	c #FFF0B3",
"R!	c #FFEAA0",
"S!	c #FFF8D6",
"T!	c #FFF4B9",
"U!	c #FFF1B8",
"V!	c #FFFCDE",
"W!	c #FFD77B",
"X!	c #FFB04A",
"Y!	c #FFF0AB",
"Z!	c #FFF4C5",
"[!	c #FFF8D5",
"]!	c #FFF8CE",
"^!	c #FFF6BE",
"_!	c #FFFDE9",
"`!	c #FFFCE2",
"a!	c #FFFAD3",
"b!	c #FFFADF",
"c!	c #FFF8CD",
"d!	c #FFF2B6",
"e!	c #FFF7D5",
"f!	c #FFF0B9",
"g!	c #FFF8D4",
"h!	c #FFF6C7",
"i!	c #FFF2BE",
"j!	c #FFE090",
"k!	c #FFE896",
"l!	c #FFF0B0",
"m!	c #A53616",
"n!	c #FFE579",
"o!	c #FFFED1",
"p!	c #FFF0AF",
"q!	c #FFF4C9",
"r!	c #FFFBDD",
"s!	c #FFFFF9",
"t!	c #FFF8D1",
"u!	c #FFF8DB",
"v!	c #FFF8D2",
"w!	c #FFF5C3",
"x!	c #FFF4C1",
"y!	c #FFF7CC",
"z!	c #FFEAAA",
"{!	c #FFF8DA",
"|!	c #FFEB9C",
"}!	c #FFE386",
"~!	c #FFEB97",
" #	c #FFCF74",
"!#	c #FFD774",
"##	c #FF9534",
"$#	c #FF9532",
"%#	c #FFF085",
"&#	c #FFF8C3",
"'#	c #FFEDA7",
"(#	c #FFF8D7",
")#	c #FFF8D3",
"*#	c #FFFEF1",
"+#	c #FFFAD8",
",#	c #FFF9D5",
"-#	c #FFF8DF",
".#	c #FFF8CF",
"0#	c #FFFAD9",
"1#	c #FFF1AA",
"2#	c #FFED9C",
"3#	c #FFC965",
"4#	c #FFAF4B",
"5#	c #F48A36",
"6#	c #FF8C2F",
"7#	c #FFEE8B",
"8#	c #FFF7C1",
"9#	c #FFF3B8",
":#	c #FFFADE",
";#	c #FFF8C9",
"<#	c #FFF7CA",
"=#	c #FFF8CB",
">#	c #FFF4C3",
"?#	c #FFF2AD",
"@#	c #FFF9D0",
"A#	c #FFFADD",
"B#	c #FFF5C8",
"C#	c #FFF1AC",
"D#	c #FFE992",
"E#	c #FEC55E",
"F#	c #FFCC64",
"G#	c #FFC357",
"H#	c #FF581C",
"I#	c #FFE27B",
"J#	c #FFF7C7",
"K#	c #FFFAD5",
"L#	c #FFE8AD",
"M#	c #FFE49A",
"N#	c #FFECAE",
"O#	c #FFF2B7",
"P#	c #FFF4B8",
"Q#	c #FFF6C0",
"R#	c #FFF9D2",
"S#	c #FFFAD4",
"T#	c #FFF6C3",
"U#	c #FFF2B4",
"V#	c #FDBB56",
"W#	c #FFCD71",
"X#	c #FFD25E",
"Y#	c #FF541E",
"Z#	c #FFE075",
"[#	c #FFF7C5",
"]#	c #FFF5C1",
"^#	c #FECE7D",
"_#	c #FDC774",
"`#	c #FFDF92",
"a#	c #FFECAB",
"b#	c #FFF4C4",
"c#	c #FFF7CD",
"d#	c #FFF7C6",
"e#	c #FFF5BD",
"f#	c #FFF4B4",
"g#	c #FFEEA4",
"h#	c #FFF7C9",
"i#	c #FFF1A7",
"j#	c #FFDD80",
"k#	c #FFFCB1",
"l#	c #FFDD71",
"m#	c #FFDA68",
"n#	c #FFF6BD",
"o#	c #FFF2C1",
"p#	c #FECE7B",
"q#	c #FCC471",
"r#	c #FFDA8D",
"s#	c #FFEBAC",
"t#	c #FFF3C0",
"u#	c #FFF7D0",
"v#	c #FFFDE6",
"w#	c #FFF0AA",
"x#	c #FFE999",
"y#	c #FFF3B2",
"z#	c #FFF3AF",
"{#	c #FFF1AB",
"|#	c #FFEB95",
"}#	c #FF8D32",
"~#	c #FFEA82",
" $	c #FFFED4",
"!$	c #FFFAE1",
"#$	c #FFF8D8",
"$$	c #FFF8D0",
"%$	c #FFF5C0",
"&$	c #FFDD91",
"'$	c #FED283",
"($	c #FFDA83",
")$	c #FFEEB8",
"*$	c #FFFEF0",
"+$	c #FFFDE5",
",$	c #FFF8CC",
"-$	c #FFF3A9",
".$	c #FFEFA6",
"0$	c #FFF3B5",
"1$	c #FFE582",
"2$	c #FFD46A",
"3$	c #FFFF7B",
"4$	c #FFFFEE",
"5$	c #FFF6C9",
"6$	c #FFF7D4",
"7$	c #FFFADB",
"8$	c #FFF2C6",
"9$	c #FFE9A5",
":$	c #FFEA9F",
";$	c #FFF9C9",
"<$	c #FFFBD9",
"=$	c #FFEFA5",
">$	c #FFEFA8",
"?$	c #FFE983",
"@$	c #FFBF4D",
"A$	c #FFFFDC",
"B$	c #FFF5CE",
"C$	c #FFF1B1",
"D$	c #FFF0BB",
"E$	c #FFEEAE",
"F$	c #FFEEA9",
"G$	c #FFEDA9",
"H$	c #FFFAD2",
"I$	c #FFF2B5",
"J$	c #FFF4BD",
"K$	c #FFF6C4",
"L$	c #FFF4C2",
"M$	c #FFEEA6",
"N$	c #FFF390",
"O$	c #F4802B",
"P$	c #FFB147",
"Q$	c #FFF9B4",
"R$	c #FFFBD7",
"S$	c #FFEDA5",
"T$	c #FFEDA4",
"U$	c #FFE9A1",
"V$	c #FFE799",
"W$	c #FFEFA9",
"X$	c #FFF5C2",
"Y$	c #FFFBB3",
"Z$	c #FFDF75",
"[$	c #FFE192",
"]$	c #FFF7B5",
"^$	c #FFF1AD",
"_$	c #FFE38E",
"`$	c #FFE183",
"a$	c #FFE88D",
"b$	c #FFE8A4",
"c$	c #FFEDAD",
"d$	c #FFEE9F",
"e$	c #FFEFAA",
"f$	c #FFE180",
"g$	c #FFEBA1",
"h$	c #FFF3C2",
"i$	c #FFE89F",
"j$	c #FFFFC4",
"k$	c #FFE890",
"l$	c #FF923D",
"m$	c #FFD764",
"n$	c #FFF690",
"o$	c #FFEE9A",
"p$	c #FFF0B5",
"q$	c #FFE589",
"r$	c #FFD56D",
"s$	c #FEC15B",
"t$	c #FFDC7F",
"u$	c #FFDC84",
"v$	c #FFE68F",
"w$	c #FED076",
"x$	c #FFCA60",
"y$	c #FFD36C",
"z$	c #FFDA74",
"{$	c #FFEEA1",
"|$	c #FFFFC8",
"}$	c #FFEBAE",
"~$	c #FFEB62",
" %	c #BF7652",
"!%	c #FFDC65",
"#%	c #FFE677",
"$%	c #FFF29B",
"%%	c #FFE298",
"&%	c #FEC764",
"'%	c #FFD772",
"(%	c #FFDF7F",
")%	c #FFD16C",
"*%	c #FFD57E",
"+%	c #FFCE6C",
",%	c #FEC763",
"-%	c #FCB24D",
".%	c #FEBB55",
"0%	c #FFDD7F",
"1%	c #FFFBB5",
"2%	c #FFFFBD",
"3%	c #FFF295",
"4%	c #44281B",
"5%	c #BF4A48",
"6%	c #FFCB4B",
"7%	c #FFE476",
"8%	c #FFE084",
"9%	c #FFBC6F",
":%	c #FFD38B",
";%	c #FFEAA7",
"<%	c #FEDD9E",
"=%	c #FEE4AE",
">%	c #FBBD6B",
"?%	c #FCBF6A",
"@%	c #FFC774",
"A%	c #FFDD86",
"B%	c #FFEA7B",
"C%	c #FFFF83",
"D%	c #FFF29D",
"E%	c #FFDC50",
"F%	c #FFCF4E",
"G%	c #FFDB6D",
"H%	c #FFE091",
"I%	c #FFF9B5",
"J%	c #FFDB76",
"K%	c #FFCE64",
"L%	c #FFC75F",
"M%	c #FFE475",
"N%	c #FFB949",
"O%	c #DF4E1E",
"P%	c #FFB440",
"Q%	c #FFF268",
"R%	c #FFD15B",
"S%	c #FFC954",
"T%	c #FFAF45",
"U%	c #C44518",
"V%	c #551710",
"                                                                        ",
"                                                                        ",
"                                                                        ",
"                                                                        ",
"                                                                        ",
"                              # $ % & ' (                               ",
"                            ) * + , - . 0 1 2 3                         ",
"                      4 5 6 7 8 9 : ; < = > ? @ A B B                   ",
"                    C D E F G H I J K L M N O P Q R S T                 ",
"                    U V W X Y Z [ ] ^ _ ` a b c d e f g h               ",
"              B i j k l m n o p J q r s t u v w x y z { |               ",
"              } ~  !!!#!9 $!%!p &!'!(!)!*!+!,!-!.!0!1!2!3!              ",
"            4!5!6!.!7!8!9!:!;!<!=!>!?!e @!A!B!C!D!E!F!G!H!              ",
"            I!J!K!L!M!N!8 C!8 ;!O!P!Q!R!z S!O!8 T!(!U!A!V!W!            ",
"            X!. Y!Z![!]!^!_!`!a!b!c!d!_ [!e!f!g!h!i!j!k!] l!            ",
"          m!n!o!p!q!J r!>!s!%!t!u!v!w!x!y!'!z!{![!|!}!~! #!###          ",
"          $#%#&#'#(#)#<!%!*#+#,#-#w .#0#C!y D!2!(#U!1#2#3#4#5#          ",
"          6#7#8#9#+#8 >!:#;#<#=#N!>#?#c!+#@#>!A#:!B#C#D#E#F#G#          ",
"          H#I#J#v M!K#_!A#9#j L#M#N#O#P#e Q#R#S#w!T#U#b V#W#X#          ",
"          Y#Z#[#]#h!0#p :#E!^#_#`#a#b#t!c#d#e#f#g#+!h#i#j#k#l#          ",
"            m#n#K#)#r!;!`!o#p#q#r#s#t#u#+#v#h#w#x#y#z#S#{#|#}#          ",
"            ~# $!$#$$$A!%$:#&$'$($)$*$+$,$0#c!-$.$0$d!M!1$2$            ",
"            3$4$`!5$u#y!6$7$8$9$:$%$,$;$<$;#0#T#=$>$2!P!?$@$            ",
"            B 8#A$x!B$y!u C$D$E$]#F$G$e H$i#I$c#J$K$L$M$N$O$            ",
"              P$Q$R$x!x!'!v!: S$T$z!U$V$J#c!W$X$Z 2!L$Y$Z$              ",
"                [$]$+!q!^$M$_$`$a$b$c$W!d$e$f$g$h$i$j$k$l$              ",
"                m$n$o$p$U#q$r$s$t$u$v$w$x$y$z${$b$|$}$~$                ",
"                 %!%#%$%%%&%'%(%)%*%+%,%-%.%0%1%2%3%4%                  ",
"                  5%6%7%8%9%:%;%<%=%>%?%@%A%B%C%                        ",
"                      D%E%F%G%H%H!I%J%K%L%M%N%O%                        ",
"                              P%Q%R%S%T%U%V%                            ",
"                                                                        ",
"                                                                        ",
"                                                                        ",
"                                                                        ",
"                                                                        "};