/* XPM */ 
static const char * crash_3_xpm[] = {
"36 36 274 2",
"  	c None",
"! 	c black",
"# 	c #FF7240",
"$ 	c #FFB13B",
"% 	c #FFD660",
"& 	c #FFFB92",
"' 	c #FFFF9B",
"( 	c #FFDE65",
") 	c #FF9530",
"* 	c #FF9C38",
"+ 	c #FFAE50",
", 	c #FAA44E",
"- 	c #FFAA4B",
". 	c #FFEE9B",
"0 	c #FFFFD8",
"1 	c #FFFEC9",
"2 	c #FFFFCE",
"3 	c #FFFFC4",
"4 	c #FFEA92",
"5 	c #FF8C32",
"6 	c #842F10",
"7 	c #FFA748",
"8 	c #FFC05A",
"9 	c #FFCE67",
": 	c #FFDE83",
"; 	c #FFE6A0",
"< 	c #FFF6D6",
"= 	c #FFEEC4",
"> 	c #FEE7B3",
"? 	c #FFEEB9",
"@ 	c #FFF9B5",
"A 	c #FFF69D",
"B 	c #FFD25B",
"C 	c #FFA33B",
"D 	c #FFBF5B",
"E 	c #FFEB94",
"F 	c #FFE194",
"G 	c #FFEB9B",
"H 	c #FFE096",
"I 	c #FFDF90",
"J 	c #FFECAF",
"K 	c #FFD686",
"L 	c #FED382",
"M 	c #FDD28C",
"N 	c #FFDA84",
"O 	c #FFF0A0",
"P 	c #FFED93",
"Q 	c #DD571B",
"R 	c #FFE965",
"S 	c #FFEB8A",
"T 	c #FFF0A1",
"U 	c #FFF7C3",
"V 	c #FFF6C6",
"W 	c #FFEFB0",
"X 	c #FFDD8C",
"Y 	c #FFDC86",
"Z 	c #FFDF94",
"[ 	c #FFDE95",
"] 	c #FFDA88",
"^ 	c #FCCB82",
"_ 	c #FFD675",
"` 	c #FFF1B2",
"a 	c #FFFFD3",
"b 	c #FCD980",
"c 	c #FF6331",
"d 	c #FFED99",
"e 	c #FFFFC9",
"f 	c #FFF8CD",
"g 	c #FFFCE3",
"h 	c #FFFADF",
"i 	c #FFF5C5",
"j 	c #FFEFBB",
"k 	c #FFEDA4",
"l 	c #FFF0B0",
"m 	c #FFEBA1",
"n 	c #FFE991",
"o 	c #FFDB85",
"p 	c #FFE191",
"q 	c #FFF2B7",
"r 	c #FFFDD7",
"s 	c #FFFCB9",
"t 	c white",
"u 	c #FFFF68",
"v 	c #FFF9C2",
"w 	c #FFFDDA",
"x 	c #FFFDED",
"y 	c #FFF7D9",
"z 	c #FFF7D3",
"{ 	c #FFFBDC",
"| 	c #FFFCE8",
"} 	c #FFFBDF",
"~ 	c #FFF9D1",
" !	c #FFF5C3",
"!!	c #FFEEA8",
"#!	c #FFE898",
"$!	c #FFE594",
"%!	c #FFF1BA",
"&!	c #FFF6CB",
"'!	c #FFFFDC",
"(!	c #FFFFB3",
")!	c #FFF780",
"*!	c #FFFFE0",
"+!	c #FFFFF7",
",!	c #FFFBE4",
"-!	c #FFF3C4",
".!	c #FFF8D0",
"0!	c #FFF9D5",
"1!	c #FFFCE5",
"2!	c #FFFEF2",
"3!	c #FFFFF6",
"4!	c #FFFAD8",
"5!	c #FFF6C1",
"6!	c #FFF1B7",
"7!	c #FFEEB1",
"8!	c #FFF5C4",
"9!	c #FFF7D4",
":!	c #FFFFF8",
";!	c #FFFFE4",
"<!	c #FFF7AE",
"=!	c #FFFFE8",
">!	c #FFFDF0",
"?!	c #FFFAE1",
"@!	c #FFFADC",
"A!	c #FFFDEC",
"B!	c #FFF8D5",
"C!	c #FFF9D9",
"D!	c #FFFEF3",
"E!	c #FFFBE2",
"F!	c #FFFDE8",
"G!	c #FFF9DA",
"H!	c #FFF2B5",
"I!	c #FFECB3",
"J!	c #FFFFEC",
"K!	c #FFFFE5",
"L!	c #FFF473",
"M!	c #FFFFDB",
"N!	c #FFFDC3",
"O!	c #FFFCD7",
"P!	c #FFFBE6",
"Q!	c #FFFBE1",
"R!	c #FFF8D4",
"S!	c #FFF6C8",
"T!	c #FFFCE6",
"U!	c #FFF9D7",
"V!	c #FFFCE7",
"W!	c #FFFCE9",
"X!	c #FFF7CF",
"Y!	c #FFEDBA",
"Z!	c #FFFEF0",
"[!	c #FFFFCC",
"]!	c #FFFFB6",
"^!	c #FFFF65",
"_!	c #FFFFBF",
"`!	c #FFFEE4",
"a!	c #FFFCDF",
"b!	c #FFF7D5",
"c!	c #FFF7CE",
"d!	c #FFF3BC",
"e!	c #FFF3C2",
"f!	c #FFFEEE",
"g!	c #FFFADA",
"h!	c #FFFFF5",
"i!	c #FFFCEB",
"j!	c #FFE99A",
"k!	c #FFFF9C",
"l!	c #FFAB38",
"m!	c #FFFBAE",
"n!	c #FFEEB8",
"o!	c #FFEAA0",
"p!	c #FFF5C2",
"q!	c #FFF6D3",
"r!	c #FFF0C3",
"s!	c #FFF2C3",
"t!	c #FFF7D0",
"u!	c #FFF2B9",
"v!	c #FFE9AC",
"w!	c #FFEEBA",
"x!	c #FFFADE",
"y!	c #FFF9D3",
"z!	c #FFF9D2",
"{!	c #FFF3BA",
"|!	c #FFECA6",
"}!	c #FFE27F",
"~!	c #FFDB56",
" #	c #FF7F2A",
"!#	c #FFF9A2",
"##	c #FFDB91",
"$#	c #FFE7A1",
"%#	c #FFF4B8",
"&#	c #FFF6CF",
"'#	c #FFF6D1",
"(#	c #FFFBE0",
")#	c #FFF6C2",
"*#	c #FFEFB6",
"+#	c #FFE9A3",
",#	c #FFEEAF",
"-#	c #FFFDEF",
".#	c #FFFCED",
"0#	c #FFFEF5",
"1#	c #FFF8D1",
"2#	c #FFE891",
"3#	c #FFDE77",
"4#	c #FFA135",
"5#	c #FFF18F",
"6#	c #FFEAA8",
"7#	c #FFE89D",
"8#	c #FFF7CD",
"9#	c #FFFDE9",
":#	c #FFF1BB",
";#	c #FFF2C2",
"<#	c #FFF9D8",
"=#	c #FFFEF8",
">#	c #FFF5B9",
"?#	c #FFF093",
"@#	c #FFDA74",
"A#	c #C13E16",
"B#	c #FFFF78",
"C#	c #FFFFDF",
"D#	c #FFFBDE",
"E#	c #FFF9DE",
"F#	c #FFF4CF",
"G#	c #FFF8D9",
"H#	c #FFFBE3",
"I#	c #FFFFFA",
"J#	c #FFF4B4",
"K#	c #FFDD6F",
"L#	c #FFA13B",
"M#	c #EB6025",
"N#	c #FFEA9A",
"O#	c #FFFFD0",
"P#	c #FFF7C7",
"Q#	c #FFF9CC",
"R#	c #FFF4C8",
"S#	c #FFF9D4",
"T#	c #FFF9DB",
"U#	c #FFFFFB",
"V#	c #FFF69F",
"W#	c #FFDB6A",
"X#	c #C35119",
"Y#	c #FF983E",
"Z#	c #FFE696",
"[#	c #FFFFB5",
"]#	c #FFF5AF",
"^#	c #FFE692",
"_#	c #FFFAD9",
"`#	c #FFFFF9",
"a#	c #FFF69B",
"b#	c #F7A541",
"c#	c #FF8F3E",
"d#	c #FFD16B",
"e#	c #FFF494",
"f#	c #FFDB83",
"g#	c #FFFBDB",
"h#	c #FFFFEB",
"i#	c #FFFBCB",
"j#	c #FFFEAC",
"k#	c #FFE988",
"l#	c #FFA940",
"m#	c #E96725",
"n#	c #FFDD79",
"o#	c #FFF7A9",
"p#	c #FFF7A8",
"q#	c #FFFFBD",
"r#	c #FFFFCB",
"s#	c #FFF7C1",
"t#	c #FFF19A",
"u#	c #FFE76D",
"v#	c #B94819",
"w#	c #FF693C",
"x#	c #FFBC3B",
"y#	c #FFD04E",
"z#	c #FFE162",
"{#	c #FFD65D",
"|#	c #FFAE3F",
"                                                                        ",
"                                                                        ",
"                                                                        ",
"                                                                        ",
"                                                                        ",
"                                                                        ",
"                                                                        ",
"                                                                        ",
"                              # $ % & ' ( )                             ",
"                          * + , - . 0 1 2 3 4 5                         ",
"                        6 7 8 9 : ; < = > ? @ A B                       ",
"                      C D E F G H I J K L M N O P Q                     ",
"                    R S T U V W X Y Z [ ] ^ _ ` a b                     ",
"                  c d e f g h i j k l m n o p q r s t                   ",
"                  u v w x y z { | } ~  !!!#!$!%!&!'!(!                  ",
"                  )!*!+!,!-!.!0!1!2!3!4!5!6!7!8!9!:!;!                  ",
"                  <!=!>!?!@!A!B!C!D!| E!F!4!G!H!I!J!K!L!                ",
"                M!N!O!P!D!+!Q!R!S!T!4!U!V!W!,!X!Y!Z![!]!                ",
"                ^!_!`!U!a!x %!b! !c!d!e!@!f!g!h!i!0!j!k!                ",
"                l!m!n!o!p!q!r!s!t!u!I!v!w!x!y!z!{!|!}!~!                ",
"                 #!###$#%#&#'#t!(#)#*#+#,#-#.#0#1#2#3#4#                ",
"                  5#6#7#8#F!9#,!x P!:#;#<#i!=#:!>#?#@#A#                ",
"                  B#C#f D#} -#Q!{ E#F#G#H#I#+!h!J#K#L#                  ",
"                  M#N#O#P#Q#@!R#S#T#P!D!U#I#T#9#V#W#X#                  ",
"                    Y#Z#[#]#$#^#)#_#-#`#t +!4!;!a#b#                    ",
"                      c#d#e#f#+#g#D#Q!h#:!i#j#k#l#                      ",
"                        m#n#o#p#q#2 r#2 s#t#u#v#                        ",
"                            w#x#y#z#{#|#                                ",
"                                                                        ",
"                                                                        ",
"                                                                        ",
"                                                                        ",
"                                                                        ",
"                                                                        ",
"                                                                        ",
"                                                                        "};