/* XPM */ 
static const char * crash_2_xpm[] = {
"36 36 202 2",
"  	c None",
"! 	c black",
"# 	c #F85E1C",
"$ 	c #FFB434",
"% 	c #FFDC47",
"& 	c #FF9833",
"' 	c #FFBF4F",
"( 	c #FFD977",
") 	c #FFF3A2",
"* 	c #FFF59E",
"+ 	c #FFFFCC",
", 	c #FFFFD7",
"- 	c #FFE475",
". 	c #FE9B36",
"0 	c #8A5851",
"1 	c #FAB45E",
"2 	c #FFE47C",
"3 	c #FFDB83",
"4 	c #FFECA7",
"5 	c #FFFFDF",
"6 	c #FFF9C9",
"7 	c #FFF6BA",
"8 	c #FFF7CD",
"9 	c #FFF9BB",
": 	c #FFF9B0",
"; 	c #EDA946",
"< 	c #FFD58F",
"= 	c #FFE795",
"> 	c #FFF7AD",
"? 	c #FFFCCD",
"@ 	c #FFF5CC",
"A 	c #FFEEAD",
"B 	c #FFFBE1",
"C 	c #FFFADF",
"D 	c #FFEEAB",
"E 	c #FFECA8",
"F 	c #FFEA9C",
"G 	c #FFFAC6",
"H 	c #FFF8A3",
"I 	c #FFA93D",
"J 	c #FFFF74",
"K 	c #FFFFC5",
"L 	c #FFFCD9",
"M 	c #FFFFFA",
"N 	c #FFFEEF",
"O 	c #FFF6D2",
"P 	c #FFF1C9",
"Q 	c #FFEDB7",
"R 	c #FFEAAF",
"S 	c #FEDC95",
"T 	c #FFEAAD",
"U 	c #FFF3BF",
"V 	c #FFECAD",
"W 	c #FFC15B",
"X 	c #FF7C2C",
"Y 	c #FFF9BC",
"Z 	c #FFFFFC",
"[ 	c #FFFFFE",
"] 	c white",
"^ 	c #FFFADD",
"_ 	c #FFF2CA",
"` 	c #FFEFC1",
"a 	c #FFF0C5",
"b 	c #FFDB92",
"c 	c #FFECB0",
"d 	c #FFF2B3",
"e 	c #FFEFB2",
"f 	c #FFE994",
"g 	c #FFCE49",
"h 	c #FFCC58",
"i 	c #FFFFDE",
"j 	c #FFFEED",
"k 	c #FFFAD9",
"l 	c #FFF8CE",
"m 	c #FFF7D2",
"n 	c #FFEAAB",
"o 	c #FFF4C7",
"p 	c #FFF9D7",
"q 	c #FFF4C6",
"r 	c #FFFFCF",
"s 	c #FFF690",
"t 	c #FFF7A4",
"u 	c #FFFFF7",
"v 	c #FFFFFB",
"w 	c #FFFBE3",
"x 	c #FFF8D2",
"y 	c #FFF6C5",
"z 	c #FFFDEB",
"{ 	c #FFFBE6",
"| 	c #FFFCE9",
"} 	c #FFF9DB",
"~ 	c #FFFBE7",
" !	c #FFFFDD",
"!!	c #FFFFBF",
"#!	c #FFFBB5",
"$!	c #FFFFE3",
"%!	c #FFFDEE",
"&!	c #FFFEF5",
"'!	c #FFFEF6",
"(!	c #FFFBE0",
")!	c #FFF8D6",
"*!	c #FFFCE7",
"+!	c #FFFEF0",
",!	c #FFFDEF",
"-!	c #FFFFF6",
".!	c #FFFED8",
"0!	c #FFF7A3",
"1!	c #FFFCCF",
"2!	c #FFF9DC",
"3!	c #FFFCEB",
"4!	c #FFFDF1",
"5!	c #FFF9DA",
"6!	c #FFF0B7",
"7!	c #FFF5CE",
"8!	c #FFFAE1",
"9!	c #FFFEF3",
":!	c #FFFEF2",
";!	c #FFFFC1",
"<!	c #FFF8A9",
"=!	c #FFFBCC",
">!	c #FFF7D4",
"?!	c #FFFCE8",
"@!	c #FFFBE2",
"A!	c #FFFCEA",
"B!	c #FFF3C1",
"C!	c #FFE7A2",
"D!	c #FFF9E0",
"E!	c #FFF4C8",
"F!	c #FFFAE2",
"G!	c #FFFCE4",
"H!	c #FFFAC5",
"I!	c #FFF5A6",
"J!	c #FFF08A",
"K!	c #FFEDB6",
"L!	c #FFF4C0",
"M!	c #FFF4C9",
"N!	c #FFEFBC",
"O!	c #FFF9D8",
"P!	c #FFFFF8",
"Q!	c #FFFFF4",
"R!	c #FFEC95",
"S!	c #FFE375",
"T!	c #FFE262",
"U!	c #FFFFC8",
"V!	c #FFF2BF",
"W!	c #FFF5C9",
"X!	c #FFF6C8",
"Y!	c #FFFEF1",
"Z!	c #FFFDED",
"[!	c #FFFFF5",
"]!	c #FFFBDD",
"^!	c #FFE47A",
"_!	c #FFC852",
"`!	c #FF8340",
"a!	c #FFEC98",
"b!	c #FFE98D",
"c!	c #FFE7A3",
"d!	c #FFF1B7",
"e!	c #FFFADC",
"f!	c #FFFAD6",
"g!	c #FFFFF9",
"h!	c #FFFEE6",
"i!	c #FFF9B3",
"j!	c #FFD767",
"k!	c #AD4415",
"l!	c #FFB84B",
"m!	c #FFD478",
"n!	c #FFDF85",
"o!	c #FFEA99",
"p!	c #FFEAB1",
"q!	c #FFE49D",
"r!	c #FFECAB",
"s!	c #FFFBDC",
"t!	c #FFFFF3",
"u!	c #FFFFED",
"v!	c #FFE683",
"w!	c #F3892E",
"x!	c #FFBC49",
"y!	c #FFC35F",
"z!	c #FFEE9C",
"{!	c #FFE498",
"|!	c #FFEEB1",
"}!	c #FFEFB9",
"~!	c #FFFEE2",
" #	c #FFFECC",
"!#	c #FFFFD9",
"##	c #FFF3AE",
"$#	c #FFB748",
"%#	c #FF752B",
"&#	c #FFD763",
"'#	c #FFEE83",
"(#	c #FFF593",
")#	c #FFF9A1",
"*#	c #FFFFB0",
"+#	c #FFF7A1",
",#	c #FFEE86",
"-#	c #FFCE59",
".#	c #F45C1E",
"0#	c #832111",
"1#	c #AB3910",
"2#	c #E1591A",
"3#	c #E46620",
"                                                                        ",
"                                                                        ",
"                                                                        ",
"                                                                        ",
"                                                                        ",
"                                                                        ",
"                                                                        ",
"                                                                        ",
"                                                                        ",
"                                  # $ %                                 ",
"                            & ' ( ) * + , - .                           ",
"                        0 1 2 3 4 5 6 7 8 9 : ;                         ",
"                      < = > ? @ A B C D E F G H I                       ",
"                      J K L M N O P Q R S T U V W                       ",
"                    X Y Z [ ] M ^ _ ` a b c d e f g                     ",
"                    h i ] ] ] ] j k l m n o p q r s                     ",
"                    t u v ] ] M w x y z { | } ~  !!!                    ",
"                    #!$!%!&![ u '!(!)!~ *!+!,!-!.!0!                    ",
"                    Y 1!2!3!v 4!5!6!7!8!+!9!%!:!$!;!                    ",
"                    <!=!>!?!@!A!B!C!D!E!3!z F!G!H!I!                    ",
"                    J!H!K!L!l { M!N!*!O!P!v Q!G!R!S!                    ",
"                    T!U!V!W!X!Y!Z!9!] &!] ] [!]!^!_!                    ",
"                    `!a!b!c!d!-!e!f!j ] ] g!h!i!j!k!                    ",
"                      l!m!n!o!p!q!r!s!] P!t!u!v!w!                      ",
"                        x!y!z!{!|!}!~!t! #!###$#                        ",
"                          %#&#'#(#)#*#+#,#-#.#                          ",
"                              0#1#2#3#                                  ",
"                                                                        ",
"                                                                        ",
"                                                                        ",
"                                                                        ",
"                                                                        ",
"                                                                        ",
"                                                                        ",
"                                                                        ",
"                                                                        "};