/* XPM */ 
static const char * crash_4_xpm[] = {
"36 36 322 2",
"  	c None",
"! 	c black",
"# 	c #FF7D22",
"$ 	c #FF6024",
"% 	c #FF9932",
"& 	c #FFC554",
"' 	c #FFFABA",
"( 	c #FFFFC2",
") 	c #FFFFD3",
"* 	c #FFFEA7",
"+ 	c #FFDD5E",
", 	c #FF602D",
"- 	c #FFA945",
". 	c #FCAA52",
"0 	c #FFA647",
"1 	c #FFD66A",
"2 	c #FFF8B3",
"3 	c #FFFFE6",
"4 	c #FFFFFA",
"5 	c #FFFAC7",
"6 	c #FFEC70",
"7 	c #E3792F",
"8 	c #FFB656",
"9 	c #FFC35C",
": 	c #FFD371",
"; 	c #FFED9A",
"< 	c #FFE99B",
"= 	c #FFECB0",
"> 	c #FFE39E",
"? 	c #FBCD8F",
"@ 	c #F7B875",
"A 	c #FFD8A1",
"B 	c #FFFFBD",
"C 	c #FFEDA7",
"D 	c #FFC74C",
"E 	c #F9A53E",
"F 	c #FFC557",
"G 	c #FFE381",
"H 	c #FFE791",
"I 	c #FFF3BB",
"J 	c #FEDE97",
"K 	c #FFE496",
"L 	c #FFE899",
"M 	c #FFE190",
"N 	c #FFDB85",
"O 	c #FBC370",
"P 	c #ED9045",
"Q 	c #FFD997",
"R 	c #FFFFC5",
"S 	c #FFE18B",
"T 	c white",
"U 	c #FFFFAE",
"V 	c #FFE98E",
"W 	c #FFDE75",
"X 	c #FFE293",
"Y 	c #FFF5B8",
"Z 	c #FFF5C1",
"[ 	c #FFF5C3",
"] 	c #FFEDB8",
"^ 	c #FFF6C6",
"_ 	c #FFE89B",
"` 	c #FFF0B4",
"a 	c #FFDC82",
"b 	c #FCCA7E",
"c 	c #FFE0A2",
"d 	c #FFF9CF",
"e 	c #FFFFD4",
"f 	c #FFFFB3",
"g 	c #FFFDAC",
"h 	c #FFF3BC",
"i 	c #FFF7CF",
"j 	c #FFEEA3",
"k 	c #FFF7C6",
"l 	c #FFFBE0",
"m 	c #FFFCDF",
"n 	c #FFEA9B",
"o 	c #FFDB84",
"p 	c #FFEEAC",
"q 	c #FFF2B6",
"r 	c #FFEAA0",
"s 	c #FFDD87",
"t 	c #FFF4C0",
"u 	c #FFF4A7",
"v 	c #FFF5A7",
"w 	c #FFFFDA",
"x 	c #F44F16",
"y 	c #FFEA90",
"z 	c #FFF3B2",
"{ 	c #FFF8D3",
"| 	c #FFF3B6",
"} 	c #FFF6C8",
"~ 	c #FFF5BB",
" !	c #FFFCE0",
"!!	c #FFFEEF",
"#!	c #FFFDEB",
"$!	c #FFFDE5",
"%!	c #FFF9D9",
"&!	c #FFF7C3",
"'!	c #FFF7C0",
"(!	c #FFF7C8",
")!	c #FFF3C4",
"*!	c #FFF4BF",
"+!	c #FFF8CE",
",!	c #FFFFF3",
"-!	c #FFFFDB",
".!	c #FFB041",
"0!	c #FFF3A2",
"1!	c #FFFADB",
"2!	c #FFF5CB",
"3!	c #FFFADD",
"4!	c #FFFDEE",
"5!	c #FFFEF3",
"6!	c #FFFEF2",
"7!	c #FFFFF5",
"8!	c #FFFEF0",
"9!	c #FFF7C5",
":!	c #FFF5AF",
";!	c #FFF3AA",
"<!	c #FFF2B1",
"=!	c #FFF0B8",
">!	c #FFF5C8",
"?!	c #FFFFF9",
"@!	c #FFFFDF",
"A!	c #FFFFB8",
"B!	c #FFFDEA",
"C!	c #FFF9DB",
"D!	c #FFF5C7",
"E!	c #FFFADF",
"F!	c #FFFCE5",
"G!	c #FFFDE7",
"H!	c #FFFDE9",
"I!	c #FFFDEC",
"J!	c #FFFEEE",
"K!	c #FFFBDD",
"L!	c #FFF5C0",
"M!	c #FFF4BB",
"N!	c #FFF3C1",
"O!	c #FFF8D6",
"P!	c #FFFFED",
"Q!	c #FFFFAD",
"R!	c #FFFDCB",
"S!	c #FFFADA",
"T!	c #FFFBE4",
"U!	c #FFFCE6",
"V!	c #FFF7C9",
"W!	c #FFFFF6",
"X!	c #FFFAE0",
"Y!	c #FFFFFB",
"Z!	c #FFFDED",
"[!	c #FFF9DA",
"]!	c #FFF5C5",
"^!	c #FFF5C9",
"_!	c #FFFDCE",
"`!	c #FFF6B5",
"a!	c #FFFF7B",
"b!	c #FFFAB5",
"c!	c #FFF1B0",
"d!	c #FFF4C3",
"e!	c #FFFBE2",
"f!	c #FFFCE9",
"g!	c #FFFBDE",
"h!	c #FFF4CA",
"i!	c #FFF4C6",
"j!	c #FFF1BF",
"k!	c #FFFDEF",
"l!	c #FFFCE8",
"m!	c #FFEDAB",
"n!	c #FFEBA3",
"o!	c #FFE584",
"p!	c #FFFF71",
"q!	c #FFFCB9",
"r!	c #FFF7C7",
"s!	c #FFF6CD",
"t!	c #FFF8D2",
"u!	c #FFEEB0",
"v!	c #FFE698",
"w!	c #FFE699",
"x!	c #FFF0BB",
"y!	c #FFFAD6",
"z!	c #FFFBDF",
"{!	c #FFF7D0",
"|!	c #FFF7D3",
"}!	c #FFEDA9",
"~!	c #FFE996",
" #	c #FFE26F",
"!#	c #FFBD45",
"##	c #FFF9C8",
"$#	c #FFF0AF",
"%#	c #FFEA9E",
"&#	c #FFF9D1",
"'#	c #FFF6C4",
"(#	c #FFF9D7",
")#	c #FFEEB7",
"*#	c #FFE8A1",
"+#	c #FFEAA4",
",#	c #FFF7CC",
"-#	c #FFF8D0",
".#	c #FFF7D2",
"0#	c #FFFAD5",
"1#	c #FFEC95",
"2#	c #FFE186",
"3#	c #FFDA65",
"4#	c #FFBF43",
"5#	c #FFDE8D",
"6#	c #FFDD81",
"7#	c #FFF9D5",
"8#	c #FFFADC",
"9#	c #FFF5BE",
":#	c #FFF2A9",
";#	c #FFFDE4",
"<#	c #FFEDAD",
"=#	c #FFD882",
">#	c #FFE5A1",
"?#	c #FFF5BF",
"@#	c #FFED9E",
"A#	c #FFDD80",
"B#	c #FFBA46",
"C#	c #FFA048",
"D#	c #FFF7AD",
"E#	c #FFECA4",
"F#	c #FFF0B0",
"G#	c #FFF7CB",
"H#	c #FFF8CD",
"I#	c #FFF4B4",
"J#	c #FFF3B9",
"K#	c #FFE49F",
"L#	c #FFD587",
"M#	c #FFECB3",
"N#	c #FFF3AF",
"O#	c #FFF7BA",
"P#	c #FFF6AD",
"Q#	c #F67D2B",
"R#	c #FFFFA3",
"S#	c #FFEDB1",
"T#	c #FFF6CC",
"U#	c #FFFBDC",
"V#	c #FFF5C2",
"W#	c #FFECA6",
"X#	c #FFE497",
"Y#	c #FFE79B",
"Z#	c #FFE9AB",
"[#	c #FFF5C6",
"]#	c #FFE195",
"^#	c #FFE8A8",
"_#	c #FFF7BF",
"`#	c #FFEA8A",
"a#	c #FFE47B",
"b#	c #FFDF5D",
"c#	c #FFFFE9",
"d#	c #FFFEDF",
"e#	c #FFF8D8",
"f#	c #FFF6C7",
"g#	c #FFE597",
"h#	c #FFE7A2",
"i#	c #FFDD96",
"j#	c #FFF0BF",
"k#	c #FFE59B",
"l#	c #FFEDB6",
"m#	c #FFF5B4",
"n#	c #FFEE7E",
"o#	c #FAD066",
"p#	c #FFF800",
"q#	c #FFFF7F",
"r#	c #FFFFCE",
"s#	c #FFFCDD",
"t#	c #FFF0B6",
"u#	c #FFF7D1",
"v#	c #FFF0B7",
"w#	c #FFEBAB",
"x#	c #FFF4BC",
"y#	c #FFF7D8",
"z#	c #FFF4D2",
"{#	c #FFEAAD",
"|#	c #FFE696",
"}#	c #FFF9D8",
"~#	c #FFD66F",
" $	c #FFFF68",
"!$	c #FFE683",
"#$	c #FFFFC7",
"$$	c #FFFBD8",
"%$	c #FFFAD9",
"&$	c #FFF2BD",
"'$	c #FFE49C",
"($	c #FED37B",
")$	c #FFF6CE",
"*$	c #FFF7D7",
"+$	c #FFF5BD",
",$	c #FFF8BD",
"-$	c #FFFFD6",
".$	c #FFE893",
"0$	c #D25E1F",
"1$	c #FF9432",
"2$	c #FFD670",
"3$	c #FFFCA4",
"4$	c #FFF8B6",
"5$	c #FFF7C2",
"6$	c #FFF9D3",
"7$	c #FFEFC0",
"8$	c #FFFEEA",
"9$	c #FFFBE3",
":$	c #FFFFEA",
";$	c #FFFCD0",
"<$	c #FFFFC6",
"=$	c #FFFCD4",
">$	c #FFE173",
"?$	c #FF7123",
"@$	c #FFB347",
"A$	c #FFF290",
"B$	c #FFFFD1",
"C$	c #FFFFEB",
"D$	c #FFFED2",
"E$	c #FFF9BB",
"F$	c #FFF9BC",
"G$	c #FFFF97",
"H$	c #FFFF65",
"I$	c #FFD54D",
"J$	c #FF9A2F",
"K$	c #FFFC6E",
"L$	c #FFD866",
"M$	c #FFDE6A",
"N$	c #FFCD58",
"O$	c #FF7F2C",
"                                                                        ",
"                                                                        ",
"                                                                        ",
"                                                                        ",
"                                                                        ",
"                                                                        ",
"                                    # $                                 ",
"                              % & ' ( ) * +                             ",
"                        , - . 0 1 2 3 4 4 3 5 6                         ",
"                        7 8 9 : ; < = > ? @ A B C D                     ",
"                      E F G H I J K L M N O P Q R S T                   ",
"                  U V W X Y Z [ ] ^ _ K ` a b c d e f                   ",
"                  f g C h i j k l m n o p q r s t u v w                 ",
"                x y z { | } ~  !!!#!$!%!&!'!(!)!*!+!,!-!                ",
"                .!0! !1!} 2!3!4!5!6!7!8!9!:!;!<!=!>!?!@!                ",
"                A!@!B!C!D!E!F!G!H!I!J!B!5!K!L!M!N!O!7!P!Q!              ",
"                R!k >!S!T!4!U!K!V!G!W!X!Y!Z![!h ]!%!^!_!`!              ",
"              a!b!c!d!4!#!e!f!J!g!h!i!j!U!1!k!l![!D!m!n!o!              ",
"              p!q!` r!F!l s!D!t!q u!v!w!x!y!z![!{!|!}!~! #              ",
"              !###$#%#&#1!'#E!(#Z )#*#+#H ,#-#>!.#0#1#2#3#              ",
"              4#B 5#6#7#J!L!8#(#y!D!I 9#:#;#<#=#>#?#@#A#B#              ",
"              C#D#E#F#0#7!7!0#9#G#V!H#I#J#7#K#L#M#N#O#P#Q#              ",
"              T R#W!S#T#U#l!f!V#V#W#X#Y#Z#[#]#^#)!_#`#a#                ",
"                b#c#d#F!e#7#l!U#f#=!g#h#i#j#k#l#T!m#n#o#                ",
"                p#q#r#s#t#3!u#v#w#x#{ y#z#X!{#|#}#r#~#                  ",
"                   $!$#$$$%$&$'$($K#)$y#*$O!+$,$-$.$0$                  ",
"                    1$2$3$4$5$6$7$X!8$9$:$;$<$=$>$?$                    ",
"                        @$A$B$=$C$:$D$E$F$G$H$T I$                      ",
"                              J$K$L$M$N$O$                              ",
"                                                                        ",
"                                                                        ",
"                                                                        ",
"                                                                        ",
"                                                                        ",
"                                                                        ",
"                                                                        "};