/* XPM */ 
static const char * crash_7_xpm[] = {
"36 36 499 2",
"  	c None",
"! 	c black",
"# 	c #EC5D17",
"$ 	c #CD4B11",
"% 	c #FF8A32",
"& 	c #FFE057",
"' 	c #FFE056",
"( 	c #FFFF61",
") 	c #FFFFA1",
"* 	c #FFED91",
"+ 	c #FFD66F",
", 	c #FFDF8D",
"- 	c #FFFCD6",
". 	c #FFF098",
"0 	c #FFED8E",
"1 	c #FFE382",
"2 	c #FFF17C",
"3 	c #FFFFF8",
"4 	c #FFC983",
"5 	c #FFD64E",
"6 	c #FFF46F",
"7 	c #FFE784",
"8 	c #FFF8B0",
"9 	c #FFFAD5",
": 	c #FFF8CC",
"; 	c #FFFAD4",
"< 	c #FFE99F",
"= 	c #FFF0B7",
"> 	c #FFF7BF",
"? 	c #FFF8B3",
"@ 	c #FFEDAD",
"A 	c #FFDF80",
"B 	c #FFDF68",
"C 	c #FFE566",
"D 	c #FF4A29",
"E 	c #FFE88F",
"F 	c #FFF39D",
"G 	c #FFF7BB",
"H 	c #FFFACC",
"I 	c #FFF6CE",
"J 	c #FFF0B4",
"K 	c #FFEBB0",
"L 	c #FFE79D",
"M 	c #FFF2BA",
"N 	c #FFF1A9",
"O 	c #FFF2B5",
"P 	c #FFE8A5",
"Q 	c #FFDF93",
"R 	c #FFE188",
"S 	c #FFE796",
"T 	c #FFFBBC",
"U 	c #FFEE8A",
"V 	c #FFDC59",
"W 	c #CD4E16",
"X 	c #FFF5B5",
"Y 	c #FFF4BB",
"Z 	c #FFF0B3",
"[ 	c #FFE691",
"] 	c #FFEFAD",
"^ 	c #FFF1C4",
"_ 	c #FFEFBA",
"` 	c #FFF2B7",
"a 	c #FFEA95",
"b 	c #FFED9F",
"c 	c #FFE68C",
"d 	c #FFE695",
"e 	c #FFEFB5",
"f 	c #FFF8D7",
"g 	c #FFF8C1",
"h 	c #FFFDBF",
"i 	c #FFFFB5",
"j 	c #FCD364",
"k 	c #782D10",
"l 	c #FFECFF",
"m 	c #FFF8CA",
"n 	c #FFFCC5",
"o 	c #FFEAA4",
"p 	c #FFEDA9",
"q 	c #FFF0AB",
"r 	c #FFEB9E",
"s 	c #FFF8D1",
"t 	c #FFF6CC",
"u 	c #FFF2CC",
"v 	c #FFEAAE",
"w 	c #FFEEB3",
"x 	c #FFEE9F",
"y 	c #FFEFA6",
"z 	c #FFF4B7",
"{ 	c #FFF7C5",
"| 	c #FFEEB4",
"} 	c #FFF1AE",
"~ 	c #FFF8CF",
" !	c #FFFBCE",
"!!	c #FFFDA0",
"#!	c #FFD044",
"$!	c #FF8F33",
"%!	c #FFFF78",
"&!	c #FFE099",
"'!	c #FFFFC8",
"(!	c #FFE5A6",
")!	c #FFE9AF",
"*!	c #FFF9D4",
"+!	c #FFF6C4",
",!	c #FFF7C6",
"-!	c #FFF9DA",
".!	c #FFEFBB",
"0!	c #FFF3BC",
"1!	c #FFF7CC",
"2!	c #FFF7CF",
"3!	c #FFF0B5",
"4!	c #FFF4C3",
"5!	c #FFEEA4",
"6!	c #FFECA6",
"7!	c #FFF6C9",
"8!	c #FFFFA8",
"9!	c #FFCC55",
":!	c #FFEB82",
";!	c #FFE797",
"<!	c #FFEDB5",
"=!	c #FFE49C",
">!	c #FFE6A2",
"?!	c #FFF4C1",
"@!	c #FFF5BC",
"A!	c #FFFBE2",
"B!	c #FFFBD9",
"C!	c #FFFEF3",
"D!	c #FFFADE",
"E!	c #FFF7CB",
"F!	c #FFF8D0",
"G!	c #FFF6CA",
"H!	c #FFF6C7",
"I!	c #FFEAA1",
"J!	c #FFEBA3",
"K!	c #FFF6CB",
"L!	c #FFF7C8",
"M!	c #FFF2C5",
"N!	c #FFE6A7",
"O!	c #FFFF79",
"P!	c #E6511D",
"Q!	c #FFD96B",
"R!	c #FFEE96",
"S!	c #FFF1B1",
"T!	c #FFF0AF",
"U!	c #FFF4B8",
"V!	c #FFF7CD",
"W!	c #FFFCE2",
"X!	c #FFFBDB",
"Y!	c #FFFDEB",
"Z!	c #FFFDE7",
"[!	c #FFFEEF",
"]!	c #FFFADC",
"^!	c #FFF3B3",
"_!	c #FFEFA7",
"`!	c #FFF2BD",
"a!	c #FFF7D0",
"b!	c #FFF6CD",
"c!	c #FFF9D7",
"d!	c #FFF8D4",
"e!	c #FFFAD7",
"f!	c #FFFFAE",
"g!	c #FB9135",
"h!	c #FFF291",
"i!	c #FFF7B8",
"j!	c #FFEDB1",
"k!	c #FFF2B4",
"l!	c #FFF9D3",
"m!	c #FFFBDE",
"n!	c #FFF8CE",
"o!	c #FFFCE7",
"p!	c #FFF5BE",
"q!	c #FFF8CD",
"r!	c #FFF2AE",
"s!	c #FFE584",
"t!	c #FFF5C3",
"u!	c #FFF3C1",
"v!	c #FFFBE0",
"w!	c #FFF7CA",
"x!	c #FFF1B8",
"y!	c #FFF0AE",
"z!	c #FFF0B1",
"{!	c #FFEAAC",
"|!	c #FFBD4A",
"}!	c #FFBF4F",
"~!	c #FFF8A2",
" #	c #FFEAAF",
"!#	c #FFECAE",
"##	c #FFF2B0",
"$#	c #FFFAD9",
"%#	c #FFFCE1",
"&#	c #FFFFF3",
"'#	c #FFFDEA",
"(#	c #FFFCE5",
")#	c #FFF4BF",
"*#	c #FFEA9B",
"+#	c #FFE282",
",#	c #FFEEB1",
"-#	c #FFF3B9",
".#	c #FFF3B7",
"0#	c #FFEBA5",
"1#	c #FFF8C4",
"2#	c #FFDE7D",
"3#	c #FFBA5E",
"4#	c #FFCB68",
"5#	c #FFA743",
"6#	c #6D1F11",
"7#	c #FFD661",
"8#	c #FFF49A",
"9#	c #FFE8A1",
":#	c #FFE7AE",
";#	c #FFE59C",
"<#	c #FFF4BD",
"=#	c #FFFDED",
">#	c #FFFCE6",
"?#	c #FFF5C2",
"@#	c #FFFBE1",
"A#	c #FFFADA",
"B#	c #FFEEB5",
"C#	c #FFE391",
"D#	c #FFF4AF",
"E#	c #FFD664",
"F#	c #FCB14A",
"G#	c #FFA440",
"H#	c #FC832A",
"I#	c #F24E1A",
"J#	c #FFBC4F",
"K#	c #FFF0A5",
"L#	c #FFF1BA",
"M#	c #FFF2BF",
"N#	c #FFEFB2",
"O#	c #FFDF94",
"P#	c #FFDF98",
"Q#	c #FFF8DA",
"R#	c #FFF3BF",
"S#	c #FFF5BF",
"T#	c #FFF9D5",
"U#	c #FFF1BF",
"V#	c #FFEDAB",
"W#	c #FFF6B9",
"X#	c #FFE186",
"Y#	c #FFCD65",
"Z#	c #FEA942",
"[#	c #FC9B3B",
"]#	c #CF3612",
"^#	c #E0521B",
"_#	c #FFC354",
"`#	c #FFF2AB",
"a#	c #FFF5BB",
"b#	c #FFF9D6",
"c#	c #FFF7D3",
"d#	c #FFECB5",
"e#	c #FFF0BD",
"f#	c #FFF1BD",
"g#	c #FFE9A7",
"h#	c #FFE396",
"i#	c #FFE599",
"j#	c #FFEB92",
"k#	c #FFF5C0",
"l#	c #FFFCEA",
"m#	c #FFF8D5",
"n#	c #FFF6C1",
"o#	c #FFF2A3",
"p#	c #FFE582",
"q#	c #FFE08D",
"r#	c #FFDE6D",
"s#	c #FF852D",
"t#	c #9C3511",
"u#	c #FFCC59",
"v#	c #FFEE9D",
"w#	c #FFF6C8",
"x#	c #FFF6C2",
"y#	c #FFFBDC",
"z#	c #FFEEBA",
"{#	c #FFE194",
"|#	c #FFDF91",
"}#	c #FECC6F",
"~#	c #FEC765",
" $	c #FFD171",
"!$	c #FFDF7C",
"#$	c #FFE891",
"$$	c #FFEFA5",
"%$	c #FFF6C3",
"&$	c #FFFBDF",
"'$	c #FFF7CE",
"($	c #FFF6BF",
")$	c #FFDB6F",
"*$	c #FEC159",
"+$	c #FFD673",
",$	c #FFDA5E",
"-$	c #FF631E",
".$	c #4D140B",
"0$	c #FFD360",
"1$	c #FFEC8B",
"2$	c #FFF1C5",
"3$	c #FFE4A2",
"4$	c #FFDC92",
"5$	c #FDC66F",
"6$	c #FEC564",
"7$	c #FFD26C",
"8$	c #FFDD83",
"9$	c #FFF2AC",
":$	c #FFF2B3",
";$	c #FFF7C4",
"<$	c #FFF6BD",
"=$	c #FFE381",
">$	c #FFD577",
"?$	c #FFF9A4",
"@$	c #FFCD5B",
"A$	c #FFC955",
"B$	c #FFEC89",
"C$	c #FFEDA7",
"D$	c #FFE69D",
"E$	c #FED481",
"F$	c #FECB6B",
"G$	c #FEC769",
"H$	c #FECF78",
"I$	c #FFE692",
"J$	c #FFF7C7",
"K$	c #FFF4B2",
"L$	c #FFF5AF",
"M$	c #FFEA91",
"N$	c #FFA051",
"O$	c #FFBC48",
"P$	c #FFF7A0",
"Q$	c #FFF4C5",
"R$	c #FFEFB8",
"S$	c #FFF0A4",
"T$	c #FFF1B3",
"U$	c #FFDD90",
"V$	c #FDC067",
"W$	c #FCBE63",
"X$	c #FFF6D1",
"Y$	c #FFF8C9",
"Z$	c #FFF4BE",
"[$	c #FFF8C8",
"]$	c #FFF3B4",
"^$	c #FFEC9E",
"_$	c #FFF0AC",
"`$	c #FFF1AD",
"a$	c #FFBB4A",
"b$	c #FF9341",
"c$	c #FFF9C0",
"d$	c #FFF8C5",
"e$	c #FFFADF",
"f$	c #FFF4C4",
"g$	c #FFF2C6",
"h$	c #FFF3C0",
"i$	c #FFEAA6",
"j$	c #FEC971",
"k$	c #FFD785",
"l$	c #FFE491",
"m$	c #FFFCE3",
"n$	c #FFF0AD",
"o$	c #FFE88C",
"p$	c #FFEC95",
"q$	c #FFD15D",
"r$	c #E97223",
"s$	c #FFDC78",
"t$	c #FFFBAF",
"u$	c #FFF6D0",
"v$	c #FFFAE0",
"w$	c #FFEEB0",
"x$	c #FFE49B",
"y$	c #FFEDA6",
"z$	c #FFDD80",
"{$	c #FFECAC",
"|$	c #FFF5B3",
"}$	c #FFF9D1",
"~$	c #FFF5C8",
" %	c #FFF4C6",
"!%	c #FFF0BA",
"#%	c #FFE99A",
"$%	c #FFC652",
"%%	c #952A0F",
"&%	c #FF7F2B",
"'%	c #FFD872",
"(%	c #FFFECD",
")%	c #FFF5CB",
"*%	c #FFF0BC",
"+%	c #FFE592",
",%	c #FFF4B5",
"-%	c #FFEC9C",
".%	c #FFE294",
"0%	c #FFDC86",
"1%	c #FFE080",
"2%	c #FFF2B1",
"3%	c #FFF7C9",
"4%	c #FFF4BC",
"5%	c #FFF2BE",
"6%	c #FFEA9D",
"7%	c #FFE9A0",
"8%	c #FFE789",
"9%	c #FFB548",
":%	c #6B0609",
";%	c #F89639",
"<%	c #FFF3A5",
"=%	c #FFF1B2",
">%	c #FFF4C0",
"?%	c #FFEAA7",
"@%	c #FFE58E",
"A%	c #FFE991",
"B%	c #FFEA8F",
"C%	c #FFF09B",
"D%	c #FFE18E",
"E%	c #FFE08A",
"F%	c #FFF6C0",
"G%	c #FFF2AF",
"H%	c #FFED9B",
"I%	c #FFF3B8",
"J%	c #FFF1B0",
"K%	c #FFFFB3",
"L%	c #FFE966",
"M%	c #FFB779",
"N%	c #FF7426",
"O%	c #FFDC7A",
"P%	c #FFEEA3",
"Q%	c #FFF3BB",
"R%	c #FFF1AF",
"S%	c #FFEA9C",
"T%	c #FFEC9A",
"U%	c #FFDE7F",
"V%	c #FFDA79",
"W%	c #FFEC96",
"X%	c #FFEA8A",
"Y%	c #FFE383",
"Z%	c #FFE084",
"[%	c #FFEA98",
"]%	c #FFE998",
"^%	c #FFF3AE",
"_%	c #FFFFC6",
"`%	c #F8E28A",
"a%	c #885632",
"b%	c #E53A33",
"c%	c #FFA23E",
"d%	c #FFD567",
"e%	c #FFE28A",
"f%	c #FFE7A2",
"g%	c #FFD172",
"h%	c #FFDE7E",
"i%	c #FFE481",
"j%	c #FFDA7F",
"k%	c #FFD26B",
"l%	c #FFD36E",
"m%	c #FFC65A",
"n%	c #FFE17D",
"o%	c #FFD66C",
"p%	c #FFEC9F",
"q%	c #FFFDBD",
"r%	c #FFD87C",
"s%	c #FBC35A",
"t%	c #3C210C",
"u%	c #FFB145",
"v%	c #FFE688",
"w%	c #FFEEAC",
"x%	c #FAAB5C",
"y%	c #FDB554",
"z%	c #FFD370",
"{%	c #FFD777",
"|%	c #FAAD53",
"}%	c #FCB24F",
"~%	c #FFD064",
" &	c #FECC62",
"!&	c #FFCC6B",
"#&	c #FFC661",
"$&	c #FFDB7E",
"%&	c #FFEE83",
"&&	c #FF783A",
"'&	c #540719",
"(&	c #FFFFAA",
")&	c #FFF566",
"*&	c #FCA95A",
"+&	c #FFB265",
",&	c #FFB85A",
"-&	c #FFD779",
".&	c #FFD27D",
"0&	c #FFBE64",
"1&	c #F9A247",
"2&	c #F6933B",
"3&	c #FFB750",
"4&	c #FFC459",
"5&	c #FFF692",
"6&	c #FFD464",
"7&	c #FFAC3A",
"8&	c #FF722B",
"9&	c #FF822D",
":&	c #FEAE50",
";&	c #FFC65C",
"<&	c #FFBF53",
"=&	c #FFB24C",
">&	c #FFC75A",
"?&	c #FFA741",
"@&	c #F55B1D",
"A&	c #E0007A",
"B&	c #FF8D48",
"C&	c #D93727",
"D&	c #BC4318",
"E&	c #882B0F",
"F&	c #BB4919",
"G&	c #7C260E",
"H&	c #250315",
"                                                                        ",
"                                                                        ",
"                                                                        ",
"                                                                        ",
"                              # $ % & ' (                               ",
"                          ) * + , - . 0 1 2 3 4                         ",
"                      5 6 7 8 9 : ; < = > ? @ A B C D                   ",
"                    E F G H I J K L M N O P Q R S T U V W               ",
"                    < X Y Z [ ] ^ _ ` a b c d e f g h i j k             ",
"                l m n o p q r s t u v w x y z { | } ~  !!!#!            ",
"            $!%!&!'!(!)!*!*!+!,!-!.!p 0!m +!1!2!3!4!5!6!7!8!            ",
"            9!:!;!<!=!>!?!@!A!B!C!D!E!s F!G!H!I!J!K!L!M!N!O!            ",
"          P!Q!R!S!T!U!V!W!X!Y!Z![!]!H!^!_!2!`!a!b!c!Y d!e!f!            ",
"          g!h!i!O j!k!l!m!n!c!o!c!p!q!r!s!t!u!v!,!w!x!y!z!{!|!          ",
"          }!~!@! #!###$#%#o!&#'#(#+!)#*#+#w!,#?!-#.#0#1#2#3#4#5#        ",
"        6#7#8#9#:#,#{!;#<#n!=#>#~ ?#H!c!S!@#` A#w!B#C#D#E#F#G#H#        ",
"        I#J#K#L#M#N#O#P#Q#W!q!c!7!d!R#S#.#F!T#@#D!U#V#W#X#Y#Z#[#]#      ",
"        ^#_#`#R#a#b#c#d#e#f#g#h#i#y j#k#l#L!]!l#m#k!n#o#p#q#A r#s#      ",
"        t#u#v#w#m x#y#z#{#|#}#~# $!$#$v#$$%$&$y#%#'$T#($)$*$+$,$-$      ",
"        .$0$1$<#]!A#@#2$3$4$5$6$7$8$##9$:$>#>#;$: F!$#<$=$>$?$@$        ",
"          A$B$:$]!2!2!($C$D$E$F$G$H$I$1!$#J$$#q K$9$##q p!L$M$N$        ",
"          O$P$,!A#Q$R$S$` T$U$V$W$H$X$Y$(#$#: Z$[$]$^$_$`$r#a$          ",
"          b$c$d$e$f$g$n!h$$$i$j$k$l$Y q!&#v!Y!m$]!n$9#o$p$q$r$          ",
"            s$t$%#U#u$m$v$-#w$x$P y$z${$e!|$}$l!~$ %!%#%7 $%%%          ",
"            &%'%(%V!a!)%*%+%w$,%-%.%0%1%2%m S#3%4%5%6%7%8%9%            ",
"            :%;%<%=%'$>%?%@%A%B%C%n$D%E%M F%G%H%I%R#J%K%L%M%            ",
"              N%O%P%Q%R%S%T%U%V%W%X%Y%Z%[%x #$]%y!^%_%`%a%              ",
"              b%c%d%e%f%g%h%i%A j%k%l%m%+ n%o%p%q%r%s%t%                ",
"                  u%v%w%x%y%z%{%|%}%~% &!&#&$&~!%&&&'&                  ",
"                    (&)&*&+&,&-&.&0&1&2&3&4&5&6&7&                      ",
"                          8&9&:&6&;&<&=&>&$%?&@&A&                      ",
"                            B&C&D&E&F&G&H&                              ",
"                                                                        ",
"                                                                        ",
"                                                                        ",
"                                                                        "};