/* XPM */ 
static const char * crash_9_xpm[] = {
"36 35 663 2",
"  	c None",
"! 	c black",
"# 	c #5F0028",
"$ 	c #FF7E30",
"% 	c #FF8B2D",
"& 	c #FD8F30",
"' 	c #EB6C22",
"( 	c #FFAA3B",
") 	c #FF8329",
"* 	c #FF8129",
"+ 	c #802144",
", 	c #00002C",
"- 	c #621D08",
". 	c #FFCF58",
"0 	c #FFED87",
"1 	c #FFE5A2",
"2 	c #FFE082",
"3 	c #FFE37F",
"4 	c #FFE181",
"5 	c #FFD865",
"6 	c #FFC556",
"7 	c #FFCE5A",
"8 	c #FFD35F",
"9 	c #FFBD4B",
": 	c #FFC34B",
"; 	c #F77627",
"< 	c #580F04",
"= 	c #2D0C0A",
"> 	c #D4621F",
"? 	c #F48C35",
"@ 	c #FFEC9E",
"A 	c #FFF2A1",
"B 	c #FFEE98",
"C 	c #FFEC9F",
"D 	c #FFF1A6",
"E 	c #FFE692",
"F 	c #FFD76F",
"G 	c #FFDA70",
"H 	c #FFE281",
"I 	c #FFE172",
"J 	c #FFCE62",
"K 	c #FFBA4F",
"L 	c #FFB950",
"M 	c #FFB848",
"N 	c #FFDB62",
"O 	c #973C12",
"P 	c #22000D",
"Q 	c #FF9C41",
"R 	c #FFCB61",
"S 	c #FFD36B",
"T 	c #FFEC99",
"U 	c #FFE58C",
"V 	c #FFD86F",
"W 	c #FFE78D",
"X 	c #FFE589",
"Y 	c #FED082",
"Z 	c #FFE89D",
"[ 	c #FFE17B",
"] 	c #FFDD7A",
"^ 	c #FFCB5E",
"_ 	c #FEC358",
"` 	c #FDB950",
"a 	c #FEB851",
"b 	c #FFD365",
"c 	c #FFF88E",
"d 	c #FFDC68",
"e 	c #FF832B",
"f 	c #671908",
"g 	c #FF7833",
"h 	c #FFDA71",
"i 	c #FFF8A9",
"j 	c #FFF6C5",
"k 	c #FFEB8F",
"l 	c #FFE983",
"m 	c #FFE691",
"n 	c #FFF1B5",
"o 	c #FFE18E",
"p 	c #FFD992",
"q 	c #FFF4BE",
"r 	c #FFEB91",
"s 	c #FFF1A5",
"t 	c #FFE584",
"u 	c #FFE681",
"v 	c #FFD873",
"w 	c #FFC961",
"x 	c #FFE792",
"y 	c #FFF7C7",
"z 	c #FFF79E",
"{ 	c #FFEC7A",
"| 	c #F19E39",
"} 	c #501103",
"~ 	c #FFCB6E",
" !	c #FFE15D",
"!!	c #FFD764",
"#!	c #FFEE87",
"$!	c #FFF6C0",
"%!	c #FFECB1",
"&!	c #FFF0AA",
"'!	c #FFF4AD",
"(!	c #FFF7CB",
")!	c #FFEFA9",
"*!	c #FFF4BC",
"+!	c #FFF5C9",
",!	c #FFECB7",
"-!	c #FFE186",
".!	c #FFF4C6",
"0!	c #FFF0B1",
"1!	c #FFEB94",
"2!	c #FFF0A7",
"3!	c #FFE596",
"4!	c #FFF8C9",
"5!	c #FFF6CA",
"6!	c #FFEFA8",
"7!	c #FFF599",
"8!	c #FFEE7E",
"9!	c #FF982F",
":!	c #FFB84C",
";!	c #FFBD4D",
"<!	c #FFDE72",
"=!	c #FFF09F",
">!	c #FFF6CC",
"?!	c #FFEEA2",
"@!	c #FFF4B6",
"A!	c #FFF9D1",
"B!	c #FFF2AC",
"C!	c #FFF8CE",
"D!	c #FFF4CB",
"E!	c #FFEB98",
"F!	c #FFE696",
"G!	c #FFF3C1",
"H!	c #FFF3BC",
"I!	c #FFEDA5",
"J!	c #FFD883",
"K!	c #FFEFAF",
"L!	c #FFF5C6",
"M!	c #FFF7C6",
"N!	c #FFFABC",
"O!	c #FFFF76",
"P!	c #FFA93E",
"Q!	c #FFB54A",
"R!	c #FFDB76",
"S!	c #FFEA88",
"T!	c #FFF5BB",
"U!	c #FFF0B7",
"V!	c #FFEDA0",
"W!	c #FFEFA2",
"X!	c #FFF6C3",
"Y!	c #FFF9CF",
"Z!	c #FFFAD9",
"[!	c #FFF7D0",
"]!	c #FFF6C8",
"^!	c #FFF1A8",
"_!	c #FFEEA8",
"`!	c #FFF0A5",
"a!	c #FFE89A",
"b!	c #FFE07D",
"c!	c #FFCD68",
"d!	c #FFEFB8",
"e!	c #FFF1BA",
"f!	c #FFF2B5",
"g!	c #FFFF9A",
"h!	c #7A351C",
"i!	c #FFC660",
"j!	c #FFCD61",
"k!	c #FFE57E",
"l!	c #FFE890",
"m!	c #FFF5C4",
"n!	c #FFF5BD",
"o!	c #FFF1AC",
"p!	c #FFF2AD",
"q!	c #FFFAD0",
"r!	c #FFFAD1",
"s!	c #FFFADB",
"t!	c #FFECA1",
"u!	c #FFE381",
"v!	c #FFEC96",
"w!	c #FFE09B",
"x!	c #FFDD88",
"y!	c #FFE48B",
"z!	c #FFF6C4",
"{!	c #FFF1A7",
"|!	c #FFEFAD",
"}!	c #FFECA2",
"~!	c #FFC564",
" #	c #FFB349",
"!#	c #FFD36F",
"##	c #FFE892",
"$#	c #FFEF9B",
"%#	c #FFEDB3",
"&#	c #FFE5A5",
"'#	c #FFF5B7",
"(#	c #FFF2AF",
")#	c #FFEE9D",
"*#	c #FFF4C8",
"+#	c #FFF6C9",
",#	c #FFF9D0",
"-#	c #FFFCE5",
".#	c #FFF4BF",
"0#	c #FFF1A4",
"1#	c #FFEB9C",
"2#	c #FFE286",
"3#	c #FFEC8F",
"4#	c #FFEA93",
"5#	c #FFEAA7",
"6#	c #FFDC7C",
"7#	c #FFE388",
"8#	c #FFF09A",
"9#	c #FFF3AF",
":#	c #FFE179",
";#	c #FEBD4F",
"<#	c #FFB355",
"=#	c #FFED85",
">#	c #FFFF82",
"?#	c #BE3619",
"@#	c #FFBB4D",
"A#	c #FFC25D",
"B#	c #FFDE84",
"C#	c #FCC87B",
"D#	c #FCBC63",
"E#	c #FECD71",
"F#	c #FFE89F",
"G#	c #FFE99F",
"H#	c #FFE3A7",
"I#	c #FFE7A8",
"J#	c #FFE6A3",
"K#	c #FFE5A1",
"L#	c #FFF6C1",
"M#	c #FFF2AE",
"N#	c #FFD978",
"O#	c #FFCD66",
"P#	c #FFF0AB",
"Q#	c #FFECA0",
"R#	c #FFE996",
"S#	c #FFE98E",
"T#	c #FFF8C4",
"U#	c #FFF0A0",
"V#	c #FFDD70",
"W#	c #FAA13C",
"X#	c #FFDE6C",
"Y#	c #FFD85A",
"Z#	c #9B5E4B",
"[#	c #FF6827",
"]#	c #FFAA46",
"^#	c #FFBA51",
"_#	c #FEC86B",
"`#	c #FBB45C",
"a#	c #FDBD5A",
"b#	c #FFDA7A",
"c#	c #FFC764",
"d#	c #FFD971",
"e#	c #FFDF82",
"f#	c #FFD787",
"g#	c #FFD88C",
"h#	c #FFD371",
"i#	c #FFD577",
"j#	c #FFEFB3",
"k#	c #FFEFA7",
"l#	c #FFE287",
"m#	c #FFD57A",
"n#	c #FFEDAC",
"o#	c #FFEA99",
"p#	c #FFE68C",
"q#	c #FFD068",
"r#	c #FECB66",
"s#	c #FFE794",
"t#	c #FFEF92",
"u#	c #FFE476",
"v#	c #F99E38",
"w#	c #FFB84D",
"x#	c #FFB140",
"y#	c #FF8E2F",
"z#	c #FF9B38",
"{#	c #FE9639",
"|#	c #FFDA6B",
"}#	c #FFE184",
"~#	c #FDC469",
" $	c #FEC360",
"!$	c #FFDC76",
"#$	c #FFD36C",
"$$	c #FFC96B",
"%$	c #FCBA5E",
"&$	c #FDC065",
"'$	c #FFDB7C",
"($	c #FFDB75",
")$	c #FFE793",
"*$	c #FFF0B4",
"+$	c #FFF0AC",
",$	c #FFE995",
"-$	c #FFE78C",
".$	c #FFD272",
"0$	c #FFDC85",
"1$	c #FFEC9B",
"2$	c #FBAF4E",
"3$	c #FBB357",
"4$	c #FFD86D",
"5$	c #FFD465",
"6$	c #FDB74B",
"7$	c #FFB849",
"8$	c #FC9E39",
"9$	c #C34B14",
":$	c #BD4C1A",
";$	c #ED7E2D",
"<$	c #FFE481",
"=$	c #FFD87D",
">$	c #FFCD6E",
"?$	c #FFCB69",
"@$	c #FCB758",
"A$	c #F79F45",
"B$	c #FFD17F",
"C$	c #FFE283",
"D$	c #FFEA97",
"E$	c #FFEA9A",
"F$	c #FFEC9D",
"G$	c #FFE997",
"H$	c #FFDC8A",
"I$	c #FFEB9E",
"J$	c #FFEEA1",
"K$	c #FFE99B",
"L$	c #FBB051",
"M$	c #F2933F",
"N$	c #FFD16D",
"O$	c #FFDA69",
"P$	c #FFE37C",
"Q$	c #FFD967",
"R$	c #FFC452",
"S$	c #E05D1A",
"T$	c #CA561D",
"U$	c #F89136",
"V$	c #FFDE73",
"W$	c #FFEF91",
"X$	c #FFE185",
"Y$	c #FFD57E",
"Z$	c #FFDB79",
"[$	c #FEBE5D",
"]$	c #FBAF51",
"^$	c #ED8C3E",
"_$	c #EC8232",
"`$	c #FDB958",
"a$	c #FFE68B",
"b$	c #FFD06D",
"c$	c #FFE48F",
"d$	c #FFE88D",
"e$	c #FFFBE0",
"f$	c #FFEDA9",
"g$	c #FFF8CC",
"h$	c #FFF9CD",
"i$	c #FFEEA3",
"j$	c #FEC865",
"k$	c #FCB85B",
"l$	c #FFE47A",
"m$	c #FFEF98",
"n$	c #FFEC76",
"o$	c #FF8B2C",
"p$	c #EB762A",
"q$	c #FFAE44",
"r$	c #FFE67B",
"s$	c #FFEE93",
"t$	c #FFE99D",
"u$	c #FFD881",
"v$	c #FFE48D",
"w$	c #FFD677",
"x$	c #FCB655",
"y$	c #ED8434",
"z$	c #F08E39",
"{$	c #FFC964",
"|$	c #FFEE97",
"}$	c #FFDE78",
"~$	c #FFE98D",
" %	c #FFE894",
"!%	c #FFF3B4",
"#%	c #FFF8C8",
"$%	c #FFFCE0",
"%%	c #FFF8C5",
"&%	c #FFF7BF",
"'%	c #FFEA9B",
"(%	c #FFEBA2",
")%	c #FFE687",
"*%	c #FFD86B",
"+%	c #FFDF73",
",%	c #FFE46A",
"-%	c #FF8A2E",
".%	c #D25A1E",
"0%	c #FFB74B",
"1%	c #FFEA87",
"2%	c #FFEB8C",
"3%	c #FFF4B8",
"4%	c #FFEDA2",
"5%	c #FFE08F",
"6%	c #FEBB59",
"7%	c #F3923A",
"8%	c #E77C30",
"9%	c #FCBA59",
":%	c #FFEFAA",
";%	c #FFEDA4",
"<%	c #FFF4B4",
"=%	c #FFF6BC",
">%	c #FFF4B1",
"?%	c #FFFCE2",
"@%	c #FFF5B5",
"A%	c #FFF4B7",
"B%	c #FFEDA8",
"C%	c #FFEB93",
"D%	c #FFE678",
"E%	c #FFD560",
"F%	c #8E2D10",
"G%	c #FFCA57",
"H%	c #FFEF8A",
"I%	c #FFF7C3",
"J%	c #FFEC9A",
"K%	c #FFE59C",
"L%	c #FFD879",
"M%	c #FDBC5A",
"N%	c #EE8938",
"O%	c #F89F41",
"P%	c #FFCB70",
"Q%	c #FFDB7B",
"R%	c #FFF097",
"S%	c #FFEA92",
"T%	c #FFF5B4",
"U%	c #FFFAD4",
"V%	c #FFF7C1",
"W%	c #FFED9D",
"X%	c #FFEB9A",
"Y%	c #FFEFA0",
"Z%	c #FFF3B5",
"[%	c #FFF29E",
"]%	c #FFD765",
"^%	c #FFAA3A",
"_%	c #230B0D",
"`%	c #FFD160",
"a%	c #FFF48F",
"b%	c #FFE380",
"c%	c #FFF4C5",
"d%	c #FFDE81",
"e%	c #FFDC82",
"f%	c #FFD479",
"g%	c #F7A751",
"h%	c #FDBC5C",
"i%	c #FFDA77",
"j%	c #FFE17A",
"k%	c #FFE58A",
"l%	c #FFF1B4",
"m%	c #FFF7C4",
"n%	c #FFFCE3",
"o%	c #FFFCE7",
"p%	c #FFFBDB",
"q%	c #FFF8CD",
"r%	c #FFEA95",
"s%	c #FFE993",
"t%	c #FFEC8E",
"u%	c #FFD96A",
"v%	c #630C29",
"w%	c #EB7429",
"x%	c #FFEB83",
"y%	c #FFE485",
"z%	c #FFF9D5",
"{%	c #FFF0A9",
"|%	c #FFE78E",
"}%	c #FFE990",
"~%	c #FFD97C",
" &	c #FFEB95",
"!&	c #FFD36E",
"#&	c #FFD877",
"$&	c #FFE690",
"%&	c #FFEB97",
"&&	c #FFF09C",
"'&	c #FFF2A7",
"(&	c #FFF5C1",
")&	c #FFFAD2",
"*&	c #FFE38B",
"+&	c #FFD671",
",&	c #FFDC72",
"-&	c #FFE387",
".&	c #FFE477",
"0&	c #FE9635",
"1&	c #CD5819",
"2&	c #69200B",
"3&	c #FFD165",
"4&	c #FFF29A",
"5&	c #FFF3B1",
"6&	c #FFF0B9",
"7&	c #FFF3BD",
"8&	c #FFED97",
"9&	c #FFEA91",
":&	c #FFDB77",
";&	c #FFDE7E",
"<&	c #FFD872",
"=&	c #FFE080",
">&	c #FFF0AE",
"?&	c #FFF7BC",
"@&	c #FFE38A",
"A&	c #FFDC73",
"B&	c #FFD76D",
"C&	c #FCB04B",
"D&	c #FFCE5B",
"E&	c #E66C20",
"F&	c #631B06",
"G&	c #26000B",
"H&	c #F5832D",
"I&	c #FFE77E",
"J&	c #FFEC95",
"K&	c #FFF4C2",
"L&	c #FFEEB0",
"M&	c #FFE18F",
"N&	c #FFEB8D",
"O&	c #FFED94",
"P&	c #FFED99",
"Q&	c #FFEC98",
"R&	c #FFDF81",
"S&	c #FEC75F",
"T&	c #FFD774",
"U&	c #FFE384",
"V&	c #FFF2A9",
"W&	c #FFF5B6",
"X&	c #FFF7C0",
"Y&	c #FFF5C0",
"Z&	c #FFE78B",
"[&	c #FFD871",
"]&	c #FBA340",
"^&	c #FFBB4C",
"_&	c #BD4D16",
"`&	c #E1571F",
"a&	c #FFDB6F",
"b&	c #FFEC8C",
"c&	c #FFEF9F",
"d&	c #FFF5C2",
"e&	c #FFF4BD",
"f&	c #FFE795",
"g&	c #FFF3AD",
"h&	c #FFEB9D",
"i&	c #FFD574",
"j&	c #FFDE7D",
"k&	c #FFE986",
"l&	c #FFF1AD",
"m&	c #FFF0B0",
"n&	c #FFE08A",
"o&	c #FFDC83",
"p&	c #FFD771",
"q&	c #FFF099",
"r&	c #FFD66E",
"s&	c #FD9E3A",
"t&	c #6D220C",
"u&	c #4F050C",
"v&	c #E97D2D",
"w&	c #FFD96D",
"x&	c #FFE67F",
"y&	c #FFE17F",
"z&	c #FFDC7B",
"{&	c #FFE385",
"|&	c #FFF3A1",
"}&	c #FFE784",
"~&	c #FFD975",
" '	c #FECD79",
"!'	c #FDC265",
"#'	c #F9A342",
"$'	c #FAA33A",
"%'	c #FFD875",
"&'	c #FFEE9A",
"''	c #FFED82",
"('	c #FDBE52",
")'	c #69290D",
"*'	c #EF5B1E",
"+'	c #FFBE50",
",'	c #FFE37B",
"-'	c #FFCB66",
".'	c #FBAE4F",
"0'	c #FFD977",
"1'	c #FFEA89",
"2'	c #FFF4A9",
"3'	c #FFF09E",
"4'	c #FFDE77",
"5'	c #FFE47F",
"6'	c #FFEB8B",
"7'	c #FFF298",
"8'	c #FFE885",
"9'	c #FFCB5C",
":'	c #FCAE49",
";'	c #FBAF47",
"<'	c #F38A2F",
"='	c #F89C3B",
">'	c #FFE97E",
"?'	c #FFC654",
"@'	c #883510",
"A'	c #971B2D",
"B'	c #FF862E",
"C'	c #FFA441",
"D'	c #EE8335",
"E'	c #E7792E",
"F'	c #FFBE57",
"G'	c #FFEB90",
"H'	c #FFDE74",
"I'	c #FFE079",
"J'	c #FFDB71",
"K'	c #FFC357",
"L'	c #FEBF56",
"M'	c #FFC355",
"N'	c #FCB24A",
"O'	c #FEB84D",
"P'	c #FFD368",
"Q'	c #FFD05C",
"R'	c #F1892F",
"S'	c #1E0003",
"T'	c #8F3519",
"U'	c #FFA13D",
"V'	c #E87228",
"W'	c #D66526",
"X'	c #FC9037",
"Y'	c #FFAE49",
"Z'	c #FEC15E",
"['	c #FFDD77",
"]'	c #FEBC52",
"^'	c #FDB14A",
"_'	c #FFD265",
"`'	c #FFE075",
"a'	c #FFCE63",
"b'	c #FDB851",
"c'	c #FFD469",
"d'	c #FFE683",
"e'	c #FFD76B",
"f'	c #FFDC69",
"g'	c #FAA33F",
"h'	c #BC4415",
"i'	c #000026",
"j'	c #210511",
"k'	c #DD6024",
"l'	c #FD8C34",
"m'	c #FFA643",
"n'	c #FFCA60",
"o'	c #FFC356",
"p'	c #FFC85C",
"q'	c #FFBB51",
"r'	c #FFB94E",
"s'	c #FFBB50",
"t'	c #FFB249",
"u'	c #FEA140",
"v'	c #FFDF71",
"w'	c #FFDC66",
"x'	c #F38B32",
"y'	c #C04F1B",
"z'	c #380F07",
"{'	c #FF7B2E",
"|'	c #FF9A3B",
"}'	c #F88D37",
"~'	c #E67229",
" (	c #FA9338",
"!(	c #FFBC50",
"#(	c #FF9B3B",
"$(	c #FD9437",
"%(	c #FB9035",
"&(	c #FD9737",
"'(	c #CA591E",
"((	c #CB4F18",
")(	c #540F0E",
"*(	c #000021",
"+(	c #FF7032",
",(	c #E35B20",
"-(	c #CC551C",
".(	c #AC4115",
"0(	c #67260E",
"1(	c #661F0A",
"2(	c #551A09",
"3(	c #350D06",
"4(	c #1C0C10",
"                                                                        ",
"                                                                        ",
"                          # $ % & ' ( ) * + ,                           ",
"                      - . 0 1 2 3 4 5 6 7 8 9 : ; <                     ",
"                  = > ? @ A B C D E F G H I J K L M N O                 ",
"                P Q R S T U V W X Y Z [ ] ^ _ ` a b c d e f             ",
"                g h i j k l m n o p q r s t u v w x y z { | }           ",
"            ~  !!!#!$!%!&!'!(!)!*!+!,!-!.!0!1!2!3!4!5!6!7!8!9!          ",
"            :!;!<!=!>!Z ?!@!A!B!C!+!D!E!F!G!H!I!J!K!)!L!M!N!O!          ",
"          P!Q!R!S!T!U!V!W!X!$!Y!Z![!]!^!_!`!a!b!c!d!E!a!e!f!g!          ",
"        h!i!j!k!l!m!n!o!p!4!q!r!s!t!2!X u!v!w!x!y!z!q!{!|!}!K!~!        ",
"         #!###$#%#&#'#(#)#*#+#,#-#.#0#1#2#3#4#5#6#7#8#9#:#;#<#=#>#      ",
"      ?#@#A#B#C#D#E#F#(#G#H#I#J#K#L#M#N#O#P#^!Q#R#N#S#T#U#V#W#X#Y#Z#    ",
"      [#]#^#_#`#a#b#c#d#e#f#g#h#i#j#k#l#m#n#o#T p#q#r#s#t#u#v#w#x#y#    ",
"      z#{#|#}#~# $!$O##$$$%$&$'$($)$*$+$,$-$.$0$1$B#2$3$4$5$6$7$8$9$    ",
"      :$;$b <$=$m#!#>$?$@$A$B$k#C$D$E$F$n G$H$I$J$K$L$M$N$O$P$Q$R$S$    ",
"      T$U$V$W$X$Y$Z$[$]$^$_$`$a$b$c$d$t!e$P#f$g$h$i$j$k$X l$S#m$n$o$    ",
"      p$q$r$s$t$u$v$w$x$y$z${$|$}$~$ %!%#%#%$%%%&%2!'%(%)%*%|#+%,%-%    ",
"      .%0%1%2%3%+!4%5%6%7%8%9%:%)#:%;%<%=%>%?%@%%%A%(#B%C%R!V$D%E%      ",
"      F%G%H%)#I%j J%K%L%M%N%O%P%Q%,$R%S%T%h$U%V%A!p!W%X%Y%Z%[%]%^%      ",
"      _%`%a%b%)#c%;%d%e%f%g%h%i%2%j%k%l%m%n%o%p%q%r%r%2#s%t%u%7$v%      ",
"        w%x%y%?!z%{%|%T }%~%2  &!&#&$&%&&&'&(&)&C!*&+&,&-&.&0&1&        ",
"        2&3&4&J%5&A%6&7&)$v!8&9&:&;&<&=&)!>&I%?&X!@&A&B&C&D&E&F&        ",
"        G&H&I&J&`!K&L&Q#M&N&O&P&Q&R&S&T&U&V&W&X&Y&;%Z&[&]&^&_&          ",
"          `&a&b&c&d&e&M#f&i$g&<%h&i&j&k&l&m&n&o&p&q&}%r&w#s&t&          ",
"          u&v&w&x&y&z&{&X%p!D O&v!9&|&}&~& '!'#'$'%'&'''(')'            ",
"            *'+','-'.'0'1'2'3'4'5'6'7'8'9':';'<'='N#>'?'@'              ",
"            A'B'C'D'E'F'[ )%G'y%H'I'1'J'K'L'M'N'O'P'Q'R'S'              ",
"              T'U'V'W'X'Y'Z'['R ]'^'_'`'a'b'c'd'e'f'g'h'                ",
"                  i'j'k'l'm'n'o'p'q'r's't'u'v'w'x'y'z'                  ",
"                        {'|'}'~' (!(#($(%(&('((()(*(                    ",
"                          +(,(-(.(0(1(2(3(4(                            ",
"                                                                        ",
"                                                                        ",
"                                                                        "};