/* XPM */ 
static const char * crash_16_xpm[] = {
"36 36 554 2",
"  	c None",
"! 	c black",
"# 	c #3D160A",
"$ 	c #291008",
"% 	c #210D07",
"& 	c #60230D",
"' 	c #A44115",
"( 	c #341409",
") 	c #42190B",
"* 	c #311208",
"+ 	c #481A0B",
", 	c #4D1D0B",
"- 	c #903814",
". 	c #9C3F16",
"0 	c #6C280E",
"1 	c #BF521C",
"2 	c #B04919",
"3 	c #933B16",
"4 	c #71290F",
"5 	c #8F3612",
"6 	c #491909",
"7 	c #823011",
"8 	c #6B260E",
"9 	c #953A14",
": 	c #6C260E",
"; 	c #923813",
"< 	c #B24918",
"= 	c #BF501B",
"> 	c #BF501C",
"? 	c #AA4517",
"@ 	c #C3541C",
"A 	c #D56523",
"B 	c #541E0A",
"C 	c #71290D",
"D 	c #7E2D0F",
"E 	c #782C0F",
"F 	c #481A0A",
"G 	c #501C0B",
"H 	c #762B0F",
"I 	c #923712",
"J 	c #8B3411",
"K 	c #D76523",
"L 	c #B24818",
"M 	c #60240D",
"N 	c #983A14",
"O 	c #973A13",
"P 	c #C5581F",
"Q 	c #DD6A24",
"R 	c #E77428",
"S 	c #B34C19",
"T 	c #A74317",
"U 	c #CD5E21",
"V 	c #58210C",
"W 	c #883211",
"X 	c #6E270E",
"Y 	c #BE501B",
"Z 	c #B54C1A",
"[ 	c #7D2D10",
"] 	c #E06A24",
"^ 	c #E17329",
"_ 	c #A03E14",
"` 	c #863211",
"a 	c #C75E21",
"b 	c #B54B19",
"c 	c #E27128",
"d 	c #B04A1A",
"e 	c #B74D1B",
"f 	c #DA6B26",
"g 	c #F38531",
"h 	c #9F4015",
"i 	c #62230C",
"j 	c #772C10",
"k 	c #2B0E07",
"l 	c #2A1008",
"m 	c #491B0B",
"n 	c #762B10",
"o 	c #EC7C2D",
"p 	c #FFB248",
"q 	c #EA7C2D",
"r 	c #AF4718",
"s 	c #983C15",
"t 	c #C85B1F",
"u 	c #9A3B13",
"v 	c #CA5B20",
"w 	c #BD531E",
"x 	c #853213",
"y 	c #843011",
"z 	c #5E220D",
"{ 	c #64250E",
"| 	c #461808",
"} 	c #6D280E",
"~ 	c #441709",
" !	c #281008",
"!!	c #4B1B0C",
"#!	c #913E18",
"$!	c #E77228",
"%!	c #CB5C1F",
"&!	c #D26121",
"'!	c #E87429",
"(!	c #E17128",
")!	c #DF6E28",
"*!	c #C65920",
"+!	c #E4732A",
",!	c #D36424",
"-!	c #843111",
".!	c #361206",
"0!	c #2C0F07",
"1!	c #4A1A0B",
"2!	c #3D1508",
"3!	c #40170A",
"4!	c #2B1008",
"5!	c #120906",
"6!	c #0F0806",
"7!	c #4E1C0B",
"8!	c #43180A",
"9!	c #65250E",
":!	c #7C2D10",
";!	c #BF541D",
"<!	c #511C0A",
"=!	c #AE4617",
" !	c #893110",
"?!	c #8C3613",
"@!	c #75290E",
"A!	c #BA501C",
"B!	c #BA521E",
"C!	c #F79438",
"D!	c #F68832",
"E!	c #812F0F",
"F!	c #2B1007",
"G!	c #2D1108",
"H!	c #331208",
"I!	c #2A0F07",
"J!	c #0E0806",
"K!	c #0B0705",
"L!	c #2A1007",
"M!	c #6B270D",
"N!	c #742B0F",
"O!	c #6D270E",
"P!	c #72270D",
"Q!	c #8A3311",
"R!	c #59200C",
"S!	c #9F4217",
"T!	c #D56423",
"U!	c #CA5D20",
"V!	c #6F290E",
"W!	c #1C0B07",
"X!	c #3A1509",
"Y!	c #2F1208",
"Z!	c #1A0B06",
"[!	c #9F3F15",
"]!	c #431809",
"^!	c #3B1509",
"_!	c #4A1909",
"`!	c #1C0A05",
"a!	c #69250D",
"b!	c #853111",
"c!	c #3E1609",
"d!	c #69270E",
"e!	c #833011",
"f!	c #E8772A",
"g!	c #A94417",
"h!	c #742C10",
"i!	c #39160A",
"j!	c #341309",
"k!	c #321208",
"l!	c #451A0B",
"m!	c #190B07",
"n!	c #371409",
"o!	c #48190A",
"p!	c #6E280E",
"q!	c #421709",
"r!	c #471809",
"s!	c #200C05",
"t!	c #0F0604",
"u!	c #290E06",
"v!	c #7C2E10",
"w!	c #5B210C",
"x!	c #A44116",
"y!	c #9E3E16",
"z!	c #8E3614",
"{!	c #D96825",
"|!	c #E37027",
"}!	c #A74417",
"~!	c #431A0C",
" #	c #3F180B",
"!#	c #270F08",
"##	c #62230D",
"$#	c #5C210C",
"%#	c #591F0B",
"&#	c #541D0B",
"'#	c #230D06",
"(#	c #250D06",
")#	c #2F1107",
"*#	c #2A0F06",
"+#	c #381408",
",#	c #61230D",
"-#	c #6B270E",
".#	c #491A0A",
"0#	c #A54318",
"1#	c #C4571F",
"2#	c #953812",
"3#	c #893513",
"4#	c #180C08",
"5#	c #2C1108",
"6#	c #150A07",
"7#	c #301208",
"8#	c #44190B",
"9#	c #6F290F",
":#	c #45180A",
";#	c #2D1006",
"<#	c #1E0B05",
"=#	c #4B1A0A",
" #	c #331308",
"?#	c #3B1609",
"@#	c #6F280E",
"A#	c #BE521C",
"B#	c #CF5E20",
"C#	c #5C200B",
"D#	c #2D1209",
"E#	c #0A0706",
"F#	c #1F0C06",
"G#	c #3E170A",
"H#	c #521D0B",
"I#	c #401709",
"J#	c #351308",
"K#	c #210C05",
"L#	c #441708",
"M#	c #9C3C13",
"N#	c #230E07",
"O#	c #581F0B",
"P#	c #4A1A0A",
"Q#	c #361307",
"R#	c #47190A",
"S#	c #67270E",
"T#	c #E6772B",
"U#	c #EB792A",
"V#	c #7E2F10",
"W#	c #0B0807",
"X#	c #3F170A",
"Y#	c #511D0B",
"Z#	c #68250C",
"[#	c #45190A",
"]#	c #341207",
"^#	c #BB4C19",
"_#	c #501B09",
"`#	c #361308",
"a#	c #823111",
"b#	c #2E1107",
"c#	c #7E2D11",
"d#	c #DA6924",
"e#	c #C95A1E",
"f#	c #251009",
"g#	c #0F0807",
"h#	c #0B0706",
"i#	c #501D0B",
"j#	c #381509",
"k#	c #AA4417",
"l#	c #993C14",
"m#	c #873110",
"n#	c #69260D",
"o#	c #6D260D",
"p#	c #7E2E0F",
"q#	c #56200C",
"r#	c #7A2C10",
"s#	c #5F220D",
"t#	c #321309",
"u#	c #2E1108",
"v#	c #833112",
"w#	c #973B14",
"x#	c #38160B",
"y#	c #1F0D07",
"z#	c #220D07",
"{#	c #4F1C0C",
"|#	c #752B0F",
"}#	c #D35F21",
"~#	c #D36121",
" $	c #AA4518",
"!$	c #933813",
"#$	c #AD4717",
"$$	c #7C2B0E",
"%$	c #8E3612",
"&$	c #73290D",
"'$	c #3A1307",
"($	c #7A2D0F",
")$	c #62220B",
"*$	c #58200C",
"+$	c #66250E",
",$	c #501D0C",
"-$	c #833212",
".$	c #873312",
"0$	c #35140A",
"1$	c #261009",
"2$	c #1D0D08",
"3$	c #2D1109",
"4$	c #68250D",
"5$	c #8F3713",
"6$	c #B14818",
"7$	c #9E3E14",
"8$	c #843010",
"9$	c #E16C24",
":$	c #60210B",
";$	c #742A0E",
"<$	c #41180A",
"=$	c #220E08",
" $	c #B34A1A",
"?$	c #8C3513",
"@$	c #5D220C",
"A$	c #6B2810",
"B$	c #6D2910",
"C$	c #471B0C",
"D$	c #2E1209",
"E$	c #471A0B",
"F$	c #5B210E",
"G$	c #541E0C",
"H$	c #59210D",
"I$	c #772D0E",
"J$	c #903511",
"K$	c #C9591D",
"L$	c #B04717",
"M$	c #C3531B",
"N$	c #A84416",
"O$	c #973913",
"P$	c #230F08",
"Q$	c #1E0D08",
"R$	c #8B3413",
"S$	c #B44A19",
"T$	c #B84E1B",
"U$	c #F0842F",
"V$	c #7F2F10",
"W$	c #6A270F",
"X$	c #481B0C",
"Y$	c #39150A",
"Z$	c #55200D",
"[$	c #57200D",
"]$	c #5C220D",
"^$	c #792D10",
"_$	c #4F1B0A",
"`$	c #9E4116",
"a$	c #E47428",
"b$	c #B04918",
"c$	c #BA4E19",
"d$	c #B84D19",
"e$	c #853210",
"f$	c #843110",
"g$	c #8A3412",
"h$	c #64240D",
"i$	c #190C08",
"j$	c #903612",
"k$	c #64220C",
"l$	c #391609",
"m$	c #7D2F10",
"n$	c #A74318",
"o$	c #551F0D",
"p$	c #4B1B0B",
"q$	c #69270F",
"r$	c #8D3614",
"s$	c #C8571D",
"t$	c #B24B18",
"u$	c #823010",
"v$	c #A03F16",
"w$	c #7C2D0F",
"x$	c #511A09",
"y$	c #471B0B",
"z$	c #301309",
"{$	c #291109",
"|$	c #531E0D",
"}$	c #531E0B",
"~$	c #4E1D0B",
" %	c #873413",
"!%	c #7C2F11",
"#%	c #70290F",
"$%	c #60230E",
"%%	c #65260E",
"&%	c #4C1C0B",
"'%	c #68260E",
"(%	c #7C2E11",
")%	c #7D2E11",
"*%	c #7A2C0F",
"+%	c #A24116",
",%	c #B64C19",
"-%	c #C7591E",
".%	c #CE5E20",
"0%	c #BF521B",
"1%	c #271008",
"2%	c #36140A",
"3%	c #321107",
"4%	c #6A260E",
"5%	c #742A10",
"6%	c #65260F",
"7%	c #67270F",
"8%	c #6E290F",
"9%	c #732A0F",
":%	c #782D0F",
";%	c #E5782A",
"<%	c #EF822E",
"=%	c #CA5B1E",
" %	c #C2551C",
"?%	c #DE6D26",
"@%	c #9B3D15",
"A%	c #A03F15",
"B%	c #A84215",
"C%	c #41170A",
"D%	c #150A06",
"E%	c #110906",
"F%	c #3A150A",
"G%	c #AE4717",
"H%	c #5F220C",
"I%	c #36150A",
"J%	c #0D0604",
"K%	c #210C06",
"L%	c #67260E",
"M%	c #722A0F",
"N%	c #61240D",
"O%	c #7D3012",
"P%	c #A24115",
"Q%	c #BA4F1A",
"R%	c #A24016",
"S%	c #792C0F",
"T%	c #893311",
"U%	c #381409",
"V%	c #7D2F11",
"W%	c #5F230C",
"X%	c #421809",
"Y%	c #260D06",
"Z%	c #57200C",
"[%	c #843212",
"]%	c #5F230E",
"^%	c #722D11",
"_%	c #C95A20",
"`%	c #7A2F12",
"a%	c #65230C",
"b%	c #993A13",
"c%	c #C5541C",
"d%	c #E26F26",
"e%	c #D66623",
"f%	c #A14015",
"g%	c #561F0B",
"h%	c #B54A18",
"i%	c #521B0A",
"j%	c #43190B",
"k%	c #290F07",
"l%	c #1D0A05",
"m%	c #943A14",
"n%	c #64250F",
"o%	c #3C160A",
"p%	c #6B280F",
"q%	c #8A3411",
"r%	c #B84C19",
"s%	c #A74215",
"t%	c #C7571D",
"u%	c #963914",
"v%	c #5B200C",
"w%	c #66240D",
"x%	c #3B1508",
"y%	c #D96522",
"z%	c #EB792B",
"{%	c #5D240D",
"|%	c #A24017",
"}%	c #742C11",
"~%	c #923914",
" &	c #6B250C",
"!&	c #451708",
"#&	c #70270C",
"$&	c #BD521C",
"%&	c #722B10",
"&&	c #391408",
"'&	c #45180B",
"(&	c #993B13",
")&	c #67270D",
"*&	c #62240D",
"+&	c #58200D",
",&	c #9F3F16",
"-&	c #772D11",
".&	c #1A0A05",
"0&	c #561E0A",
"1&	c #BB501B",
"2&	c #DC6724",
"3&	c #BC521D",
"4&	c #883311",
"5&	c #B84D1A",
"6&	c #2B1108",
"7&	c #7A2E11",
"8&	c #68260F",
"9&	c #63240E",
":&	c #963A15",
";&	c #873313",
"<&	c #662710",
"=&	c #59200D",
" &	c #371307",
"?&	c #63240D",
"@&	c #60220C",
"A&	c #863313",
"B&	c #983B15",
"C&	c #A34116",
"D&	c #9B3B14",
"E&	c #130805",
"F&	c #3F1709",
"G&	c #2F1209",
"H&	c #993B14",
"I&	c #A64216",
"J&	c #160B08",
"K&	c #66260E",
"L&	c #8D3715",
"M&	c #7D2E10",
"N&	c #531E0C",
"O&	c #B04819",
"P&	c #9A3D16",
"Q&	c #66250F",
"R&	c #3D1609",
"S&	c #501C09",
"T&	c #34140A",
"U&	c #511E0D",
"V&	c #461A0A",
"W&	c #69260E",
"X&	c #B14A1A",
"Y&	c #5D220E",
"Z&	c #883514",
"[&	c #963B16",
"]&	c #762D12",
"^&	c #0A0605",
"_&	c #311207",
"`&	c #B04617",
"a&	c #42180A",
"b&	c #813111",
"c&	c #D56221",
"d&	c #A84517",
"e&	c #CC591F",
"f&	c #C7591F",
"g&	c #7E3012",
"h&	c #561E0B",
"i&	c #0D0806",
"j&	c #170B07",
"k&	c #331309",
"l&	c #A74217",
"m&	c #943813",
"n&	c #953A15",
"o&	c #3E180B",
"p&	c #28110A",
"q&	c #2D130A",
"r&	c #5D220D",
"s&	c #37150A",
"t&	c #3D180C",
"u&	c #782D11",
"v&	c #4C1B0B",
"w&	c #61230C",
"x&	c #6E280F",
"y&	c #521E0C",
"z&	c #200C06",
"{&	c #893413",
"|&	c #4A1C0C",
"}&	c #41190C",
"~&	c #43190A",
" '	c #4D1B0B",
"!'	c #361409",
"                      #       $   %   &                                 ",
"                    '   ( )   * +   ,   - . 0 1 2 3 4 5                 ",
"                  6   7     8   9 :   ; < =   ? @ A B   C               ",
"              D E   F G   H   I J   K   L   M N O P   Q R S             ",
"              T U V   W X   Y Z   [ ] ^ _ ` a b   c d e f g h           ",
"            i j   k l m   #   m   n o p q r s t u   v w x   y z {       ",
"        | }     ~        !      ) !!  #!$!%!&!'!  (!  )!*!+!,!-!  .!    ",
"      0!1!  2!3!  4!5!  6!    7!  8!9!:!;!<!  =! !?!@!A!B!C!D!  E!      ",
"    F!  G!H!I!  $   J!K!    L!  M!N!  O!    P!Q!      R!  S!T!U!  i V!  ",
"      W!    X!  Y!  6!  6!Z!  [!  ]!^!  _!`!    a!b!  c!d!e!  f!S g!  h!",
"  i!j!k!  l!  4!  G!  m!  n!o!p!  q!r!  s!    t!u!  v!w!x!y!z!{!|!}!  ~!",
"         #n!  !#m!  #   ##$#  %#&#'#  (#  )#  *#  +#,#i -#  .#0#1#2#3#  ",
"4#    5#  6#      7#  8#  9#.#:#    ;#;#    <#  l   =#     #?#@#  A#B#C#",
"  D#    E#    F#G#  H#I#^!  ]!  J#K#  L#M#E!      N#  O#P#Q#  R#S#T#U#V#",
"      W#    F!    X#    Y#_!Z#[#   #]#  ^#  _#`#  a#  a!    b#  c#}!d#e#",
"f#  g#  h#    `#i#j#n![ k#l#m#  n#  o#      p#  H   q#  r#s#t#u#v#  w#' ",
"x#        y#z#  {#    |#}#~# $!$#$; $$%$&$'$($)$  *$  +$  9!    ,$-$.$  ",
"  0$  1$2$    $#  3$  4$  5$  6$7$8$7$9$  :$J p!;$H ,#    <$  =$   $?$@$",
"A$B$C$    D$E$  F$    G$5$H$# 9   I$J$K$L$  M$  N$O$  [#  P$  Q$R$S$T$U$",
"V$W$  X$Y$    Z$  [$]$  ^$  & _$`$a$b$c$d$e$  f$  g$h$(   i$2$    j$k$l$",
"  m$n$    {    #  o$p$z   q$  r$s$t$  u$v$w$V#x$  m   y$z${$    |$O#    ",
"}$~$   %!%#%    $%%%&%  '%(%)%*%+%  ,%-%.%  0%  <!`#  ?#    1%2%  w!3%  ",
"  3!4%    5%  6%    7%s#8%  9%:%;%<%=% %?%@%A%B%  C%G#  D%E%  F%N!G%H%  ",
"I%o$  J%K%  L%  M%N%  O%  L%    e$P%Q%  R%  S%T%V$n!  U%    X#V%L$W%    ",
"    X%  Y%  Z%[%  ]%^%_%`%  M%a%b%c%d%e%  f%    V$  g%  n!  #%  h%i%    ",
"  j%  k%  l%]#m%n%h!y!  o%p%@ q%  r%s%t%u%  v%w%a!x%  H!  G!  y%z%{%    ",
"    Y$  J#    |%}%  ~%o%  R#   &!&#&  $&g$%&  |#  &&k%  !#  '&(&)&      ",
"      G!  *&+&  h!,&-&    .&  0&  ($1&2&e 3&- 4&5&  %     6&7&  E       ",
"      D#  8&9&:&;&<&  =&s#   &C#?&@&  A&B&C&D&    E&  F&  G&H&I&        ",
"    J&      K&  7%) L&  M&$#N&  A!O&P&  Q&#%  b!      R&  q#  S&        ",
"        D$T&U&V&9#[$  W&X&    Y&Z&  [&]&  t#t#    ^&  _&&%`&J$          ",
"              a&    G$b&c&d&e&f&  g&  x#    f#  Y!6&  %#h&              ",
"          i&j&  k&{ '%  l&m&n&  j   o&    p&  q&    :$                  ",
"                  r&  s&1!    C%  r$    t&u&3!  v&  w&                  ",
"                  x&y&X#  z&z&  X#  {&|&  }&<$w#w&P#                    ",
"                      ~&R%   '4%    h$  .#F&  !'                        "};