/* XPM */ 
static const char * bluesimpletank_xpm[] = {
"32 32 500 2",
"      c None",
"!     c black",
"#     c #0C0837",
"$     c #03001B",
"%     c #4441BF",
"&     c #4544D0",
"'     c #4140C5",
"(     c #3939BB",
")     c #0E0943",
"*     c #02001F",
"+     c #2D2DB6",
",     c #2F2FBF",
"-     c #3A38B6",
".     c #3E3ED8",
"0     c #4242DD",
"1     c #3938B9",
"2     c #312F9E",
"3     c #4645E1",
"4     c #4545E2",
"5     c #4544D3",
"6     c #4442D0",
"7     c #4241CC",
"8     c #110C50",
"9     c #040029",
":     c #29298C",
";     c #33329C",
"<     c #3F3EE0",
"=     c #3D3DE1",
">     c #3A38BA",
"?     c #2C2A77",
"@     c #2A2980",
"A     c #3535C7",
"B     c #3333CF",
"C     c #4B4BE6",
"D     c #4848E1",
"E     c #4040CC",
"F     c #3736A9",
"G     c #4545D3",
"H     c #4241C7",
"I     c #4240C3",
"J     c #100B4E",
"K     c #29298A",
"L     c #3332A1",
"M     c #3D3CCF",
"N     c #3C3BC6",
"O     c #312E8B",
"P     c #2F2D7E",
"Q     c #3939D1",
"R     c #4A4AE6",
"S     c #4545DB",
"T     c #4241D3",
"U     c #3636A9",
"V     c #4543CA",
"W     c #4442CC",
"X     c #4340BD",
"Y     c #4240C8",
"Z     c #413FCA",
"[     c #130D5B",
"]     c #030029",
"^     c #292998",
"_     c #3332B1",
"`     c #3D3DD6",
"a     c #3D3CD8",
"b     c #3C3BCF",
"c     c #302F97",
"d     c #302F93",
"e     c #3735B0",
"f     c #3837C0",
"g     c #4949E6",
"h     c #4444DB",
"i     c #4342D4",
"j     c #3535A9",
"k     c #4241D0",
"l     c #3E3ED3",
"m     c #3D3CB9",
"n     c #3C3BB3",
"o     c #3C3BBA",
"p     c #130D58",
"q     c #27278F",
"r     c #2E2DA1",
"s     c #3838CA",
"t     c #3736BF",
"u     c #3836B2",
"v     c #302F9C",
"w     c #3533AA",
"x     c #3735AC",
"y     c #3837C2",
"z     c #4848E6",
"{     c #4343DB",
"|     c #3535B0",
"}     c #292996",
"~     c #282895",
" !    c #282892",
"!!    c #282792",
"#!    c #272689",
"$!    c #1D1C65",
"%!    c #25258D",
"&!    c #252596",
"'!    c #252493",
"(!    c #202074",
")!    c #3230A6",
"*!    c #3535C2",
"+!    c #3838D5",
",!    c #3939DF",
"-!    c #4746E6",
".!    c #4242D9",
"0!    c #4242DB",
"1!    c #3434AF",
"2!    c #3939C9",
"3!    c #4242E6",
"4!    c #4140DC",
"5!    c #3F3ED0",
"6!    c #3D3BBA",
"7!    c #3030AA",
"8!    c #3B3BD4",
"9!    c #3C3BDA",
":!    c #3A3ADC",
";!    c #232281",
"<!    c #272797",
"=!    c #3030B7",
">!    c #3838DA",
"?!    c #3939DC",
"@!    c #4544D8",
"A!    c #4242D5",
"B!    c #3333AE",
"C!    c #3737C0",
"D!    c #4141E6",
"E!    c #4040E2",
"F!    c #3E3CC1",
"G!    c #33329D",
"H!    c #201E90",
"I!    c #1F1F8F",
"J!    c #282898",
"K!    c #3636C6",
"L!    c #3A39C9",
"M!    c #3938C4",
"N!    c #202071",
"O!    c #20207C",
"P!    c #3030BB",
"Q!    c #3433B8",
"R!    c #3635B7",
"S!    c #4545E6",
"T!    c #4140CE",
"U!    c #3E3DC6",
"V!    c #3736B1",
"W!    c #3636BD",
"X!    c #4040E6",
"Y!    c #3E3CC5",
"Z!    c #3B39AA",
"[!    c #4745AE",
"]!    c #403FDC",
"^!    c #3F3FE1",
"_!    c #2A2A9F",
"`!    c #2D2C9D",
"a!    c #3836BF",
"b!    c #3938C5",
"c!    c #20206F",
"d!    c #1E1E6D",
"e!    c #2F2FB8",
"f!    c #3736C0",
"g!    c #3735C1",
"h!    c #4443DA",
"i!    c #4442D2",
"j!    c #3635AA",
"k!    c #34329B",
"l!    c #3533A1",
"m!    c #3D3CBA",
"n!    c #3F3DAB",
"o!    c #7875DE",
"p!    c #6461CF",
"q!    c #4341C0",
"r!    c #4241CD",
"s!    c #3232D0",
"t!    c #2929AF",
"u!    c #2C2B97",
"v!    c #3533B3",
"w!    c #25247C",
"x!    c #2C2C91",
"y!    c #2929A1",
"z!    c #3737D6",
"{!    c #3635C9",
"|!    c #4240C5",
"}!    c #3332A7",
"~!    c #3533B4",
" #    c #34339D",
"!#    c #3A37A6",
"##    c #6F6ED7",
"$#    c #6664D8",
"%#    c #3937AD",
"&#    c #3836A9",
"'#    c #3837BB",
"(#    c #3938D3",
")#    c #2D2CB7",
"*#    c #24238A",
"+#    c #2A298C",
",#    c #232273",
"-#    c #2D2DA0",
".#    c #252595",
"0#    c #3737DC",
"1#    c #3636D1",
"2#    c #403EB5",
"3#    c #4140CB",
"4#    c #3232AB",
"5#    c #3433C1",
"6#    c #33329E",
"7#    c #3E3CA7",
"8#    c #6F6EE6",
"9#    c #3C3BD5",
":#    c #3A39C8",
";#    c #3837BA",
"<#    c #3837CF",
"=#    c #3434D1",
">#    c #2726A8",
"?#    c #1E1D69",
"@#    c #1F1F6A",
"A#    c #2C2C9C",
"B#    c #252593",
"C#    c #3737DB",
"D#    c #3635D0",
"E#    c #3F3CAA",
"F#    c #3F3DBA",
"G#    c #3232B6",
"H#    c #3636D9",
"I#    c #3332A3",
"J#    c #3938B1",
"K#    c #4B4AE1",
"L#    c #3A3ADE",
"M#    c #3939D2",
"N#    c #3938D0",
"O#    c #3735BC",
"P#    c #3837D6",
"Q#    c #2827B2",
"R#    c #16164F",
"S#    c #1B1B5B",
"T#    c #2A2986",
"U#    c #242381",
"V#    c #3534C7",
"W#    c #3534C5",
"X#    c #403ECA",
"Y#    c #403FD7",
"Z#    c #3131B6",
"[#    c #3434D5",
"]#    c #3231A9",
"^#    c #3837B0",
"_#    c #4443D5",
"`#    c #4645C7",
"a#    c #4342D6",
"b#    c #2929B5",
"c#    c #3737DD",
"d#    c #3736CE",
"e#    c #3736DA",
"f#    c #2C2BBF",
"g#    c #141450",
"h#    c #181858",
"i#    c #2A297A",
"j#    c #212062",
"k#    c #3433B6",
"l#    c #3434CD",
"m#    c #3F3FD8",
"n#    c #3F3ED7",
"o#    c #3232AF",
"p#    c #3333BD",
"q#    c #3231AE",
"r#    c #3C3BBF",
"s#    c #3E3CC8",
"t#    c #3E3DC8",
"u#    c #3736CB",
"v#    c #2524A6",
"w#    c #3333CE",
"x#    c #3635CD",
"y#    c #3534CF",
"z#    c #2E2EBC",
"{#    c #12124A",
"|#    c #171758",
"}#    c #2B2A8E",
"~#    c #24226E",
" $    c #3433BD",
"!$    c #3433C8",
"#$    c #3F3FE6",
"$$    c #3130AC",
"%$    c #3332CC",
"&$    c #3232B8",
"'$    c #3636C2",
"($    c #3938D2",
")$    c #2C2CBC",
"*$    c #2424A8",
"+$    c #25259B",
",$    c #3534BA",
"-$    c #3432A3",
".$    c #3332B0",
"0$    c #2625AA",
"1$    c #111147",
"2$    c #17175A",
"3$    c #29298E",
"4$    c #23227B",
"5$    c #3332B2",
"6$    c #3332BD",
"7$    c #3E3EE6",
"8$    c #3332C7",
"9$    c #3231B3",
":$    c #3635C2",
";$    c #3030C4",
"<$    c #3232D5",
"=$    c #3636D7",
">$    c #3434CB",
"?$    c #3433A8",
"@$    c #333195",
"A$    c #28268B",
"B$    c #1D1C78",
"C$    c #13124C",
"D$    c #19195F",
"E$    c #292779",
"F$    c #1F1E6B",
"G$    c #3333B8",
"H$    c #3332C0",
"I$    c #3D3DE6",
"J$    c #2F2D96",
"K$    c #3131BF",
"L$    c #3939DB",
"M$    c #2F2EB1",
"N$    c #2A2AC3",
"O$    c #2B2BC9",
"P$    c #2F2EC3",
"Q$    c #2C2AA5",
"R$    c #262491",
"S$    c #201F7C",
"T$    c #111141",
"U$    c #1A1965",
"V$    c #1D1D6D",
"W$    c #282673",
"X$    c #201F69",
"Y$    c #3333D2",
"Z$    c #3D3DE5",
"[$    c #3C3CE1",
"]$    c #2E2C8D",
"^$    c #302E97",
"_$    c #3130B5",
"`$    c #3636CD",
"a$    c #2C2B9B",
"b$    c #212085",
"c$    c #212093",
"d$    c #1F1F89",
"e$    c #181866",
"f$    c #11113C",
"g$    c #23238F",
"h$    c #202082",
"i$    c #28277D",
"j$    c #1F1E66",
"k$    c #3332C6",
"l$    c #3333D5",
"m$    c #3C3BD3",
"n$    c #3C3BD0",
"o$    c #2D2C97",
"p$    c #3232C3",
"q$    c #302FB7",
"r$    c #3939DE",
"s$    c #3735C4",
"t$    c #3433AC",
"u$    c #2A298F",
"v$    c #202073",
"w$    c #1A1962",
"x$    c #1A1A61",
"y$    c #202084",
"z$    c #2727A0",
"{$    c #2F2FC2",
"|$    c #22228B",
"}$    c #282896",
"~$    c #1F1E72",
" %    c #3231BD",
"!%    c #3A38B5",
"#%    c #3B3AC7",
"$%    c #2D2C9E",
"%%    c #3232D2",
"&%    c #3838DD",
"'%    c #3736D3",
"(%    c #3635C6",
")%    c #3F3DB9",
"*%    c #5553D9",
"+%    c #2D2DC3",
",%    c #232293",
"-%    c #3131C6",
".%    c #3333D1",
"0%    c #3333CB",
"1%    c #222285",
"2%    c #272795",
"3%    c #3230AF",
"4%    c #3A39C0",
"5%    c #3A38C7",
"6%    c #2F2EA7",
"7%    c #242494",
"8%    c #3636DB",
"9%    c #3333C7",
":%    c #615FDE",
";%    c #3C3AB0",
"<%    c #3231C2",
"=%    c #2323A8",
">%    c #3130AA",
"?%    c #3332BC",
"@%    c #3332C9",
"A%    c #1F1E76",
"B%    c #212179",
"C%    c #1F1E6C",
"D%    c #3230B3",
"E%    c #312FB0",
"F%    c #3938CF",
"G%    c #3837BD",
"H%    c #3634B7",
"I%    c #2F2FBC",
"J%    c #3636DA",
"K%    c #2F2EB4",
"L%    c #3433CE",
"M%    c #3333D4",
"N%    c #202097",
"O%    c #2D2B9A",
"P%    c #3331BB",
"Q%    c #1C1C6B",
"R%    c #191854",
"S%    c #292785",
"T%    c #302FAD",
"U%    c #302E9F",
"V%    c #3939E0",
"W%    c #3838D2",
"X%    c #3634B9",
"Y%    c #2E2EA9",
"Z%    c #2F2FBD",
"[%    c #3635D6",
"]%    c #3332B3",
"^%    c #2524A7",
"_%    c #2828BD",
"`%    c #2424A7",
"a%    c #1E1E84",
"b%    c #3231B9",
"c%    c #3332CD",
"d%    c #3130BD",
"e%    c #1D1C6B",
"f%    c #1A1A62",
"g%    c #2A299C",
"h%    c #302EAA",
"i%    c #302EA2",
"j%    c #3131CB",
"k%    c #2E2DA7",
"l%    c #262597",
"m%    c #3B3AC9",
"n%    c #3333CD",
"o%    c #3938C7",
"p%    c #3838D8",
"q%    c #1B1B6D",
"r%    c #2B2AAB",
"s%    c #2A29A6",
"t%    c #2727BF",
"u%    c #2827B8",
"v%    c #23229E",
"w%    c #22208D",
"x%    c #23229B",
"y%    c #2726B1",
"z%    c #2625A1",
"{%    c #252394",
"|%    c #25249B",
"}%    c #2726B3",
"~%    c #2625B0",
" &    c #2626B1",
"!&    c #2625AC",
"#&    c #2727BD",
"$&    c #2727BC",
"%&    c #141460",
"&&    c #1B196D",
"'&    c #242398",
"(&    c #2625AE",
")&    c #2625B1",
"*&    c #2726B5",
"+&    c #2827BE",
",&    c #2322A0",
"-&    c #1E1D7C",
".&    c #23218E",
"0&    c #2626B4",
"1&    c #262492",
"2&    c #25238E",
"3&    c #2625A6",
"4&    c #2626AC",
"5&    c #2625A7",
"6&    c #2626BB",
"7&    c #171665",
"8&    c #1E1D82",
"9&    c #2525AF",
":&    c #2525B4",
";&    c #2625B2",
"<&    c #2727BB",
"=&    c #212198",
">&    c #222195",
"?&    c #2625AB",
"@&    c #2626B3",
"A&    c #25249C",
"B&    c #25239A",
"C&    c #26249E",
"D&    c #2626B5",
"E&    c #2626AD",
"F&    c #201F99",
"G&    c #2121A0",
"H&    c #2625B7",
"I&    c #2626B9",
"                                                                ",
"                              # $                               ",
"            % & ' (           ) *           + , - -             ",
"            . 0 1 2 3 4 5 6 7 8 9 : ; < = > ? @ A B             ",
"            C D E F G & % H I J 9 K L M M N O P - Q             ",
"            R S T U V W X Y Z [ ] ^ _ ` a b c d e f             ",
"            g h i j k l m n o p 9 q r s t u v w x y             ",
"            z { { | } ~  !!!#!p 9 $!%!&!'!(!)!*!+!,!            ",
"            -!.!0!1!2!3!4!5!6![ ] 7!8!9!:!;!<!=!>!?!            ",
"            @!A!0!B!C!D!E!F!G!H!I!J!K!L!M!N!O!P!Q!R!            ",
"            S!T!U!V!W!X!Y!Z![!]!^!_!`!a!b!c!d!e!f!g!            ",
"            h!i!j!k!l!m!n!o!p!q!r!s!t!u!v!w!x!y!z!{!            ",
"            |!r!}!~! #!###$#%#&#'#(#)#*#+#,#-#.#0#1#            ",
"            2#3#4#5#6#7#8#9#:#;#a!<#=#>#?#@#A#B#C#D#            ",
"            E#F#G#H#I#J#K#L#M#N#O#P#0#Q#R#S#T#U#V#W#            ",
"            X#Y#Z#[#]#^#_#`#a#b#c#d#e#f#g#h#i#j#k#l#            ",
"            m#n#o#p#q#r#s#t#u#v#w#x#y#z#{#|#}#~# $!$            ",
"            #$#$$$%$&$'$($)$*$+$,$-$.$0$1$2$3$4$5$6$            ",
"            7$7$7!8$9$:$;$<$=$>$?$@$A$B$C$D$E$F$G$H$            ",
"            I$= J$$$K$L$M$N$O$P$Q$R$S$T$U$V$W$X$6$Y$            ",
"            Z$[$]$^$_$,!`$a$b$c$d$e$f$R#g$h$i$j$k$l$            ",
"            m$n$o$p$q$r$s$t$u$v$w$x$y$z${$|$}$~$ % %            ",
"            !%#%$%%%P!&%'%(%)%*%+%,%-%.%0%1%2%~$9$3%            ",
"            4%5%6%7%+ 0#8%9%:%;%<%=%>%?%@%A%B%C%D%E%            ",
"            F%G%H%J!I%C#J%K% $L%M%N%O%P%k$Q%R%S%T%U%            ",
"            V%W%X%Y%Z%J%[%]%^%_%`%a%b%c%d%e%f%g%h%i%            ",
"            j%<%k%l%Z%J%J%[%m%k$n%:!o%c%p%q%f%g%r%s%            ",
"            t%u%v%w%x%y%z%{%|%}%~% &!&#&$&%&&&'&(&)&            ",
"            *&+&,&-&.&0$0&1&2&3&4&5&~%6&6&7&8&9&:&;&            ",
"              <&:&=&>&?&@&A&B&C&;&D&?&E&D&F&G&H&I&              ",
"                                                                ",
"                                                                "};