/* XPM */ 
static const char * redsimpletank_xpm[] = {
"32 32 429 2",
"      c None",
"!     c black",
"#     c #1D0800",
"$     c #0D0400",
"%     c #090300",
"&     c #250A00",
"'     c #2E0D00",
"(     c #421300",
")     c #521700",
"*     c #3D1100",
"+     c #9A2B00",
",     c #B33200",
"-     c #B03100",
".     c #BB3500",
"0     c #541800",
"1     c #3E1100",
"2     c #A02D00",
"3     c #B53300",
"4     c #712000",
"5     c #A42E00",
"6     c #7E2300",
"7     c #A82F00",
"8     c #AF3100",
"9     c #B83400",
":     c #C13600",
";     c #641C00",
"<     c #411200",
"=     c #581900",
">     c #6D1F00",
"?     c #952A00",
"@     c #872600",
"A     c #9E2C00",
"B     c #AE3100",
"C     c #B73300",
"D     c #912900",
"E     c #AA3000",
"F     c #812400",
"G     c #A72F00",
"H     c #BA3400",
"I     c #C63800",
"J     c #6C1E00",
"K     c #3B1100",
"L     c #5D1A00",
"M     c #7C2300",
"N     c #A32E00",
"O     c #A22E00",
"P     c #6F1F00",
"Q     c #9F2D00",
"R     c #752100",
"S     c #962A00",
"T     c #AA3101",
"U     c #AD3100",
"V     c #942A00",
"W     c #B23200",
"X     c #BE3500",
"Y     c #320E00",
"Z     c #5E1A00",
"[     c #8E2800",
"]     c #922900",
"^     c #A52E00",
"_     c #B23301",
"`     c #8A2801",
"a     c #9F350C",
"b     c #C94E1E",
"c     c #D65522",
"d     c #CB4F1E",
"e     c #9C2C00",
"f     c #B23504",
"g     c #A43003",
"h     c #9D2C00",
"i     c #A23307",
"j     c #8B2E09",
"k     c #922A02",
"l     c #B73603",
"m     c #C53A03",
"n     c #C33F0C",
"o     c #C94917",
"p     c #CB4916",
"q     c #91310C",
"r     c #A33910",
"s     c #E5612E",
"t     c #EC6733",
"u     c #E3622F",
"v     c #C34311",
"w     c #AA3F15",
"x     c #8F2C05",
"y     c #982D03",
"z     c #95320B",
"{     c #B13F13",
"|     c #7E2401",
"}     c #D84F1A",
"~     c #E45922",
" !    c #E35821",
"!!    c #8D3512",
"#!    c #A63A10",
"$!    c #E8612C",
"%!    c #EC6632",
"&!    c #E8622D",
"'!    c #BB3906",
"(!    c #B53402",
")!    c #C03803",
"*!    c #C33D08",
"+!    c #C83E08",
",!    c #CF4109",
"-!    c #D64006",
".!    c #D13B01",
"0!    c #742607",
"1!    c #712001",
"2!    c #D54E19",
"3!    c #E25720",
"4!    c #893311",
"5!    c #AB3A0E",
"6!    c #EC612B",
"7!    c #F76931",
"8!    c #F2642D",
"9!    c #EC5E26",
":!    c #F3662F",
";!    c #FC6D35",
"<!    c #FE6F37",
"=!    c #FF6F37",
">!    c #F46229",
"?!    c #C43E0A",
"@!    c #6D1F01",
"A!    c #4F1600",
"B!    c #CC4A17",
"C!    c #DF5620",
"D!    c #DB5520",
"E!    c #843111",
"F!    c #A93A0F",
"G!    c #E55F2B",
"H!    c #F36730",
"I!    c #F2642C",
"J!    c #BE3803",
"K!    c #FD7945",
"L!    c #FD6E36",
"M!    c #F96930",
"N!    c #FE6D34",
"O!    c #FF6F36",
"P!    c #D64B14",
"Q!    c #762201",
"R!    c #391000",
"S!    c #B84315",
"T!    c #D65320",
"U!    c #D5521F",
"V!    c #833010",
"W!    c #AC3A0E",
"X!    c #E25D29",
"Y!    c #E8622E",
"Z!    c #E65F2A",
"[!    c #FE6A30",
"]!    c #F1632C",
"^!    c #EE642E",
"_!    c #F0642D",
"`!    c #F8642A",
"a!    c #DE4B11",
"b!    c #862601",
"c!    c #310E00",
"d!    c #9F3B14",
"e!    c #C84F1F",
"f!    c #DB531E",
"g!    c #8E3310",
"h!    c #AF3B0E",
"i!    c #DD5B28",
"j!    c #D55C2D",
"k!    c #D05829",
"l!    c #FD6B32",
"m!    c #F56228",
"n!    c #E45720",
"o!    c #D55624",
"p!    c #CE4D1B",
"q!    c #D64D18",
"r!    c #C04413",
"s!    c #B33707",
"t!    c #842500",
"u!    c #973813",
"v!    c #C84E1E",
"w!    c #E2541D",
"x!    c #93340F",
"y!    c #882B06",
"z!    c #A23D15",
"{!    c #9C3E19",
"|!    c #9B3C17",
"}!    c #F6662E",
"~!    c #DF531C",
" #    c #D9501B",
"!#    c #AF4218",
"##    c #C54716",
"$#    c #E65820",
"%#    c #BD481A",
"&#    c #A53306",
"'#    c #832500",
"(#    c #2D0D00",
")#    c #782A0B",
"*#    c #973610",
"+#    c #792809",
",#    c #A4360B",
"-#    c #C24A1B",
".#    c #C94F1F",
"0#    c #BF491B",
"1#    c #932900",
"2#    c #DE5520",
"3#    c #C43A04",
"4#    c #B03404",
"5#    c #9B330B",
"6#    c #B03E11",
"7#    c #B64417",
"8#    c #953813",
"9#    c #A03105",
":#    c #98340D",
";#    c #C64614",
"<#    c #D34A14",
"=#    c #94320C",
">#    c #AA380C",
"?#    c #DE5925",
"@#    c #E25E2A",
"A#    c #E05A26",
"B#    c #BE3D0A",
"C#    c #A93000",
"D#    c #A53205",
"E#    c #932D05",
"F#    c #842703",
"G#    c #8B2903",
"H#    c #5F1B01",
"I#    c #AA3D13",
"J#    c #DD521B",
"K#    c #E4541B",
"L#    c #8F320E",
"M#    c #AD390C",
"N#    c #E15924",
"O#    c #D95A28",
"P#    c #CB5425",
"Q#    c #902800",
"R#    c #972D04",
"S#    c #7B2605",
"T#    c #7A2301",
"U#    c #732101",
"V#    c #6A1F01",
"W#    c #641D01",
"X#    c #621D02",
"Y#    c #5D1B01",
"Z#    c #421504",
"[#    c #AF3E12",
"]#    c #E9551B",
"^#    c #E9541A",
"_#    c #8B310E",
"`#    c #A7380C",
"a#    c #DC5622",
"b#    c #DD5A27",
"c#    c #CD5424",
"d#    c #992B00",
"e#    c #C0410F",
"f#    c #8A2F0B",
"g#    c #6D2408",
"h#    c #692307",
"i#    c #702507",
"j#    c #772607",
"k#    c #732507",
"l#    c #581C04",
"m#    c #67240A",
"n#    c #4C1601",
"o#    c #C34412",
"p#    c #F2571A",
"q#    c #E5531A",
"r#    c #842F0E",
"s#    c #AA380B",
"t#    c #E75921",
"u#    c #EF5F26",
"v#    c #DF5823",
"w#    c #A23105",
"x#    c #CD4814",
"y#    c #B23B0C",
"z#    c #AB3E14",
"{#    c #B14216",
"|#    c #BD4415",
"}#    c #C24615",
"~#    c #BC4314",
" $    c #7A2707",
"!$    c #8C320F",
"#$    c #671E02",
"$$    c #C94613",
"%$    c #E6531A",
"&$    c #D94F19",
"'$    c #7E2D0D",
"($    c #AE390B",
")$    c #EE5A20",
"*$    c #FA6125",
"+$    c #EF5B21",
",$    c #A93406",
"-$    c #D14813",
".$    c #A8360A",
"0$    c #7F2401",
"1$    c #7D2401",
"2$    c #7F2502",
"3$    c #852601",
"4$    c #7C2401",
"5$    c #722102",
"6$    c #9C3912",
"7$    c #6D2002",
"8$    c #C24312",
"9$    c #D84E18",
":$    c #822E0D",
";$    c #A9370B",
"<$    c #E3561F",
"=$    c #F55F24",
">$    c #EB5A21",
"?$    c #A73306",
"@$    c #D54912",
"A$    c #BF3E0B",
"B$    c #CC440F",
"C$    c #CC4611",
"D$    c #C74310",
"E$    c #C44310",
"F$    c #BC400F",
"G$    c #812906",
"H$    c #9D3912",
"I$    c #B94112",
"J$    c #D04C19",
"K$    c #D04C18",
"L$    c #7E2C0C",
"M$    c #9D330A",
"N$    c #D0501E",
"O$    c #E65922",
"P$    c #A33105",
"Q$    c #D64A13",
"R$    c #A93609",
"S$    c #99340C",
"T$    c #9E360E",
"U$    c #95330D",
"V$    c #8B300C",
"W$    c #872F0D",
"X$    c #6C2306",
"Y$    c #A43A11",
"Z$    c #6C1F01",
"[$    c #B33F12",
"]$    c #CB4A17",
"^$    c #CF4B17",
"_$    c #812D0C",
"`$    c #D04F1D",
"a$    c #E6561E",
"b$    c #DF4B11",
"c$    c #C23D09",
"d$    c #B33403",
"e$    c #B93603",
"f$    c #A83103",
"g$    c #972D03",
"h$    c #9D2E03",
"i$    c #902B03",
"j$    c #C14211",
"k$    c #792301",
"l$    c #BE4211",
"m$    c #D04B17",
"n$    c #C94816",
"o$    c #7C2B0C",
"p$    c #A3350A",
"q$    c #D8521D",
"r$    c #EC5920",
"s$    c #EB581E",
"t$    c #A83305",
"u$    c #CE410A",
"v$    c #D44912",
"w$    c #E04E15",
"x$    c #D24914",
"y$    c #C14514",
"z$    c #B44013",
"{$    c #C14413",
"|$    c #8C2D08",
"}$    c #BD4110",
"~$    c #C54411",
" %    c #D34B16",
"!%    c #C84816",
"#%    c #792A0B",
"$%    c #AD380A",
"%%    c #E0531C",
"&%    c #E7571F",
"'%    c #DB521D",
"(%    c #9E3005",
")%    c #BB3D0C",
"*%    c #962E06",
"+%    c #702102",
",%    c #6F2103",
"-%    c #6C2103",
".%    c #6B2003",
"0%    c #651E02",
"1%    c #631D02",
"2%    c #97320A",
"3%    c #C94410",
"4%    c #D54C16",
"5%    c #CA4815",
"6%    c #7B2A0B",
"7%    c #812602",
"8%    c #9D350C",
"9%    c #A0360D",
":%    c #9B360E",
";%    c #7F2603",
"<%    c #7B2301",
"=%    c #7B2300",
">%    c #812501",
"?%    c #6E2001",
"@%    c #722101",
"A%    c #802400",
"B%    c #9D3208",
"C%    c #9B3209",
"D%    c #9C3209",
"E%    c #722405",
"F%    c #952B01",
"G%    c #A42F01",
"H%    c #A22E01",
"I%    c #A83001",
"J%    c #AC3101",
"K%    c #B73401",
"L%    c #B43301",
"M%    c #A32F01",
"N%    c #9A2C01",
"O%    c #882600",
"P%    c #BD3500",
"Q%    c #8A2700",
"R%    c #6B1E00",
"S%    c #7A2200",
"T%    c #5F1B00",
"U%    c #822500",
"V%    c #732000",
"W%    c #701F00",
"X%    c #742100",
"Y%    c #892700",
"Z%    c #561800",
"[%    c #531700",
"]%    c #511700",
"^%    c #501600",
"_%    c #611B00",
"                              # $                               ",
"                              % &                               ",
"                              ' (                               ",
"                              ) *                               ",
"            + , - .           0 1           2 - 3 4             ",
"            + - - 5 6 7 8 9 : ; < = > ? + @ A B C 4             ",
"            D E 7 2 F G E H I J K L M N O P Q B . R             ",
"            S T U B V G E W X L Y Z [ - W ] ^ 7 _ `             ",
"            a b c d e , f g h i j > k l m @ n o p q             ",
"            r s t u S v w x O - G O y z { | } ~  !!!            ",
"            #!$!%!&!5 '!(!)!*!+!,!-!.!A 0!1!2! !3!4!            ",
"            5!6!7!8!U X 9!:!7!;!<!=!>!?!@!A!B!C!D!E!            ",
"            F!G!H!I!E J!K!L!M!N!O!=!O!P!Q!R!S!T!U!V!            ",
"            W!X!Y!Z!5 H ;![!]!^!_!8!`!a!b!c!d!e!f!g!            ",
"            h!i!j!k!+ C l!m!n!o!p!q!r!s!t!' u!v!w!x!            ",
"            y!z!{!|!D 8 }!~! #!###$#%#&#'#(#)#*##!+#            ",
"            ,#-#.#0#1#Q 2#3#4#5#6#7#8#9#6 c!:#;#<#=#            ",
"            >#?#@#A#e + B#9 C#D#E#F#G#T H#(#I#J#K#L#            ",
"            M#N#O#P#Q#R#S#T#U#V#W#X#W#Y#Z#c![#]#^#_#            ",
"            `#a#b#c#d#e#f#g#h#i#0!j#k#l#m#n#o#p#q#r#            ",
"            s#t#u#v#w#x#y#z#{#|#}#}#~# $!$#$$$%$&$'$            ",
"            ($)$*$+$,$-$.$0$1$1$2$3$4$5$6$7$8$&$9$:$            ",
"            ;$<$=$>$?$@$A$B$C$D$E$D$F$G$H$V#I$J$K$L$            ",
"            M$N$O$<$P$Q$R$S$T$T$U$V$W$X$Y$Z$[$]$^$_$            ",
"            M$`$>$a$&#b$c$d$e$l f$g$h$i$j$k$l$m$n$o$            ",
"            p$q$r$s$t$a!u$v$w$x$y$z${$|$}$0$~$ %!%#%            ",
"            $%%%&%'%(%)%*%+%,%-%.%0%1%H#2%| 3%4%5%6%            ",
"            7%8%9%:%;%T#<%=%>%F k$?%> @%T#A%B%C%D%E%            ",
"            F%G%T H%` I%J%J%K%L%M%N%F%? A O%7 _ P%Q%            ",
"            R%=%S%R T%U%'#A%'#@ =%V%P W%X%A!X%Y%1#Z%            ",
"            A![%]%^%                        Z L _%Y             ",
"                                                                "};