/* XPM */ 
static const char * simplerocket_xpm[] = {
"4 6 24 1",
" 	c None",
"!	c black",
"#	c #985933",
"$	c #7A452A",
"%	c #9E550F",
"&	c #FFFFD8",
"'	c #FFFBD6",
"(	c #914210",
")	c #BB660C",
"*	c #FFFFDC",
"+	c #FEE8CC",
",	c #A64B0D",
"-	c #B35B02",
".	c #ECCD90",
"0	c #E8C793",
"1	c #954107",
"2	c #A75202",
"3	c #C08638",
"4	c #BF8638",
"5	c #873605",
"6	c #964402",
"7	c #873B04",
"8	c #7E3504",
"9	c #792D01",
" #$ ",
"%&'(",
")*+,",
"-.01",
"2345",
"6789"};