/* XPM */ 
static const char * crash_1_xpm[] = {
"36 36 138 2",
"  	c None",
"! 	c black",
"# 	c #764E32",
"$ 	c #FFB847",
"% 	c #FFC359",
"& 	c #FFDB72",
"' 	c #FFF492",
"( 	c #FFF789",
") 	c #FFCB4F",
"* 	c #5B1E09",
"+ 	c #B44C1E",
", 	c #F9D16B",
"- 	c #FFF899",
". 	c #FFED91",
"0 	c #FFEC93",
"1 	c #FFF8BD",
"2 	c #FFF8C6",
"3 	c #FFF8AF",
"4 	c #FFE993",
"5 	c #FFBF4F",
"6 	c #942A08",
"7 	c #FFE1A6",
"8 	c #FDE39C",
"9 	c #FFFFD5",
": 	c #FFFBCF",
"; 	c #FFF7C2",
"< 	c #FFF4B9",
"= 	c #FFF8D4",
"> 	c #FFF4C4",
"? 	c #FFEFB4",
"@ 	c #FFF2AA",
"A 	c #FFFBB5",
"B 	c #FFFF69",
"C 	c #872532",
"D 	c #FFF391",
"E 	c #FFFFE8",
"F 	c #FFFFF7",
"G 	c #FFFFF4",
"H 	c #FFFDE9",
"I 	c #FFFCE3",
"J 	c #FFFBE5",
"K 	c #FFFCE1",
"L 	c #FFFAD7",
"M 	c #FFF2BB",
"N 	c #FFFCC6",
"O 	c #FFEA91",
"P 	c #8A00D1",
"Q 	c #D5561C",
"R 	c #FFFBB7",
"S 	c #FFFFFB",
"T 	c #FFFFFD",
"U 	c #FFFFF5",
"V 	c #FFFDEF",
"W 	c #FFFCE8",
"X 	c #FFFDEB",
"Y 	c #FFF4C3",
"Z 	c #FFF4BF",
"[ 	c #FFF7AD",
"] 	c #FFAA37",
"^ 	c #FFDE72",
"_ 	c #FFFFE5",
"` 	c #FFFFF6",
"a 	c white",
"b 	c #FFFFFE",
"c 	c #FFFEF1",
"d 	c #FFFCEB",
"e 	c #FFFCEF",
"f 	c #FFFFF9",
"g 	c #FFFEF3",
"h 	c #FFFBE1",
"i 	c #FFFADF",
"j 	c #FFFEC0",
"k 	c #FFDA5C",
"l 	c #FFF58D",
"m 	c #FFFFED",
"n 	c #FFFFFC",
"o 	c #FFFDF0",
"p 	c #FFFCE5",
"q 	c #FFFFF2",
"r 	c #FFFDEC",
"s 	c #FFFBC9",
"t 	c #FFE06C",
"u 	c #FFF69A",
"v 	c #FFFFE6",
"w 	c #FFFEF7",
"x 	c #FFF9DA",
"y 	c #FFFDF1",
"z 	c #FFFDEE",
"{ 	c #FFFED0",
"| 	c #FFE878",
"} 	c #FFFA92",
"~ 	c #FFFEF2",
" !	c #FFFEEF",
"!!	c #FFFDED",
"#!	c #FFFFD4",
"$!	c #FFF275",
"%!	c #FFC043",
"&!	c #FFF6A9",
"'!	c #FFFAD4",
"(!	c #FFFCE2",
")!	c #FFFDE8",
"*!	c #FFFFF8",
"+!	c #FFFFEB",
",!	c #FFFCBF",
"-!	c #FF7E29",
".!	c #764249",
"0!	c #FFE28B",
"1!	c #FFFBE0",
"2!	c #FFFCE7",
"3!	c #FFFADA",
"4!	c #FFFEF0",
"5!	c #FFFFDB",
"6!	c #FBDC7C",
"7!	c #1F0906",
"8!	c #FFB445",
"9!	c #FFEDA2",
":!	c #FFFFF3",
";!	c #FFFEE8",
"<!	c #FFE291",
"=!	c #B34B17",
">!	c #FFB745",
"?!	c #FFE798",
"@!	c #FFFFB8",
"A!	c #FFFBC1",
"B!	c #FFFCCA",
"C!	c #FFFFE0",
"D!	c #FFFFCA",
"E!	c #FFFFBF",
"F!	c #FFE781",
"G!	c #F66624",
"H!	c #56210E",
"I!	c #F58F31",
"J!	c #FFC351",
"K!	c #FFE076",
"L!	c #FFD567",
"M!	c #FFA53A",
"N!	c #C34F17",
"O!	c #1E0B09",
"                                                                        ",
"                                                                        ",
"                                                                        ",
"                                                                        ",
"                                                                        ",
"                                                                        ",
"                                                                        ",
"                                                                        ",
"                                                                        ",
"                                                                        ",
"                                                                        ",
"                            # $ % & ' ( ) *                             ",
"                          + , - . 0 1 2 3 4 5 6                         ",
"                        7 8 9 : ; < = > ? @ A B                         ",
"                      C D E F G H I J K L M N O P                       ",
"                      Q R S T S U V W X K Y Z [ ]                       ",
"                      ^ _ ` a b c d e f g h i j k                       ",
"                      l m b a n g V o p n q r s t                       ",
"                      u v V n f f n w x y z q { |                       ",
"                      } E F c ~  !f !!X S F ` #!$!                      ",
"                      %!&!'!(!G )!f *!T n g +!,!-!                      ",
"                      .!0!9 1!2!3!4!G a F G 5!6!7!                      ",
"                        8!9!:!*!;!H q a G #!<!=!                        ",
"                          >!?!@!A!B!C!D!E!F!G!                          ",
"                            H!I!J!K!L!M!N!O!                            ",
"                                                                        ",
"                                                                        ",
"                                                                        ",
"                                                                        ",
"                                                                        ",
"                                                                        ",
"                                                                        ",
"                                                                        ",
"                                                                        ",
"                                                                        ",
"                                                                        "};