/* XPM */ 
static const char * crash_8_xpm[] = {
"36 36 544 2",
"  	c None",
"! 	c black",
"# 	c #FFCD4F",
"$ 	c #FFE05F",
"% 	c #FFD059",
"& 	c #FFD66B",
"' 	c #FFC85A",
"( 	c #FFE47B",
") 	c #FFDF77",
"* 	c #FFC757",
"+ 	c #FFD54C",
", 	c #FF7D25",
"- 	c #FFC24A",
". 	c #FFEF95",
"0 	c #FFEF94",
"1 	c #FFF3A5",
"2 	c #FFF7AD",
"3 	c #FFEFA1",
"4 	c #FFE182",
"5 	c #FFE480",
"6 	c #FFEE88",
"7 	c #FFF18A",
"8 	c #FEDE73",
"9 	c #FFE16D",
": 	c #FFC248",
"; 	c #FF7C28",
"< 	c #F9C25D",
"= 	c #FFE180",
"> 	c #FFF3A8",
"? 	c #FFFCC7",
"@ 	c #FFF0B2",
"A 	c #FFF4C2",
"B 	c #FFECA8",
"C 	c #FFECAB",
"D 	c #FFE99F",
"E 	c #FFE08A",
"F 	c #FFE292",
"G 	c #FFE690",
"H 	c #FFDE7A",
"I 	c #FFE18A",
"J 	c #FFDE85",
"K 	c #FFE783",
"L 	c #FFE272",
"M 	c #FFAC3F",
"N 	c #FFCC60",
"O 	c #FFEA92",
"P 	c #FFF6BC",
"Q 	c #FFF1AC",
"R 	c #FFE893",
"S 	c #FFE790",
"T 	c #FFEDAF",
"U 	c #FFDB94",
"V 	c #FFECB7",
"W 	c #FFEEA6",
"X 	c #FFF0A4",
"Y 	c #FFE998",
"Z 	c #FFDF7C",
"[ 	c #FFD86D",
"] 	c #FFD579",
"^ 	c #FFDE8E",
"_ 	c #FFF8C4",
"` 	c #FFF392",
"a 	c #FFF181",
"b 	c #F8C75C",
"c 	c #FFFAC0",
"d 	c #FFF9B9",
"e 	c #FFF6C3",
"f 	c #FFEEA8",
"g 	c #FFE38A",
"h 	c #FFF0AB",
"i 	c #FFF9D0",
"j 	c #FFEFB3",
"k 	c #FFE9A9",
"l 	c #FFEBAA",
"m 	c #FFF0B3",
"n 	c #FFF9D3",
"o 	c #FFF5BF",
"p 	c #FFECA1",
"q 	c #FFEAA1",
"r 	c #FFE69D",
"s 	c #FFF5D2",
"t 	c #FFF1B6",
"u 	c #FFE482",
"v 	c #FFFEA5",
"w 	c #FFBF50",
"x 	c #C64423",
"y 	c #FFCF4E",
"z 	c #FFDF78",
"{ 	c #FFFEAD",
"| 	c #FFEEA9",
"} 	c #FFF3BE",
"~ 	c #FFF2B7",
" !	c #FFEFA6",
"!!	c #FFF8CB",
"#!	c #FFF8CC",
"$!	c #FFF6CC",
"%!	c #FFF5CE",
"&!	c #FFF3C8",
"'!	c #FFECAD",
"(!	c #FFF3B5",
")!	c #FFF5C4",
"*!	c #FFF4B5",
"+!	c #FFF1AE",
",!	c #FFF5C5",
"-!	c #FFF7C1",
".!	c #FFFBE0",
"0!	c #FFFFC7",
"1!	c #FFEE82",
"2!	c #FFC355",
"3!	c #FFCF60",
"4!	c #FFE278",
"5!	c #FFF3BB",
"6!	c #FFE49D",
"7!	c #FFF5C6",
"8!	c #FFF9D1",
"9!	c #FFFAD5",
":!	c #FFF8CA",
";!	c #FFFADD",
"<!	c #FFF5C7",
"=!	c #FFF4BD",
">!	c #FFF4C3",
"?!	c #FFF9D6",
"@!	c #FFF0B6",
"A!	c #FFEFB1",
"B!	c #FFE39F",
"C!	c #FFEEBA",
"D!	c #FFF1B5",
"E!	c #FFFCE8",
"F!	c #FFF5B4",
"G!	c #FFCF69",
"H!	c #FFAD41",
"I!	c #FFE87E",
"J!	c #FFDA7A",
"K!	c #FFE388",
"L!	c #FFF4C4",
"M!	c #FFEDA7",
"N!	c #FFF2AE",
"O!	c #FFF5C1",
"P!	c #FFF9D5",
"Q!	c #FFF9D4",
"R!	c #FFFCE5",
"S!	c #FFFCE4",
"T!	c #FFF2BA",
"U!	c #FFF0AA",
"V!	c #FFF2B3",
"W!	c #FFE794",
"X!	c #FFEFBC",
"Y!	c #FFF2B9",
"Z!	c #FFEC9E",
"[!	c #FFF8D5",
"]!	c #FFF8DA",
"^!	c #FFFED0",
"_!	c #FFFF67",
"`!	c #FFDD73",
"a!	c #FFF8B1",
"b!	c #FFEEA7",
"c!	c #FFECAE",
"d!	c #FFF4B6",
"e!	c #FFF8CF",
"f!	c #FFF7C8",
"g!	c #FFFBDE",
"h!	c #FFFEF0",
"i!	c #FFF7C3",
"j!	c #FFEB94",
"k!	c #FFEA98",
"l!	c #FFEB99",
"m!	c #FFF2C0",
"n!	c #FFF2C1",
"o!	c #FFF0BA",
"p!	c #FFF7CB",
"q!	c #FFF6CB",
"r!	c #FFF6C9",
"s!	c #FFE8A1",
"t!	c #FFF586",
"u!	c white",
"v!	c #F96F25",
"w!	c #FFE072",
"x!	c #FFF7BB",
"y!	c #FFF2B6",
"z!	c #FFEBB6",
"{!	c #FFE392",
"|!	c #FFF3B4",
"}!	c #FFF6C1",
"~!	c #FFF2AC",
" #	c #FFF9D2",
"!#	c #FFF7CD",
"##	c #FFFAD6",
"$#	c #FFF7BD",
"%#	c #FFF1B2",
"&#	c #FFEFA7",
"'#	c #FFF3BC",
"(#	c #FFF0B0",
")#	c #FFF4B7",
"*#	c #FFED9C",
"+#	c #FFC358",
",#	c #FFCC63",
"-#	c #FFFF89",
".#	c #FFAD44",
"0#	c #FFDC6E",
"1#	c #FFE592",
"2#	c #FDD48E",
"3#	c #FFD485",
"4#	c #FFDC87",
"5#	c #FFE599",
"6#	c #FFE79C",
"7#	c #FFF4BF",
"8#	c #FFFEEC",
"9#	c #FFFCE7",
":#	c #FFF6C7",
";#	c #FFEA96",
"<#	c #FFEA97",
"=#	c #FFF6CA",
">#	c #FFF6CD",
"?#	c #FFE296",
"@#	c #FFEDA6",
"A#	c #FFEA8D",
"B#	c #FFE581",
"C#	c #FFE890",
"D#	c #FEC051",
"E#	c #FCAA49",
"F#	c #FFCC58",
"G#	c #FFA537",
"H#	c #FFA33E",
"I#	c #FFCB5C",
"J#	c #FFD77A",
"K#	c #FBC073",
"L#	c #FECF7A",
"M#	c #FFE391",
"N#	c #FFD87C",
"O#	c #FFE185",
"P#	c #FFEE9D",
"Q#	c #FFF6C2",
"R#	c #FFF7CA",
"S#	c #FFF4B8",
"T#	c #FFF2B0",
"U#	c #FFF2B4",
"V#	c #FFEDAB",
"W#	c #FFF4BE",
"X#	c #FFE298",
"Y#	c #FEC869",
"Z#	c #FFE390",
"[#	c #FFE888",
"]#	c #FFC95C",
"^#	c #FCAE45",
"_#	c #FC9C37",
"`#	c #FF8A2C",
"a#	c #FB9034",
"b#	c #FFD867",
"c#	c #FFE283",
"d#	c #FED689",
"e#	c #FFE396",
"f#	c #FFEDA2",
"g#	c #FFDD7E",
"h#	c #FFE693",
"i#	c #FFE28E",
"j#	c #FFE39D",
"k#	c #FFE38C",
"l#	c #FFE08F",
"m#	c #FFEA99",
"n#	c #FFEA95",
"o#	c #FFEEAB",
"p#	c #FFFADB",
"q#	c #FFE89B",
"r#	c #FEC977",
"s#	c #FFDA89",
"t#	c #FFEE93",
"u#	c #FFE48B",
"v#	c #FFD96D",
"w#	c #FFB64C",
"x#	c #FFA136",
"y#	c #F27F2E",
"z#	c #FFE983",
"{#	c #FFF2A5",
"|#	c #FFF2B1",
"}#	c #FFF1B3",
"~#	c #FFD681",
" $	c #FDBF67",
"!$	c #FCC26C",
"#$	c #FFDB79",
"$$	c #FFD781",
"%$	c #FFF2AB",
"&$	c #FFF3B8",
"'$	c #FFFAD8",
"($	c #FFFCDF",
")$	c #FFF0B5",
"*$	c #FEDB90",
"+$	c #FFE086",
",$	c #FFEA86",
"-$	c #FFE17F",
".$	c #FFF5B0",
"0$	c #FFED99",
"1$	c #FFB949",
"2$	c #FB8A30",
"3$	c #FFF4B2",
"4$	c #FFF6BE",
"5$	c #FFEB9B",
"6$	c #FFEFA8",
"7$	c #FFD275",
"8$	c #FAB65F",
"9$	c #FBB458",
":$	c #FEC86B",
";$	c #FFE496",
"<$	c #FFDF83",
"=$	c #FFF5C0",
">$	c #FFF2A2",
"?$	c #FFED94",
"@$	c #FFFAD7",
"A$	c #FFF8C7",
"B$	c #FFFBDA",
"C$	c #FFF2B8",
"D$	c #FFEEB0",
"E$	c #FFF2A8",
"F$	c #FFE780",
"G$	c #FFD163",
"H$	c #FFE284",
"I$	c #FFE97E",
"J$	c #FFC249",
"K$	c #FFA13C",
"L$	c #FFE475",
"M$	c #FFFAD1",
"N$	c #FFF4C1",
"O$	c #FFDD87",
"P$	c #FDC470",
"Q$	c #FBB35B",
"R$	c #FBB152",
"S$	c #FFDA8A",
"T$	c #FFF3AB",
"U$	c #FFF3B6",
"V$	c #FFF3A7",
"W$	c #FFF1A6",
"X$	c #FFF8CD",
"Y$	c #FFF9CC",
"Z$	c #FFF6C0",
"[$	c #FFF2AF",
"]$	c #FFF5BC",
"^$	c #FFEB90",
"_$	c #FFDE7F",
"`$	c #FFF3B2",
"a$	c #FFFA9E",
"b$	c #FFB744",
"c$	c #F58830",
"d$	c #FFED7C",
"e$	c #FFE68C",
"f$	c #FFEFB0",
"g$	c #FFF5C9",
"h$	c #FFF1BF",
"i$	c #FFE69E",
"j$	c #FDC671",
"k$	c #FEC766",
"l$	c #FFDA7D",
"m$	c #FFDE87",
"n$	c #FFDD7A",
"o$	c #FFF2AA",
"p$	c #FFFBE1",
"q$	c #FFF7C9",
"r$	c #FFF3B1",
"s$	c #FFF7C5",
"t$	c #FFED89",
"u$	c #FFDD65",
"v$	c #B23E15",
"w$	c #FFEC87",
"x$	c #FFF7D3",
"y$	c #FFEDB6",
"z$	c #FFEDA1",
"{$	c #FFEC9F",
"|$	c #FFDC81",
"}$	c #FFE28B",
"~$	c #FFDF81",
" %	c #FFD173",
"!%	c #FFCF70",
"#%	c #FFE9AB",
"$%	c #FFF7C6",
"%%	c #FFFCE1",
"&%	c #FFFEF4",
"'%	c #FFF7C7",
"(%	c #FFF0AC",
")%	c #FFE788",
"*%	c #FFF09F",
"+%	c #FFEC89",
",%	c #FFDD68",
"-%	c #FFAA3A",
".%	c #FFD771",
"0%	c #FFFBC1",
"1%	c #FFF9CE",
"2%	c #FFF1BE",
"3%	c #FFF7CC",
"4%	c #FFF3B7",
"5%	c #FFEDAA",
"6%	c #FFE689",
"7%	c #FFEB9E",
"8%	c #FFD374",
"9%	c #FFE087",
":%	c #FFE88C",
";%	c #FFEC8E",
"<%	c #FFFAD9",
"=%	c #FFE089",
">%	c #FFE28A",
"?%	c #FFD764",
"@%	c #FFA23B",
"A%	c #852509",
"B%	c #FFAA3D",
"C%	c #FFF08D",
"D%	c #FFF4BC",
"E%	c #FFF1B0",
"F%	c #FFF4BA",
"G%	c #FFF6C6",
"H%	c #FFEEB1",
"I%	c #FFEEA1",
"J%	c #FFDA85",
"K%	c #FFE789",
"L%	c #FFDA74",
"M%	c #FFE896",
"N%	c #FFFAD4",
"O%	c #FFF3B0",
"P%	c #FFDE83",
"Q%	c #FFDF80",
"R%	c #FFD571",
"S%	c #FFC857",
"T%	c #EA7928",
"U%	c #FFDB70",
"V%	c #FFF1A3",
"W%	c #FFF7CF",
"X%	c #FFF3C5",
"Y%	c #FFECB9",
"Z%	c #FFEA9C",
"[%	c #FFF1AB",
"]%	c #FFDC84",
"^%	c #FFCB69",
"_%	c #FFF4B3",
"`%	c #FFF5BD",
"a%	c #FFF3C0",
"b%	c #FFECA0",
"c%	c #FFD16D",
"d%	c #FFD069",
"e%	c #F7A541",
"f%	c #AC3C13",
"g%	c #FFE389",
"h%	c #FFF1B8",
"i%	c #FFEBA6",
"j%	c #FFECB0",
"k%	c #FFE99D",
"l%	c #FFF0A9",
"m%	c #FFED98",
"n%	c #FFEEA5",
"o%	c #FFE795",
"p%	c #FFE588",
"q%	c #FFDF74",
"r%	c #FFF4B9",
"s%	c #FFF19B",
"t%	c #FFEDA5",
"u%	c #FFE179",
"v%	c #FFCC6C",
"w%	c #662C18",
"x%	c #FFC65C",
"y%	c #FFE486",
"z%	c #FFF1A0",
"{%	c #FFE995",
"|%	c #FFE9A5",
"}%	c #FFE38D",
"~%	c #FFEE9B",
" &	c #FFE484",
"!&	c #FFEB93",
"#&	c #FFE07E",
"$&	c #FFE589",
"%&	c #FFEA91",
"&&	c #FFE79F",
"'&	c #FFE696",
"(&	c #FFD575",
")&	c #FFF7B4",
"*&	c #FFEF9C",
"+&	c #EC6E2B",
",&	c #FFAB40",
"-&	c #FFBA52",
".&	c #FEC865",
"0&	c #FFDC85",
"1&	c #FFD97C",
"2&	c #FFED9A",
"3&	c #FFD576",
"4&	c #FFE287",
"5&	c #FFE078",
"6&	c #FFE883",
"7&	c #FFE176",
"8&	c #FFE181",
"9&	c #FFDA7B",
":&	c #FFCA5D",
";&	c #FEBD53",
"<&	c #FFE08E",
"=&	c #FFEF9F",
">&	c #FFE681",
"?&	c #F29439",
"@&	c #F98D33",
"A&	c #FFB24A",
"B&	c #FFC35E",
"C&	c #FFBB59",
"D&	c #FFCE64",
"E&	c #FFD56C",
"F&	c #FFE380",
"G&	c #FFD068",
"H&	c #FFD267",
"I&	c #FFE47E",
"J&	c #FFE172",
"K&	c #FFD96B",
"L&	c #FFD266",
"M&	c #FFC75E",
"N&	c #FEC469",
"O&	c #FFEB9A",
"P&	c #FFCD5E",
"Q&	c #FF6F27",
"R&	c #FFBB4A",
"S&	c #F48F37",
"T&	c #FF9D45",
"U&	c #FDAE4C",
"V&	c #FFCD61",
"W&	c #FDB754",
"X&	c #FBAD4A",
"Y&	c #FFCD64",
"Z&	c #FEC459",
"[&	c #FFC560",
"]&	c #FFD56B",
"^&	c #FFF092",
"_&	c #FFF28B",
"`&	c #FFC349",
"a&	c #FF642B",
"b&	c #F88C41",
"c&	c #FFA74B",
"d&	c #FFC057",
"e&	c #FFC256",
"f&	c #FFC65A",
"g&	c #FFB24D",
"h&	c #F9993E",
"i&	c #E8762A",
"j&	c #FD953A",
"k&	c #FFCA5A",
"l&	c #FFE46D",
"m&	c #FFBC4C",
"n&	c #DB591F",
"o&	c #FFC74A",
"p&	c #FF9B3B",
"q&	c #FD8E34",
"r&	c #FF9D3B",
"s&	c #FD9537",
"t&	c #F88830",
"u&	c #E87127",
"v&	c #BD4917",
"                                                                        ",
"                                                                        ",
"                                                                        ",
"                                                                        ",
"                          # $ % & ' ( ) * +                             ",
"                      , - . 0 1 2 3 4 5 6 7 8 9 : ;                     ",
"                    < = > ? @ A B C D E F G H I J K L M                 ",
"                  N O P Q R S T U V W X Y Z [ ] ^ _ ` a b               ",
"                  c d e f g h i j k l m n o p q r s t u v w             ",
"            x y z { | } ~  !!!#!$!%!&!'!(!)!*!+!)!,!-!.!0!1!            ",
"            2!3!4!5!6!7!8!9!:!n ;!<!=!>!?!@!A!B!C!D!@ E!n F!G!          ",
"          H!I!J!K!L!M!N!O!P!Q!R!S!;!T!U!V!W!V I X!Y!Z![!]!^!_!          ",
"          `!a!b!q c!d!e!f!g!P!h!Q!i!=!j!k!l!m!n!o!p!q!r!s!l t!u!        ",
"        v!w!x!y!z!{!|!}!8!8!~! #!###$#%#&#}!'#c!(#)#n O!*#+#,#-#u!      ",
"        .#0#1#2#3#4#5#6#7#8#9#,!:#.!e ;#<#=#>#?#p @#A#B#C#D#E#F#G#      ",
"        H#I#J#K#L#M#N#O#P#Q#L!R#S#p!;!f!T#U#e V#W#X#Y#Z#[#]#^#_#`#      ",
"        a#b#c#d#e#f#g#h#i#j#k#l#m#n#U#7#:#o#p#T!S#q#r#s#t#u#v#w#x#      ",
"        y#z#{#|#b!}#X#~# $!$#$$$l#d!%$7!=#&$'$#!($)$*$+$,$-$.$0$1$      ",
"        2$w!3$4$5$6$c!7$8$9$:$;$<$}!=$>$?$S#@$A$B$C$D$E$F$G$H$I$J$      ",
"        K$L$&#M$g!N$Y!O$P$Q$R$S$<#T$U$V$W$o X$Y$i!Z$[$]$^$_$`$a$b$      ",
"        c$d$e$f$g$h$:!N!i$j$k$l$m$n$l o$Q#R!p$R#]$q$`$r$s$+!t$u$        ",
"        v$w$>$W#x$y$p!z${$|$}$~$ %!%#%$%%%&%?!'%f!(%k!)%*%+%,%-%        ",
"          .%0%1%=#2%3%4%5%6%7%8%!%9%:%;%-! #9!B$<%T =%>%5 ?%@%A%        ",
"          B%C%D%E%F%T!G%H%I%f J%<$K%L%M%N%-!g! #O%D P%Q%R%S%T%          ",
"            U%V%'%W%X%G%Y%Z%[%~ W ]%^%#$_%W$`%!#O!a%b%c%d%e%f%          ",
"            H#g%o h%i%m j%k%l%m%n%o%p%q%r%n #!X s%`$t%u%v%w%            ",
"              x%y%z%{%|%}%I%~% &!&#&O%$&%&&&'&(&5%`%)&*&+&              ",
"              ,&-&7$.&0&1&X 2&3&4&5&6&7&8&9&:&;&<&=&>&?&                ",
"                @&A&B&C&D&E&F&L%G&H&I&J&K&L&M&N&O&)%P&                  ",
"                  Q&R&S&T&U&G!V&W&X&Y&Z&[&]&^&_&) `&a&                  ",
"                        b&c&d&e&f&g&h&i&j&k&l&m&n&                      ",
"                          o&p&q&r&s&t&u&v&                              ",
"                                                                        ",
"                                                                        ",
"                                                                        ",
"                                                                        "};