/* XPM */ 
static const char * crash_14_xpm[] = {
"36 36 908 2",
"  	c None",
"! 	c black",
"# 	c #531E0E",
"$ 	c #A03F16",
"% 	c #AB4518",
"& 	c #481B0C",
"' 	c #1F0D07",
"( 	c #120805",
") 	c #441808",
"* 	c #6B250C",
"+ 	c #561D0A",
", 	c #220E06",
"- 	c #070102",
". 	c #0E0605",
"0 	c #4E1C0D",
"1 	c #933913",
"2 	c #A03E15",
"3 	c #4E1D0C",
"4 	c #280F08",
"5 	c #4C1B0A",
"6 	c #341308",
"7 	c #7B2C0F",
"8 	c #70280D",
"9 	c #C8581D",
": 	c #E27227",
"; 	c #6A260C",
"< 	c #7A2B0E",
"= 	c #3D1507",
"> 	c #180904",
"? 	c #4A1A09",
"@ 	c #571F0A",
"A 	c #220C05",
"B 	c #2E1108",
"C 	c #9C3D15",
"D 	c #C2531D",
"E 	c #7A2D11",
"F 	c #3E1408",
"G 	c #6B270E",
"H 	c #7A2B0F",
"I 	c #63230D",
"J 	c #7B2B0F",
"K 	c #A64115",
"L 	c #C8571D",
"M 	c #E16B24",
"N 	c #BB4F1A",
"O 	c #AE4516",
"P 	c #8E3410",
"Q 	c #833211",
"R 	c #64210B",
"S 	c #7B2C0E",
"T 	c #75280C",
"U 	c #2A0E05",
"V 	c #2C0F07",
"W 	c #551F0D",
"X 	c #4E1B09",
"Y 	c #AE4717",
"Z 	c #973A13",
"[ 	c #983A14",
"] 	c #833212",
"^ 	c #C5571E",
"_ 	c #9E3D15",
"` 	c #953913",
"a 	c #7F2D0F",
"b 	c #DB6924",
"c 	c #F38A32",
"d 	c #DF6F25",
"e 	c #CF5E20",
"f 	c #C1521B",
"g 	c #C0521B",
"h 	c #D06020",
"i 	c #B94D19",
"j 	c #913712",
"k 	c #451507",
"l 	c #4A1808",
"m 	c #090404",
"n 	c #A53F16",
"o 	c #933712",
"p 	c #75290D",
"q 	c #943A14",
"r 	c #953812",
"s 	c #903612",
"t 	c #A94417",
"u 	c #DD6A24",
"v 	c #F17F2D",
"w 	c #B04A19",
"x 	c #9C3A13",
"y 	c #8F3511",
"z 	c #EA7E2D",
"{ 	c #EE822E",
"| 	c #CD5D1F",
"} 	c #D56421",
"~ 	c #D16020",
" !	c #C0511A",
"!!	c #C0511B",
"#!	c #A64014",
"$!	c #DC6822",
"%!	c #E87628",
"&!	c #C4581D",
"'!	c #A84014",
"(!	c #6A230B",
")!	c #270E06",
"*!	c #8B3313",
"+!	c #772B0E",
",!	c #8A3411",
"-!	c #8C3613",
".!	c #CE6021",
"0!	c #68270F",
"1!	c #4D1A0B",
"2!	c #48190A",
"3!	c #BD521B",
"4!	c #ED7A2A",
"5!	c #E06F26",
"6!	c #B54B18",
"7!	c #E07227",
"8!	c #FFA740",
"9!	c #EF8530",
":!	c #C4531B",
";!	c #E37328",
"<!	c #E17127",
"=!	c #E97C2C",
">!	c #D26221",
"?!	c #ED812E",
"@!	c #F08730",
"A!	c #FFA53F",
"B!	c #E9792A",
"C!	c #983912",
"D!	c #571D09",
"E!	c #110704",
"F!	c #4E1B0D",
"G!	c #923612",
"H!	c #843110",
"I!	c #BD511B",
"J!	c #B64C1A",
"K!	c #993C15",
"L!	c #73280F",
"M!	c #64240D",
"N!	c #541D0B",
"O!	c #591E0B",
"P!	c #67230C",
"Q!	c #8B3311",
"R!	c #A64015",
"S!	c #D86622",
"T!	c #FDA13D",
"U!	c #F89839",
"V!	c #CB5D1F",
"W!	c #BE4D18",
"X!	c #E27428",
"Y!	c #F18931",
"Z!	c #F79738",
"[!	c #C1531C",
"]!	c #B14818",
"^!	c #AC4316",
"_!	c #E3782B",
"`!	c #D25E1F",
"a!	c #9D3A12",
"b!	c #7D2B0D",
"c!	c #3D1407",
"d!	c #0E0711",
"e!	c #140B16",
"f!	c #6E270F",
"g!	c #B54B19",
"h!	c #B74E1C",
"i!	c #CA5A20",
"j!	c #9B3C15",
"k!	c #5D200B",
"l!	c #61220C",
"m!	c #2F1107",
"n!	c #270E07",
"o!	c #230C06",
"p!	c #361207",
"q!	c #65230C",
"r!	c #551C0A",
"s!	c #74260D",
"t!	c #A84417",
"u!	c #C7591E",
"v!	c #ED7C2B",
"w!	c #D86C25",
"x!	c #FFA941",
"y!	c #F99939",
"z!	c #CA581D",
"{!	c #DC6C26",
"|!	c #EF8732",
"}!	c #FFB246",
"~!	c #EF8630",
" #	c #D36120",
"!#	c #A23E14",
"##	c #501A09",
"$#	c #200A06",
"%#	c #0E0707",
"&#	c #6C280E",
"'#	c #BE521D",
"(#	c #D96826",
")#	c #9C3E16",
"*#	c #AE4718",
"+#	c #993A14",
",#	c #341208",
"-#	c #190A06",
".#	c #0D0604",
"0#	c #070505",
"1#	c #080504",
"2#	c #2E1007",
"3#	c #571E0B",
"4#	c #4A1909",
"5#	c #772C0F",
"6#	c #C95B1E",
"7#	c #B04516",
"8#	c #9B3C14",
"9#	c #69210B",
":#	c #E07228",
";#	c #FE9E3B",
"<#	c #F38A31",
"=#	c #D56422",
">#	c #A13E14",
"?#	c #B44918",
"@#	c #E77D2D",
"A#	c #FFA13D",
"B#	c #F58D33",
"C#	c #C3551C",
"D#	c #551C09",
"E#	c #461808",
"F#	c #561C0F",
"G#	c #35150A",
"H#	c #A34117",
"I#	c #983B15",
"J#	c #7E3012",
"K#	c #6F270E",
"L#	c #67250E",
"M#	c #62230D",
"N#	c #220E08",
"O#	c #080605",
"P#	c #0A0706",
"Q#	c #070504",
"R#	c #100805",
"S#	c #1F0C06",
"T#	c #501C0A",
"U#	c #69260D",
"V#	c #A44115",
"W#	c #8C3511",
"X#	c #842F10",
"Y#	c #3B1308",
"Z#	c #3E1206",
"[#	c #A53E13",
"]#	c #EB7528",
"^#	c #DD6923",
"_#	c #913612",
"`#	c #78280D",
"a#	c #953712",
"b#	c #EB812E",
"c#	c #F68F34",
"d#	c #CF5F20",
"e#	c #923712",
"f#	c #993A13",
"g#	c #451711",
"h#	c #45190C",
"i#	c #41180B",
"j#	c #5A210D",
"k#	c #561F0D",
"l#	c #7B2D11",
"m#	c #5A200C",
"n#	c #501D0C",
"o#	c #371509",
"p#	c #0F0806",
"q#	c #130906",
"r#	c #170B07",
"s#	c #100806",
"t#	c #170906",
"u#	c #290F08",
"v#	c #923713",
"w#	c #BE501A",
"x#	c #AC4416",
"y#	c #9F3D14",
"z#	c #792B0E",
"{#	c #301006",
"|#	c #130603",
"}#	c #290C05",
"~#	c #321006",
" $	c #B54C19",
"!$	c #C6561C",
"#$	c #74290E",
"$$	c #AA4316",
"%$	c #DE6C25",
"&$	c #F2852F",
"'$	c #CA5C1E",
"($	c #8F3611",
")$	c #351308",
"*$	c #2F130F",
"+$	c #501E0D",
",$	c #7F3011",
"-$	c #752B10",
".$	c #5C210D",
"0$	c #58200D",
"1$	c #2B1108",
"2$	c #260F08",
"3$	c #291008",
"4$	c #1D0C07",
"5$	c #2C1109",
"6$	c #120907",
"7$	c #200D07",
"8$	c #5D210C",
"9$	c #8D3512",
":$	c #BE501B",
";$	c #742A0E",
"<$	c #67240C",
"=$	c #321107",
">$	c #1D0A05",
"?$	c #371207",
"@$	c #441607",
"A$	c #361106",
"B$	c #4E1B0A",
"C$	c #7C2D0F",
"D$	c #B54A18",
"E$	c #BA4D19",
"F$	c #9F3D13",
"G$	c #A84216",
"H$	c #E77A2B",
"I$	c #FFA23D",
"J$	c #DC6B24",
"K$	c #451809",
"L$	c #311107",
"M$	c #240F09",
"N$	c #3A160B",
"O$	c #5C220E",
"P$	c #441A0B",
"Q$	c #541E0C",
"R$	c #3C160A",
"S$	c #240F08",
"T$	c #0F0907",
"U$	c #150906",
"V$	c #250F07",
"W$	c #271008",
"X$	c #3A1509",
"Y$	c #361409",
"Z$	c #883312",
"[$	c #7B2D0F",
"]$	c #5A1F0B",
"^$	c #68250D",
"_$	c #3F1508",
"`$	c #501B0A",
"a$	c #3E1508",
"b$	c #3C1408",
"c$	c #351207",
"d$	c #2D0F06",
"e$	c #331207",
"f$	c #3F1507",
"g$	c #8D3511",
"h$	c #481809",
"i$	c #6E240C",
"j$	c #943712",
"k$	c #E47327",
"l$	c #E87629",
"m$	c #B84B18",
"n$	c #4C1A09",
"o$	c #230F08",
"p$	c #321309",
"q$	c #3F180B",
"r$	c #36150A",
"s$	c #41180A",
"t$	c #281008",
"u$	c #2A1109",
"v$	c #250F08",
"w$	c #46190A",
"x$	c #40180A",
"y$	c #3B1509",
"z$	c #1F0B05",
"{$	c #341207",
"|$	c #3D1508",
"}$	c #401608",
"~$	c #4D1A09",
" %	c #4B1908",
"!%	c #441708",
"#%	c #431709",
"$%	c #2E1006",
"%%	c #260C05",
"&%	c #73290D",
"'%	c #5C1F0A",
"(%	c #421608",
")%	c #561A09",
"*%	c #B94F1B",
"+%	c #FDA33E",
",%	c #C0571D",
"-%	c #74260C",
".%	c #3A1307",
"0%	c #130A07",
"1%	c #2E130A",
"2%	c #43190B",
"3%	c #4B1C0C",
"4%	c #3B160A",
"5%	c #2D1108",
"6%	c #391509",
"7%	c #471A0B",
"8%	c #561F0C",
"9%	c #42190B",
":%	c #4E1C0B",
";%	c #47190A",
"<%	c #531D0B",
"=%	c #3C1407",
">%	c #2D1007",
"?%	c #2D0F07",
"@%	c #3E1608",
"A%	c #481A0A",
"B%	c #6D260D",
"C%	c #72280D",
"D%	c #581E0A",
"E%	c #401508",
"F%	c #802F10",
"G%	c #883210",
"H%	c #A54015",
"I%	c #6B260D",
"J%	c #311006",
"K%	c #2E0F06",
"L%	c #461608",
"M%	c #88300F",
"N%	c #F99336",
"O%	c #FD9D3B",
"P%	c #A94718",
"Q%	c #3D1307",
"R%	c #3E180B",
"S%	c #40190C",
"T%	c #331309",
"U%	c #451A0B",
"V%	c #5D220D",
"W%	c #481A0B",
"X%	c #42180A",
"Y%	c #341309",
"Z%	c #752A0F",
"[%	c #A74417",
"]%	c #60220C",
"^%	c #44180A",
"_%	c #863211",
"`%	c #71270D",
"a%	c #491908",
"b%	c #260D05",
"c%	c #C2511A",
"d%	c #B34918",
"e%	c #66240C",
"f%	c #2F1006",
"g%	c #571D0A",
"h%	c #7A290D",
"i%	c #C7571D",
"j%	c #D96824",
"k%	c #BA4C19",
"l%	c #63240C",
"m%	c #491C0C",
"n%	c #2B1109",
"o%	c #59210D",
"p%	c #913914",
"q%	c #64250F",
"r%	c #40180B",
"s%	c #2A1009",
"t%	c #1B0B07",
"u%	c #3E160A",
"v%	c #511D0B",
"w%	c #AE4819",
"x%	c #EC762A",
"y%	c #C95A1F",
"z%	c #883311",
"{%	c #7C2C0E",
"|%	c #69250C",
"}%	c #6E270D",
"~%	c #5B1F0A",
" &	c #5B1F0B",
"!&	c #70270D",
"#&	c #4D1B0A",
"$&	c #903712",
"%&	c #AA4215",
"&&	c #983913",
"'&	c #581E0B",
"(&	c #AD4516",
")&	c #842F0F",
"*&	c #923812",
"+&	c #E5792A",
",&	c #5C230E",
"-&	c #471A0C",
".&	c #722A10",
"0&	c #863312",
"1&	c #8D3613",
"2&	c #3E170A",
"3&	c #341409",
"4&	c #732A0F",
"5&	c #4C1C0C",
"6&	c #4A1A0B",
"7&	c #822E10",
"8&	c #B24B19",
"9&	c #D26121",
":&	c #AC4516",
";&	c #9C3C14",
"<&	c #7C2D10",
"=&	c #62220B",
">&	c #812F10",
"?&	c #812F0F",
"@&	c #391307",
"A&	c #3D1408",
"B&	c #9B3B14",
"C&	c #A43E14",
"D&	c #5B1E09",
"E&	c #A14118",
"F&	c #7F3112",
"G&	c #B44C1B",
"H&	c #A84419",
"I&	c #A34118",
"J&	c #883313",
"K&	c #732A10",
"L&	c #531E0C",
"M&	c #5E220E",
"N&	c #5E220D",
"O&	c #5D220E",
"P&	c #4D1B0B",
"Q&	c #873312",
"R&	c #D36422",
"S&	c #9B3F15",
"T&	c #BB4E19",
"U&	c #AD4517",
"V&	c #AA4517",
"W&	c #9D3C13",
"X&	c #BB4E1A",
"Y&	c #71280D",
"Z&	c #C3541B",
"[&	c #B44A18",
"]&	c #8C3412",
"^&	c #5E200B",
"_&	c #BE521C",
"`&	c #FE9938",
"a&	c #FF9E3C",
"b&	c #A94519",
"c&	c #C0541D",
"d&	c #CC5D21",
"e&	c #B14B1B",
"f&	c #D06123",
"g&	c #B34B1C",
"h&	c #742B11",
"i&	c #311209",
"j&	c #38160B",
"k&	c #66250E",
"l&	c #63240E",
"m&	c #863111",
"n&	c #C7581E",
"o&	c #DE7027",
"p&	c #BE521B",
"q&	c #A34015",
"r&	c #D26322",
"s&	c #993C13",
"t&	c #8A3311",
"u&	c #772A0E",
"v&	c #6D270D",
"w&	c #A74315",
"x&	c #B94D1A",
"y&	c #973A14",
"z&	c #511B0A",
"{&	c #9D3B14",
"|&	c #D46321",
"}&	c #8C3712",
"~&	c #411206",
" '	c #803012",
"!'	c #A44217",
"#'	c #AD481B",
"$'	c #E17029",
"%'	c #DB6825",
"&'	c #953B16",
"''	c #2B110A",
"('	c #4A1B0C",
")'	c #551F0C",
"*'	c #9A3B14",
"+'	c #CA5B1F",
",'	c #D66422",
"-'	c #983A13",
".'	c #83300F",
"0'	c #732A0E",
"1'	c #7D2D0F",
"2'	c #76290D",
"3'	c #8E3612",
"4'	c #7E2E0F",
"5'	c #6F270D",
"6'	c #8B3412",
"7'	c #823010",
"8'	c #72290E",
"9'	c #491909",
":'	c #471809",
";'	c #70280E",
"<'	c #772B0F",
"='	c #D96221",
">'	c #541E0D",
"?'	c #64240E",
"@'	c #833111",
"A'	c #BF531E",
"B'	c #D66625",
"C'	c #D56222",
"D'	c #933915",
"E'	c #1D0D08",
"F'	c #521E0C",
"G'	c #5C220D",
"H'	c #4A1B0B",
"I'	c #8C3512",
"J'	c #D36021",
"K'	c #A24115",
"L'	c #792A0D",
"M'	c #BF541C",
"N'	c #E8782A",
"O'	c #DA6924",
"P'	c #D46221",
"Q'	c #D36221",
"R'	c #DA6823",
"S'	c #6D270E",
"T'	c #853110",
"U'	c #591F0B",
"V'	c #381307",
"W'	c #431508",
"X'	c #7E3010",
"Y'	c #832E0F",
"Z'	c #A14015",
"['	c #4B1A09",
"]'	c #0F0504",
"^'	c #40190B",
"_'	c #A64317",
"`'	c #913713",
"a'	c #AF4818",
"b'	c #C3541D",
"c'	c #6A2710",
"d'	c #732B10",
"e'	c #7E2F12",
"f'	c #7A2E10",
"g'	c #D05F20",
"h'	c #C4571E",
"i'	c #9C3F15",
"j'	c #EA782A",
"k'	c #DB6A25",
"l'	c #D76522",
"m'	c #C85A1E",
"n'	c #AA4416",
"o'	c #943912",
"p'	c #D56121",
"q'	c #9E3E15",
"r'	c #5F210C",
"s'	c #481909",
"t'	c #67260D",
"u'	c #D76924",
"v'	c #782C0F",
"w'	c #220B05",
"x'	c #030515",
"y'	c #331007",
"z'	c #5F240D",
"{'	c #DC6B25",
"|'	c #7D3113",
"}'	c #41180C",
"~'	c #6D2910",
" (	c #501E0C",
"!(	c #3F170B",
"#(	c #762B10",
"$(	c #7D2F10",
"%(	c #67230B",
"&(	c #9D3F15",
"'(	c #A84317",
"((	c #A24016",
")(	c #923814",
"*(	c #B64D1A",
"+(	c #913613",
",(	c #762B0F",
"-(	c #581F0B",
".(	c #893411",
"0(	c #BF511B",
"1(	c #9B3A13",
"2(	c #893713",
"3(	c #6B220B",
"4(	c #2A1430",
"5(	c #742A10",
"6(	c #401609",
"7(	c #2F1007",
"8(	c #4C1809",
"9(	c #8A3512",
":(	c #74290F",
";(	c #511D0C",
"<(	c #36140A",
"=(	c #531F0D",
">(	c #762C10",
"?(	c #6A250E",
"@(	c #A74317",
"A(	c #B24919",
"B(	c #973913",
"C(	c #A23F15",
"D(	c #873212",
"E(	c #7B2D10",
"F(	c #65240C",
"G(	c #61210B",
"H(	c #822E0F",
"I(	c #C95B1F",
"J(	c #ED832F",
"K(	c #9B3E15",
"L(	c #41180D",
"M(	c #813011",
"N(	c #451909",
"O(	c #290F07",
"P(	c #3B1408",
"Q(	c #491809",
"R(	c #8D3713",
"S(	c #BD531D",
"T(	c #56210E",
"U(	c #903815",
"V(	c #712A10",
"W(	c #6D290F",
"X(	c #E37228",
"Y(	c #E97629",
"Z(	c #B04817",
"[(	c #AA4417",
"](	c #B14918",
"^(	c #863311",
"_(	c #9D3D14",
"`(	c #883411",
"a(	c #3F1509",
"b(	c #551D0A",
"c(	c #591E0A",
"d(	c #B14A19",
"e(	c #EE832E",
"f(	c #8A3813",
"g(	c #441407",
"h(	c #100604",
"i(	c #210D09",
"j(	c #371408",
"k(	c #250E06",
"l(	c #371308",
"m(	c #7F2E10",
"n(	c #903914",
"o(	c #D96825",
"p(	c #A34217",
"q(	c #70290E",
"r(	c #86300F",
"s(	c #8E3511",
"t(	c #B94F1A",
"u(	c #CC5B20",
"v(	c #D86B26",
"w(	c #E9792B",
"x(	c #E16B25",
"y(	c #E06D26",
"z(	c #4F1E0C",
"{(	c #3C1508",
"|(	c #63220B",
"}(	c #67220C",
"~(	c #C4551C",
" )	c #ED7528",
"!)	c #301208",
"#)	c #3F170A",
"$)	c #270F07",
"%)	c #59200C",
"&)	c #B24B1A",
"')	c #C7581F",
"()	c #C85A20",
"))	c #9F3F16",
"*)	c #803011",
"+)	c #3D1509",
",)	c #5B1F0C",
"-)	c #8D3411",
".)	c #853111",
"0)	c #B1491A",
"1)	c #E4752A",
"2)	c #F0802E",
"3)	c #DC6D27",
"4)	c #5B230E",
"5)	c #250D07",
"6)	c #371409",
"7)	c #67240D",
"8)	c #6A270E",
"9)	c #FA8B32",
":)	c #E8792A",
";)	c #5C210B",
"<)	c #160703",
"=)	c #270E0B",
">)	c #3D170A",
"?)	c #813012",
"@)	c #B84E1C",
"A)	c #D16022",
"B)	c #A44318",
"C)	c #973B14",
"D)	c #BA4F1B",
"E)	c #A34016",
"F)	c #531D0C",
"G)	c #68260E",
"H)	c #C0531C",
"I)	c #DB6724",
"J)	c #DF6F27",
"K)	c #E37229",
"L)	c #F38731",
"M)	c #E27129",
"N)	c #BD511D",
"O)	c #63230E",
"P)	c #1A0B07",
"Q)	c #180A06",
"R)	c #301108",
"S)	c #290D06",
"T)	c #A84416",
"U)	c #391106",
"V)	c #0B0504",
"W)	c #01051A",
"X)	c #190B06",
"Y)	c #37150A",
"Z)	c #3D170B",
"[)	c #AA4619",
"])	c #853312",
"^)	c #943A15",
"_)	c #9A3B15",
"`)	c #8E3713",
"a)	c #9C3B13",
"b)	c #BA4E1A",
"c)	c #D36223",
"d)	c #DF6F28",
"e)	c #E8782C",
"f)	c #BC531E",
"g)	c #7F2F11",
"h)	c #491A0B",
"i)	c #120906",
"j)	c #2A0F08",
"k)	c #461D0C",
"l)	c #D36723",
"m)	c #7A2D0E",
"n)	c #230D05",
"o)	c #1E0D08",
"p)	c #8E3714",
"q)	c #AC4518",
"r)	c #B0491A",
"s)	c #7B2E0F",
"t)	c #C2541C",
"u)	c #D76624",
"v)	c #F38E35",
"w)	c #F28430",
"x)	c #EC7C2C",
"y)	c #DB6D27",
"z)	c #873514",
"{)	c #853313",
"|)	c #5A1F0D",
"})	c #4B1B0C",
"~)	c #441A0C",
" *	c #381509",
"!*	c #35140A",
"#*	c #58210D",
"$*	c #AB4618",
"%*	c #B24717",
"&*	c #68230B",
"'*	c #3F1607",
"(*	c #0A0503",
")*	c #0B0706",
"**	c #210E08",
"+*	c #301209",
",*	c #541F0C",
"-*	c #491B0B",
".*	c #571F0C",
"0*	c #511E0C",
"1*	c #DB6623",
"2*	c #D96723",
"3*	c #A84719",
"4*	c #D26122",
"5*	c #E27128",
"6*	c #6C260E",
"7*	c #792D11",
"8*	c #66260F",
"9*	c #873313",
":*	c #A13F15",
";*	c #63230C",
"<*	c #280D05",
"=*	c #120A07",
">*	c #39160A",
"?*	c #8B3513",
"@*	c #5C210C",
"A*	c #581C0A",
"B*	c #D05F21",
"C*	c #ED7A2C",
"D*	c #AA4719",
"E*	c #7B2E11",
"F*	c #B44B1B",
"G*	c #B54D1B",
"H*	c #7D2F11",
"I*	c #893311",
"J*	c #843010",
"K*	c #72290D",
"L*	c #130704",
"M*	c #411709",
"N*	c #3D1609",
"O*	c #5F220D",
"P*	c #45180A",
"Q*	c #4F1B0A",
"R*	c #792C10",
"S*	c #CA5B20",
"T*	c #A23F16",
"U*	c #6F280F",
"V*	c #5F230D",
"W*	c #772D10",
"X*	c #A54116",
"Y*	c #802F0F",
"Z*	c #4F1C09",
"[*	c #120807",
"]*	c #2C1007",
"^*	c #491A0A",
"_*	c #62240D",
"`*	c #401709",
"a*	c #501C0B",
"b*	c #381408",
"c*	c #67260E",
"d*	c #2E1208",
"e*	c #3E1709",
"f*	c #260E07",
"g*	c #10080B",
"h*	c #250E09",
"i*	c #220D08",
"j*	c #0B0605",
"k*	c #110705",
"l*	c #2C1108",
"m*	c #1B0B06",
"n*	c #1C0B06",
"o*	c #230E09",
"p*	c #140A08",
"q*	c #100907",
"r*	c #140A07",
"                      # $ % & ' ( ) * + , - .                           ",
"                    0 1 2 3 4 5 6 7 8 9 : ; < = > ? @ A                 ",
"                  B C D E F G H I J K L M N O P Q R S T U V             ",
"              W ? X Y Z [ ] ^ _ ` a b c d e f g h ; i j k l m           ",
"            n o p q r s t u v w x y z { | } ~  !!!#!$!%!&!'!(!)!        ",
"          *!+!,!-!.!0!1!2!3!4!5!6!7!8!9!:!g ;!<!=!>!?!@!A!B!C!D!E!      ",
"        F!G!H!I!J!K!L!M!N!O!P!Q!R!S!T!U!V!W!X!Y!Z![!]!^!_!`!a!b!c!d!    ",
"    e!f!y g!h!i!j!k!l!m!n!o!p!q!r!s!t!u!v!w!x!y!=!z!{!|!}!~! #!###$#    ",
"    %#&#'#(#)#*#+#,#-#.#0#1#2#3#4#5#6#7#8#9#:#;#<#=#>#?#@#A#B#C#D#E#F#  ",
"    G#H#I#J#K#L#M#N#O#P#Q#R#S#T#U#V#W#X#Y#Z#[#u!]#^#_#`#a#b#c#d#e#g f#g#",
"  h#i#j#k#l#m#n#o#p#q#r#s#t#u#v#w#x#y#z#{#|#}#~# $!$#$8 $$%$&$B#'$($($)$",
"*$+$,$-$.$0$1$2$3$4$5$6$7$M!8$9$:$;$<$=$>$?$@$A$B$C$D$E$F$G$H$I$J$y K$L$",
"M$N$O$P$Q$R$S$T$U$V$W$X$Y$Z$[$]$^$_$`$a$b$c$d$e$>$f$g$;$h$i$j$k$l$m$+ n$",
"o$p$q$r$s$t$u$v$' w$x$5 y$M#K$z$=${$|$}$~$ %!%#%$%%%&%'%?$(%)%*%+%,%-%.%",
"0%1%2%3%4%p$5%6%7%8%9%:%;%<%=%>%?%@%A%B%C%D%E%e$F%G%H%I%J%K%L%M%N%O%P%Q%",
"R%S%T%U%V%R$R$W%W%X%x$Y%Z%[%]%]$^%_%H!`%a%b%h$l!#$e#c%d%e%f%g%h%i%j%k%l%",
"m%n%o%p%q%r%s%t%u%:%:%v%w%x%y%z%{%y |%}%~% &<$!&#&n$$&%&&&(%'&>#(&)&*&+&",
",&-&.&0&1&J#2&3&4&E 5&6&7&8&9&9&:&;&($z!g!<&C$+!=&]%>&s ?&@&A&B&C&9$;$D&",
"E&F&G&H&I&J&K&L&M&N&O&P&Q&R&S&T&U&V&W&X&` Y&N Z&[&*#]&>#>&^&K$f _&`&a&>!",
"b&c&d&e&f&g&h&i&j&5&k&l&m&n&o&p&q&r&s&t&u&v&p&Y w&x&y&` N!z&3#?#{&|&}&~&",
" '!'0&#'$'%'&'j&''('2&)'^$*'+','-'.'0'P!1'2'3'4'5'6'7'8'9':'A&;'<'='q&K%",
">'?'@'A'B'C'D'i#E'F'G'H'I'[!J'K'L'M'N'O'P'Q'R'| 7'S'T'U'{$V'W'X'Y'Z'[']'",
"  ^'_'`'G a'b'c'1%d'e'y$f'g'h'1'i'j'k'l'm'n'o'p'q'F%m&r'_$s't'u'v'@&w'  ",
"x'>'G'A%y'z'{'|'}'~' (!(#($(S'&%%(&('((()([%q!*(+(,(+!-(.(0(1(2(3(c!1#  ",
"4(5()'6(7(8(9(:(,&;(<(=(>(?(@(A(B(:$9 C(D(E(<'@(j G F(!%G(H(I(J(K(A     ",
"  L(M(N(O(P(Q(R(S(W%T(U(V(W(X(Y(Z([(](V&M#^(_($&`(a(6 b(c(d(e(f(g(h(    ",
"  i(N&j(k(k(l(m([ n(o(p(L&`$F'q(r(s(t(u(v(w(x(j%y(z({(|(}(~( )(&7(      ",
"    !)#)$)%)C$F%&)')()2 ))*)+),)z%-).)0)1)2)3)4);(5)6)7)8)9):);)<)      ",
"    =)>)U%l&?)@)A)B)?'C)D)E)F)G)H)I)J)K)L)M)N)O)P)Q)R)S)3#T)&%U)V)      ",
"    W)X)Y)Z)5&[)])J&^)n&[!_)`)a)b)c)d)e)f)g)h)p$P)i)j)k)l)m)D#n)        ",
"        o)n%H'p)q)r)I's)t)u)v)w)x)y)z){)|)})4%~) *!*#*$*%*&*'*(*        ",
"        )*o$**+*,*-*.*0*1*2*3*4*5*3*6*7*d'P$!(8*9*[(:*;*E#<*            ",
"          =*6$E'5&-*>*j)?*@*A*`)B*C*D*E*F*G*H*I*,(J*W&K*L*              ",
"                M*N*O*#)Y)l(P*Q*R*S*T*U*V*W*X*Y*l(Z*3$                  ",
"                  [*]*^*_*m#`*a*2#b*V%c*N*j)d*5%e*f*g*                  ",
"                      h*i*j*k*l*m*n*o*p*q*  p*r*q*                      "};