/* XPM */ 
static const char * crash_15_xpm[] = {
"36 36 700 2",
"  	c None",
"! 	c black",
"# 	c #3F170A",
"$ 	c #1C0C07",
"% 	c #501D0B",
"& 	c #541E0B",
"' 	c #5F220D",
"( 	c #873211",
") 	c #280E06",
"* 	c #59200C",
"+ 	c #3A160A",
", 	c #230D07",
"- 	c #3B160A",
". 	c #391509",
"0 	c #271008",
"1 	c #561E0B",
"2 	c #A74316",
"3 	c #531D0A",
"4 	c #591D0A",
"5 	c #782E10",
"6 	c #4B1A0A",
"7 	c #63230D",
"8 	c #5A200B",
"9 	c #591F0A",
": 	c #471909",
"; 	c #6E280F",
"< 	c #4D1C0B",
"= 	c #823011",
"> 	c #803011",
"? 	c #D76322",
"@ 	c #D26020",
"A 	c #F3832E",
"B 	c #DD6A25",
"C 	c #B84C19",
"D 	c #943712",
"E 	c #451607",
"F 	c #7D2E0F",
"G 	c #62230C",
"H 	c #9A3B13",
"I 	c #883312",
"J 	c #853111",
"K 	c #782D10",
"L 	c #752B0E",
"M 	c #63220C",
"N 	c #CD5D1F",
"O 	c #D05E1F",
"P 	c #DB6A24",
"Q 	c #E07227",
"R 	c #73290E",
"S 	c #883512",
"T 	c #CD5D20",
"U 	c #A74216",
"V 	c #DE6923",
"W 	c #481909",
"X 	c #742A0D",
"Y 	c #9F3F16",
"Z 	c #963B14",
"[ 	c #813010",
"] 	c #853211",
"^ 	c #DA6321",
"_ 	c #D05D1F",
"` 	c #983B14",
"a 	c #A03E14",
"b 	c #E97829",
"c 	c #D96923",
"d 	c #9A3912",
"e 	c #CA5A1E",
"f 	c #C3561D",
"g 	c #A84316",
"h 	c #C3541C",
"i 	c #CE6222",
"j 	c #72280E",
"k 	c #E17026",
"l 	c #ED7B2B",
"m 	c #EB7929",
"n 	c #B74C18",
"o 	c #551E0A",
"p 	c #571E0A",
"q 	c #722C0F",
"r 	c #7A2D11",
"s 	c #4C1B0B",
"t 	c #792C10",
"u 	c #4F1C0B",
"v 	c #873312",
"w 	c #8A3311",
"x 	c #BA511B",
"y 	c #FFA33E",
"z 	c #FA9B3B",
"{ 	c #A04216",
"| 	c #CA591E",
"} 	c #CB5B1E",
"~ 	c #BD501B",
" !	c #C2561D",
"!!	c #EF8631",
"#!	c #993D15",
"$!	c #C4551D",
"%!	c #C95A1F",
"&!	c #C2541C",
"'!	c #983812",
"(!	c #67240C",
")!	c #521D0B",
"*!	c #BD4E19",
"+!	c #D56624",
",!	c #8C3613",
"-!	c #5B210C",
".!	c #49190A",
"0!	c #3C1509",
"1!	c #331208",
"2!	c #290F07",
"3!	c #421609",
"4!	c #71260D",
"5!	c #BC531D",
"6!	c #ED7F2E",
"7!	c #F18631",
"8!	c #D66623",
"9!	c #EC802E",
":!	c #F18630",
";!	c #E97E2D",
"<!	c #E47228",
"=!	c #D16022",
">!	c #ED802F",
"?!	c #E97C2D",
"@!	c #B34818",
"A!	c #2B0E05",
"B!	c #853110",
"C!	c #823111",
"D!	c #291008",
"E!	c #180A06",
"F!	c #0F0705",
"G!	c #1A0B06",
"H!	c #301208",
"I!	c #5E210C",
"J!	c #61230D",
"K!	c #853212",
"L!	c #873011",
"M!	c #973A14",
"N!	c #C7591E",
"O!	c #973812",
"P!	c #ED7D2C",
"Q!	c #D56422",
"R!	c #D96824",
"S!	c #AE4718",
"T!	c #BA501C",
"U!	c #F79337",
"V!	c #FFAC44",
"W!	c #C4591F",
"X!	c #62220B",
"Y!	c #230E08",
"Z!	c #6D270F",
"[!	c #8F3714",
"]!	c #66240D",
"^!	c #7A2C10",
"_!	c #541E0C",
"`!	c #0D0705",
"a!	c #070505",
"b!	c #170A06",
"c!	c #1E0B06",
"d!	c #551E0B",
"e!	c #6D280E",
"f!	c #732A0F",
"g!	c #8E3412",
"h!	c #A13E15",
"i!	c #CC5B1E",
"j!	c #72290E",
"k!	c #4F1A0A",
"l!	c #591D0B",
"m!	c #833011",
"n!	c #CA5C20",
"o!	c #E57228",
"p!	c #C4551C",
"q!	c #802E10",
"r!	c #551F0B",
"s!	c #481808",
"t!	c #5A200C",
"u!	c #40170B",
"v!	c #551E0C",
"w!	c #6B270E",
"x!	c #531E0C",
"y!	c #38150A",
"z!	c #190B07",
"{!	c #0C0706",
"|!	c #100806",
"}!	c #180B07",
"~!	c #6E280E",
" #	c #762B0F",
"!#	c #813011",
"##	c #5E220C",
"$#	c #913712",
"%#	c #220B05",
"&#	c #2A0D05",
"'#	c #C7561D",
"(#	c #A94316",
")#	c #7C2D10",
"*#	c #6E270E",
"+#	c #68240D",
",#	c #9B3D14",
"-#	c #F08631",
".#	c #D96925",
"0#	c #BB4E1A",
"1#	c #BB4F1A",
"2#	c #963912",
"3#	c #8D3613",
"4#	c #4A1C0B",
"5#	c #371409",
"6#	c #481A0B",
"7#	c #491B0B",
"8#	c #3F180B",
"9#	c #321309",
":#	c #170B07",
";#	c #2D1007",
"<#	c #44180A",
"=#	c #953913",
">#	c #A13F15",
"?#	c #65250D",
"@#	c #66230C",
"A#	c #1B0A05",
"B#	c #140805",
"C#	c #110603",
"D#	c #63240D",
"E#	c #67250D",
"F#	c #62240D",
"G#	c #B84D1A",
"H#	c #A64116",
"I#	c #DA6A25",
"J#	c #FE9939",
"K#	c #EC8330",
"L#	c #8A3613",
"M#	c #742A0F",
"N#	c #4C1C0A",
"O#	c #65260F",
"P#	c #461A0B",
"Q#	c #561F0C",
"R#	c #2B1109",
"S#	c #1F0D08",
"T#	c #34140A",
"U#	c #6A260E",
"V#	c #3D1508",
"W#	c #551D0A",
"X#	c #260D06",
"Y#	c #2F1007",
"Z#	c #2B0F06",
"[#	c #431809",
"]#	c #943913",
"^#	c #883211",
"_#	c #933813",
"`#	c #E7772A",
"a#	c #EC782B",
"b#	c #9E3E15",
"c#	c #60230D",
"d#	c #1D0D08",
"e#	c #32140A",
"f#	c #381509",
"g#	c #3D170A",
"h#	c #281008",
"i#	c #120906",
"j#	c #331309",
"k#	c #8E3613",
"l#	c #441709",
"m#	c #361308",
"n#	c #190904",
"o#	c #3F1608",
"p#	c #3C1508",
"q#	c #2A0F06",
"r#	c #1F0B05",
"s#	c #321107",
"t#	c #2C1007",
"u#	c #321208",
"v#	c #521D0A",
"w#	c #311107",
"x#	c #70270D",
"y#	c #9B3C15",
"z#	c #C3531C",
"{#	c #953B14",
"|#	c #6D250C",
"}#	c #301108",
"~#	c #261009",
" $	c #40170A",
"!$	c #200E08",
"#$	c #210D07",
"$$	c #4A1B0A",
"%$	c #41180A",
"&$	c #381408",
"'$	c #3F1709",
"($	c #391307",
")$	c #68240C",
"*$	c #62210B",
"+$	c #4C1A09",
",$	c #301107",
"-$	c #210C06",
".$	c #74290E",
"0$	c #3F1508",
"1$	c #341207",
"2$	c #491909",
"3$	c #E5752A",
"4$	c #FB9A3A",
"5$	c #AE4B1A",
"6$	c #491708",
"7$	c #36150A",
"8$	c #42190B",
"9$	c #160B07",
":$	c #220E07",
";$	c #2B1007",
"<$	c #531E0B",
"=$	c #40180A",
">$	c #541D0B",
"?$	c #4E1B0A",
"@$	c #341308",
"A$	c #290E06",
"B$	c #411608",
"C$	c #963812",
"D$	c #491908",
"E$	c #2F1006",
"F$	c #6C270D",
"G$	c #833010",
"H$	c #C2541D",
"I$	c #FA8B32",
"J$	c #EC7A2B",
"K$	c #923813",
"L$	c #5D230F",
"M$	c #31140A",
"N$	c #200D07",
"O$	c #250F09",
"P$	c #2F1108",
"Q$	c #3A1509",
"R$	c #3B1609",
"S$	c #351409",
"T$	c #4D1A0A",
"U$	c #A23F15",
"V$	c #C0541C",
"W$	c #792D10",
"X$	c #5F210B",
"Y$	c #772B0E",
"Z$	c #742A0E",
"[$	c #9D3D14",
"]$	c #311207",
"^$	c #401609",
"_$	c #4E1A0A",
"`$	c #8F3613",
"a$	c #C6581E",
"b$	c #6C260C",
"c$	c #491B0C",
"d$	c #3E170A",
"e$	c #37150A",
"f$	c #471A0B",
"g$	c #5E220D",
"h$	c #D56322",
"i$	c #F98730",
"j$	c #DF7027",
"k$	c #8E3813",
"l$	c #8B3412",
"m$	c #8C3411",
"n$	c #802E0F",
"o$	c #712A0E",
"p$	c #5A1E0B",
"q$	c #4E1A09",
"r$	c #6F270D",
"s$	c #591F0B",
"t$	c #511C0A",
"u$	c #4E1C0B",
"v$	c #722A0F",
"w$	c #A84216",
"x$	c #220D06",
"y$	c #3E1609",
"z$	c #9E3F15",
"{$	c #A23F14",
"|$	c #A54216",
"}$	c #551F0D",
"~$	c #40180B",
" %	c #461A0C",
"!%	c #4A1B0C",
"#%	c #5F230E",
"$%	c #451A0B",
"%%	c #531D0B",
"&%	c #AF4618",
"'%	c #C8581E",
"(%	c #DF6F27",
")%	c #E87629",
"*%	c #B54B19",
"+%	c #832F0F",
",%	c #833110",
"-%	c #E16E25",
".%	c #B34A19",
"0%	c #73280D",
"1%	c #6F280E",
"2%	c #71280E",
"3%	c #68250D",
"4%	c #5D210C",
"5%	c #4D1B0A",
"6%	c #411609",
"7%	c #8B3111",
"8%	c #6B250C",
"9%	c #742B10",
":%	c #6F2910",
";%	c #5D220E",
"<%	c #59200E",
"=%	c #341409",
">%	c #511E0C",
"?%	c #62240E",
"@%	c #4A1B0B",
"A%	c #963A13",
"B%	c #A54116",
"C%	c #66250D",
"D%	c #BC531C",
"E%	c #8D3611",
"F%	c #8F3410",
"G%	c #CB5A1E",
"H%	c #9C3C14",
"I%	c #AF4817",
"J%	c #D46221",
"K%	c #C2531B",
"L%	c #B94D1A",
"M%	c #59200D",
"N%	c #48190A",
"O%	c #381409",
"P%	c #551F0C",
"Q%	c #D46121",
"R%	c #BC521C",
"S%	c #F99437",
"T%	c #F58931",
"U%	c #B34B1B",
"V%	c #B54D1B",
"W%	c #923A15",
"X%	c #541F0D",
"Y%	c #5C210D",
"Z%	c #55200D",
"[%	c #7B2D10",
"]%	c #923713",
"^%	c #8A3411",
"_%	c #B94E1A",
"`%	c #DD6F26",
"a%	c #A44215",
"b%	c #7C2D0F",
"c%	c #7A2D0F",
"d%	c #A54215",
"e%	c #9B3C14",
"f%	c #66250E",
"g%	c #491A0A",
"h%	c #280F08",
"i%	c #5D200C",
"j%	c #A34116",
"k%	c #803211",
"l%	c #3F1408",
"m%	c #863312",
"n%	c #752C10",
"o%	c #9E3F16",
"p%	c #B54C1C",
"q%	c #A74419",
"r%	c #B24A1A",
"s%	c #7C2F12",
"t%	c #71290E",
"u%	c #843111",
"v%	c #C7571D",
"w%	c #8F3712",
"x%	c #6C260D",
"y%	c #7A2C0F",
"z%	c #762A0F",
"{%	c #8B3512",
"|%	c #67230C",
"}%	c #60220D",
"~%	c #361409",
" &	c #7B2D0F",
"!&	c #9A3B14",
"#&	c #772C10",
"$&	c #762C10",
"%&	c #993D16",
"&&	c #953914",
"'&	c #6D280F",
"(&	c #39160B",
")&	c #59210D",
"*&	c #752B0F",
"+&	c #A84317",
",&	c #B24918",
"-&	c #AF4918",
".&	c #D66522",
"0&	c #C6571E",
"1&	c #BA4F1B",
"2&	c #C85A1F",
"3&	c #64230C",
"4&	c #220D07",
"5&	c #260F08",
"6&	c #411709",
"7&	c #511A0A",
"8&	c #8C3813",
"9&	c #6F250C",
":&	c #571F0B",
";&	c #230D06",
"<&	c #4F1D0C",
"=&	c #70280F",
">&	c #5B200C",
"?&	c #3F1609",
"@&	c #953A15",
"A&	c #6F290F",
"B&	c #69270F",
"C&	c #67260E",
"D&	c #9C3E15",
"E&	c #7C2E10",
"F&	c #DC6E26",
"G&	c #F58D33",
"H&	c #DC6B25",
"I&	c #D36121",
"J&	c #D96924",
"K&	c #B44C1A",
"L&	c #9F3F15",
"M&	c #933914",
"N&	c #62220C",
"O&	c #1D0B06",
"P&	c #6C2B10",
"Q&	c #ED8933",
"R&	c #953C15",
"S&	c #3D1407",
"T&	c #210E08",
"U&	c #782C0F",
"V&	c #8F3713",
"W&	c #803112",
"X&	c #4E1D0C",
"Y&	c #883210",
"Z&	c #973B13",
"[&	c #AD4516",
"]&	c #AE4617",
"^&	c #9A3C14",
"_&	c #802F11",
"`&	c #501C0A",
"a&	c #8E3512",
"b&	c #8B3210",
"c&	c #5A250E",
"d&	c #3F1207",
"e&	c #200D08",
"f&	c #4E1C0A",
"g&	c #250D06",
"h&	c #581F0B",
"i&	c #AD4618",
"j&	c #6E2A10",
"k&	c #61240E",
"l&	c #521F0D",
"m&	c #903815",
"n&	c #65250E",
"o&	c #913813",
"p&	c #843010",
"q&	c #A44115",
"r&	c #CB591E",
"s&	c #B04818",
"t&	c #9A3C15",
"u&	c #863211",
"v&	c #9C3D15",
"w&	c #451909",
"x&	c #9C3B14",
"y&	c #E67127",
"z&	c #DE6C25",
"{&	c #481B0A",
"|&	c #4B1C0C",
"}&	c #270E06",
"~&	c #7D3012",
" '	c #813313",
"!'	c #60230E",
"#'	c #66270E",
"$'	c #DC6924",
"%'	c #8F3612",
"&'	c #B24A18",
"''	c #A24014",
"('	c #943812",
")'	c #5F200B",
"*'	c #722A0E",
"+'	c #56200C",
",'	c #351207",
"-'	c #4C1A0A",
".'	c #AB4718",
"0'	c #F88C32",
"1'	c #C1551D",
"2'	c #1A0804",
"3'	c #3D160A",
"4'	c #2B1008",
"5'	c #4F1B0A",
"6'	c #69260E",
"7'	c #BD511C",
"8'	c #5A230E",
"9'	c #461709",
":'	c #4D1D0A",
";'	c #71280D",
"<'	c #792C0E",
"='	c #BF531C",
">'	c #D66323",
"?'	c #BF541D",
"@'	c #C8591F",
"A'	c #D76523",
"B'	c #B34B19",
"C'	c #CB5B1F",
"D'	c #431A0A",
"E'	c #B34918",
"F'	c #AA4517",
"G'	c #621F0B",
"H'	c #923915",
"I'	c #B24B1B",
"J'	c #541D0A",
"K'	c #7D2D0F",
"L'	c #A24116",
"M'	c #CA5B20",
"N'	c #B84E1B",
"O'	c #973C14",
"P'	c #76280E",
"Q'	c #752D11",
"R'	c #290F08",
"S'	c #953B15",
"T'	c #F8822E",
"U'	c #D06221",
"V'	c #301207",
"W'	c #2A1007",
"X'	c #6C270E",
"Y'	c #65240E",
"Z'	c #BC4F1C",
"['	c #AA4519",
"]'	c #632610",
"^'	c #A74317",
"_'	c #581F0C",
"`'	c #953A13",
"a'	c #B14919",
"b'	c #D36324",
"c'	c #C9591F",
"d'	c #D56121",
"e'	c #883513",
"f'	c #0D0806",
"g'	c #250E07",
"h'	c #BB4D1A",
"i'	c #160A07",
"j'	c #250F08",
"k'	c #521D0C",
"l'	c #9A3D16",
"m'	c #8F3814",
"n'	c #843212",
"o'	c #6B260E",
"p'	c #4D1D0C",
"q'	c #C85B20",
"r'	c #D25F20",
"s'	c #E27128",
"t'	c #CD5D21",
"u'	c #863414",
"v'	c #923714",
"w'	c #371309",
"x'	c #0C0605",
"y'	c #2D1108",
"z'	c #270E07",
"{'	c #240F08",
"|'	c #39160A",
"}'	c #9E3E16",
"~'	c #893513",
" (	c #BF521C",
"!(	c #E6752A",
"#(	c #A84418",
"$(	c #963B15",
"%(	c #853414",
"&(	c #1B0C07",
"'(	c #140A07",
"((	c #341309",
")(	c #441A0C",
"*(	c #B64E1A",
"+(	c #A03C13",
",(	c #4B1908",
"-(	c #4B1B0B",
".(	c #873412",
"0(	c #D05C1F",
"1(	c #B44B1A",
"2(	c #EB7E2E",
"3(	c #DE6924",
"4(	c #A64418",
"5(	c #56200D",
"6(	c #2C110A",
"7(	c #34150B",
"8(	c #33140A",
"9(	c #43190B",
":(	c #61220B",
";(	c #4F1C0A",
"<(	c #180C08",
"=(	c #0F0907",
">(	c #5D220D",
"?(	c #813213",
"@(	c #802D10",
"A(	c #53200C",
"B(	c #68260F",
"C(	c #531F0D",
"D(	c #56210E",
"E(	c #732B11",
"F(	c #4C1B0A",
"G(	c #893211",
"H(	c #863110",
"I(	c #501D0C",
"J(	c #59210E",
"K(	c #2E1108",
"L(	c #521E0C",
"M(	c #63250F",
"N(	c #60240F",
"O(	c #6E2910",
"P(	c #5A210D",
"Q(	c #371408",
"R(	c #521C0B",
"S(	c #742B0F",
"T(	c #5D220C",
"U(	c #501D0A",
"V(	c #1F0C06",
"W(	c #2A0F07",
"X(	c #1E0D08",
"Y(	c #1C0C08",
"                      #       $   % & ' ( )                             ",
"                    *   + , - . 0   1   2 3 4 5 6 7 8 9                 ",
"                  :   ;   < =   > =   2 ? @   A B C D   E               ",
"              F G   H I J K   L M   N O P Q R S T U   V   W             ",
"              X Y Z   [ ]   ^ _ ` a b c d e f g h i j k l m n o         ",
"            p q   r s t   u v Y w x y z { | } ~  !!!#!$!%!&!'!(!)!      ",
"        ( *!  +!,!  -!.!0!1!2!  3!4!5!6!7!8!9!:!;!<!  =!>!?!@!g   A!    ",
"      R B!  ; C!  D!E!  F!G!H!I!J!K!L!M!N!O!$!P!Q!R!S!T!U!V!W!  X!      ",
"    Y!  Z![!]!^!_!  `!a!  b!c!  d!e!f!g!    h!i!  j!k!l!m!n!o!p!q!r!s!  ",
"      t!u!v!w!x!y!z!{!  |!}!  ~! #!###$#1 %#&#  '#(#)#*#+#,#-#.#0#1#2#3#",
"  4#5#6#7#' 8#9#  }!  :#  ;#<#=#>#?#@#  A#B#  C#D#  E#F#G#H#I#J#K#L#M#N#",
"  O#6#  P#Q#R#Y!S#  T#  9#j!  U#U#V#W#X#  Y#  Z#  [#]#^#$#  _#`#a#b#c#  ",
"d#e#f#g#  h#  i#  j#  P#7#k#' l#m#n#o#Z#p#q#r#s#t#u#1   v#w#x#y#z#{#|#}#",
"  ~# $  !$#$  $ j#  $$%$&$  '$  X#n#  ($)$*$  +$,$-$  .$0$1$  2$3$4$5$6$",
"  7$8$9$  :$;$  <$=$    >$o ?$@$  A$B$  C$  D$E$F$G$  2#  X#w#  H$I$J$K$",
"L$M$N$:#O$N$P$Q$s R$S$T$U$V$W$  .!  G$    ) X$  Y$  Z$  [$]$^$_$`$R!a$b$",
"c$  d$e$  Y!$ Y!f$    g$h$i$j$k$l$m$n$o$p$q$r$s$t$u$  v$w$& x$y$l$z${$|$",
"}$~$   %!%    y$#%$%S$%%&%'%(%)%*%+%,%-%.%0%R 1%2%F$3%  4%5%  6%  7%S 8%",
"9%:%;%<%  !%=%  >%?%@%)!A%B%C%D%  E%F%G%H%  I%J%K%L%  M%N%O%  P%Q%R%S%T%",
"U%V%  W%X%  Y%8#  Z%P%  [%  ]%^%_%`%a%A%b%c%  d%  e%f%g%  h%6#i%j%>#k%l%",
"m%n%o%p%q%r%s%e#  6#f#g%t%u%` f v%w%r$x%y%z%{%|%  }%  < 5#~%  )! &-!!&2$",
"#&$&  U%%&&&'&  (&O#)&  *&+&,&U$(#-&.&%!0&1&2&  3&: u u#4&5&6&7&8&9&:&;&",
"  <&=&>&?&@&K!A&    B&<&C&  D&E&F&G&H&I&J&K&L&~ M&d!N&6 #$O&  P&Q&R&S&  ",
"T&f%  ;#Y#U&V&  )&W&  X&  n%    Y&Z&[&]&b#  $#^&_&`&  &$;#J!a&b&c&d&A#  ",
"e&  f&  g&  h&i&j&k&l&m&n&  o&p&q&r&h$s&t&L&  u&v&  ##  w&  x&y&z&{&    ",
"  |&  t#  }&g%L%~&k& '  !'#'$'1#%'&'''(')'  *'M +','  !   -'.'0'1'2'    ",
"    3'  4'  5'= 6'  7'8'  9':';'0%<'='>'?'@'A'B'C'D'4&  g%  E'F'G'      ",
"      Q$  Q#-'o&H'I'H'  P#s#  J'  K'_#L'M'N'O'P'Q'  R'<#  S'T'U'V'      ",
"      W'P#X'Y'Z'[']'  K!^'  6&_'3#C$`'a'b'c'd'e'  f'  4'g'h'-&`&        ",
"    i'j'    k'  l' %m'  n'o'p'  q'r's't'u'v'  w'x'f'y'z'  g   B$        ",
"        {'~#|'t&}'~'  |$ ( (!(#($(  %(m&   %4'  &('((()(*(+(,(          ",
"          &(  F#  -(#%.(0(1(2(3(R!4(  5(6(7(8(9(X%P%  :(;(              ",
"          <(=(j#@%>(?(  o&@(A(  !#  B(C(D(E(  !'  F(G(H(n#              ",
"                I(c#J(s K(    L(  M'  M(N(O(P(  3%  G                   ",
"                  P$Q(f#  g%p#  R(S(_#u$  @%< T(h&U(                    ",
"                      p#K!  u#V(  W(X&  X(Y(  i#                        "};