/* XPM */ 
static const char * crash_13_xpm[] = {
"36 36 896 2",
"  	c None",
"! 	c black",
"# 	c #31100E",
"$ 	c #551F0C",
"% 	c #41180A",
"& 	c #331209",
"' 	c #1A0B06",
"( 	c #130704",
") 	c #2A0C04",
"* 	c #341207",
"+ 	c #290C04",
", 	c #00001F",
"- 	c #60260F",
". 	c #BA4D19",
"0 	c #973A14",
"1 	c #5F210D",
"2 	c #5A1F0B",
"3 	c #5E1F0A",
"4 	c #8B3411",
"5 	c #E47026",
"6 	c #DD6923",
"7 	c #802F0E",
"8 	c #471305",
"9 	c #351207",
": 	c #060101",
"; 	c #080201",
"< 	c #2D0F05",
"= 	c #280E05",
"> 	c #431A0A",
"? 	c #E17128",
"@ 	c #D46021",
"A 	c #8E3512",
"B 	c #581E0B",
"C 	c #7E2D0F",
"D 	c #792A0E",
"E 	c #BB4C18",
"F 	c #CC5D20",
"G 	c #FFA53E",
"H 	c #F49537",
"I 	c #9F3F14",
"J 	c #C8581C",
"K 	c #6D240B",
"L 	c #64230B",
"M 	c #8D320F",
"N 	c #9F3D13",
"O 	c #351105",
"P 	c #571D09",
"Q 	c #0F0A0F",
"R 	c #4B1C0C",
"S 	c #65240D",
"T 	c #A04015",
"U 	c #D25E20",
"V 	c #A54116",
"W 	c #913612",
"X 	c #7A2D0F",
"Y 	c #B64B19",
"Z 	c #C3551C",
"[ 	c #EF802E",
"] 	c #FBA841",
"^ 	c #F49034",
"_ 	c #E16E25",
"` 	c #E17126",
"a 	c #EF7D2B",
"b 	c #D46220",
"c 	c #DF6F25",
"d 	c #973912",
"e 	c #983811",
"f 	c #72260B",
"g 	c #832C0D",
"h 	c #66241F",
"i 	c #9B3D16",
"j 	c #A43F15",
"k 	c #A03F15",
"l 	c #D76522",
"m 	c #B14918",
"n 	c #AD4416",
"o 	c #D66322",
"p 	c #DB6B25",
"q 	c #C4551C",
"r 	c #B84A18",
"s 	c #DE7028",
"t 	c #FFB94B",
"u 	c #FCA540",
"v 	c #F69839",
"w 	c #F18B32",
"x 	c #BD521B",
"y 	c #CC5A1D",
"z 	c #D96521",
"{ 	c #C9571C",
"| 	c #C1531A",
"} 	c #913711",
"~ 	c #601E08",
" !	c #320E04",
"!!	c #562333",
"#!	c #9F3E16",
"$!	c #BC4E19",
"%!	c #A13F15",
"&!	c #B64C19",
"'!	c #7B2F11",
"(!	c #471609",
")!	c #8F3612",
"*!	c #E57529",
"+!	c #FD9738",
",!	c #F08730",
"-!	c #DD6C24",
".!	c #DF6D25",
"0!	c #F79B3B",
"1!	c #F79738",
"2!	c #E87A2A",
"3!	c #ED812D",
"4!	c #DE6D24",
"5!	c #E06F25",
"6!	c #BC5019",
"7!	c #FDA03C",
"8!	c #FFA63F",
"9!	c #FFA53F",
":!	c #DC6B24",
";!	c #7C2C0D",
"<!	c #230A03",
"=!	c #431A39",
">!	c #5C1F0B",
"?!	c #843010",
"@!	c #551C0A",
"A!	c #993F16",
"B!	c #9F3D14",
"C!	c #5B210D",
"D!	c #4D1A0A",
"E!	c #993A13",
"F!	c #BD4F1A",
"G!	c #E16F26",
"H!	c #ED7D2C",
"I!	c #E7792A",
"J!	c #FFC756",
"K!	c #F6993A",
"L!	c #DF6E25",
"M!	c #D76320",
"N!	c #D86622",
"O!	c #F59537",
"P!	c #F18D33",
"Q!	c #A64013",
"R!	c #E17327",
"S!	c #C7581C",
"T!	c #CE5E1E",
"U!	c #C34E18",
"V!	c #BA4E19",
"W!	c #5A1D08",
"X!	c #190709",
"Y!	c #41151C",
"Z!	c #863313",
"[!	c #76280D",
"]!	c #CF5E20",
"^!	c #C1571E",
"_!	c #F59036",
"`!	c #A34317",
"a!	c #BE501B",
"b!	c #8B3512",
"c!	c #782A0E",
"d!	c #75280E",
"e!	c #943611",
"f!	c #9F3C13",
"g!	c #9C3912",
"h!	c #F69336",
"i!	c #F48F34",
"j!	c #F79336",
"k!	c #FAA33E",
"l!	c #FFBB4C",
"m!	c #EF842F",
"n!	c #D66421",
"o!	c #FBA23D",
"p!	c #FBA43F",
"q!	c #DF6D24",
"r!	c #F88830",
"s!	c #B64A17",
"t!	c #3A1309",
"u!	c #913914",
"v!	c #E36D25",
"w!	c #B04C1B",
"x!	c #EE802F",
"y!	c #C7591F",
"z!	c #DD6825",
"{!	c #A84116",
"|!	c #732A0F",
"}!	c #250D06",
"~!	c #180804",
" #	c #110604",
"!#	c #3B1307",
"##	c #6D250C",
"$#	c #6E240B",
"%#	c #F38B32",
"&#	c #E47126",
"'#	c #E97B2B",
"(#	c #D66522",
")#	c #FFB246",
"*#	c #FFC553",
"+#	c #F59035",
",#	c #D76521",
"-#	c #CD5A1D",
".#	c #F08A32",
"0#	c #FFCB58",
"1#	c #F28E33",
"2#	c #F38830",
"3#	c #A63F13",
"4#	c #3A1106",
"5#	c #2B0E0A",
"6#	c #48190A",
"7#	c #983E16",
"8#	c #C95B21",
"9#	c #B24C1B",
":#	c #983913",
";#	c #B94D1A",
"<#	c #6B260E",
"=#	c #210B06",
">#	c #0C0605",
"?#	c #090504",
"@#	c #0B0604",
"A#	c #2F1006",
"B#	c #4C1909",
"C#	c #591E09",
"D#	c #A94215",
"E#	c #C6571D",
"F#	c #B14516",
"G#	c #7C2B0E",
"H#	c #7E2A0D",
"I#	c #E77E2C",
"J#	c #FD9939",
"K#	c #F58B31",
"L#	c #C2521A",
"M#	c #AE4315",
"N#	c #C4531A",
"O#	c #F69537",
"P#	c #F48D32",
"Q#	c #F38C32",
"R#	c #B54917",
"S#	c #73290C",
"T#	c #601F09",
"U#	c #441614",
"V#	c #020933",
"W#	c #4F1D0C",
"X#	c #772D11",
"Y#	c #AD4619",
"Z#	c #762D11",
"[#	c #68250E",
"]#	c #66240D",
"^#	c #491B0B",
"_#	c #180906",
"`#	c #0E0706",
"a#	c #0E0705",
"b#	c #0C0604",
"c#	c #1F0B06",
"d#	c #B24917",
"e#	c #C7561C",
"f#	c #A74216",
"g#	c #8B3210",
"h#	c #61200A",
"i#	c #360E05",
"j#	c #4C1708",
"k#	c #A34316",
"l#	c #FC9536",
"m#	c #CD5D1E",
"n#	c #AA4214",
"o#	c #A33E13",
"p#	c #E87829",
"q#	c #F58E33",
"r#	c #EE832E",
"s#	c #EB7829",
"t#	c #E07026",
"u#	c #913610",
"v#	c #63210A",
"w#	c #25100B",
"x#	c #6C280F",
"y#	c #742C11",
"z#	c #521D0C",
"{#	c #62230E",
"|#	c #321309",
"}#	c #331309",
"~#	c #190B07",
" $	c #1F0D07",
"!$	c #0F0806",
"#$	c #130906",
"$$	c #351308",
"%$	c #4E1B0A",
"&$	c #933813",
"'$	c #E46F26",
"($	c #BE511B",
")$	c #A44015",
"*$	c #61220B",
"+$	c #2D0E06",
",$	c #3A1206",
"-$	c #461607",
".$	c #551908",
"0$	c #BC511B",
"1$	c #BD4E18",
"2$	c #9A3A12",
"3$	c #7C2A0D",
"4$	c #BD511A",
"5$	c #F58D33",
"6$	c #FFA740",
"7$	c #F69C3B",
"8$	c #B34C19",
"9$	c #8B2F0E",
":$	c #802D0D",
";$	c #4B1908",
"<$	c #100B17",
"=$	c #220E08",
">$	c #4C1C0C",
"?$	c #8C3513",
"@$	c #792D11",
"A$	c #56200D",
"B$	c #40180B",
"C$	c #160A07",
"D$	c #1C0C08",
"E$	c #210D07",
"F$	c #250E07",
"G$	c #110806",
"H$	c #6A260E",
"I$	c #903612",
"J$	c #883210",
"K$	c #BC4F1A",
"L$	c #883110",
"M$	c #782B0E",
"N$	c #5F200A",
"O$	c #3A1306",
"P$	c #491808",
"Q$	c #431607",
"R$	c #381106",
"S$	c #3E1306",
"T$	c #5D1F0A",
"U$	c #C0511A",
"V$	c #A44014",
"W$	c #72250B",
"X$	c #EC7C2B",
"Y$	c #EF812C",
"Z$	c #E47628",
"[$	c #8D3410",
"]$	c #6B240B",
"^$	c #933710",
"_$	c #2A110C",
"`$	c #281109",
"a$	c #3C160A",
"b$	c #541E0C",
"c$	c #5A210D",
"d$	c #351309",
"e$	c #351409",
"f$	c #331308",
"g$	c #481A0B",
"h$	c #2D1209",
"i$	c #381408",
"j$	c #5F220C",
"k$	c #5D210B",
"l$	c #3E1508",
"m$	c #5F210B",
"n$	c #71270D",
"o$	c #451708",
"p$	c #531C09",
"q$	c #521C09",
"r$	c #581E0A",
"s$	c #4F1A09",
"t$	c #531C0A",
"u$	c #361106",
"v$	c #4C1808",
"w$	c #AA4416",
"x$	c #792A0D",
"y$	c #421407",
"z$	c #5D1C08",
"{$	c #E16B23",
"|$	c #EC7E2B",
"}$	c #C3521A",
"~$	c #531A08",
" %	c #3F1406",
"!%	c #2C120A",
"#%	c #31130A",
"$%	c #34140A",
"%%	c #62240E",
"&%	c #3A150A",
"'%	c #3D170A",
"(%	c #371509",
")%	c #3E170A",
"*%	c #43180A",
"+%	c #45190A",
",%	c #571F0B",
"-%	c #3C1408",
".%	c #3F1508",
"0%	c #371307",
"1%	c #60210B",
"2%	c #4D1B09",
"3%	c #762A0E",
"4%	c #75290D",
"5%	c #61210B",
"6%	c #441708",
"7%	c #84300F",
"8%	c #A33E14",
"9%	c #C5541B",
":%	c #6C240B",
";%	c #2D0E05",
"<%	c #330E05",
"=%	c #8A3210",
">%	c #E27729",
"?%	c #FFBF4D",
"@%	c #E27227",
"A%	c #551A08",
"B%	c #240A03",
"C%	c #2B1209",
"D%	c #5A210E",
"E%	c #6F290F",
"F%	c #843112",
"G%	c #451A0B",
"H%	c #461A0B",
"I%	c #4A1B0B",
"J%	c #341409",
"K%	c #531D0B",
"L%	c #893311",
"M%	c #65240C",
"N%	c #64230C",
"O%	c #441809",
"P%	c #742A0F",
"Q%	c #511B09",
"R%	c #431608",
"S%	c #511B0A",
"T%	c #7B2B0E",
"U%	c #B24817",
"V%	c #DE6B24",
"W%	c #76290D",
"X%	c #481708",
"Y%	c #561C09",
"Z%	c #812B0D",
"[%	c #9E3C12",
"]%	c #EE852F",
"^%	c #DF6C24",
"_%	c #7A2E0E",
"`%	c #471506",
"a%	c #37150A",
"b%	c #521E0C",
"c%	c #4E1E0D",
"d%	c #8A3513",
"e%	c #A54217",
"f%	c #813012",
"g%	c #4C1B0C",
"h%	c #270F08",
"i%	c #69260E",
"j%	c #61230E",
"k%	c #4E1C0C",
"l%	c #7D2F11",
"m%	c #BD4F1B",
"n%	c #C6561D",
"o%	c #923712",
"p%	c #7E2E0F",
"q%	c #66230C",
"r%	c #67240C",
"s%	c #772A0F",
"t%	c #5F200B",
"u%	c #60200B",
"v%	c #A23F14",
"w%	c #67230C",
"x%	c #B24717",
"y%	c #B14616",
"z%	c #B04616",
"{%	c #E57327",
"|%	c #6D2910",
"}%	c #9F4118",
"~%	c #983A14",
" &	c #C8591F",
"!&	c #A03E15",
"#&	c #6B260F",
"$&	c #69260F",
"%&	c #833112",
"&&	c #AA4418",
"'&	c #893413",
"(&	c #62220D",
")&	c #7B2E10",
"*&	c #C1541C",
"+&	c #C6561C",
",&	c #B74C18",
"-&	c #9B3B13",
".&	c #893310",
"0&	c #C5561D",
"1&	c #B74D1A",
"2&	c #993B14",
"3&	c #8F3512",
"4&	c #7C2C0E",
"5&	c #8D3310",
"6&	c #CC5B1F",
"7&	c #BB4D18",
"8&	c #391106",
"9&	c #AB4415",
":&	c #983A12",
";&	c #90320F",
"<&	c #8A310F",
"=&	c #963C13",
">&	c #401004",
"?&	c #69250E",
"@&	c #B14B1B",
"A&	c #A23F16",
"B&	c #AB4518",
"C&	c #EA7C2D",
"D&	c #D36323",
"E&	c #AA4318",
"F&	c #963A15",
"G&	c #823112",
"H&	c #66260F",
"I&	c #70290F",
"J&	c #7D2E10",
"K&	c #D26221",
"L&	c #B94C19",
"M&	c #BC4F1B",
"N&	c #BF521B",
"O&	c #B74C19",
"P&	c #B94D19",
"Q&	c #A33F15",
"R&	c #9E3D14",
"S&	c #C2541C",
"T&	c #C5551C",
"U&	c #B64B18",
"V&	c #D86421",
"W&	c #481808",
"X&	c #C1521B",
"Y&	c #DB6823",
"Z&	c #D16020",
"[&	c #FFA03C",
"]&	c #FD9737",
"^&	c #A74315",
"_&	c #3A170B",
"`&	c #F08230",
"a&	c #CD6123",
"b&	c #FFB349",
"c&	c #FFAB44",
"d&	c #B7511E",
"e&	c #5E210E",
"f&	c #782C10",
"g&	c #64240E",
"h&	c #E06E26",
"i&	c #FB9C3A",
"j&	c #BF541C",
"k&	c #A84316",
"l&	c #CC5D1F",
"m&	c #9F3F15",
"n&	c #873110",
"o&	c #943712",
"p&	c #A13F14",
"q&	c #C0531C",
"r&	c #B14818",
"s&	c #D56422",
"t&	c #E77629",
"u&	c #E26F26",
"v&	c #913611",
"w&	c #65220B",
"x&	c #BA4C19",
"y&	c #D15C1E",
"z&	c #E87527",
"{&	c #923812",
"|&	c #290803",
"}&	c #3C140B",
"~&	c #DD6A26",
" '	c #CE5B20",
"!'	c #C4561E",
"#'	c #E8792C",
"$'	c #E37329",
"%'	c #D05E21",
"&'	c #59200D",
"''	c #32130A",
"('	c #65250E",
")'	c #4E1B0B",
"*'	c #843011",
"+'	c #C7561D",
",'	c #DF6F27",
"-'	c #B74A18",
".'	c #A03E14",
"0'	c #A24015",
"1'	c #8C3411",
"2'	c #A34015",
"3'	c #CE5F20",
"4'	c #B54B19",
"5'	c #BF511B",
"6'	c #782A0D",
"7'	c #822E0F",
"8'	c #802D0E",
"9'	c #AF4616",
":'	c #E77729",
";'	c #782B0D",
"<'	c #000017",
"='	c #64260F",
">'	c #8A3412",
"?'	c #CC5F21",
"@'	c #D05D20",
"A'	c #E27229",
"B'	c #501C0C",
"C'	c #722A10",
"D'	c #5F220D",
"E'	c #9E3D15",
"F'	c #DD6924",
"G'	c #EC792A",
"H'	c #A74316",
"I'	c #60200A",
"J'	c #AE4817",
"K'	c #E87629",
"L'	c #E37328",
"M'	c #D86723",
"N'	c #E06F27",
"O'	c #F48A31",
"P'	c #AF4818",
"Q'	c #D76623",
"R'	c #A44216",
"S'	c #64210B",
"T'	c #461507",
"U'	c #A54115",
"V'	c #A33F14",
"W'	c #A94114",
"X'	c #5B220B",
"Y'	c #2C0C04",
"Z'	c #0D0707",
"['	c #7B2E11",
"]'	c #8B3312",
"^'	c #7E2F11",
"_'	c #C0541D",
"`'	c #FE8F35",
"a'	c #782F12",
"b'	c #2B1009",
"c'	c #471A0C",
"d'	c #7D2E11",
"e'	c #47190A",
"f'	c #893412",
"g'	c #DA6924",
"h'	c #DB6C25",
"i'	c #74290D",
"j'	c #D35F20",
"k'	c #E47228",
"l'	c #D26222",
"m'	c #BB4F1A",
"n'	c #AD4516",
"o'	c #B84D19",
"p'	c #EF7F2D",
"q'	c #BF511A",
"r'	c #AD4717",
"s'	c #7A2A0D",
"t'	c #802F0F",
"u'	c #D46120",
"v'	c #772A0D",
"w'	c #1D0803",
"x'	c #0B0302",
"y'	c #60240E",
"z'	c #5D1F0B",
"{'	c #913713",
"|'	c #E27128",
"}'	c #742B10",
"~'	c #41180B",
" (	c #521E0D",
"!(	c #A23F15",
"#(	c #8C3512",
"$(	c #7E2E10",
"%(	c #6C260D",
"&(	c #62200A",
"'(	c #9D3D14",
"((	c #8F3713",
")(	c #883312",
"*(	c #9D3D15",
"+(	c #9A3B14",
",(	c #DC6E26",
"-(	c #9F3E14",
".(	c #9B3C13",
"0(	c #923611",
"1(	c #7C2E0F",
"2(	c #CB5A1D",
"3(	c #C4561C",
"4(	c #A73F13",
"5(	c #72270C",
"6(	c #0F0502",
"7(	c #38191A",
"8(	c #AF481A",
"9(	c #7A2D10",
":(	c #76290E",
";(	c #842F11",
"<(	c #883614",
"=(	c #3B140A",
">(	c #2E1109",
"?(	c #3F160A",
"@(	c #9B3C15",
"A(	c #9D3C14",
"B(	c #D05E20",
"C(	c #E06F26",
"D(	c #AE4617",
"E(	c #7E2D10",
"F(	c #863111",
"G(	c #772B0F",
"H(	c #863110",
"I(	c #8B3613",
"J(	c #6C240C",
"K(	c #752A0F",
"L(	c #5B1F0B",
"M(	c #581C09",
"N(	c #872E0E",
"O(	c #A04316",
"P(	c #F0862F",
"Q(	c #CF5E1F",
"R(	c #431707",
"S(	c #0F0503",
"T(	c #59220F",
"U(	c #6D280F",
"V(	c #5F210C",
"W(	c #DC6D27",
"X(	c #61240E",
"Y(	c #541E0D",
"Z(	c #722B11",
"[(	c #7F2E10",
"](	c #813111",
"^(	c #E27429",
"_(	c #F89236",
"`(	c #B14B19",
"a(	c #B64D1A",
"b(	c #B9501B",
"c(	c #E27228",
"d(	c #E8782A",
"e(	c #BD531D",
"f(	c #4A190A",
"g(	c #411608",
"h(	c #62210A",
"i(	c #F59738",
"j(	c #D76622",
"k(	c #8E310E",
"l(	c #1E0803",
"m(	c #2C100E",
"n(	c #4C1C0B",
"o(	c #270E07",
"p(	c #481A0A",
"q(	c #C4541D",
"r(	c #B44C1A",
"s(	c #DD6B26",
"t(	c #DF7028",
"u(	c #8E3815",
"v(	c #73290F",
"w(	c #6E260E",
"x(	c #8D3712",
"y(	c #C9591E",
"z(	c #B94E1A",
"{(	c #9D3F16",
"|(	c #BA501B",
"}(	c #DA6723",
"~(	c #67260E",
" )	c #832F0F",
"!)	c #8F3310",
"#)	c #A13D13",
"$)	c #FD9235",
"%)	c #EC7F2C",
"&)	c #8A3310",
"')	c #110503",
"()	c #501E0C",
"))	c #A24217",
"*)	c #AA4317",
"+)	c #C95B20",
",)	c #F1822F",
"-)	c #DF7128",
".)	c #C3561E",
"0)	c #CE5E21",
"1)	c #CA5D21",
"2)	c #74290F",
"3)	c #853010",
"4)	c #BE501A",
"5)	c #B9501C",
"6)	c #F18832",
"7)	c #FC9437",
"8)	c #F08B34",
"9)	c #963B15",
":)	c #3A1308",
";)	c #D56120",
"<)	c #DB6C24",
"=)	c #401306",
">)	c #160A08",
"?)	c #54200D",
"@)	c #8E3714",
"A)	c #69270F",
"B)	c #7A2C10",
"C)	c #B04718",
"D)	c #D46523",
"E)	c #933914",
"F)	c #C5581E",
"G)	c #B64D1B",
"H)	c #A03D14",
"I)	c #AA4517",
"J)	c #D16121",
"K)	c #C2531C",
"L)	c #EC8231",
"M)	c #F99D3D",
"N)	c #ED8230",
"O)	c #F0802E",
"P)	c #E5772B",
"Q)	c #A9471A",
"R)	c #65210C",
"S)	c #371208",
"T)	c #2F1108",
"U)	c #461709",
"V)	c #72280D",
"W)	c #CC5B1D",
"X)	c #83310F",
"Y)	c #180A06",
"Z)	c #57210E",
"[)	c #BD501C",
"])	c #D26022",
"^)	c #C4571E",
"_)	c #F2832F",
"`)	c #ED802E",
"a)	c #EC812F",
"b)	c #F89839",
"c)	c #F99437",
"d)	c #E1742A",
"e)	c #DA6825",
"f)	c #D26524",
"g)	c #EA7A2C",
"h)	c #C1571F",
"i)	c #752C10",
"j)	c #4D1A0B",
"k)	c #491A0B",
"l)	c #46190A",
"m)	c #B14717",
"n)	c #421708",
"o)	c #160906",
"p)	c #2A1109",
"q)	c #3B160B",
"r)	c #501D0C",
"s)	c #A64318",
"t)	c #772D10",
"u)	c #6E260D",
"v)	c #853110",
"w)	c #F69437",
"x)	c #F69438",
"y)	c #FFAA43",
"z)	c #D76825",
"{)	c #AF4719",
"|)	c #983D16",
"})	c #63240E",
"~)	c #60210D",
" *	c #60230E",
"!*	c #833212",
"#*	c #923813",
"$*	c #AE4718",
"%*	c #8C3410",
"&*	c #2D1006",
"'*	c #080403",
"(*	c #1D0D08",
")*	c #2E1209",
"**	c #260F08",
"+*	c #441A0B",
",*	c #45180A",
"-*	c #41170A",
".*	c #C1531C",
"0*	c #CB5A1F",
"1*	c #CB5B1F",
"2*	c #F79538",
"3*	c #C4591F",
"4*	c #963814",
"5*	c #913814",
"6*	c #C2561E",
"7*	c #B54B1A",
"8*	c #8D3613",
"9*	c #722C10",
":*	c #C85A1F",
";*	c #A43F14",
"<*	c #521B08",
"=*	c #260D05",
">*	c #150905",
"?*	c #140906",
"@*	c #431809",
"A*	c #371308",
"B*	c #391409",
"C*	c #3D1509",
"D*	c #471709",
"E*	c #63220C",
"F*	c #9D3B14",
"G*	c #E17329",
"H*	c #FB8E35",
"I*	c #A14318",
"J*	c #8E3613",
"K*	c #BB501C",
"L*	c #A74317",
"M*	c #6E270D",
"N*	c #5A200B",
"O*	c #A64116",
"P*	c #3A1509",
"Q*	c #2A1008",
"R*	c #341308",
"S*	c #4B1B0B",
"T*	c #4E1D0C",
"U*	c #521C0A",
"V*	c #7B2C10",
"W*	c #68250D",
"X*	c #AC4919",
"Y*	c #782A0F",
"Z*	c #7A2D11",
"[*	c #4F1D0B",
"]*	c #491A0A",
"^*	c #1C0B07",
"_*	c #170A0A",
"`*	c #3F1609",
"a*	c #2E1108",
"b*	c #1C0C07",
"c*	c #280F08",
"d*	c #200D07",
"e*	c #190B08",
"f*	c #281008",
"                      # $ % & ' ( ) * +                                 ",
"                    , - . 0 1 2 3 4 5 6 7 8 9 : ; < =                   ",
"                    > ? @ A B C D E F G H I J K L M N O P               ",
"              Q R S T U V W X Y Z [ ] ^ _ ` a b c d e f g +             ",
"            h i j k l m n o p q r s t u v w x y z { b | } ~  !          ",
"          !!#!$!%!&!'!(!)!*!+!,!-!.!0!1!2!3!-!4!5!6!7!8!9!:!;!<!        ",
"        =!>!?!@!A!B!C!D!E!F!G!H!I!u J!K!L!M!N!O!P!Q!R!S!T!U!V!W!X!      ",
"      Y!Z![!]!^!_!`!a!b!c!d!e!f!g!N!h!i!j!3!k!l!m!n!3!o!p!q!r!s!t!      ",
"      u!v!w!x!y!z!{!|!}!~! #!###$#. %#&#'#(#)#*#+#,#-#.#0#1#2#3#4#5#    ",
"      6#7#8#9#:#;#<#=#>#?#@#A#B#C#D#E#F#G#H#I#J#K#L#M#N#O#P#Q#R#S#T#U#  ",
"  V#W#X#Y#Z#[#]#^#_#`#a#>#b#c#C d#e#f#g#h#i#j#k#l#m#n#o#p#q#r#s#t#u#v#  ",
"  w#x#x#y#z#{#|#}#~# $!$#$$$%$&$'$($)$*$+$,$-$.$0$1$2$3$4$5$6$7$8$9$:$;$",
"<$=$>$?$@$A$B$C$D$E$F$G$F$H$I$J$K$L$M$N$O$P$Q$R$S$T$U$V$W$)$X$Y$Z$[$]$^$",
"_$`$a$W#b$c$d$e$=$f$g$h$i$j$k$l$m$n$o$p$q$r$s$t$u$v$w$x$y$z$e#{$|$}$~$ %",
"!%#%$%W#%%C!&%'%(%)%*%^#+%,%-%.%0%1%2%3%4%5%q$6%7%8%9%:%;%<%=%>%?%@%A%B%",
"C%D%B$^#E%F%^#G%H%I%I%J%K%L%M%N%O%P%L%c!Q%9 R%S%T%U%V%W%X%Y%Z%[%]%^%_%`%",
"a%b%c%d%e%f%g%h%d$i%j%k%l%m%n%o%p%C q%r%]#s%t%C u%%!5 v%:%w%x%y%z%I 2#{%",
"X#|%}%~% &!&#&$&%&&&'&c$(&)&*&+&,&-&.&0&1&2&3&d 4&5&6&7&]$8&9&:&;&<&=&>&",
"?&@&A&B&C&D&E&F&G&H&I&|!J&*&K&L&M&N&O&P&Q&R&S&T&U&S&G!V&E!W&X&Y&Z&[&]&^&",
"_&`&9#a&b&c&d&e&R >$f&g&A h&i&j&k&l&m&n&o&p&]!q&r&s&t&u&v&w&x&l y&z&{&|&",
"}&~& '!'#'$'%'&''')%(')'*'+','-'W%7%.'=%0'1'2'3'U%4'S&5'6'X%7'8'9':';'  ",
"<'='B&>'?'@'A'B'=$g$C'D'E'F'G'H'I'J'K'L'u&M'N'O'P'&!Q'R'S'T'U'V'W'X'Y'  ",
"  Z'[']'^'_'`'a'b'c'd'e'f'g'h'i'4%j'k'l'm'n'o'p'q']!r's'd t'u'+&v'w'x'  ",
"    y'S z'{'|'}'a$~' (g$!(#($(%(&('((()(*(+(L%,(-(.(0(1(z 2(3(4(5(6(    ",
"  7(8(9()':(2&;(<(=(>(?(@(A(B(C(!(D(D(E(F(G(H(I(J(K(L(M(N(O(P(Q(R(S(    ",
"    T(U(*%V(z'I(W(X(Y(Z([(](^(_(`(.'a($&b(c(d(d(e(f(g(h(k i(j(k(l(      ",
"    m(n(f$o(p(+(q(r(s(t(u(v(w(x(y(z(A&{(#'g'|(n%}(~( )!)#)$)%)&)')      ",
"      )%6#()))*)+),)-).)0)1)2)3)4)q 5)!'6)7)8)9)i%:)S%N$;)<)_%=)        ",
"      >)?)@)A)B)C)D)E)F)G)H)I)J)K)L)M)N)O)P)Q)R)S)T)U)V)W)X)<&=         ",
"        Y)Z)^#()[)])^)_)`)a)b)c)d)e)f)g)h)i)j)k)d$o(l)U'm)Y%n)          ",
"        o)p)q)r)s)t)u)v)q&w)c)x)y)z){)|)})~) *%%!*#*$*%*d &*'*          ",
"          (*)***+*b$,*-*.**&0*1*2*3*4*5*6*7*8*9*:*p&;*<*=*              ",
"            >*?*@*A*B*C*b%D*E*F*G*H*I*J*K*L*o%M*N*m$O*P*                ",
"                ~#Q*R*S*T**%U*V*W*X*Y*Z*[*K%N*U*]*^*                    ",
"                    _*`*$$F$a*|#o(b*c*'%d*=$e*f*                        ",
"                                                                        "};