/* XPM */ 
static const char * redflag_xpm[] = {
"32 32 318 2",
"  	c None",
"! 	c black",
"# 	c #121212",
"$ 	c #3E3E3E",
"% 	c #343434",
"& 	c #423E3E",
"' 	c #303030",
"( 	c #7A3434",
") 	c #D13535",
"* 	c #D40404",
"+ 	c #DC0000",
", 	c #313131",
"- 	c #7A2222",
". 	c #BB1414",
"0 	c #C41616",
"1 	c #CD0F0F",
"2 	c #D10A0A",
"3 	c #771F1F",
"4 	c #A80000",
"5 	c #9B0000",
"6 	c #9E0404",
"7 	c #B20B0B",
"8 	c #C71919",
"9 	c #D30909",
": 	c #C70000",
"; 	c #7B1F1F",
"< 	c #B50000",
"= 	c #A70000",
"> 	c #910000",
"? 	c #7F0101",
"@ 	c #840303",
"A 	c #9E0606",
"B 	c #B40303",
"C 	c #BF1414",
"D 	c #B30C0C",
"E 	c #7C1E1E",
"F 	c #BC0101",
"G 	c #B70000",
"H 	c #AD0101",
"I 	c #880504",
"J 	c #6F0504",
"K 	c #690000",
"L 	c #660000",
"M 	c #850A0A",
"N 	c #A20B0B",
"O 	c #B60A0A",
"P 	c #CE0707",
"Q 	c #DB0000",
"R 	c #D30000",
"S 	c #7D1F1F",
"T 	c #BD0101",
"U 	c #BA0000",
"V 	c #AF0303",
"W 	c #73140F",
"X 	c #561510",
"Y 	c #6A0B0A",
"Z 	c #740303",
"[ 	c #5E0000",
"] 	c #530000",
"^ 	c #650101",
"_ 	c #8C0505",
"` 	c #B31313",
"a 	c #C10C0C",
"b 	c #B90303",
"c 	c #9E0101",
"d 	c #323232",
"e 	c #7F2020",
"f 	c #C00101",
"g 	c #BF0202",
"h 	c #AD0807",
"i 	c #6A2018",
"j 	c #472017",
"k 	c #3A1D19",
"l 	c #5A1F1E",
"m 	c #790F0F",
"n 	c #7B0303",
"o 	c #630100",
"p 	c #4D0201",
"q 	c #470504",
"r 	c #5A0605",
"s 	c #7F0404",
"t 	c #8A0605",
"u 	c #A30808",
"v 	c #C60404",
"w 	c #DA0000",
"x 	c #7C2020",
"y 	c #B80000",
"z 	c #B40101",
"{ 	c #9B0807",
"| 	c #591C16",
"} 	c #42211A",
"~ 	c #382019",
" !	c #342521",
"!!	c #44201D",
"#!	c #5D1716",
"$!	c #750D0D",
"%!	c #7B0505",
"&!	c #640908",
"'!	c #401310",
"(!	c #530A09",
")!	c #740202",
"*!	c #850000",
"+!	c #8B0000",
",!	c #9E0000",
"-!	c #C20000",
".!	c #AE0000",
"0!	c #7E1F1F",
"1!	c #B20000",
"2!	c #A50303",
"3!	c #840B09",
"4!	c #691913",
"5!	c #54231B",
"6!	c #3E241C",
"7!	c #482118",
"8!	c #49251E",
"9!	c #48221E",
":!	c #511C1A",
";!	c #521D1A",
"<!	c #452D27",
"=!	c #601613",
">!	c #770605",
"?!	c #850202",
"@!	c #8B0202",
"A!	c #800000",
"B!	c #7C0000",
"C!	c #880000",
"D!	c #A50000",
"E!	c #801F1F",
"F!	c #C00000",
"G!	c #BF0000",
"H!	c #BC0000",
"I!	c #B70101",
"J!	c #A90403",
"K!	c #830F0C",
"L!	c #571914",
"M!	c #551B15",
"N!	c #5F231C",
"O!	c #59251D",
"P!	c #48221C",
"Q!	c #322621",
"R!	c #2E3029",
"S!	c #382521",
"T!	c #4C1C1B",
"U!	c #561716",
"V!	c #4D1615",
"W!	c #621110",
"X!	c #7A0807",
"Y!	c #6F0101",
"Z!	c #790000",
"[!	c #7F1F1F",
"]!	c #BE0000",
"^!	c #BE0101",
"_!	c #B90202",
"`!	c #A60605",
"a!	c #9E0806",
"b!	c #9F0807",
"c!	c #960A08",
"d!	c #7D100E",
"e!	c #48201C",
"f!	c #322D28",
"g!	c #38211C",
"h!	c #42211B",
"i!	c #45231D",
"j!	c #41211A",
"k!	c #361B15",
"l!	c #261613",
"m!	c #590B09",
"n!	c #870000",
"o!	c #BB0000",
"p!	c #BB0101",
"q!	c #B90101",
"r!	c #9E0505",
"s!	c #541F1A",
"t!	c #3A352E",
"u!	c #431E1A",
"v!	c #60100E",
"w!	c #5C1410",
"x!	c #4B1913",
"y!	c #381710",
"z!	c #351711",
"{!	c #321711",
"|!	c #5D0A08",
"}!	c #620101",
"~!	c #4C0000",
" #	c #450000",
"!#	c #822323",
"##	c #C70101",
"$#	c #C30000",
"%#	c #BA0101",
"&#	c #B90000",
"'#	c #BB0202",
"(#	c #AE0202",
")#	c #7D100D",
"*#	c #4D211D",
"+#	c #611411",
",#	c #890504",
"-#	c #870101",
".#	c #730504",
"0#	c #570806",
"1#	c #530B09",
"2#	c #550B08",
"3#	c #440806",
"4#	c #260403",
"5#	c #020000",
"6#	c #353535",
"7#	c #812626",
"8#	c #C10808",
"9#	c #C80202",
":#	c #CD0000",
";#	c #C80101",
"<#	c #C30404",
"=#	c #BF0505",
">#	c #BA0202",
"?#	c #B30101",
"@#	c #9B0908",
"A#	c #751411",
"B#	c #940504",
"C#	c #A00000",
"D#	c #9C0000",
"E#	c #860101",
"F#	c #7C0101",
"G#	c #730101",
"H#	c #530101",
"I#	c #1B0000",
"J#	c #7B2121",
"K#	c #AF0000",
"L#	c #AF0101",
"M#	c #CA0101",
"N#	c #D00101",
"O#	c #CF0202",
"P#	c #CD0808",
"Q#	c #C90C0C",
"R#	c #C70E0E",
"S#	c #C51414",
"T#	c #BE1212",
"U#	c #A61211",
"V#	c #91100E",
"W#	c #A70202",
"X#	c #A30000",
"Y#	c #860000",
"Z#	c #810000",
"[#	c #6F0000",
"]#	c #540000",
"^#	c #630000",
"_#	c #5E3030",
"`#	c #990000",
"a#	c #C20505",
"b#	c #D00B0B",
"c#	c #D30101",
"d#	c #D20303",
"e#	c #D00A0A",
"f#	c #CD1B1B",
"g#	c #C13030",
"h#	c #B62B2B",
"i#	c #BB1212",
"j#	c #B50404",
"k#	c #B10101",
"l#	c #A40000",
"m#	c #960000",
"n#	c #750000",
"o#	c #7E0000",
"p#	c #840000",
"q#	c #8E0000",
"r#	c #333333",
"s#	c #3F3F3F",
"t#	c #BC0B0B",
"u#	c #D02020",
"v#	c #D40101",
"w#	c #D80000",
"x#	c #D50000",
"y#	c #CD1616",
"z#	c #D33D3D",
"{#	c #D34848",
"|#	c #C72626",
"}#	c #BE0D0D",
"~#	c #BA0606",
" $	c #B60101",
"!$	c #9D0000",
"#$	c #820000",
"$$	c #6C0000",
"%$	c #600000",
"&$	c #520000",
"'$	c #D40000",
"($	c #CE0101",
")$	c #CD0C0C",
"*$	c #D02323",
"+$	c #D53D3D",
",$	c #D23C3C",
"-$	c #C82424",
".$	c #C11010",
"0$	c #BB0505",
"1$	c #B80101",
"2$	c #B30000",
"3$	c #AB0000",
"4$	c #720000",
"5$	c #404040",
"6$	c #CD1818",
"7$	c #D02222",
"8$	c #CF1B1B",
"9$	c #CF1818",
":$	c #CE1E1E",
";$	c #C91A1A",
"<$	c #C30F0F",
"=$	c #BC0303",
">$	c #B00000",
"?$	c #950000",
"@$	c #920000",
"A$	c #CB1717",
"B$	c #C70F0F",
"C$	c #C20303",
"D$	c #BF0101",
"E$	c #B40000",
"F$	c #AD0000",
"G$	c #C40000",
"H$	c #2F2F2F",
"I$	c #3B3B3B",
"J$	c #191919",
"K$	c #252525",
"        # $                                                     ",
"        % &                                                     ",
"        ' ( ) * +                                               ",
"        , - . 0 1 2 +                                           ",
"        , 3 4 5 6 7 8 9 :                                       ",
"        , ; < = > ? @ A B C D                                   ",
"        ' E F G H I J K L M N O P Q R                           ",
"        , S T U V W X Y Z [ ] ^ _ ` a b c                       ",
"        d e f g h i j k l m n o p q r s t u v w                 ",
"        d x y z { | } ~  !!!#!$!%!&!'!(!)!*!+!,!-!.!            ",
"        d 0!U 1!2!3!4!5!6!7!8!9!:!;!<!=!>!?!@!A!B!C!D!          ",
"        d E!F!G!H!I!J!K!L!M!N!O!P!Q!R!S!T!U!V!W!X!Y!Z!1!w       ",
"        d [!]!]!G!G!^!_!`!a!b!c!d!e!f!g!h!i!j!k!l!m!? n!1!5     ",
"        d 0!]!H!o!o!H!F p!q!q!z r!s!t!u!v!w!x!y!z!{!|!}!~! #    ",
"        % !#v ##$#G!%#&#q!p!'#_!(#)#*#+#,#-#.#0#1#2#3#4#5#      ",
"        6#7#8#9#:#:#;#<#=#'#>#G ?#@#A#B#C#D#> E#? F#G#H#I#      ",
"        6#J#K#L#F M#N#O#P#Q#R#S#T#U#V#W#4 X#5 > Y#Z#C!C![#]#^#  ",
"        % _#D!`#D#L#a#b#c#c#d#e#f#g#h#i#j#k#H l#m#Z#n#o#C!p#q#  ",
"        r#s#      X#t#u#v#w#w#x#O#y#z#{#|#}#~# $.!!$#$$$%$%$&$  ",
"        d s#                w '$($)$*$+$,$-$.$0$1$2$3$D#Y#4$    ",
"        r#5$                      6$7$8$9$:$;$<$=$y < >$l#?$@$  ",
"        r#s#                                A$B$C$D$H!o!U E$F$  ",
"        d 5$                                          -!$#G$    ",
"        r#5$                                                    ",
"        d s#                                                    ",
"        d s#                                                    ",
"        r#5$                                                    ",
"        r#5$                                                    ",
"        d s#                                                    ",
"        , $                                                     ",
"        H$I$                                                    ",
"        J$K$                                                    "};