/* XPM */ 
static const char * stone_xpm[] = {
"32 32 671 2",
"      c None",
"!     c #F1EBEB",
"#     c #F5EFF1",
"$     c #F0ECED",
"%     c #E9E5E6",
"&     c #E8E4E7",
"'     c #E0DCDE",
"(     c #D8D4D5",
")     c #DAD4D3",
"*     c #D7D0CE",
"+     c #DED7D6",
",     c #DDD7D5",
"-     c #E1DADA",
".     c #E1DCDD",
"0     c #DCD7D5",
"1     c #D7D0CF",
"2     c #A5A1A0",
"3     c #EFE9E9",
"4     c #F3EDEF",
"5     c #E9E5E8",
"6     c #DEDADB",
"7     c #DCD6D5",
"8     c #D9D2D0",
"9     c #DCD5D5",
":     c #E6E1E2",
";     c #D8D3D1",
"<     c #D4CDCC",
"=     c #A6A2A1",
">     c #E7E0DE",
"?     c #EBE5E5",
"@     c #E5E1E3",
"A     c #E4E0E1",
"B     c #E2DFE1",
"C     c #D8D4D6",
"D     c #D8D2D2",
"E     c #DAD3D1",
"F     c #DED7D5",
"G     c #DBD5D3",
"H     c #E0DAD8",
"I     c #E0DBDC",
"J     c #D3CECC",
"K     c #A39E9E",
"L     c #5B5959",
"M     c #EBE4E2",
"N     c #ECE6E6",
"O     c #EBE7E8",
"P     c #E2DEE0",
"Q     c #E0DDDF",
"R     c #D6D2D4",
"S     c #D7D1D1",
"T     c #D4CDCB",
"U     c #DED8D6",
"V     c #DFD9D7",
"W     c #DFDADB",
"X     c #D2CDCB",
"Y     c #A09B9B",
"Z     c #E9E3E3",
"[     c #EAE3E2",
"]     c #D9D3D3",
"^     c #CBC7C8",
"_     c #C6C2C2",
"`     c #C2BDBD",
"a     c #BBB6B7",
"b     c #BBB5B5",
"c     c #BAB6B6",
"d     c #BBB6B6",
"e     c #C4BFC0",
"f     c #C0BCBC",
"g     c #C1BDBF",
"h     c #A7A3A3",
"i     c #585757",
"j     c #545153",
"k     c #E4DDDC",
"l     c #DAD4D4",
"m     c #CDC9CA",
"n     c #CAC6C6",
"o     c #C3BEBE",
"p     c #BFB9B9",
"q     c #BFBBBB",
"r     c #BEB9B9",
"s     c #C1BCBD",
"t     c #C5C1C1",
"u     c #C0BCBE",
"v     c #A4A0A0",
"w     c #565555",
"x     c #E6E1E1",
"y     c #CCC7C7",
"z     c #B0ACAE",
"{     c #B2ACAC",
"|     c #A9A4A3",
"}     c #A39F9E",
"~     c #A29E9E",
" !    c #9F9B9C",
"!!    c #A7A4A6",
"#!    c #A7A5A6",
"$!    c #A8A5A7",
"%!    c #888686",
"&!    c #555353",
"'!    c #EAE5E5",
"(!    c #E4DEDE",
")!    c #C9C4C4",
"*!    c #B2AEB0",
"+!    c #B3ADAD",
",!    c #AEA9A8",
"-!    c #A8A3A2",
".!    c #A29E9D",
"0!    c #A19D9D",
"1!    c #A4A0A1",
"2!    c #A6A3A5",
"3!    c #A8A6A7",
"4!    c #A3A0A2",
"5!    c #858383",
"6!    c #525050",
"7!    c #555454",
"8!    c #E6E0DF",
"9!    c #E1DCD9",
":!    c #C7C1C0",
";!    c #B5B1B1",
"<!    c #B5AFAF",
"=!    c #AAA6A4",
">!    c #9D9B9B",
"?!    c #A09D9E",
"@!    c #A4A1A2",
"A!    c #A6A3A6",
"B!    c #A4A2A3",
"C!    c #878586",
"D!    c #555355",
"E!    c #575657",
"F!    c #E2DCDB",
"G!    c #DED9D6",
"H!    c #CBC5C4",
"I!    c #9F9B9A",
"J!    c #A2A0A0",
"K!    c #A29FA0",
"L!    c #A6A3A4",
"M!    c #A2A0A1",
"N!    c #868485",
"O!    c #535153",
"P!    c #565556",
"Q!    c #DDD5D3",
"R!    c #C7C2C0",
"S!    c #B1ADAD",
"T!    c #B3AFAF",
"U!    c #A9A3A3",
"V!    c #A59F9E",
"W!    c #A49E9D",
"X!    c #9E9999",
"Y!    c #A29EA0",
"Z!    c #A5A2A4",
"[!    c #A4A3A4",
"]!    c #817F7F",
"^!    c #585656",
"_!    c #DCD4D2",
"`!    c #C2BDBB",
"a!    c #B2AEAE",
"b!    c #ACA6A6",
"c!    c #A7A1A0",
"d!    c #A09A99",
"e!    c #9D9898",
"f!    c #9E9A9C",
"g!    c #A29FA1",
"h!    c #A2A1A2",
"i!    c #A4A1A3",
"j!    c #878585",
"k!    c #D8D1D0",
"l!    c #C3BCBB",
"m!    c #ADA8A8",
"n!    c #AFABAB",
"o!    c #A6A09E",
"p!    c #A39C9B",
"q!    c #9C9794",
"r!    c #9E9897",
"s!    c #9E999B",
"t!    c #9E9A9D",
"u!    c #9B9798",
"v!    c #807B7B",
"w!    c #575555",
"x!    c #DAD3D2",
"y!    c #DBD4D3",
"z!    c #BEB7B6",
"{!    c #ACA7A7",
"|!    c #ADA9A9",
"}!    c #AAA4A2",
"~!    c #A49D9C",
" #    c #A19C99",
"!#    c #9F9998",
"##    c #A09B9D",
"$#    c #A19DA0",
"%#    c #9C9899",
"&#    c #858080",
"'#    c #565454",
"(#    c #CFCAC9",
")#    c #C0BAB9",
"*#    c #ACA6A5",
"+#    c #AFABA9",
",#    c #A29D9B",
"-#    c #9E9996",
".#    c #989392",
"0#    c #989494",
"1#    c #9E9B9D",
"2#    c #9F9B9D",
"3#    c #9D9799",
"4#    c #847F7E",
"5#    c #565353",
"6#    c #D2CDCC",
"7#    c #AAA4A3",
"8#    c #AEAAA8",
"9#    c #A6A19E",
":#    c #A19C9A",
";#    c #999491",
"<#    c #969190",
"=#    c #999595",
">#    c #9F9C9E",
"?#    c #9D999B",
"@#    c #9F999B",
"A#    c #807B7A",
"B#    c #575656",
"C#    c #595656",
"D#    c #D4CFCF",
"E#    c #CFCBCB",
"F#    c #B7B2B0",
"G#    c #AAA5A4",
"H#    c #A9A5A4",
"I#    c #A39E99",
"J#    c #999290",
"K#    c #918C89",
"L#    c #989496",
"M#    c #9B9698",
"N#    c #9B9595",
"O#    c #5A5757",
"P#    c #5C5A5A",
"Q#    c #D3CECE",
"R#    c #D0CCCC",
"S#    c #BAB5B3",
"T#    c #A8A4A3",
"U#    c #A09B96",
"V#    c #9D9896",
"W#    c #938E8B",
"X#    c #959193",
"Y#    c #9C9799",
"Z#    c #9D999A",
"[#    c #9D9797",
"]#    c #85807F",
"^#    c #5B5858",
"_#    c #D2CECF",
"`#    c #CBC7C9",
"a#    c #B5B0AF",
"b#    c #A6A29F",
"c#    c #9D9793",
"d#    c #9D9795",
"e#    c #99928F",
"f#    c #958F8D",
"g#    c #9A9696",
"h#    c #9E9A9B",
"i#    c #9B9696",
"j#    c #837F7E",
"k#    c #5B5958",
"l#    c #5E5B5B",
"m#    c #CFCBCD",
"n#    c #B6B1B0",
"o#    c #A39F9C",
"p#    c #9B9591",
"q#    c #958E8B",
"r#    c #96908E",
"s#    c #979393",
"t#    c #9A9697",
"u#    c #9A9595",
"v#    c #827E7D",
"w#    c #5C5A59",
"x#    c #5D5A5A",
"y#    c #D7D3D5",
"z#    c #D1CECF",
"{#    c #B9B5B4",
"|#    c #A49F9C",
"}#    c #98938F",
"~#    c #938C8B",
" $    c #999393",
"!$    c #969393",
"#$    c #999596",
"$$    c #827D7B",
"%$    c #605E5E",
"&$    c #646060",
"'$    c #D1CDCF",
"($    c #CFCCCD",
")$    c #BAB6B5",
"*$    c #A5A09D",
"+$    c #9B9692",
",$    c #989390",
"-$    c #928D8A",
".$    c #968F8E",
"0$    c #969090",
"1$    c #979494",
"2$    c #989495",
"3$    c #949090",
"4$    c #807B79",
"5$    c #615F5F",
"6$    c #5F5B5B",
"7$    c #D5D2D3",
"8$    c #CECBCB",
"9$    c #B7B3B3",
":$    c #A19C9B",
";$    c #A39E9C",
"<$    c #9A9490",
"=$    c #948F8C",
">$    c #8D8885",
"?$    c #8E8786",
"@$    c #938F8E",
"A$    c #908C8C",
"B$    c #959192",
"C$    c #928E8E",
"D$    c #807A79",
"E$    c #646161",
"F$    c #666362",
"G$    c #D0CDCD",
"H$    c #A6A1A0",
"I$    c #A49F9D",
"J$    c #8E8986",
"K$    c #908988",
"L$    c #8F8B8A",
"M$    c #938F8F",
"N$    c #827C7B",
"O$    c #625F5E",
"P$    c #D3D1D2",
"Q$    c #CBC9CA",
"R$    c #B0ABAB",
"S$    c #9A9493",
"T$    c #948F8D",
"U$    c #97908F",
"V$    c #918C8C",
"W$    c #908A8A",
"X$    c #908A89",
"Y$    c #8F8989",
"Z$    c #938F91",
"[$    c #908C8D",
"]$    c #918D8D",
"^$    c #7E7A7A",
"_$    c #686767",
"`$    c #676565",
"a$    c #D5D3D4",
"b$    c #CFCDCE",
"c$    c #B3AEAE",
"d$    c #96918F",
"e$    c #999291",
"f$    c #908B8B",
"g$    c #928C8C",
"h$    c #8F8988",
"i$    c #918D8F",
"j$    c #938F90",
"k$    c #8D8989",
"l$    c #817D7D",
"m$    c #686666",
"n$    c #CFCCCC",
"o$    c #D0CDCE",
"p$    c #949191",
"q$    c #7B7777",
"r$    c #757170",
"s$    c #7A7675",
"t$    c #7A7676",
"u$    c #777373",
"v$    c #747070",
"w$    c #757272",
"x$    c #797677",
"y$    c #7A7878",
"z$    c #767475",
"{$    c #747272",
"|$    c #666361",
"}$    c #6C6A6A",
"~$    c #D4D1D1",
" %    c #CECBCC",
"!%    c #989595",
"#%    c #7B7776",
"$%    c #797575",
"%%    c #737070",
"&%    c #767374",
"'%    c #777575",
"(%    c #797778",
")%    c #706E6E",
"*%    c #6A6765",
"+%    c #979595",
",%    c #413E3E",
"-%    c #403F3F",
".%    c #41403E",
"0%    c #3F3D3C",
"1%    c #3C3B3B",
"2%    c #3E3B3B",
"3%    c #424040",
"4%    c #444242",
"5%    c #4B494B",
"6%    c #484747",
"7%    c #4F4F4F",
"8%    c #5A5857",
"9%    c #686564",
":%    c #D3CFD1",
";%    c #949292",
"<%    c #444141",
"=%    c #3F3E3E",
">%    c #403F3D",
"?%    c #444241",
"@%    c #3E3D3D",
"A%    c #3E3C3C",
"B%    c #4B4A4A",
"C%    c #494949",
"D%    c #5D5B5A",
"E%    c #6C6968",
"F%    c #979394",
"G%    c #424141",
"H%    c #3A3939",
"I%    c #3F3D3D",
"J%    c #3D3C3C",
"K%    c #3F3C3C",
"L%    c #434240",
"M%    c #403F40",
"N%    c #474647",
"O%    c #494849",
"P%    c #4A4949",
"Q%    c #504F50",
"R%    c #434040",
"S%    c #454445",
"T%    c #484748",
"U%    c #4C4B4C",
"V%    c #4B4A4B",
"W%    c #525152",
"X%    c #605D5D",
"Y%    c #F0EAEA",
"Z%    c #F2ECEE",
"[%    c #EAE6E7",
"]%    c #EAE6E9",
"^%    c #E6E2E4",
"_%    c #D9D5D6",
"`%    c #DED8D7",
"a%    c #D6CFCD",
"b%    c #DAD4D2",
"c%    c #E2DDDE",
"d%    c #DAD5D3",
"e%    c #D1CAC9",
"f%    c #A09C9B",
"g%    c #EDE9EA",
"h%    c #ECE8EB",
"i%    c #E3DFE1",
"j%    c #DBD7D8",
"k%    c #DDD7D6",
"l%    c #DFD8D7",
"m%    c #E2DBDB",
"n%    c #E3DEDF",
"o%    c #D5CECD",
"p%    c #E8E1DF",
"q%    c #ECE8E9",
"r%    c #D6D0D0",
"s%    c #DBD4D2",
"t%    c #DDD8D9",
"u%    c #D7D2D0",
"v%    c #A5A0A0",
"w%    c #E5DEDC",
"x%    c #EAE4E4",
"y%    c #E5E1E2",
"z%    c #DFDCDE",
"{%    c #DDD6D4",
"|%    c #D5D0CE",
"}%    c #E9E2E1",
"~%    c #DCD6D6",
" &    c #CECACB",
"!&    c #C9C5C5",
"#&    c #C7C2C2",
"$&    c #BCB8B8",
"%&    c #A8A4A4",
"&&    c #524F51",
"'&    c #E5DEDD",
"(&    c #DED8D8",
")&    c #C7C3C3",
"*&    c #C8C3C3",
"+&    c #BDB7B7",
",&    c #C2BDBE",
"-&    c #C2BEBE",
".&    c #BFBBBD",
"0&    c #5B5A5A",
"1&    c #535052",
"2&    c #EBE6E6",
"3&    c #B6B2B4",
"4&    c #AEA8A8",
"5&    c #ACA7A6",
"6&    c #A49F9E",
"7&    c #A5A1A1",
"8&    c #A9A6A8",
"9&    c #A5A3A4",
":&    c #535252",
";&    c #B1ADAF",
"<&    c #ADA8A7",
"=&    c #A19D9C",
">&    c #A09C9C",
"?&    c #A39FA0",
"@&    c #848282",
"A&    c #E3DDDC",
"B&    c #C6C0BF",
"C&    c #B9B5B5",
"D&    c #B6B0B0",
"E&    c #ACA8A6",
"F&    c #A7A2A1",
"G&    c #A8A5A6",
"H&    c #A5A2A5",
"I&    c #A09E9F",
"J&    c #545254",
"K&    c #555455",
"L&    c #E0DAD9",
"M&    c #E2DDDA",
"N&    c #B4B0B0",
"O&    c #B8B2B2",
"P&    c #ADA9A7",
"Q&    c #A4A09F",
"R&    c #9E9C9C",
"S&    c #9F9C9D",
"T&    c #A5A2A3",
"U&    c #A29FA2",
"V&    c #A3A1A2",
"W&    c #525052",
"X&    c #DFD7D5",
"Y&    c #DCD6D4",
"Z&    c #C3BEBC",
"[&    c #B0ACAC",
"]&    c #ADA7A7",
"^&    c #9F9A9A",
"_&    c #A19D9F",
"`&    c #A39D9C",
"a&    c #A09D9F",
"b&    c #868484",
"c&    c #525151",
"d&    c #D6CFCE",
"e&    c #C4BDBC",
"f&    c #B1ACAC",
"g&    c #AEAAAA",
"h&    c #A09B98",
"i&    c #9B9594",
"j&    c #9F9A9C",
"k&    c #9E9B9C",
"l&    c #7F7A7A",
"m&    c #D9D2D1",
"n&    c #C2BBBA",
"o&    c #A7A19F",
"p&    c #9D999C",
"q&    c #A09C9D",
"r&    c #ABA5A4",
"s&    c #ABA7A5",
"t&    c #979291",
"u&    c #9D9999",
"v&    c #9C999B",
"w&    c #9C9698",
"x&    c #7F7A79",
"y&    c #585555",
"z&    c #D5D0CF",
"{&    c #BDB7B6",
"|&    c #AFA9A8",
"}&    c #A39E9B",
"~&    c #9F9A98",
" '    c #9E9A9A",
"!'    c #A19B9D",
"#'    c #B9B4B2",
"$'    c #ACA8A7",
"%'    c #A19C97",
"&'    c #958E8C",
"''    c #97928F",
"('    c #9B9799",
")'    c #9A9597",
"*'    c #BDB8B6",
"+'    c #ABA7A6",
",'    c #A09B99",
"-'    c #97908E",
".'    c #96918E",
"0'    c #979395",
"1'    c #A09A9A",
"2'    c #5A5858",
"3'    c #D0CCCD",
"4'    c #A5A19E",
"5'    c #A7A3A2",
"6'    c #999391",
"7'    c #938C89",
"8'    c #948E8C",
"9'    c #959191",
":'    c #989393",
";'    c #817D7C",
"<'    c #5F5C5C",
"='    c #B4AFAE",
">'    c #9E9894",
"?'    c #97918F",
"@'    c #918B89",
"A'    c #969191",
"B'    c #807C7B",
"C'    c #B7B3B2",
"D'    c #A29D9A",
"E'    c #A6A09F",
"F'    c #9D9894",
"G'    c #9A9592",
"H'    c #948E8E",
"I'    c #999696",
"J'    c #615D5D",
"K'    c #D2CFD0",
"L'    c #999490",
"M'    c #928B8A",
"N'    c #9A9797",
"O'    c #A09B9A",
"P'    c #8F8A87",
"Q'    c #918D8C",
"R'    c #969292",
"S'    c #7F7978",
"T'    c #625F5F",
"U'    c #676463",
"V'    c #D6D3D4",
"W'    c #D3D0D0",
"X'    c #99938F",
"Y'    c #8F8887",
"Z'    c #949091",
"['    c #7D7776",
"]'    c #615E5E",
"^'    c #615E5D",
"_'    c #D2D0D1",
"`'    c #CDCBCC",
"a'    c #928D8D",
"b'    c #8E8888",
"c'    c #8F8B8B",
"d'    c #7F7B7B",
"e'    c #666565",
"f'    c #6A6868",
"g'    c #D0CECF",
"h'    c #B4AFAF",
"i'    c #9A9593",
"j'    c #948F8F",
"k'    c #918B8B",
"l'    c #8D8786",
"m'    c #8D898B",
"n'    c #969293",
"o'    c #827E7E",
"p'    c #646363",
"q'    c #787473",
"r'    c #7C7877",
"s'    c #787474",
"t'    c #726E6E",
"u'    c #777474",
"v'    c #747172",
"w'    c #7C7A7A",
"x'    c #7A7879",
"y'    c #676462",
"z'    c #D3D0D1",
"{'    c #7D7979",
"|'    c #767271",
"}'    c #757171",
"~'    c #757273",
" (    c #716F6F",
"!(    c #D5D1D3",
"#(    c #3B3A3A",
"$(    c #413F3E",
"%(    c #413F3F",
"&(    c #474545",
"'(    c #494749",
"((    c #464545",
")(    c #4B4B4B",
"*(    c #5F5D5C",
"+(    c #6B6867",
",(    c #D0CCCE",
"-(    c #939191",
".(    c #464444",
"0(    c #484648",
"1(    c #6A6766",
"2(    c #414040",
"3(    c #423F3F",
"4(    c #434141",
"5(    c #414041",
"6(    c #464546",
"7(    c #4F4E4E",
"8(    c #515051",
"9(    c #434243",
":(    c #4E4D4D",
";(    c #545354",
"<(    c #636060",
"! # $ % & ' ( ) * + , - . 0 1 2 3 4 $ % 5 ' 6 7 8 + , 9 : ; < = ",
"> ? % @ A B C D E F G H I J K L M N O P A Q R S T F U V W X Y L ",
"Z [ ] ^ _ ` a b c d e f g h i j ? k l m n o a p q r s t u v w j ",
"x Z y z { | | } ~  !!!#!$!%!&!w '!(!)!*!+!,!-!.!0!1!2!3!4!5!6!7!",
"8!9!:!;!<!=!| } >!?!@!A!B!C!D!E!F!G!H!;!+!=!| I!J!K!L!A!M!N!O!P!",
"Q!, R!S!T!U!V!W!X!Y!Z![!Z!]!i ^!_!U `!a!;!b!c!d!e!f!g!h!i!j!7!^!",
"k!1 l!m!n!o!p!q!r!s!t!@!u!v!7!w!x!y!z!{!|!}!~! #!###$#?!%#&#w '#",
"< (#)#*#+# #,#-#.#0#1#2#3#4#w 5#1 6#)#7#8#9#:#;#<#=#>#?#@#A#B#C#",
"D#E#F#G#H#I#:#J#K#L#M#u!N#A#O#P#Q#R#S#,!T#U#V#J#W#X#Y#Z#[#]#^#^!",
"_#`#a#b#= c#d#e#f#g#%#h#i#j#k#l#_#m#n#o#2 p#d#q#r#s#%#t#u#v#w#x#",
"y#z#{#|#V!}#;#K#~# $!$#$s#$$%$&$'$($)$*$W!+$,$-$.$0$1$2$3$4$5$6$",
"7$8$9$:$;$<$=$>$?$@$A$B$C$D$E$F$z#G$9$H$I$c#,$J$K$L$C$B$M$N$l#O$",
"P$Q$R$S$T$U$V$W$X$Y$Z$[$]$^$_$`$a$b$c$d!d$e$f$g$h$W$i$j$k$l$_$m$",
"n$o$p$q$r$s$t$u$v$w$x$y$z${$|$}$~$ %!%t$#%s$$%u$u$%%&%'%(%)%*%}$",
"m#+%,%-%.%-%0%1%2%3%4%5%6%7%8%9%:%;%<%=%>%1%?%@%,%A%3%5%B%C%D%E%",
"F%G%H%I%J%K%3%K%L%M%N%O%N%P%Q%E$j$@%H%3%G%R%A%,%L%S%T%U%V%B%W%X%",
"Y%Z%$ [%]%^%_%`%a%+ b%- c%d%e%f%3 4 g%O h%i%j%k%E l%, m%n%d%o%} ",
"p%? q%P A Q C r%* s%U V t%u%v%^!w%x%O @ y%z%y#l E {%G V n%|%Y L ",
"Z }%~% &!&#&a p $&r s t g %&w &&x%'&(&^ )&*&a +&$&r ,&-&.&%&0&1&",
"2&(!#&3&4&5&6&= 7& !8&9&!!5!6!:&2&(!#&;&{ <&| =&>&?&2!9&!!@&6!B#",
"A&9!B&C&D&E&F&2 >!K!G&H&I&N!J&K&L&M&H!N&O&P&G#Q&R&S&T&U&V&N!W&E!",
"X&Y&Z&[&n!]&V!!#^&_&4!h!i!5!w &!_!H `!S!N&b!`&W!e!?#>#h!a&b&c&'#",
"k!d&e&f&g&}!~!h&i&j&t!k& !l&c&'#m&y!n&R$[&o&~!-#r!Y#p&k&q&v!7!&!",
"< (#)#r&s&*$:#;#t&u&v&2#w&x&:&y&< z&{&|&E&}&~&q!t& '1#?#!'x&:&^#",
"Q#E##'5&$'%',#&'''(')'u![#4#C#w!D#R#*'| +'I#,'-'.'0'Y#%#1'4#^#2'",
"3'm#a#4'5'<$6'7'8'9'#$u!:';'w#<' &`#='o#} >'?'q#@'9'%#h#A'B'w#^#",
"'$z#C'D'E'F'G'.'K$H'I'%#9'$$L J'R K'{#9#E'L'G'W#M'0$N'Z#=#4$5$J'",
"7$G$T!O':#c#=$P'?$Q'R'2$A$S'T'U'V'W'9$:$;$X'.'P'Y'@$A$Z'A$[']'^'",
"_'`'c$i&T$.$a'W$h$b'Z$Z'c'd'e'f'P$g'h'!#i'e$j'k'l'k'm'n'C$o'p'm$",
"n$K'I't$q'r's'$%t'u'v'w'x'{$y'}$~$z'1${'s$|'u$}'t'u'~'y$z$ (|$`$",
"!(;%,%#(>%=%$(G%K%%(&('((()(*(+(,(-(<%=%.%-%0%1%R%I%.(0((()(*(1(",
"2$2(J%I%J%3(4(K%.%5(T%6(V%7(8(l#Z'=%H%3%@%<%4(R%.%9(T%O%U%:(;(<("};