/* XPM */ 
static const char * water_xpm[] = {
"32 32 499 2",
"      c None",
"!     c #2667B0",
"#     c #1853A0",
"$     c #1B57A7",
"%     c #2F71BA",
"&     c #3175BA",
"'     c #2060AA",
"(     c #154CA3",
")     c #2769B3",
"*     c #1D5AA7",
"+     c #205DAB",
",     c #2C6EB7",
"-     c #1854A3",
".     c #1C58A7",
"0     c #164FA2",
"1     c #1750A1",
"2     c #1F5EA8",
"3     c #3073B9",
"4     c #387AC0",
"5     c #2D70B7",
"6     c #1F5DAB",
"7     c #3071BB",
"8     c #1F5DAA",
"9     c #1C59A6",
":     c #2F70BA",
";     c #2261AD",
"<     c #164CA3",
"=     c #154BA3",
">     c #2766B5",
"?     c #296BB3",
"@     c #2F73B6",
"A     c #1F5DA6",
"B     c #1A56A0",
"C     c #205FAA",
"D     c #2465AE",
"E     c #1D5BA7",
"F     c #1E5CA7",
"G     c #205EAB",
"H     c #1A53A4",
"I     c #1751A1",
"J     c #154FA0",
"K     c #1954A4",
"L     c #2A6AB8",
"M     c #1850A5",
"N     c #174FA4",
"O     c #1A53A7",
"P     c #1952A6",
"Q     c #154EA1",
"R     c #1C59AA",
"S     c #2F6FBB",
"T     c #387BC0",
"U     c #3172BD",
"V     c #2A69B8",
"W     c #1D58AB",
"X     c #1E5CAA",
"Y     c #2665B5",
"Z     c #2E6EB9",
"[     c #2866B4",
"]     c #1851A7",
"^     c #1A56A6",
"_     c #2A6EB3",
"`     c #2668AD",
"a     c #205FA8",
"b     c #1C55AA",
"c     c #2E70BB",
"d     c #3576BE",
"e     c #3074BA",
"f     c #2667B2",
"g     c #154BA0",
"h     c #154BA1",
"i     c #1C56AA",
"j     c #1851A5",
"k     c #2363AE",
"l     c #2D6DB7",
"m     c #296AB4",
"n     c #1752A1",
"o     c #2160AC",
"p     c #397AC2",
"q     c #3273BE",
"r     c #2E6EBB",
"s     c #1F5DAD",
"t     c #2A69B7",
"u     c #2262AC",
"v     c #2E70B8",
"w     c #2768B0",
"x     c #2666AD",
"y     c #2060A9",
"z     c #1A57A4",
"{     c #2768B3",
"|     c #2563B1",
"}     c #2C6CB7",
"~     c #2F70BC",
" !    c #2565B1",
"!!    c #2364B0",
"#!    c #1751A4",
"$!    c #154EA0",
"%!    c #1A53A5",
"&!    c #1852A4",
"'!    c #154CA2",
"(!    c #1954A6",
")!    c #235FB0",
"*!    c #144CA1",
"+!    c #1851A6",
",!    c #2A69B5",
"-!    c #2565AE",
".!    c #2261AC",
"0!    c #1D58AA",
"1!    c #1A54A5",
"2!    c #1C59A7",
"3!    c #2A6CB5",
"4!    c #2161A9",
"5!    c #1C5AA3",
"6!    c #2C6FB6",
"7!    c #2F72BA",
"8!    c #2360AA",
"9!    c #21579D",
":!    c #2E67AF",
";!    c #1E59A6",
"<!    c #1955A3",
"=!    c #2D6FB8",
">!    c #2360AF",
"?!    c #1C5AA6",
"@!    c #1650A0",
"A!    c #3174BA",
"B!    c #2F6FBA",
"C!    c #1F5BAD",
"D!    c #2768B5",
"E!    c #1852A5",
"F!    c #1D5AAA",
"G!    c #1E5DAA",
"H!    c #1E5DA7",
"I!    c #2D6FB7",
"J!    c #1F5EAA",
"K!    c #1F5BAA",
"L!    c #205EAC",
"M!    c #1E5CA9",
"N!    c #2566AE",
"O!    c #1955A0",
"P!    c #1855A2",
"Q!    c #154EA2",
"R!    c #174DA5",
"S!    c #2161AB",
"T!    c #1750A3",
"U!    c #174FA5",
"V!    c #1C5AA7",
"W!    c #1853A4",
"X!    c #2F6FBC",
"Y!    c #2262AD",
"Z!    c #1A56A2",
"[!    c #2A6CB3",
"]!    c #3478BB",
"^!    c #2E70B6",
"_!    c #1851A4",
"`!    c #1A53A8",
"a!    c #205DAF",
"b!    c #1A54A6",
"c!    c #1853A3",
"d!    c #296AB3",
"e!    c #2261AB",
"f!    c #1954A3",
"g!    c #1854A4",
"h!    c #164CA4",
"i!    c #1246A0",
"j!    c #2D71B7",
"k!    c #1E5CA8",
"l!    c #1F5BAB",
"m!    c #174EA3",
"n!    c #164FA0",
"o!    c #1952A8",
"p!    c #2766B3",
"q!    c #2E70B9",
"r!    c #3578BE",
"s!    c #2C6FB5",
"t!    c #2869B3",
"u!    c #2666B0",
"v!    c #1854A2",
"w!    c #1B57A4",
"x!    c #2060AB",
"y!    c #1449A0",
"z!    c #154CA1",
"{!    c #1C56A5",
"|!    c #2364AE",
"}!    c #2566B0",
"~!    c #2666B2",
" #    c #1852A3",
"!#    c #2D6DBA",
"##    c #2D6CBA",
"$#    c #184FA5",
"%#    c #2F72B9",
"&#    c #1E59AB",
"'#    c #1C57A8",
"(#    c #1C59A8",
")#    c #144CA0",
"*#    c #1A56A3",
"+#    c #1C56A9",
",#    c #1B58A6",
"-#    c #2867B3",
".#    c #2465AF",
"0#    c #16509E",
"1#    c #174FA0",
"2#    c #164DA0",
"3#    c #1A56A4",
"4#    c #2A6DB6",
"5#    c #3677BE",
"6#    c #3071BA",
"7#    c #1B58A4",
"8#    c #16509F",
"9#    c #1E5AAD",
":#    c #2363AA",
";#    c #296AB2",
"<#    c #3475BF",
"=#    c #377AC0",
">#    c #2667B1",
"?#    c #2363AD",
"@#    c #1752A0",
"A#    c #1C59A5",
"B#    c #1E5BA9",
"C#    c #1752A2",
"D#    c #2F72B8",
"E#    c #286AB1",
"F#    c #1B58A1",
"G#    c #1C58A3",
"H#    c #1751A0",
"I#    c #154B9F",
"J#    c #1955A1",
"K#    c #2765B3",
"L#    c #3A7BC1",
"M#    c #2F6FB7",
"N#    c #2464B0",
"O#    c #2666B4",
"P#    c #2668B0",
"Q#    c #1C59A4",
"R#    c #2869B2",
"S#    c #2160AA",
"T#    c #1A56A5",
"U#    c #2A6DB4",
"V#    c #2160AF",
"W#    c #1C57AA",
"X#    c #205CAB",
"Y#    c #2F71B8",
"Z#    c #205FA7",
"[#    c #1C59A3",
"]#    c #154E9E",
"^#    c #1A54A7",
"_#    c #3373BE",
"`#    c #3376BD",
"a#    c #1E5CAC",
"b#    c #3273BC",
"c#    c #1D58A7",
"d#    c #2363B0",
"e#    c #1B58A5",
"f#    c #2362B0",
"g#    c #2E70B7",
"h#    c #1853A5",
"i#    c #2A6BB4",
"j#    c #1A57A6",
"k#    c #2566AF",
"l#    c #2160AB",
"m#    c #1F5EA9",
"n#    c #286AB0",
"o#    c #1854A0",
"p#    c #17519C",
"q#    c #1E59A9",
"r#    c #3172BC",
"s#    c #154BA2",
"t#    c #2C6CBA",
"u#    c #1F5BA8",
"v#    c #1E5DA8",
"w#    c #2E6EB7",
"x#    c #2967B4",
"y#    c #1E5AAA",
"z#    c #2A6CB4",
"{#    c #296BB4",
"|#    c #2667AF",
"}#    c #2C6FB7",
"~#    c #2362AF",
" $    c #286AB3",
"!$    c #2567AF",
"#$    c #1854A1",
"$$    c #1C5BA5",
"%$    c #1C58A9",
"&$    c #225FB0",
"'$    c #2462B0",
"($    c #1850A4",
")$    c #1E5CA6",
"*$    c #1750A0",
"+$    c #205CAC",
",$    c #3373BC",
"-$    c #2563B3",
".$    c #1E5BAB",
"0$    c #2968B6",
"1$    c #1750A4",
"2$    c #2362AD",
"3$    c #1F5EA7",
"4$    c #1952A4",
"5$    c #2A6AB7",
"6$    c #1C58AA",
"7$    c #1D5AA9",
"8$    c #18549E",
"9$    c #2A6CB6",
":$    c #2362AE",
";$    c #3778BF",
"<$    c #2B6BB7",
"=$    c #215EAF",
">$    c #3174BB",
"?$    c #2D6DB6",
"@$    c #3576BD",
"A$    c #1C56A7",
"B$    c #2C6EB9",
"C$    c #286AB2",
"D$    c #154D9F",
"E$    c #2666B3",
"F$    c #1850A3",
"G$    c #2A68B4",
"H$    c #1E5AA7",
"I$    c #3172BA",
"J$    c #1C57A7",
"K$    c #2A6BB3",
"L$    c #174EA4",
"M$    c #174DA4",
"N$    c #2E6DB9",
"O$    c #1E59AA",
"P$    c #2664B1",
"Q$    c #1B57A6",
"R$    c #205EAA",
"S$    c #154D9E",
"T$    c #1955A4",
"U$    c #205FAD",
"V$    c #2462B2",
"W$    c #164DA3",
"X$    c #2462B3",
"Y$    c #2668B2",
"Z$    c #1D5AA8",
"[$    c #2B6BB5",
"]$    c #3174BC",
"^$    c #3374BD",
"_$    c #2C6BB7",
"`$    c #2F6EB9",
"a$    c #1C58A6",
"b$    c #2060A7",
"c$    c #3175BB",
"d$    c #3374BE",
"e$    c #2C6EB6",
"f$    c #1E5BAA",
"g$    c #1A53A3",
"h$    c #1C57A6",
"i$    c #1F5DA9",
"j$    c #205CAA",
"k$    c #174DA3",
"l$    c #3376BC",
"m$    c #2B6DB5",
"n$    c #1853A2",
"o$    c #144AA0",
"p$    c #1851A3",
"q$    c #1C5AA8",
"r$    c #1A55A7",
"s$    c #205FAC",
"t$    c #2B6DB6",
"u$    c #2869B5",
"v$    c #2361B2",
"w$    c #1852A6",
"x$    c #3073BA",
"y$    c #2867B6",
"z$    c #3478BC",
"{$    c #3376B9",
"|$    c #1F5DA8",
"}$    c #2667B3",
"~$    c #3276BB",
" %    c #2A6DB5",
"!%    c #2364AD",
"#%    c #2A6CB2",
"$%    c #276AB0",
"%%    c #2565AD",
"&%    c #2B6DB7",
"'%    c #3579BC",
"(%    c #377BBD",
")%    c #2161A8",
"*%    c #1D5BA8",
"+%    c #2060A8",
",%    c #3074B9",
"-%    c #1753A0",
".%    c #2563B0",
"0%    c #2768AE",
"1%    c #1C5AA4",
"2%    c #2F71B9",
"3%    c #3477BC",
"4%    c #2F73B7",
"5%    c #2161AA",
"6%    c #2A6EB4",
"7%    c #1E59A7",
"8%    c #1D5AA6",
"9%    c #144AA1",
":%    c #1A55A5",
";%    c #2161AD",
"<%    c #3A7FC0",
"=%    c #3578BC",
">%    c #2F73B9",
"?%    c #2D6FB5",
"@%    c #2D6DB8",
"A%    c #1751A2",
"B%    c #1C58A5",
"C%    c #144B9F",
"D%    c #1348A0",
"E%    c #144BA0",
"F%    c #1956A0",
"G%    c #1A58A4",
"H%    c #2466AE",
"I%    c #3377BB",
"J%    c #296BB5",
"K%    c #164DA2",
"L%    c #2565AF",
"M%    c #2161AC",
"N%    c #2968B7",
"O%    c #2F71B7",
"P%    c #3578BD",
"Q%    c #16519F",
"R%    c #3677BF",
"S%    c #2665B0",
"T%    c #2B6EB5",
"U%    c #2362AA",
"V%    c #205EA7",
"W%    c #3377BC",
"X%    c #3374BC",
"Y%    c #1A56A7",
"Z%    c #3475BE",
"[%    c #205FA9",
"]%    c #2869B0",
"^%    c #2464AC",
"_%    c #2F72B7",
"`%    c #397DC0",
"a%    c #2363B1",
"b%    c #2F70B9",
"c%    c #2A6AB6",
"d%    c #2F73B8",
"e%    c #2666AF",
"f%    c #2360AE",
"g%    c #1F5FAA",
"h%    c #2D70B6",
"i%    c #2D70B5",
"j%    c #2E71B6",
"k%    c #2C6EB3",
"l%    c #3175B9",
"m%    c #2261AA",
"n%    c #2667AD",
"o%    c #397EC0",
"p%    c #3275BC",
"q%    c #1B55A8",
"r%    c #1853A1",
"s%    c #367ABD",
"t%    c #3C80C2",
"u%    c #3679BE",
"v%    c #2F73BA",
"w%    c #2464AD",
"x%    c #2462AC",
"y%    c #205FAF",
"z%    c #2C6EB5",
"{%    c #367ABC",
"|%    c #2A6BB0",
"}%    c #225FAE",
"~%    c #1D5CA6",
" &    c #2061AB",
"!&    c #2E6EBA",
"#&    c #154E9F",
"$&    c #16519D",
"%&    c #205CA7",
"&&    c #4287C6",
"'&    c #387BBF",
"(&    c #1A55A4",
")&    c #2262AB",
"*&    c #296BB0",
"+&    c #2869B1",
",&    c #4B8ECC",
"-&    c #4486C7",
".&    c #1B57A9",
"0&    c #296BB2",
"1&    c #2C6FB3",
"2&    c #3073B7",
"3&    c #1F5BAE",
"4&    c #144DA0",
"5&    c #1A52A5",
"6&    c #1952A2",
"7&    c #3074B8",
"8&    c #4082C6",
"9&    c #1956A4",
":&    c #1C5BA6",
";&    c #3275BB",
"<&    c #2C6CB9",
"=&    c #2A6BB1",
">&    c #2A6CB1",
"?&    c #3276BA",
"@&    c #1E5CA4",
"A&    c #1855A0",
"B&    c #1B59A2",
"C&    c #17529F",
"D&    c #1B55A7",
"E&    c #3778C0",
"F&    c #2365AD",
"G&    c #2C70B5",
"H&    c #1C5AA5",
"! # $ % & $ ' ( ( ) * + , - . 0 1 2 3 4 ) 5 6 7 8 9 : ; < = > ? ",
"@ A B C D E F G H I J K L M N O P Q R S , T U V W X Y Z [ ] ^ F ",
"_ ` a F b c d e f K g h i j k l m n g o S p q r Y s t u ' v w x ",
"y z { ! | } ~  !W !!#!$!%!&!'!(!)!*!+!,!-!.!0!1!M 2!3!4!5!6!? 7!",
"8!9!:!;!<!E =!>!L ?!@!8 A!B!C!8 D!E!F!G!u H!I!J!K!L!M!N!O!P!Q!R!",
"S!T!U!M!V!W!+!; X!Y!Z![!]!^!7 ; _!g `!a!b!c!d!{ b!W!E e!f!g!h!i!",
"j!k!P 3!* l!m!n!o!p!E q!r!s!t!u!v!w!x!P y!z!{!|!}!! ~! #1!!###$#",
"%#&#i X 9 '#(#n )#*# #+#(!,#-#.#O %!<!0#1#1#2#3#4#5#6#7#8#9#S ,!",
":#;#<#=#l B!>#?#T!@#A#B#3#C#?!J!!#D#E#F#G#H#I#J#K#L#M#N#F O#f k ",
"P#Q#G R#S#A!6!T#(!&!z U#V#W#X#, : %#Y#P#Z#[#]#0#^#_#`#a#,!b#M!c#",
"&#W!d#e#$ f#g#K h#i#j#C &!6 Z k#k!l#3#m#n#:#o#p#H#q#r#d!S!~ b#: ",
"s#j ; P t#r 3!u#c!v#n!H#- *#+!k!w#x#y#z#t!{#|#o#n!_!V!}#! ~# $!$",
"3#z#m##$$$t!~ %$&$'$($M , )$*$+$5#,$p!-$.$, 7!2 +$0$N 1$V!,!2$3$",
"4$5$6$7$8$F 9$:$<#;$<$=$>$?$K c#l @$A$y#z#X B$C$; -$2!I ' 2!%!w!",
"D$9 z#E$A#A#$  $? 5  !F$2!G$H$?#v I$J$K$P#L$M$2!{#0!N$O$P$Q$R$^ ",
"S$T$! U$V$<!W$X$'#E Y$(#'#^#Z$. [$]$W#5$,!=$4$$!- &!^$_$`$R$a$y!",
"1 S!b$c$d$($T$e$5 $ k!f$* '#g$A#3#h$i$j$: > t!. L$k$ $e$l$m$3!n$",
"o$p$?!Q$B#+!V!^ C!&$q$r$. u!<!H!s$c!Q T!t$b#; u$v$w$3#k!U#x$u o$",
"N N y$A$C z${$|$A$}$8 l 6#~$># %|#!%T$@#2!Z K P 4$.##%$%%%&%I!B#",
"D#. 5 m$8 '%(%)%-!*%t!f g#+%[!,%P#E -%*##$}!C .%P P#0%1%C 2% $X ",
"1%8#L!3%^!!%4%5%6%C }$3%3%J!}$x$k &%J!!%7%_!F R$^ T#8%g 9%&!1$8%",
"e#:%!#;%<%(%=%(#>%,%W#r!!%^!r!?%?!P s#y#@%X c!A%B%?#o#C%D%E%@#F%",
"-%G%=!J!4%H%I%#!&#%#r$J%2!b#V$4$&!K%H#L%l$5 >#M%:%N%O n!]#m!o#3$",
"1%1%D#O%3 Z P%.$o A#Q%- E R%v r$g#-!*$Z$X A#S%T%0!7 !#>!a${ U%V%",
"W%!$H%M!, >#?#X%Y%- k!1$f Z%=%m#|#[%W!@%. F ]% %%#y m#u!? J!^%Z!",
"_%C X h ?! %4%`%F!a%B!^ K 2!b%c%u!d%2!e%3#f%; g%h%i%j%k%l%m%n%n%",
"l%o%p%q%r%>#s%t%u%v%y#w%x%J#:%y%z%{%^!|%1%Q#h#}%1!v!~%s!P%d b#b#",
"q$ & %!&r$c!! %#~#h%?!A$T##&$!O z$'%>%3%s$7#1 A$# $&)#E!. !#: %&",
"&&'&?!E Y!(&)&*&[!G!n$A!%#2!#&n!S#)&+&-!N ^ *%,!2!o#c!!%# $ ~ > ",
",&-&.&4$T%0&1&2&u %#E z%3&Z L$4&T!5&m!6&X @%U#|#7&s!z%@ A B C L$",
"_%8&B$9&:&_%[%H!- ]${ } i ;&$ T$v$<&< K%? =&>&>&?&y#s!i%` a @&A&",
"B&7#- @!C&. (&Y#T!<!r%D&>!?&A!k#E&A!s#9%P#7#F&G&7&H&B&B&Q#I!8!n%"};