/* XPM */ 
static const char * commandimage_xpm[] = {
"32 32 499 2",
"  	c None",
"! 	c black",
"# 	c #8B44C4",
"$ 	c #9046CA",
"% 	c #9144CC",
"& 	c #8E45CF",
"' 	c #8E45CC",
"( 	c #8D3ECB",
") 	c #8D43CB",
"* 	c #9E50DA",
"+ 	c #B25EEF",
", 	c #C267FC",
"- 	c #C479FF",
". 	c #C480FF",
"0 	c #C780FF",
"1 	c #CA7DFF",
"2 	c #C36FFF",
"3 	c #B763F7",
"4 	c #A757E0",
"5 	c #8F49CD",
"6 	c #8F45CC",
"7 	c #A856E5",
"8 	c #C370FF",
"9 	c #CF8EFF",
": 	c #D493FF",
"; 	c #D596FF",
"< 	c #CE93FF",
"= 	c #CC8DFF",
"> 	c #CC89FF",
"? 	c #D290FF",
"@ 	c #D194FF",
"A 	c #CF91FF",
"B 	c #CA80FF",
"C 	c #B360F4",
"D 	c #964BCE",
"E 	c #9548D1",
"F 	c #BD6CFC",
"G 	c #D094FF",
"H 	c #D28EFF",
"I 	c #C773FF",
"J 	c #B767ED",
"K 	c #AF60E5",
"L 	c #AB5FE2",
"M 	c #AD5DDF",
"N 	c #A95EE1",
"O 	c #AF65E8",
"P 	c #BE6EFC",
"Q 	c #C989FF",
"R 	c #D594FF",
"S 	c #D095FF",
"T 	c #C97EFF",
"U 	c #A155DC",
"V 	c #A151DD",
"W 	c #C980FF",
"X 	c #D49AFF",
"Y 	c #C575FF",
"Z 	c #B265E8",
"[ 	c #AF61E4",
"] 	c #BB65F8",
"^ 	c #C673FF",
"_ 	c #C97BFF",
"` 	c #C873FF",
"a 	c #BB66FE",
"b 	c #AD5EE9",
"c 	c #AA61E1",
"d 	c #BC6CF6",
"e 	c #CC8AFF",
"f 	c #D49BFF",
"g 	c #CD8FFF",
"h 	c #B062E9",
"i 	c #8F4BC4",
"j 	c #AB5FE4",
"k 	c #D393FF",
"l 	c #D698FF",
"m 	c #CB8CFF",
"n 	c #B46CE6",
"o 	c #B262EE",
"p 	c #C87BFF",
"q 	c #CD8AFF",
"r 	c #CF8BFF",
"s 	c #D28CFF",
"t 	c #CF8CFF",
"u 	c #CD89FF",
"v 	c #CB80FF",
"w 	c #BB64F7",
"x 	c #AE60DD",
"y 	c #C884FF",
"z 	c #D196FF",
"{ 	c #D798FF",
"| 	c #BC72F7",
"} 	c #974BCE",
"~ 	c #A25CDD",
" !	c #D395FF",
"!!	c #D097FF",
"#!	c #D797FF",
"$!	c #B76FEB",
"%!	c #B863F7",
"&!	c #CD87FF",
"'!	c #CD84FF",
"(!	c #CE8AFF",
")!	c #C876FF",
"*!	c #B852F7",
"+!	c #AD45F0",
",!	c #AE43ED",
"-!	c #B24DF4",
".!	c #C169FF",
"0!	c #CE86FF",
"1!	c #CD85FF",
"2!	c #CD88FF",
"3!	c #C467FF",
"4!	c #B16BE4",
"5!	c #D394FF",
"6!	c #D295FF",
"7!	c #B96FF2",
"8!	c #9657D3",
"9!	c #CC84FF",
":!	c #D29AFF",
";!	c #D49DFF",
"<!	c #C57FF7",
"=!	c #BB66EF",
">!	c #D087FF",
"?!	c #CD80FF",
"@!	c #BA55F9",
"A!	c #A234E8",
"B!	c #AD33FC",
"C!	c #B64AFF",
"D!	c #B94EFF",
"E!	c #AF3AFF",
"F!	c #A430E9",
"G!	c #AE49F1",
"H!	c #C97FFF",
"I!	c #BC67F4",
"J!	c #BB71EB",
"K!	c #D39AFF",
"L!	c #D699FF",
"M!	c #A663E4",
"N!	c #B96EEE",
"O!	c #D8A0FF",
"P!	c #CF9AFF",
"Q!	c #D598FF",
"R!	c #B470E2",
"S!	c #CD83FF",
"T!	c #B653F4",
"U!	c #A633EE",
"V!	c #BE62FF",
"W!	c #C979FF",
"X!	c #BB5DFF",
"Y!	c #B656FF",
"Z!	c #C676FF",
"[!	c #C371FF",
"]!	c #AF34F8",
"^!	c #AB46EA",
"_!	c #CC83FF",
"`!	c #B36BE4",
"a!	c #C885FC",
"b!	c #D49FFF",
"c!	c #D29CFF",
"d!	c #9C58CE",
"e!	c #A161D7",
"f!	c #D293FF",
"g!	c #DA9EFF",
"h!	c #D99FFF",
"i!	c #C686F4",
"j!	c #C06DF5",
"k!	c #CF85FF",
"l!	c #C069FF",
"m!	c #A93AEE",
"n!	c #C36CFF",
"o!	c #C16AFF",
"p!	c #9047C2",
"q!	c #806C8F",
"r!	c #81708A",
"s!	c #824AA8",
"t!	c #BB53FF",
"u!	c #C878FF",
"v!	c #AF3BF6",
"w!	c #B954F7",
"x!	c #D385FF",
"y!	c #C86FFF",
"z!	c #BE7BE6",
"{!	c #D3A0FF",
"|!	c #DBA4FF",
"}!	c #B272E9",
"~!	c #B877EB",
" #	c #DCA8FF",
"!#	c #D9A2FF",
"##	c #BE7CEB",
"$#	c #C97CFF",
"%#	c #CF86FF",
"&#	c #B44FEF",
"'#	c #BD5BFF",
"(#	c #6D3594",
")#	c #5F5669",
"*#	c #998DA3",
"+#	c #9C8FA5",
",#	c #685D73",
"-#	c #56306D",
".#	c #C164FF",
"0#	c #C46FFF",
"1#	c #B144F0",
"2#	c #D185FF",
"3#	c #D5A2FF",
"4#	c #DBA1FF",
"5#	c #C98AFC",
"6#	c #D9AAFF",
"7#	c #D9A6FF",
"8#	c #D7A0FF",
"9#	c #C07EF0",
":#	c #D28AFF",
";#	c #B34DF2",
"<#	c #C775FF",
"=#	c #BD5DFF",
">#	c #21122C",
"?#	c #4B3959",
"@#	c #8D7E9B",
"A#	c #91839D",
"B#	c #534066",
"C#	c #160F1A",
"D#	c #9943D6",
"E#	c #CC87FF",
"F#	c #B549FC",
"G#	c #C96EFF",
"H#	c #D28BFF",
"I#	c #C477F5",
"J#	c #CE90F7",
"K#	c #DCA5FF",
"L#	c #D4A4FF",
"M#	c #D6A3FF",
"N#	c #A76EDE",
"O#	c #A669D5",
"P#	c #D49CFF",
"Q#	c #DBABFF",
"R#	c #DCA7FF",
"S#	c #D09AFF",
"T#	c #C581F5",
"U#	c #D38FFF",
"V#	c #D48DFF",
"W#	c #D184FF",
"X#	c #B855F8",
"Y#	c #CA81FF",
"Z#	c #130D1A",
"[#	c #151518",
"]#	c #3C3743",
"^#	c #3D3946",
"_#	c #1B1921",
"`#	c #020602",
"a#	c #9646CE",
"b#	c #CE8FFF",
"c#	c #B955FF",
"d#	c #CA73FF",
"e#	c #D58FFF",
"f#	c #D38DFF",
"g#	c #C87DFD",
"h#	c #CD91F4",
"i#	c #DBA7FF",
"j#	c #DCABFF",
"k#	c #B67AE9",
"l#	c #AA77E2",
"m#	c #D8A7FF",
"n#	c #D9ACFF",
"o#	c #D79DFF",
"p#	c #CD86F5",
"q#	c #D492FF",
"r#	c #D490FF",
"s#	c #D08FFF",
"t#	c #BA5CFD",
"u#	c #CE8BFF",
"v#	c #43255A",
"w#	c #000001",
"x#	c #2F0240",
"y#	c #340246",
"z#	c #090011",
"{#	c #171121",
"|#	c #C065FF",
"}#	c #CF87FF",
"~#	c #B95CFF",
" $	c #CD82FF",
"!$	c #D292FF",
"#$	c #D494FF",
"$$	c #D099F1",
"%$	c #DFAFFF",
"&$	c #DDADFF",
"'$	c #C086F0",
"($	c #B37AE6",
")$	c #E0AFFF",
"*$	c #DFAAFF",
"+$	c #DAAFFF",
",$	c #D8A2FF",
"-$	c #CD8EF6",
".$	c #D597FF",
"0$	c #D695FF",
"1$	c #D69BFF",
"2$	c #C571FF",
"3$	c #C675FF",
"4$	c #D391FF",
"5$	c #B45EF4",
"6$	c #431C5C",
"7$	c #550076",
"8$	c #5B007C",
"9$	c #390D51",
":$	c #944EC7",
";$	c #C87FFF",
"<$	c #C067FF",
"=$	c #D692FF",
">$	c #D088FF",
"?$	c #D49DF7",
"@$	c #DEB0FF",
"A$	c #DDAFFF",
"B$	c #C68FF4",
"C$	c #B082E7",
"D$	c #DCB3FF",
"E$	c #DFAEFF",
"F$	c #D8AFFF",
"G$	c #CE99F4",
"H$	c #D899FF",
"I$	c #D89EFF",
"J$	c #C66FFF",
"K$	c #D190FF",
"L$	c #CF8FFF",
"M$	c #AA5BE4",
"N$	c #7F41A8",
"O$	c #7A3C9F",
"P$	c #9D55D1",
"Q$	c #CA82FF",
"R$	c #D499FF",
"S$	c #C672FF",
"T$	c #D38BFF",
"U$	c #D89FFF",
"V$	c #DA9CFF",
"W$	c #CF92F6",
"X$	c #D6A4FF",
"Y$	c #DCB1FF",
"Z$	c #E2B6FF",
"[$	c #C893F6",
"]$	c #B881E4",
"^$	c #DFB2FF",
"_$	c #E0B2FF",
"`$	c #D4A7F7",
"a$	c #D69EFF",
"b$	c #DCA3FF",
"c$	c #DCA6FF",
"d$	c #D7A1FF",
"e$	c #B164E9",
"f$	c #54306C",
"g$	c #462D53",
"h$	c #4F305A",
"i$	c #4F305C",
"j$	c #4A2F55",
"k$	c #4B2F5C",
"l$	c #9953CC",
"m$	c #D2A1F1",
"n$	c #DFB1FF",
"o$	c #E2B5FF",
"p$	c #CB96F5",
"q$	c #DDB3FF",
"r$	c #E2B3FF",
"s$	c #E4B9FF",
"t$	c #DBAEFD",
"u$	c #D6A0FA",
"v$	c #DAA6FF",
"w$	c #DBA9FF",
"x$	c #DAA7FF",
"y$	c #493361",
"z$	c #80588D",
"{$	c #AE8ABB",
"|$	c #B192BD",
"}$	c #B396BE",
"~$	c #B08DBC",
" %	c #9D73AB",
"!%	c #402A4F",
"#%	c #C387EC",
"$%	c #DFB3FF",
"%%	c #DEA6FF",
"&%	c #D6ACF6",
"'%	c #E3B2FF",
"(%	c #E0BAFF",
")%	c #C18AEF",
"*%	c #D4A7F8",
"+%	c #DEB6FF",
",%	c #DFB4FF",
"-%	c #DFB5FF",
".%	c #DAADF8",
"0%	c #DDA7FF",
"1%	c #DFADFF",
"2%	c #DAA2FF",
"3%	c #332146",
"4%	c #765D85",
"5%	c #B89BC5",
"6%	c #C2A4D0",
"7%	c #C4A5D2",
"8%	c #BD9ECA",
"9%	c #9D83AC",
":%	c #221431",
";%	c #B780DE",
"<%	c #E4BAFF",
"=%	c #D6A9F8",
">%	c #DCB0FF",
"?%	c #E4B0FF",
"@%	c #DEBDFF",
"A%	c #B986E6",
"B%	c #C89EED",
"C%	c #E0B8FF",
"D%	c #E1B3FF",
"E%	c #DDB2FF",
"F%	c #E0B4FF",
"G%	c #DFAFFC",
"H%	c #E1B6FF",
"I%	c #402953",
"J%	c #5A3D6A",
"K%	c #7C6C88",
"L%	c #80728D",
"M%	c #82738E",
"N%	c #7E6C8C",
"O%	c #735882",
"P%	c #2D163C",
"Q%	c #BB8AE0",
"R%	c #E5BEFF",
"S%	c #DBAAFB",
"T%	c #DEB2FF",
"U%	c #DCB9FF",
"V%	c #E0B5FF",
"W%	c #DCAEFF",
"X%	c #DDB3FC",
"Y%	c #E1B7FF",
"Z%	c #E5BFFF",
"[%	c #45305D",
"]%	c #533163",
"^%	c #7B5D89",
"_%	c #795B87",
"`%	c #785B87",
"a%	c #7B5C89",
"b%	c #6B497B",
"c%	c #301A41",
"d%	c #CA97F3",
"e%	c #E6C2FF",
"f%	c #DCAFFE",
"g%	c #DDB9F7",
"h%	c #CC99EF",
"i%	c #CFA3F2",
"j%	c #E4B8FD",
"k%	c #EAC5FF",
"l%	c #583E6A",
"m%	c #3B1F4B",
"n%	c #664876",
"o%	c #654875",
"p%	c #513163",
"q%	c #362245",
"r%	c #D5A8F6",
"s%	c #E5B7FC",
"t%	c #674F78",
"u%	c #291038",
"v%	c #4D305F",
"w%	c #513461",
"x%	c #361948",
"y%	c #3E2B4E",
"z%	c #E0B7F9",
"{%	c #806697",
"|%	c #1F0C2E",
"}%	c #351C4A",
"~%	c #3B234D",
" &	c #3C244E",
"!&	c #391F4C",
"#&	c #271038",
"$&	c #503A61",
"%&	c #9875AF",
"&&	c #1A0E29",
"'&	c #301741",
"(&	c #2E173F",
")&	c #2F1840",
"*&	c #1C0B28",
"+&	c #705980",
",&	c #251B36",
"-&	c #261137",
".&	c #2A153B",
"0&	c #1B0D28",
"1&	c #9478A7",
"2&	c #372B47",
"3&	c #1C0B2D",
"4&	c #261339",
"5&	c #231036",
"6&	c #241731",
"7&	c #443952",
"8&	c #140727",
"9&	c #221339",
":&	c #221337",
";&	c #1A0B2D",
"<&	c #372A42",
"=&	c #0D0D0D",
">&	c #292134",
"?&	c #160C25",
"@&	c #211232",
"A&	c #140A25",
"B&	c #312638",
"C&	c #050505",
"D&	c #08070F",
"E&	c #0B0613",
"F&	c #0C0614",
"G&	c #0A0413",
"H&	c #040408",
"                                                                ",
"                          # $ % & ' (                           ",
"                    ) * + , - . 0 1 2 3 4 5                     ",
"                6 7 8 9 : ; < = > ? ; @ A B C D                 ",
"              E F G @ H I J K L M N O P Q R S T U               ",
"            V W X ? Y Z [ ] ^ _ T ` a b c d e f g h i           ",
"          j k l m n o p q r s t t s s u v w x y z { | }         ",
"        ~  !!!#!$!%!&!'!(!)!*!+!,!-!.!0!1!2!3!4!5!6!{ 7!        ",
"      8!9!:!;!<!=!>!?!&!@!A!B!C!D!E!F!G!H!'!u I!J!K!!!L!M!      ",
"      N!O!P!Q!R!p S!(!T!U!V!W!X!Y!Z![!]!^!S!S!_!`!a!b!c!> d!    ",
"    e!f!g!h!i!j!0!k!l!m!n!o!p!q!r!s!t!u!v!w!x!k!y!z!{!:!|!}!    ",
"    ~! #g!!###$#%#k!&#'#v (#)#*#+#,#-#.#0#1#p k!2#~!@ 3#4#t     ",
"    5#6#7#8#9#:#(!S!;#<#=#>#?#@#A#B#C#D#E#F#G#t H#I#J#K#L#M#N#  ",
"  O#P#Q#R#S#T#U#V#W#X#Y#=#Z#[#]#^#_#`#a#b#c#d#e#f#g#h#6#i#j#k#  ",
"  l# #m#n#o#p#q#r#s#t#$#u#v#w#x#y#z#{#|#}#~# $!$#$S!$$%$m#&$'$  ",
"  ($)$*$+$,$-$.$0$1$2$3$4$5$6$7$8$9$:$ !;$<$=$0$.$>$?$@$*$A$B$  ",
"  C$D$E$E$F$G$H$o#I$l J$K$L$M$N$O$P$Q$R$S$T$U$o#V$W$X$Y$E$Z$[$  ",
"  ]$D$^$^$_$`$a$b$,$c$d$e$f$g$h$i$j$k$l$R$c$,$,$!#m$n$n$^$o$p$  ",
"    &$q$r$s$t$u$c$v$w$x$y$z${$|$}$~$ %!%#%$%v$%%I$&%'%r$r$(%)%  ",
"    *%+%,%,%-%.%0%1%n$2%3%4%5%6%7%8%9%:%;%<%1%*$=%>%?%,%,%@%A%  ",
"    B%C%D%D%E%F%G%$%H%6#I%J%K%L%M%N%O%P%Q%R%-%S%T%U%D%D%V%W%    ",
"                  X%Y%Z%[%]%^%_%`%a%b%c%d%e%f%g%          h%    ",
"      i%            j%k%l%m%n%o%o%o%p%q%r%s%                    ",
"                        t%u%v%w%w%w%x%y%z%                      ",
"                        {%|%}%~% &!&#&$&                        ",
"                        %&&&'&(&(&)&*&+&                        ",
"                          ,&-&.&.&.&0&1&                        ",
"                          2&3&4&4&5&6&                          ",
"                          7&8&9&:&;&<&                          ",
"                        =&>&?&@&@&A&B&!                         ",
"                          C&D&E&F&G&H&                          ",
"                                                                "};