/* XPM */ 
static const char * groupimage_xpm[] = {
"32 32 251 2",
"  	c None",
"! 	c black",
"# 	c #86B704",
"$ 	c #83B404",
"% 	c #A7CA40",
"& 	c #C9DF7B",
"' 	c #DFEDA2",
"( 	c #E3EFA8",
") 	c #CAE07D",
"* 	c #A6C93D",
"+ 	c #7FB005",
", 	c #BBD65D",
"- 	c #E4F099",
". 	c #DEED83",
"0 	c #DAEA74",
"1 	c #DAEA73",
"2 	c #DDEC81",
"3 	c #E3F099",
"4 	c #AFCE4C",
"5 	c #94BD25",
"6 	c #DBEA7C",
"7 	c #D7E86D",
"8 	c #D5E764",
"9 	c #BBD74A",
": 	c #9AC323",
"; 	c #88B808",
"< 	c #8EBC0F",
"= 	c #A1C727",
"> 	c #BAD743",
"? 	c #D8E970",
"@ 	c #DCEB80",
"A 	c #93BC24",
"B 	c #75A706",
"C 	c #B1CE44",
"D 	c #D6E770",
"E 	c #D2E562",
"F 	c #C3DC50",
"G 	c #A3C82A",
"H 	c #A4C82B",
"I 	c #CCE25B",
"J 	c #6FA207",
"K 	c #C1DA55",
"L 	c #D2E569",
"M 	c #D0E460",
"N 	c #9FC529",
"O 	c #A0C52A",
"P 	c #D2E568",
"Q 	c #C0D953",
"R 	c #699C07",
"S 	c #C8DF5D",
"T 	c #CDE261",
"U 	c #CCE25F",
"V 	c #B6D347",
"W 	c #B7D448",
"X 	c #CEE262",
"Y 	c #C7DE5C",
"Z 	c #649709",
"[ 	c #C5DD5A",
"] 	c #C3DC58",
"^ 	c #C2DB56",
"_ 	c #90B922",
"` 	c #C5DC5A",
"a 	c #639608",
"b 	c #5D9009",
"c 	c #B1CF4C",
"d 	c #C2DC58",
"e 	c #BDD952",
"f 	c #77A80F",
"g 	c #79A911",
"h 	c #B2D04D",
"i 	c #578A09",
"j 	c #83AB2A",
"k 	c #C3DC5B",
"l 	c #BBD752",
"m 	c #B9D64F",
"n 	c #6A9D08",
"o 	c #BBD751",
"p 	c #51850A",
"q 	c #A7C848",
"r 	c #BDD955",
"s 	c #B4D24B",
"t 	c #BDD855",
"u 	c #ADCC4C",
"v 	c #52860B",
"w 	c #4C800B",
"x 	c #5E8E17",
"y 	c #B9D556",
"z 	c #B8D552",
"{ 	c #6D9C15",
"| 	c #6D9C16",
"} 	c #609019",
"~ 	c #477C0B",
" !	c #679520",
"!!	c #C8E064",
"#!	c #9DBF41",
"$!	c #9ABD3F",
"%!	c #6D9A24",
"&!	c #43780C",
"'!	c #4E820A",
"(!	c #B5D34C",
")!	c #B4D34B",
"*!	c #B0D049",
"+!	c #B7D551",
",!	c #82B304",
"-!	c #94BE21",
".!	c #C7DE78",
"0!	c #E0EDA4",
"1!	c #A8CA42",
"2!	c #5D9008",
"3!	c #CBE267",
"4!	c #C9E165",
"5!	c #5C8F09",
"6!	c #ADCD4A",
"7!	c #E8F2B0",
"8!	c #D8E895",
"9!	c #C1DA6E",
":!	c #99C12A",
";!	c #7DAE05",
"<!	c #ABCC49",
"=!	c #E3EF9B",
">!	c #DEEC85",
"?!	c #DDEC7F",
"@!	c #E2EE93",
"A!	c #C0D86E",
"B!	c #97BE2F",
"C!	c #85B312",
"D!	c #80B00A",
"E!	c #89AC4A",
"F!	c #477B0F",
"G!	c #44790D",
"H!	c #67961B",
"I!	c #96BE2D",
"J!	c #C1D96F",
"K!	c #E1EE8E",
"L!	c #DBEA78",
"M!	c #DAEA75",
"N!	c #DFED89",
"O!	c #E5F09F",
"P!	c #B5D257",
"Q!	c #76A806",
"R!	c #95BD2B",
"S!	c #DAEA7D",
"T!	c #D7E870",
"U!	c #D3E664",
"V!	c #D3E663",
"W!	c #D6E86C",
"X!	c #DBEB80",
"Y!	c #CDE278",
"Z!	c #9CC32D",
"[!	c #88B809",
"]!	c #B2D244",
"^!	c #E3EF9C",
"_!	c #B3D251",
"`!	c #8BBA0C",
"a!	c #99C222",
"b!	c #A9CC37",
"c!	c #C4DD55",
"d!	c #D8E977",
"e!	c #88B41B",
"f!	c #6FA107",
"g!	c #A6C73B",
"h!	c #D1E469",
"i!	c #CDE25D",
"j!	c #A4C82C",
"k!	c #9FC527",
"l!	c #BED84A",
"m!	c #CAE15A",
"n!	c #BFD94B",
"o!	c #9EC526",
"p!	c #A2C72A",
"q!	c #C5DD53",
"r!	c #D1E56A",
"s!	c #9FC335",
"t!	c #679A08",
"u!	c #AFCD45",
"v!	c #CCE263",
"w!	c #CCE15D",
"x!	c #9EC329",
"y!	c #CCE163",
"z!	c #A9C940",
"{!	c #5F9208",
"|!	c #B3D04B",
"}!	c #C8DE5E",
"~!	c #C8DF5B",
" #	c #AECE40",
"!#	c #E8F2AC",
"##	c #E8F2AD",
"$#	c #B9D54B",
"%#	c #C8DF5E",
"&#	c #AFCD48",
"'#	c #578B09",
"(#	c #B3D14C",
")#	c #BBD753",
"*#	c #8DB624",
"+#	c #93BB2A",
",#	c #B2D04B",
"-#	c #50840A",
".#	c #B4D24C",
"0#	c #B4D34F",
"1#	c #B3D24B",
"2#	c #7AA819",
"3#	c #7EAB1C",
"4#	c #B0CF4A",
"5#	c #497E0B",
"6#	c #BDDA58",
"7#	c #C0DB5A",
"8#	c #BAD854",
"9#	c #B7D651",
":#	c #6B9B12",
";#	c #6F9E15",
"<#	c #BCD956",
"=#	c #C1DC5C",
">#	c #B9D655",
"?#	c #457712",
"@#	c #578818",
"A#	c #85AB37",
"B#	c #94B742",
"C#	c #A6C54E",
"D#	c #5E900F",
"E#	c #76A02E",
"F#	c #508213",
"G#	c #457710",
"H#	c #447018",
"I#	c #437115",
"J#	c #437313",
"K#	c #4F830A",
"L#	c #437215",
"M#	c #456F1B",
"N#	c #B5D44F",
"O#	c #B4D44E",
"P#	c #B2D34B",
"Q#	c #B0D149",
"R#	c #AED047",
"S#	c #AFD148",
"T#	c #B1D24A",
"U#	c #B3D34D",
"V#	c #B6D54F",
"W#	c #B8D651",
"X#	c #467612",
"Y#	c #AFCC54",
"Z#	c #CAE166",
"[#	c #BCD65C",
"]#	c #9EBF48",
"^#	c #457711",
"_#	c #427312",
"`#	c #417310",
"a#	c #417311",
"b#	c #427311",
"c#	c #40750C",
"d#	c #41740F",
"e#	c #427214",
"                                                                ",
"                # # # # # #       # # # # # #                   ",
"              $ % & ' ( ) * $   $ % & ' ( ) * $                 ",
"            + , - . 0 1 2 3 4 + , - . 0 1 2 3 4 +               ",
"            5 6 7 8 8 8 8 9 : ; < = > 8 8 8 ? @ A               ",
"          B C D E E E F G % & ' ( ) * H I E E D C B             ",
"          J K L M M M N , - . 0 1 2 3 4 O M M P Q J             ",
"          R S T U U V 5 6 7 8 8 8 8 ? @ A W U X Y R             ",
"          Z [ ] ^ ^ _ C D E E E E E E D C _ ^ ] ` a             ",
"          b c d e e f K L M M M M M M P Q g e d h b             ",
"          i j k l m R S T U U U U U U X Y n o k j i             ",
"            p q r s Z [ ] ^ ^ ^ ^ ^ ^ ] ` Z t u v               ",
"            w x y z { c d e e e e e e d h | y } w               ",
"              ~  !!!#!j k l m m m m o k j $!%!~                 ",
"                &!&!&!'!q r (!)!)!(!t u v &!&!                  ",
"          # # #       w x y z *!*!+!y } w     # # # #           ",
"      ,!-!.!0!1!,!      2! !!!3!3!4!%!5!    ,!6!7!8!9!:!,!      ",
"    ;!<!=!>!?!@!A!B!C!D!<!E!F!&!&!G!H!C!C!I!J!K!L!M!N!O!P!;!    ",
"  Q!R!S!T!U!V!W!X!Y!Z![!]!T!U!V!W!X!^!_!`!a!b!c!V!V!V!7 d!e!    ",
"  f!g!h!M M M i!j!-!.!0!1!k!l!m!m!n!o!6!7!8!9!:!p!q!M M r!s!f!  ",
"  t!u!v!w!w!w!x!<!=!>!?!@!A!B!C!C!I!J!K!L!M!N!O!P!x!w!w!y!z!t!  ",
"  {!|!}!~!~! #R!S!T!U!V!W!X!^!!###^!X!W!V!V!V!7 d!e!$#~!%#&#{!  ",
"  '#(#)#m m *#g!h!M M M M M M M M M M M M M M M r!s!+#m )#,#'#  ",
"  -#.#0#1#1#2#u!v!w!w!w!w!w!w!w!w!w!w!w!w!w!w!w!y!z!3#1#.#4#-#  ",
"  5#6#7#8#9#:#|!}!~!~!~!~!~!~!~!~!~!~!~!~!~!~!~!%#&#;#<#=#>#5#  ",
"  ?#@#A#B#C#D#(#)#m m m m m m m m m m m m m m m )#,#D#B#E#F#G#  ",
"      H#I#J#-#.#0#1#1#1#1#1#1#1#1#1#1#1#1#1#1#1#.#4#K#L#M#      ",
"            5#6#7#8#9#N#O#P#Q#R#R#S#T#U#O#V#W#<#=#>#5#          ",
"            X#@#A#B#C#Y#Y#Y#Z#Z#Z#Z#[#Y#Y#Y#]#B#E#F#^#          ",
"                H#I#_#`#a#b#c#c#c#c#d#b#b#`#e#L#M#              ",
"                                                                ",
"                                                                "};