/* XPM */ 
static const char * objectimage_xpm[] = {
"32 32 188 2",
"  	c None",
"! 	c black",
"# 	c #86B704",
"$ 	c #83B404",
"% 	c #A7CA40",
"& 	c #C9DF7B",
"' 	c #DFEDA2",
"( 	c #E3EFA8",
") 	c #CAE07D",
"* 	c #A6C93D",
"+ 	c #7FB005",
", 	c #BBD65D",
"- 	c #E4F099",
". 	c #DEED83",
"0 	c #DAEA74",
"1 	c #DAEA73",
"2 	c #DDEC81",
"3 	c #E3F099",
"4 	c #AFCE4C",
"5 	c #94BD25",
"6 	c #DBEA7C",
"7 	c #D7E86D",
"8 	c #D5E764",
"9 	c #D8E970",
": 	c #DCEB80",
"; 	c #93BC24",
"< 	c #75A706",
"= 	c #B1CE44",
"> 	c #D6E770",
"? 	c #D2E562",
"@ 	c #6FA207",
"A 	c #C1DA55",
"B 	c #D2E569",
"C 	c #D0E460",
"D 	c #D2E568",
"E 	c #C0D953",
"F 	c #699C07",
"G 	c #C8DF5D",
"H 	c #CDE261",
"I 	c #CCE25F",
"J 	c #CEE262",
"K 	c #C7DE5C",
"L 	c #649709",
"M 	c #C5DD5A",
"N 	c #C3DC58",
"O 	c #C2DB56",
"P 	c #C5DC5A",
"Q 	c #639608",
"R 	c #5D9009",
"S 	c #B1CF4C",
"T 	c #C2DC58",
"U 	c #BDD952",
"V 	c #B2D04D",
"W 	c #578A09",
"X 	c #83AB2A",
"Y 	c #C3DC5B",
"Z 	c #BBD752",
"[ 	c #B9D64F",
"] 	c #BBD751",
"^ 	c #51850A",
"_ 	c #A7C848",
"` 	c #BDD955",
"a 	c #B5D34C",
"b 	c #B4D34B",
"c 	c #BDD855",
"d 	c #ADCC4C",
"e 	c #52860B",
"f 	c #4C800B",
"g 	c #5E8E17",
"h 	c #B9D556",
"i 	c #B8D552",
"j 	c #B0D049",
"k 	c #B7D551",
"l 	c #609019",
"m 	c #477C0B",
"n 	c #679520",
"o 	c #C8E064",
"p 	c #CBE267",
"q 	c #C9E165",
"r 	c #6D9A24",
"s 	c #43780C",
"t 	c #82B304",
"u 	c #94BE21",
"v 	c #C7DE78",
"w 	c #E0EDA4",
"x 	c #A8CA42",
"y 	c #ADCD4A",
"z 	c #E8F2B0",
"{ 	c #D8E895",
"| 	c #C1DA6E",
"} 	c #99C12A",
"~ 	c #7DAE05",
" !	c #ABCC49",
"!!	c #E3EF9B",
"#!	c #DEEC85",
"$!	c #DDEC7F",
"%!	c #E2EE93",
"&!	c #C0D86E",
"'!	c #97BE2F",
"(!	c #85B312",
")!	c #96BE2D",
"*!	c #C1D96F",
"+!	c #E1EE8E",
",!	c #DBEA78",
"-!	c #DAEA75",
".!	c #DFED89",
"0!	c #E5F09F",
"1!	c #B5D257",
"2!	c #76A806",
"3!	c #95BD2B",
"4!	c #DAEA7D",
"5!	c #D7E870",
"6!	c #D3E664",
"7!	c #D3E663",
"8!	c #D6E86C",
"9!	c #DBEB80",
":!	c #E3EF9C",
";!	c #E8F2AC",
"<!	c #E8F2AD",
"=!	c #D8E977",
">!	c #88B41B",
"?!	c #6FA107",
"@!	c #A6C73B",
"A!	c #D1E469",
"B!	c #D1E56A",
"C!	c #9FC335",
"D!	c #679A08",
"E!	c #AFCD45",
"F!	c #CCE263",
"G!	c #CCE15D",
"H!	c #CCE163",
"I!	c #A9C940",
"J!	c #5F9208",
"K!	c #B3D04B",
"L!	c #C8DE5E",
"M!	c #C8DF5B",
"N!	c #C8DF5E",
"O!	c #AFCD48",
"P!	c #578B09",
"Q!	c #B3D14C",
"R!	c #BBD753",
"S!	c #B2D04B",
"T!	c #50840A",
"U!	c #B4D24C",
"V!	c #B4D34F",
"W!	c #B3D24B",
"X!	c #B0CF4A",
"Y!	c #497E0B",
"Z!	c #BDDA58",
"[!	c #C0DB5A",
"]!	c #BAD854",
"^!	c #B7D651",
"_!	c #B5D44F",
"`!	c #B4D44E",
"a!	c #B2D34B",
"b!	c #B0D149",
"c!	c #AED047",
"d!	c #AFD148",
"e!	c #B1D24A",
"f!	c #B3D34D",
"g!	c #B6D54F",
"h!	c #B8D651",
"i!	c #BCD956",
"j!	c #C1DC5C",
"k!	c #B9D655",
"l!	c #457712",
"m!	c #578818",
"n!	c #85AB37",
"o!	c #94B742",
"p!	c #A6C54E",
"q!	c #AFCC54",
"r!	c #CAE166",
"s!	c #BCD65C",
"t!	c #9EBF48",
"u!	c #76A02E",
"v!	c #508213",
"w!	c #457710",
"x!	c #447018",
"y!	c #437115",
"z!	c #427312",
"{!	c #417310",
"|!	c #417311",
"}!	c #427311",
"~!	c #40750C",
" #	c #41740F",
"!#	c #427214",
"##	c #437215",
"$#	c #456F1B",
"                                                                ",
"                                                                ",
"                                                                ",
"                                                                ",
"                          # # # # # #                           ",
"                        $ % & ' ( ) * $                         ",
"                      + , - . 0 1 2 3 4 +                       ",
"                      5 6 7 8 8 8 8 9 : ;                       ",
"                    < = > ? ? ? ? ? ? > = <                     ",
"                    @ A B C C C C C C D E @                     ",
"                    F G H I I I I I I J K F                     ",
"                    L M N O O O O O O N P Q                     ",
"                    R S T U U U U U U T V R                     ",
"                    W X Y Z [ [ [ [ ] Y X W                     ",
"                      ^ _ ` a b b a c d e                       ",
"                      f g h i j j k h l f                       ",
"                        m n o p p q r m                         ",
"                          s s s s s s                           ",
"                    # # #             # # # #                   ",
"                t u v w x t         t y z { | } t               ",
"              ~  !!!#!$!%!&!'!(!(!)!*!+!,!-!.!0!1!~             ",
"            2!3!4!5!6!7!8!9!:!;!<!:!9!8!7!7!7!7 =!>!            ",
"            ?!@!A!C C C C C C C C C C C C C C C B!C!?!          ",
"            D!E!F!G!G!G!G!G!G!G!G!G!G!G!G!G!G!G!H!I!D!          ",
"            J!K!L!M!M!M!M!M!M!M!M!M!M!M!M!M!M!M!N!O!J!          ",
"            P!Q!R![ [ [ [ [ [ [ [ [ [ [ [ [ [ [ R!S!P!          ",
"            T!U!V!W!W!W!W!W!W!W!W!W!W!W!W!W!W!W!U!X!T!          ",
"            Y!Z![!]!^!_!`!a!b!c!c!d!e!f!`!g!h!i!j!k!Y!          ",
"            l!m!n!o!p!q!q!q!r!r!r!r!s!q!q!q!t!o!u!v!w!          ",
"                x!y!z!{!|!}!~!~!~!~! #}!}!{!!###$#              ",
"                                                                ",
"                                                                "};