/* XPM */ 
static const char * refresh_xpm[] = {
"32 32 332 2",
"  	c None",
"! 	c black",
"# 	c #0062C8",
"$ 	c #0062C6",
"% 	c #0062C7",
"& 	c #0061C6",
"' 	c #005FC6",
"( 	c #2D7FD0",
") 	c #C0E2F4",
"* 	c #B2DCF2",
"+ 	c #ADDAF1",
", 	c #AEDAF1",
"- 	c #0D69C7",
". 	c #0060C5",
"0 	c #0B68C6",
"1 	c #0766C6",
"2 	c #005EC1",
"3 	c #005CBE",
"4 	c #4B92D5",
"5 	c #A3D4EF",
"6 	c #93CDEC",
"7 	c #92CCEC",
"8 	c #96CEED",
"9 	c #9ECDED",
": 	c #005FC1",
"; 	c #005EBF",
"< 	c #1C72C9",
"= 	c #B7D9F1",
"> 	c #BDDEF2",
"? 	c #488FD4",
"@ 	c #005EC2",
"A 	c #0660BF",
"B 	c #8CC4E8",
"C 	c #91CAEB",
"D 	c #8EC9EB",
"E 	c #98CEEC",
"F 	c #84B9E4",
"G 	c #005ABC",
"H 	c #337FCC",
"I 	c #C3E1F3",
"J 	c #BEE0F3",
"K 	c #B9DEF2",
"L 	c #C3E3F4",
"M 	c #88BAE3",
"N 	c #035BBA",
"O 	c #89BCE4",
"P 	c #9ACEEC",
"Q 	c #8DC8EA",
"R 	c #8CC7EA",
"S 	c #9BCEEC",
"T 	c #65A1D8",
"U 	c #005AB8",
"V 	c #1568BF",
"W 	c #7AAEDE",
"X 	c #BCDEF2",
"Y 	c #B4DBF1",
"Z 	c #B1D9F1",
"[ 	c #BADDF2",
"] 	c #97C3E7",
"^ 	c #0057B7",
"_ 	c #0057B5",
"` 	c #71A9DA",
"a 	c #9ACDEC",
"b 	c #8AC5E8",
"c 	c #8CC6E9",
"d 	c #92C9EA",
"e 	c #8EC7E9",
"f 	c #88C4E8",
"g 	c #9DCEEC",
"h 	c #397FC8",
"i 	c #0057B3",
"j 	c #1E6CBF",
"k 	c #A6CEEB",
"l 	c #B1D8F0",
"m 	c #AAD5EF",
"n 	c #B5DAF1",
"o 	c #7BAFDD",
"p 	c #2B73C0",
"q 	c #9ECDEB",
"r 	c #88C2E7",
"s 	c #89C4E7",
"t 	c #9BCCEA",
"u 	c #498ACB",
"v 	c #93C4E8",
"w 	c #8EC6E9",
"x 	c #A0CFEC",
"y 	c #0C5BB6",
"z 	c #0050B2",
"{ 	c #0A5AB5",
"| 	c #94C1E4",
"} 	c #AAD4EE",
"~ 	c #A2D0ED",
" !	c #B1D7F0",
"!!	c #357BC4",
"#!	c #0053B2",
"$!	c #004EAA",
"%!	c #87B7E0",
"&!	c #8AC2E7",
"'!	c #83BFE6",
"(!	c #97C9EA",
")!	c #4180C5",
"*!	c #0050AC",
"+!	c #2169B9",
",!	c #9FCCEA",
"-!	c #9AC6E8",
".!	c #004EAB",
"0!	c #0654AE",
"1!	c #9FC9E8",
"2!	c #9FCDEC",
"3!	c #9FCDEB",
"4!	c #A2CAE9",
"5!	c #004FAB",
"6!	c #1F64B3",
"7!	c #98C9E9",
"8!	c #7DBAE4",
"9!	c #89C1E6",
":!	c #70A5D5",
";!	c #004BA7",
"<!	c #004CA4",
"=!	c #3A7ABF",
">!	c #7DACD9",
"?!	c #004DA7",
"@!	c #004BA8",
"A!	c #2166B4",
"B!	c #A4CEEC",
"C!	c #93C5E8",
"D!	c #A3CEEC",
"E!	c #4482C3",
"F!	c #004AA1",
"G!	c #5D92CA",
"H!	c #88BFE5",
"I!	c #79B6E1",
"J!	c #94C4E6",
"K!	c #0E54A8",
"L!	c #1156A9",
"M!	c #0047A1",
"N!	c #81B0DA",
"O!	c #91C3E6",
"P!	c #92C4E7",
"Q!	c #85B2DB",
"R!	c #0049A1",
"S!	c #00449C",
"T!	c #7FADD9",
"U!	c #7CB6E1",
"V!	c #77A7D6",
"W!	c #00469E",
"X!	c #3E77B9",
"Y!	c #93C3E6",
"Z!	c #83BAE3",
"[!	c #94BFE3",
"]!	c #00459C",
"^!	c #004197",
"_!	c #87B5DE",
"`!	c #71AEDE",
"a!	c #80B6E1",
"b!	c #5085BF",
"c!	c #004398",
"d!	c #104FA0",
"e!	c #92C1E5",
"f!	c #76B1DF",
"g!	c #97C4E6",
"h!	c #004298",
"i!	c #003D92",
"j!	c #88B8E0",
"k!	c #69A8DB",
"l!	c #80B5E1",
"m!	c #346AAD",
"n!	c #084497",
"o!	c #8DBDE3",
"p!	c #6DAADC",
"q!	c #8FBEE4",
"r!	c #0D499A",
"s!	c #00398D",
"t!	c #4F94D0",
"u!	c #1A77C6",
"v!	c #3E8DCF",
"w!	c #1A539E",
"x!	c #144D9A",
"y!	c #408ED0",
"z!	c #1675C5",
"{!	c #4E96D3",
"|!	c #023B8E",
"}!	c #003687",
"~!	c #4E8CC9",
" #	c #1C76C6",
"!#	c #3887CD",
"##	c #255AA1",
"$#	c #003888",
"%#	c #366AAC",
"&#	c #3283CB",
"'#	c #1B76C5",
"(#	c #4F8FCB",
")#	c #003787",
"*#	c #003281",
"+#	c #4D83BE",
",#	c #2579C6",
"-#	c #2C7DC8",
".#	c #3C6EAE",
"0#	c #003384",
"1#	c #023484",
"2#	c #003383",
"3#	c #4B86C2",
"4#	c #1F75C5",
"5#	c #267AC7",
"6#	c #457AB7",
"7#	c #002F7B",
"8#	c #2B5B9E",
"9#	c #3480C8",
":#	c #1C71C2",
";#	c #4A84C2",
"<#	c #002F7E",
"=#	c #25559A",
">#	c #3C6CAB",
"?#	c #00307E",
"@#	c #00307C",
"A#	c #215197",
"B#	c #3983CA",
"C#	c #136BBF",
"D#	c #3983C9",
"E#	c #2A5A9D",
"F#	c #003180",
"G#	c #04317C",
"H#	c #4C8ACB",
"I#	c #176BBF",
"J#	c #3880C8",
"K#	c #1F4C91",
"L#	c #002D79",
"M#	c #002B76",
"N#	c #4472AF",
"O#	c #5593D0",
"P#	c #2C5A9C",
"Q#	c #002B77",
"R#	c #06327E",
"S#	c #4A86C5",
"T#	c #1A6DC0",
"U#	c #186CBF",
"V#	c #4E89C7",
"W#	c #012E7A",
"X#	c #022973",
"Y#	c #436EAB",
"Z#	c #2A75C4",
"[#	c #1A6CC0",
"]#	c #4A83C3",
"^#	c #042C76",
"_#	c #002971",
"`#	c #002875",
"a#	c #4981C1",
"b#	c #206FC1",
"c#	c #3F82C8",
"d#	c #204B90",
"e#	c #4277B8",
"f#	c #2371C2",
"g#	c #0F64BC",
"h#	c #317AC6",
"i#	c #335D9D",
"j#	c #002675",
"k#	c #052B73",
"l#	c #4C83C2",
"m#	c #1A69BE",
"n#	c #226EC0",
"o#	c #497AB8",
"p#	c #002370",
"q#	c #0F357C",
"r#	c #3E81C8",
"s#	c #0B5FBA",
"t#	c #1364BC",
"u#	c #216EC0",
"v#	c #0D60BA",
"w#	c #1C6ABF",
"x#	c #4C7FBD",
"y#	c #022870",
"z#	c #002469",
"{#	c #1C4184",
"|#	c #4381C7",
"}#	c #1865BC",
"~#	c #236DBF",
" $	c #4679BA",
"!$	c #00246B",
"#$	c #002368",
"$$	c #00226B",
"%$	c #345A98",
"&$	c #2A71C1",
"'$	c #075AB7",
"($	c #1462BB",
")$	c #4781C5",
"*$	c #14377C",
"+$	c #022067",
",$	c #214384",
"-$	c #427EC5",
".$	c #1763BB",
"0$	c #1864BB",
"1$	c #3E7DC7",
"2$	c #5A82B9",
"3$	c #0E2E73",
"4$	c #021F68",
"5$	c #436EAD",
"6$	c #1964BC",
"7$	c #0557B6",
"8$	c #2069BE",
"9$	c #1D4082",
":$	c #021E68",
";$	c #021D62",
"<$	c #1C3B7D",
"=$	c #497FC2",
">$	c #2A6EBF",
"?$	c #417DC6",
"@$	c #3A5D9A",
"A$	c #001E64",
"B$	c #021F64",
"C$	c #457DC2",
"D$	c #0C59B6",
"E$	c #0454B4",
"F$	c #1861BA",
"G$	c #426EAE",
"H$	c #02195B",
"I$	c #0B2669",
"J$	c #4C70AA",
"K$	c #234181",
"L$	c #021957",
"M$	c #1D3B7B",
"N$	c #6495D1",
"O$	c #3F7BC5",
"P$	c #3E7BC5",
"Q$	c #6294D0",
"R$	c #4265A0",
"S$	c #02185A",
"T$	c #000A2F",
"U$	c #001550",
"V$	c #000C32",
"W$	c #00134A",
"X$	c #01195C",
"Y$	c #021750",
"                                                                ",
"                                                                ",
"                                                                ",
"                                                                ",
"          # $ % % % % % % & '                                   ",
"          ( ) * + + + + , ) -         . 0 1 2                   ",
"          3 4 5 6 7 7 7 8 9 :       ; < = > ? @                 ",
"            A B C D D D E F G       H I J K L M G               ",
"          N O P Q R R R S T U       V W X Y Z [ ] ^             ",
"        _ ` a b c d e f g h           i j k l m n o _           ",
"        p q r s t u v w x y             z { | } ~  !!!#!        ",
"      $!%!&!'!(!)!*!+!,!-!.!                0!1!2!3!4!5!        ",
"      6!7!8!9!:!;!  <!=!>!?!                @!A!B!C!D!E!        ",
"    F!G!H!I!J!K!        L!                    M!N!O!P!Q!R!      ",
"    S!T!U!U!V!W!                                X!Y!Z![!]!      ",
"    ^!_!`!a!b!c!                                d!e!f!g!h!      ",
"    i!j!k!l!m!                                  n!o!p!q!r!      ",
"    s!t!u!v!w!                                  x!y!z!{!|!      ",
"    }!~! #!###                                $#%#&#'#(#)#      ",
"    *#+#,#-#.#0#                    1#0#      2#3#4#5#6#2#      ",
"    7#8#9#:#;#<#                    =#>#?#  @#A#B#C#D#E#F#      ",
"      G#H#I#J#K#L#                M#N#O#P#Q#R#S#T#U#V#W#        ",
"      X#Y#Z#[#]#^#_#              `#a#b#c#d#e#f#g#h#i#j#        ",
"        k#l#m#n#o#k#p#            q#r#s#t#u#m#v#w#x#y#          ",
"        z#{#|#}#~# ${#!$#$      $$%$&$'$'$'$'$($)$*$!$          ",
"          +$,$-$.$0$1$2$3$      4$5$6$7$7$7$7$8$9$:$            ",
"            ;$<$=$>$?$@$A$      B$C$D$E$E$E$E$F$G$B$            ",
"              H$I$J$K$L$        M$N$O$P$P$P$P$?$Q$R$S$          ",
"                T$U$V$! ! ! ! ! W$X$X$X$X$X$X$X$X$Y$            ",
"                    ! ! ! ! ! ! ! ! ! ! ! !                     ",
"                                                                ",
"                                                                "};